<?xml version="1.0" encoding="utf-8"?>
<!-- Generator: Adobe Illustrator 18.0.0, SVG Export Plug-In . SVG Version: 6.00 Build 0)  -->
<!DOCTYPE svg PUBLIC "-//W3C//DTD SVG 1.1//EN" "http://www.w3.org/Graphics/SVG/1.1/DTD/svg11.dtd">
<svg version="1.1" id="Layer_1" xmlns="http://www.w3.org/2000/svg" xmlns:xlink="http://www.w3.org/1999/xlink" x="0px" y="0px"
	 viewBox="0 0 1130.6 1172.5" enable-background="new 0 0 1130.6 1172.5" xml:space="preserve">
<path opacity="0.41" fill="#D0E2DF" d="M565.7,3.2V0h-3.2c0,0.5,0.1,0.9,0.3,1.3l-51.3,29.6c-0.4-0.7-1.1-1.2-1.9-1.4V0h-0.8v29.4
	c0,0,0,0,0,0c-1,0-1.9,0.5-2.5,1.2L455.5,1.3c0.2-0.4,0.3-0.8,0.3-1.3h-6.5c0,0.5,0.1,0.9,0.3,1.3l-51.3,29.6
	c-0.4-0.7-1.1-1.2-1.9-1.4V0h-0.8v29.4c0,0,0,0,0,0c-1,0-1.9,0.5-2.5,1.2L342.4,1.3c0.2-0.4,0.3-0.8,0.3-1.3h-6.5
	c0,0.5,0.1,0.9,0.3,1.3l-51.3,29.6c-0.4-0.7-1.1-1.2-1.9-1.4V0h-0.8v29.4c0,0,0,0,0,0c-1,0-1.9,0.5-2.5,1.2L229.3,1.3
	c0.2-0.4,0.3-0.8,0.3-1.3H223c0,0.5,0.1,0.9,0.3,1.3L172,30.9c-0.4-0.7-1.1-1.2-1.9-1.4V0h-0.8v29.4c0,0,0,0,0,0
	c-1,0-1.9,0.5-2.5,1.2L116.1,1.3c0.2-0.4,0.3-0.8,0.3-1.3h-6.5c0,0.5,0.1,0.9,0.3,1.3L58.9,30.9c-0.4-0.7-1.1-1.2-1.9-1.4V0h-0.8
	v29.4c0,0,0,0,0,0c-1,0-1.9,0.5-2.5,1.2L3,1.3C3.2,0.9,3.3,0.5,3.3,0H0v3.2c1.1,0,2-0.5,2.6-1.3l50.7,29.3c-0.2,0.4-0.4,0.9-0.4,1.5
	s0.1,1,0.4,1.5L2.6,63.4C2,62.6,1.1,62.1,0,62.1v137.1c1.1,0,2-0.5,2.6-1.3l50.7,29.3c-0.2,0.4-0.4,0.9-0.4,1.5c0,0.5,0.1,1,0.4,1.4
	L2.6,259.3C2,258.5,1.1,258,0,258v137.1c1.1,0,2-0.5,2.6-1.3l50.7,29.3c-0.2,0.4-0.4,0.9-0.4,1.5c0,0.5,0.1,1,0.4,1.4L2.6,455.3
	C2,454.5,1.1,454,0,454v133.9h3.2c0-1.7-1.3-3-2.9-3.2l0-58.9c0.9-0.1,1.7-0.6,2.2-1.3l50.7,29.3c-0.2,0.4-0.4,0.9-0.4,1.5
	c0,1.8,1.5,3.2,3.2,3.2c0,0,0,0,0,0v29.4H57v-29.5c1.4-0.4,2.5-1.6,2.5-3.1c0-0.4-0.1-0.7-0.2-1.1l51.3-29.6
	c0.5,0.7,1.3,1.2,2.2,1.3l0,58.9c-1.6,0.2-2.9,1.5-2.9,3.2h6.5c0-1.7-1.3-3-2.9-3.2l0-58.9c0.9-0.1,1.7-0.6,2.2-1.3l50.7,29.3
	c-0.2,0.4-0.4,0.9-0.4,1.5c0,1.8,1.5,3.2,3.2,3.2c0,0,0,0,0,0v29.4h0.8v-29.5c1.4-0.4,2.5-1.6,2.5-3.1c0-0.4-0.1-0.7-0.2-1.1
	l51.3-29.6c0.5,0.7,1.3,1.2,2.2,1.3l0,58.9c-1.6,0.2-2.9,1.5-2.9,3.2h6.5c0-1.7-1.3-3-2.9-3.2l0-58.9c0.9-0.1,1.7-0.6,2.2-1.3
	l50.7,29.3c-0.2,0.4-0.4,0.9-0.4,1.5c0,1.8,1.5,3.2,3.2,3.2c0,0,0,0,0,0l0,29.4h0.8l0-29.5c1.4-0.4,2.5-1.6,2.5-3.1
	c0-0.4-0.1-0.7-0.2-1.1l51.3-29.6c0.5,0.7,1.3,1.2,2.2,1.3l0,58.9c-1.6,0.2-2.9,1.5-2.9,3.2h6.5c0-1.7-1.3-3-2.9-3.2l0-58.9
	c0.9-0.1,1.7-0.6,2.2-1.3l50.7,29.3c-0.2,0.4-0.4,0.9-0.4,1.5c0,1.8,1.5,3.2,3.2,3.2c0,0,0,0,0,0v29.4h0.8v-29.5
	c1.4-0.4,2.5-1.6,2.5-3.1c0-0.4-0.1-0.7-0.2-1.1l51.3-29.6c0.5,0.7,1.3,1.2,2.2,1.3l0,58.9c-1.6,0.2-2.9,1.5-2.9,3.2h6.5
	c0-1.7-1.3-3-2.9-3.2l0-58.9c0.9-0.1,1.7-0.6,2.2-1.3l50.7,29.3c-0.2,0.4-0.4,0.9-0.4,1.5c0,1.8,1.5,3.2,3.2,3.2c0,0,0,0,0,0v29.4
	h0.8v-29.5c1.4-0.4,2.5-1.6,2.5-3.1c0-0.4-0.1-0.7-0.2-1.1l51.3-29.6c0.5,0.7,1.3,1.2,2.2,1.3l0,58.9c-1.6,0.2-2.9,1.5-2.9,3.2h3.2
	V454c-1.1,0-2,0.5-2.6,1.3l-51.3-29.6c0.1-0.3,0.2-0.7,0.2-1.1c0-0.4-0.1-0.7-0.2-1.1l51.3-29.6c0.6,0.8,1.5,1.3,2.6,1.3V258
	c-1.1,0-2,0.5-2.6,1.3l-51.3-29.6c0.1-0.3,0.2-0.7,0.2-1.1c0-0.4-0.1-0.7-0.2-1.1l51.3-29.6c0.6,0.8,1.5,1.3,2.6,1.3V62.1
	c-1.1,0-2,0.5-2.6,1.3l-51.3-29.6c0.1-0.3,0.2-0.7,0.2-1.1c0-0.4-0.1-0.7-0.2-1.1l51.3-29.6C563.7,2.7,564.6,3.2,565.7,3.2z
	 M511.4,99.8l51.3,29.6c-0.2,0.4-0.3,0.8-0.3,1.3c0,0.5,0.1,0.9,0.3,1.3l-51.3,29.6c-0.6-0.9-1.6-1.5-2.7-1.5c-1,0-1.9,0.5-2.5,1.2
	l-50.7-29.3c0.2-0.4,0.3-0.8,0.3-1.3c0-0.5-0.1-0.9-0.3-1.3l50.7-29.3c0.6,0.7,1.5,1.2,2.5,1.2C509.9,101.2,510.9,100.6,511.4,99.8z
	 M562.7,327.9l-51.3,29.6c-0.6-0.9-1.6-1.5-2.7-1.5c-1,0-1.9,0.5-2.5,1.2l-50.7-29.3c0.2-0.4,0.3-0.8,0.3-1.3s-0.1-0.9-0.3-1.3
	l50.7-29.3c0.6,0.7,1.5,1.2,2.5,1.2c1.1,0,2.1-0.6,2.7-1.5l51.3,29.6c-0.2,0.4-0.3,0.8-0.3,1.3C562.4,327,562.5,327.5,562.7,327.9z
	 M452.9,388.7l0-58.9c0.9-0.1,1.7-0.6,2.2-1.3l50.7,29.3c-0.2,0.4-0.4,0.9-0.4,1.5c0,1.8,1.5,3.2,3.2,3.2c0,0,0,0,0,0l0,58.8
	c0,0,0,0,0,0c-1,0-1.9,0.5-2.5,1.2l-50.7-29.3c0.2-0.4,0.3-0.8,0.3-1.3C455.8,390.2,454.5,388.9,452.9,388.7z M449.6,393.2
	l-51.3,29.6c-0.4-0.7-1.1-1.2-1.9-1.4l0-59c1.4-0.4,2.5-1.6,2.5-3.1c0-0.4-0.1-0.7-0.2-1.1l51.3-29.6c0.5,0.7,1.3,1.2,2.2,1.3
	l0,58.9c-1.6,0.2-2.9,1.5-2.9,3.2C449.3,392.4,449.4,392.8,449.6,393.2z M339.8,388.7l0-58.9c0.9-0.1,1.7-0.6,2.2-1.3l50.7,29.3
	c-0.2,0.4-0.4,0.9-0.4,1.5c0,1.8,1.5,3.2,3.2,3.2c0,0,0,0,0,0l0,58.8c0,0,0,0,0,0c-1,0-1.9,0.5-2.5,1.2l-50.7-29.3
	c0.2-0.4,0.3-0.8,0.3-1.3C342.7,390.2,341.4,388.9,339.8,388.7z M336.4,393.2l-51.3,29.6c-0.4-0.7-1.1-1.2-1.9-1.4l0-59
	c1.4-0.4,2.5-1.6,2.5-3.1c0-0.4-0.1-0.7-0.2-1.1l51.3-29.6c0.5,0.7,1.3,1.2,2.2,1.3l0,58.9c-1.6,0.2-2.9,1.5-2.9,3.2
	C336.2,392.4,336.3,392.8,336.4,393.2z M226.7,388.7l0-58.9c0.9-0.1,1.7-0.6,2.2-1.3l50.7,29.3c-0.2,0.4-0.4,0.9-0.4,1.5
	c0,1.8,1.5,3.2,3.2,3.2c0,0,0,0,0,0l0,58.8c0,0,0,0,0,0c-1,0-1.9,0.5-2.5,1.2l-50.7-29.3c0.2-0.4,0.3-0.8,0.3-1.3
	C229.5,390.2,228.3,388.9,226.7,388.7z M223.3,393.2L172,422.8c-0.4-0.7-1.1-1.2-1.9-1.4l0-59c1.4-0.4,2.5-1.6,2.5-3.1
	c0-0.4-0.1-0.7-0.2-1.1l51.3-29.6c0.5,0.7,1.3,1.2,2.2,1.3l0,58.9c-1.6,0.2-2.9,1.5-2.9,3.2C223,392.4,223.1,392.8,223.3,393.2z
	 M113.5,388.7l0-58.9c0.9-0.1,1.7-0.6,2.2-1.3l50.7,29.3c-0.2,0.4-0.4,0.9-0.4,1.5c0,1.8,1.5,3.2,3.2,3.2c0,0,0,0,0,0l0,58.8
	c0,0,0,0,0,0c-1,0-1.9,0.5-2.5,1.2l-50.7-29.3c0.2-0.4,0.3-0.8,0.3-1.3C116.4,390.2,115.1,388.9,113.5,388.7z M110.2,393.2
	l-51.3,29.6c-0.4-0.7-1.1-1.2-1.9-1.4l0-59c1.4-0.4,2.5-1.6,2.5-3.1c0-0.4-0.1-0.7-0.2-1.1l51.3-29.6c0.5,0.7,1.3,1.2,2.2,1.3
	l0,58.9c-1.6,0.2-2.9,1.5-2.9,3.2C109.9,392.4,110,392.8,110.2,393.2z M3,325.3L53.7,296c0.6,0.7,1.5,1.2,2.5,1.2
	c1.1,0,2.1-0.6,2.7-1.5l51.3,29.6c-0.2,0.4-0.3,0.8-0.3,1.3s0.1,0.9,0.3,1.3l-51.3,29.6c-0.6-0.9-1.6-1.5-2.7-1.5
	c-1,0-1.9,0.5-2.5,1.2L3,327.9c0.2-0.4,0.3-0.8,0.3-1.3S3.2,325.7,3,325.3z M110.6,324.6L59.2,295c0.1-0.3,0.2-0.7,0.2-1.1
	c0-1.5-1.1-2.8-2.5-3.1v-59c0.8-0.2,1.5-0.7,1.9-1.4l51.3,29.6c-0.2,0.4-0.3,0.8-0.3,1.3c0,1.7,1.3,3,2.9,3.2l0,58.9
	C111.9,323.5,111.1,324,110.6,324.6z M59.2,162.2l51.3-29.6c0.5,0.7,1.3,1.2,2.2,1.3v58.9c-1.6,0.2-2.9,1.5-2.9,3.2
	c0,0.5,0.1,0.9,0.3,1.3l-51.3,29.6c-0.4-0.7-1.1-1.2-1.9-1.4v-59c1.4-0.3,2.5-1.6,2.5-3.1C59.4,162.9,59.4,162.5,59.2,162.2z
	 M110.6,259.3l-51.3-29.6c0.1-0.3,0.2-0.7,0.2-1.1c0-0.4-0.1-0.7-0.2-1.1l51.3-29.6c0.6,0.8,1.5,1.3,2.6,1.3c1.1,0,2-0.5,2.6-1.3
	l50.7,29.3c-0.2,0.4-0.4,0.9-0.4,1.5c0,0.5,0.1,1,0.4,1.4l-50.7,29.3c-0.6-0.8-1.5-1.3-2.6-1.3C112.1,258,111.2,258.5,110.6,259.3z
	 M169.3,166.5C169.3,166.5,169.3,166.5,169.3,166.5l0,58.8c0,0,0,0,0,0c-1,0-1.9,0.5-2.5,1.2l-50.7-29.3c0.2-0.4,0.3-0.8,0.3-1.3
	c0-1.7-1.3-3-2.9-3.2v-58.9c0.9-0.1,1.7-0.6,2.2-1.3l50.7,29.3c-0.2,0.4-0.4,0.9-0.4,1.5C166.1,165.1,167.5,166.5,169.3,166.5z
	 M166.4,295.4l-50.7,29.3c-0.5-0.7-1.3-1.2-2.2-1.3l0-58.9c1.6-0.2,2.9-1.5,2.9-3.2c0-0.5-0.1-0.9-0.3-1.3l50.7-29.3
	c0.6,0.7,1.5,1.2,2.5,1.2c0,0,0,0,0,0v58.8c0,0,0,0,0,0c-1.8,0-3.2,1.5-3.2,3.2C166.1,294.5,166.2,294.9,166.4,295.4z M169.3,356
	c-1,0-1.9,0.5-2.5,1.2l-50.7-29.3c0.2-0.4,0.3-0.8,0.3-1.3s-0.1-0.9-0.3-1.3l50.7-29.3c0.6,0.7,1.5,1.2,2.5,1.2
	c1.1,0,2.1-0.6,2.7-1.5l51.3,29.6c-0.2,0.4-0.3,0.8-0.3,1.3s0.1,0.9,0.3,1.3L172,357.5C171.5,356.6,170.5,356,169.3,356z
	 M223.7,324.6L172.4,295c0.1-0.3,0.2-0.7,0.2-1.1c0-1.5-1.1-2.8-2.5-3.1v-59c0.8-0.2,1.5-0.7,1.9-1.4l51.3,29.6
	c-0.2,0.4-0.3,0.8-0.3,1.3c0,1.7,1.3,3,2.9,3.2l0,58.9C225,323.5,224.2,324,223.7,324.6z M172.4,162.2l51.3-29.6
	c0.5,0.7,1.3,1.2,2.2,1.3v58.9c-1.6,0.2-2.9,1.5-2.9,3.2c0,0.5,0.1,0.9,0.3,1.3L172,226.8c-0.4-0.7-1.1-1.2-1.9-1.4v-59
	c1.4-0.3,2.5-1.6,2.5-3.1C172.6,162.9,172.5,162.5,172.4,162.2z M223.7,259.3l-51.3-29.6c0.1-0.3,0.2-0.7,0.2-1.1
	c0-0.4-0.1-0.7-0.2-1.1l51.3-29.6c0.6,0.8,1.5,1.3,2.6,1.3c1.1,0,2-0.5,2.6-1.3l50.7,29.3c-0.2,0.4-0.4,0.9-0.4,1.5
	c0,0.5,0.1,1,0.4,1.4l-50.7,29.3c-0.6-0.8-1.5-1.3-2.6-1.3C225.2,258,224.3,258.5,223.7,259.3z M282.5,166.5
	C282.5,166.5,282.5,166.5,282.5,166.5l0,58.8c0,0,0,0,0,0c-1,0-1.9,0.5-2.5,1.2l-50.7-29.3c0.2-0.4,0.3-0.8,0.3-1.3
	c0-1.7-1.3-3-2.9-3.2v-58.9c0.9-0.1,1.7-0.6,2.2-1.3l50.7,29.3c-0.2,0.4-0.4,0.9-0.4,1.5C279.2,165.1,280.7,166.5,282.5,166.5z
	 M279.6,295.4l-50.7,29.3c-0.5-0.7-1.3-1.2-2.2-1.3l0-58.9c1.6-0.2,2.9-1.5,2.9-3.2c0-0.5-0.1-0.9-0.3-1.3l50.7-29.3
	c0.6,0.7,1.5,1.2,2.5,1.2c0,0,0,0,0,0v58.8c0,0,0,0,0,0c-1.8,0-3.2,1.5-3.2,3.2C279.2,294.5,279.4,294.9,279.6,295.4z M282.5,356
	c-1,0-1.9,0.5-2.5,1.2l-50.7-29.3c0.2-0.4,0.3-0.8,0.3-1.3s-0.1-0.9-0.3-1.3L280,296c0.6,0.7,1.5,1.2,2.5,1.2c1.1,0,2.1-0.6,2.7-1.5
	l51.3,29.6c-0.2,0.4-0.3,0.8-0.3,1.3c0,0.5,0.1,0.9,0.3,1.3l-51.3,29.6C284.6,356.6,283.6,356,282.5,356z M336.8,324.6L285.5,295
	c0.1-0.3,0.2-0.7,0.2-1.1c0-1.5-1.1-2.8-2.5-3.1v-59c0.8-0.2,1.5-0.7,1.9-1.4l51.3,29.6c-0.2,0.4-0.3,0.8-0.3,1.3
	c0,1.7,1.3,3,2.9,3.2l0,58.9C338.1,323.5,337.3,324,336.8,324.6z M285.5,162.2l51.3-29.6c0.5,0.7,1.3,1.2,2.2,1.3v58.9
	c-1.6,0.2-2.9,1.5-2.9,3.2c0,0.5,0.1,0.9,0.3,1.3l-51.3,29.6c-0.4-0.7-1.1-1.2-1.9-1.4v-59c1.4-0.3,2.5-1.6,2.5-3.1
	C285.7,162.9,285.6,162.5,285.5,162.2z M336.8,259.3l-51.3-29.6c0.1-0.3,0.2-0.7,0.2-1.1c0-0.4-0.1-0.7-0.2-1.1l51.3-29.6
	c0.6,0.8,1.5,1.3,2.6,1.3c1.1,0,2-0.5,2.6-1.3l50.7,29.3c-0.2,0.4-0.4,0.9-0.4,1.5c0,0.5,0.1,1,0.4,1.4L342,259.3
	c-0.6-0.8-1.5-1.3-2.6-1.3C338.4,258,337.4,258.5,336.8,259.3z M395.6,166.5C395.6,166.5,395.6,166.5,395.6,166.5l0,58.8
	c0,0,0,0,0,0c-1,0-1.9,0.5-2.5,1.2l-50.7-29.3c0.2-0.4,0.3-0.8,0.3-1.3c0-1.7-1.3-3-2.9-3.2v-58.9c0.9-0.1,1.7-0.6,2.2-1.3
	l50.7,29.3c-0.2,0.4-0.4,0.9-0.4,1.5C392.3,165.1,393.8,166.5,395.6,166.5z M392.7,295.4L342,324.7c-0.5-0.7-1.3-1.2-2.2-1.3l0-58.9
	c1.6-0.2,2.9-1.5,2.9-3.2c0-0.5-0.1-0.9-0.3-1.3l50.7-29.3c0.6,0.7,1.5,1.2,2.5,1.2c0,0,0,0,0,0v58.8c0,0,0,0,0,0
	c-1.8,0-3.2,1.5-3.2,3.2C392.3,294.5,392.5,294.9,392.7,295.4z M395.6,356c-1,0-1.9,0.5-2.5,1.2l-50.7-29.3c0.2-0.4,0.3-0.8,0.3-1.3
	s-0.1-0.9-0.3-1.3l50.7-29.3c0.6,0.7,1.5,1.2,2.5,1.2c1.1,0,2.1-0.6,2.7-1.5l51.3,29.6c-0.2,0.4-0.3,0.8-0.3,1.3
	c0,0.5,0.1,0.9,0.3,1.3l-51.3,29.6C397.7,356.6,396.7,356,395.6,356z M450,324.6L398.6,295c0.1-0.3,0.2-0.7,0.2-1.1
	c0-1.5-1.1-2.8-2.5-3.1v-59c0.8-0.2,1.5-0.7,1.9-1.4l51.3,29.6c-0.2,0.4-0.3,0.8-0.3,1.3c0,1.7,1.3,3,2.9,3.2l0,58.9
	C451.3,323.5,450.5,324,450,324.6z M398.6,162.2l51.3-29.6c0.5,0.7,1.3,1.2,2.2,1.3v58.9c-1.6,0.2-2.9,1.5-2.9,3.2
	c0,0.5,0.1,0.9,0.3,1.3l-51.3,29.6c-0.4-0.7-1.1-1.2-1.9-1.4v-59c1.4-0.3,2.5-1.6,2.5-3.1C398.8,162.9,398.8,162.5,398.6,162.2z
	 M450,259.3l-51.3-29.6c0.1-0.3,0.2-0.7,0.2-1.1c0-0.4-0.1-0.7-0.2-1.1l51.3-29.6c0.6,0.8,1.5,1.3,2.6,1.3s2-0.5,2.6-1.3l50.7,29.3
	c-0.2,0.4-0.4,0.9-0.4,1.5c0,0.5,0.1,1,0.4,1.4l-50.7,29.3c-0.6-0.8-1.5-1.3-2.6-1.3S450.6,258.5,450,259.3z M505.8,295.4
	l-50.7,29.3c-0.5-0.7-1.3-1.2-2.2-1.3l0-58.9c1.6-0.2,2.9-1.5,2.9-3.2c0-0.5-0.1-0.9-0.3-1.3l50.7-29.3c0.6,0.7,1.5,1.2,2.5,1.2
	c0,0,0,0,0,0v58.8c0,0,0,0,0,0c-1.8,0-3.2,1.5-3.2,3.2C505.5,294.5,505.6,294.9,505.8,295.4z M508.7,225.4
	C508.7,225.4,508.7,225.4,508.7,225.4c-1,0-1.9,0.5-2.5,1.2l-50.7-29.3c0.2-0.4,0.3-0.8,0.3-1.3c0-1.7-1.3-3-2.9-3.2v-58.9
	c0.9-0.1,1.7-0.6,2.2-1.3l50.7,29.3c-0.2,0.4-0.4,0.9-0.4,1.5c0,1.8,1.5,3.2,3.2,3.2c0,0,0,0,0,0V225.4z M508.7,35.9
	C508.7,35.9,508.7,35.9,508.7,35.9l0,58.8c0,0,0,0,0,0c-1.8,0-3.2,1.5-3.2,3.2c0,0.5,0.1,1,0.4,1.4l-50.7,29.3
	c-0.5-0.7-1.3-1.2-2.2-1.3V68.5c1.6-0.2,2.9-1.5,2.9-3.2c0-0.5-0.1-0.9-0.3-1.3l50.7-29.3C506.9,35.4,507.7,35.9,508.7,35.9z
	 M398.6,31.6L450,1.9c0.6,0.8,1.5,1.3,2.6,1.3c1.1,0,2-0.5,2.6-1.3l50.7,29.3c-0.2,0.4-0.4,0.9-0.4,1.5s0.1,1,0.4,1.4l-50.7,29.3
	c-0.6-0.8-1.5-1.3-2.6-1.3c-1.1,0-2,0.5-2.6,1.3l-51.3-29.6c0.1-0.3,0.2-0.7,0.2-1.1C398.8,32.3,398.8,31.9,398.6,31.6z M396.4,35.8
	c0.8-0.2,1.5-0.7,1.9-1.4L449.6,64c-0.2,0.4-0.3,0.8-0.3,1.3c0,1.7,1.3,3,2.9,3.2v58.9c-0.9,0.1-1.7,0.6-2.2,1.3l-51.3-29.6
	c0.1-0.3,0.2-0.7,0.2-1.1c0-1.5-1.1-2.8-2.5-3.1V35.8z M398.3,99.8l51.3,29.6c-0.2,0.4-0.3,0.8-0.3,1.3c0,0.5,0.1,0.9,0.3,1.3
	l-51.3,29.6c-0.6-0.9-1.6-1.5-2.7-1.5c-1,0-1.9,0.5-2.5,1.2l-50.7-29.3c0.2-0.4,0.3-0.8,0.3-1.3c0-0.5-0.1-0.9-0.3-1.3l50.7-29.3
	c0.6,0.7,1.5,1.2,2.5,1.2C396.7,101.2,397.7,100.6,398.3,99.8z M395.6,35.9C395.6,35.9,395.6,35.9,395.6,35.9l0,58.8c0,0,0,0,0,0
	c-1.8,0-3.2,1.5-3.2,3.2c0,0.5,0.1,1,0.4,1.4L342,128.7c-0.5-0.7-1.3-1.2-2.2-1.3V68.5c1.6-0.2,2.9-1.5,2.9-3.2
	c0-0.5-0.1-0.9-0.3-1.3l50.7-29.3C393.7,35.4,394.6,35.9,395.6,35.9z M285.5,31.6l51.3-29.6c0.6,0.8,1.5,1.3,2.6,1.3
	c1.1,0,2-0.5,2.6-1.3l50.7,29.3c-0.2,0.4-0.4,0.9-0.4,1.4s0.1,1,0.4,1.4L342,63.4c-0.6-0.8-1.5-1.3-2.6-1.3c-1.1,0-2,0.5-2.6,1.3
	l-51.3-29.6c0.1-0.3,0.2-0.7,0.2-1.1C285.7,32.3,285.6,31.9,285.5,31.6z M283.2,35.8c0.8-0.2,1.5-0.7,1.9-1.4L336.4,64
	c-0.2,0.4-0.3,0.8-0.3,1.3c0,1.7,1.3,3,2.9,3.2v58.9c-0.9,0.1-1.7,0.6-2.2,1.3l-51.3-29.6c0.1-0.3,0.2-0.7,0.2-1.1
	c0-1.5-1.1-2.8-2.5-3.1V35.8z M285.2,99.8l51.3,29.6c-0.2,0.4-0.3,0.8-0.3,1.3c0,0.5,0.1,0.9,0.3,1.3l-51.3,29.6
	c-0.6-0.9-1.6-1.5-2.7-1.5c-1,0-1.9,0.5-2.5,1.2l-50.7-29.3c0.2-0.4,0.3-0.8,0.3-1.3c0-0.5-0.1-0.9-0.3-1.3l50.7-29.3
	c0.6,0.7,1.5,1.2,2.5,1.2C283.6,101.2,284.6,100.6,285.2,99.8z M282.5,35.9C282.5,35.9,282.5,35.9,282.5,35.9l0,58.8c0,0,0,0,0,0
	c-1.8,0-3.2,1.5-3.2,3.2c0,0.5,0.1,1,0.4,1.4l-50.7,29.3c-0.5-0.7-1.3-1.2-2.2-1.3V68.5c1.6-0.2,2.9-1.5,2.9-3.2
	c0-0.5-0.1-0.9-0.3-1.3L280,34.7C280.6,35.4,281.5,35.9,282.5,35.9z M172.4,31.6l51.3-29.6c0.6,0.8,1.5,1.3,2.6,1.3
	c1.1,0,2-0.5,2.6-1.3l50.7,29.3c-0.2,0.4-0.4,0.9-0.4,1.5s0.1,1,0.4,1.5l-50.7,29.3c-0.6-0.8-1.5-1.3-2.6-1.3c-1.1,0-2,0.5-2.6,1.3
	l-51.3-29.6c0.1-0.3,0.2-0.7,0.2-1.1C172.6,32.3,172.5,31.9,172.4,31.6z M170.1,35.8c0.8-0.2,1.5-0.7,1.9-1.4L223.3,64
	c-0.2,0.4-0.3,0.8-0.3,1.3c0,1.7,1.3,3,2.9,3.2v58.9c-0.9,0.1-1.7,0.6-2.2,1.3l-51.3-29.6c0.1-0.3,0.2-0.7,0.2-1.1
	c0-1.5-1.1-2.8-2.5-3.1V35.8z M172,99.8l51.3,29.6c-0.2,0.4-0.3,0.8-0.3,1.3c0,0.5,0.1,0.9,0.3,1.3L172,161.5
	c-0.6-0.9-1.6-1.5-2.7-1.5c-1,0-1.9,0.5-2.5,1.2l-50.7-29.3c0.2-0.4,0.3-0.8,0.3-1.3c0-0.5-0.1-0.9-0.3-1.3l50.7-29.3
	c0.6,0.7,1.5,1.2,2.5,1.2C170.5,101.2,171.5,100.6,172,99.8z M169.3,35.9C169.3,35.9,169.3,35.9,169.3,35.9l0,58.8c0,0,0,0,0,0
	c-1.8,0-3.2,1.5-3.2,3.2c0,0.5,0.1,1,0.4,1.4l-50.7,29.3c-0.5-0.7-1.3-1.2-2.2-1.3V68.5c1.6-0.2,2.9-1.5,2.9-3.2
	c0-0.5-0.1-0.9-0.3-1.3l50.7-29.3C167.5,35.4,168.3,35.9,169.3,35.9z M59.2,31.6l51.3-29.6c0.6,0.8,1.5,1.3,2.6,1.3
	c1.1,0,2-0.5,2.6-1.3l50.7,29.3c-0.2,0.4-0.4,0.9-0.4,1.5s0.1,1,0.4,1.5l-50.7,29.3c-0.6-0.8-1.5-1.3-2.6-1.3c-1.1,0-2,0.5-2.6,1.3
	L59.2,33.7c0.1-0.3,0.2-0.7,0.2-1.1C59.4,32.3,59.4,31.9,59.2,31.6z M57,35.8c0.8-0.2,1.5-0.7,1.9-1.4L110.2,64
	c-0.2,0.4-0.3,0.8-0.3,1.3c0,1.7,1.3,3,2.9,3.2v58.9c-0.9,0.1-1.7,0.6-2.2,1.3L59.2,99.1c0.1-0.3,0.2-0.7,0.2-1.1
	c0-1.5-1.1-2.8-2.5-3.1V35.8z M58.9,99.8l51.3,29.6c-0.2,0.4-0.3,0.8-0.3,1.3c0,0.5,0.1,0.9,0.3,1.3l-51.3,29.6
	c-0.6-0.9-1.6-1.5-2.7-1.5c-1,0-1.9,0.5-2.5,1.2L3,131.9c0.2-0.4,0.3-0.8,0.3-1.3c0-0.5-0.1-0.9-0.3-1.3l50.7-29.3
	c0.6,0.7,1.5,1.2,2.5,1.2C57.3,101.2,58.3,100.6,58.9,99.8z M0.4,68.5C2,68.3,3.3,67,3.3,65.3c0-0.5-0.1-0.9-0.3-1.3l50.7-29.3
	c0.6,0.7,1.5,1.2,2.5,1.2c0,0,0,0,0,0v58.8c0,0,0,0,0,0c-1.8,0-3.2,1.5-3.2,3.2c0,0.5,0.1,1,0.4,1.4L2.6,128.7
	c-0.5-0.7-1.3-1.2-2.2-1.3V68.5z M3,197.2c0.2-0.4,0.3-0.8,0.3-1.3c0-1.7-1.3-3-2.9-3.2v-58.9c0.9-0.1,1.7-0.6,2.2-1.3l50.7,29.3
	c-0.2,0.4-0.4,0.9-0.4,1.5c0,1.8,1.5,3.2,3.2,3.2c0,0,0,0,0,0v58.8c0,0,0,0,0,0c-1,0-1.9,0.5-2.5,1.2L3,197.2z M3.3,261.3
	c0-0.5-0.1-0.9-0.3-1.3l50.7-29.3c0.6,0.7,1.5,1.2,2.5,1.2c0,0,0,0,0,0v58.8c0,0,0,0,0,0c-1.8,0-3.2,1.5-3.2,3.2
	c0,0.5,0.1,1,0.4,1.4L2.6,324.6c-0.5-0.7-1.3-1.2-2.2-1.3l0-58.9C2,264.3,3.3,262.9,3.3,261.3z M3,393.2c0.2-0.4,0.3-0.8,0.3-1.3
	c0-1.7-1.3-3-2.9-3.2l0-58.9c0.9-0.1,1.7-0.6,2.2-1.3l50.7,29.3c-0.2,0.4-0.4,0.9-0.4,1.5c0,1.8,1.5,3.2,3.2,3.2c0,0,0,0,0,0l0,58.8
	c0,0,0,0,0,0c-1,0-1.9,0.5-2.5,1.2L3,393.2z M2.6,520.6c-0.5-0.7-1.3-1.2-2.2-1.3l0-58.9c1.6-0.2,2.9-1.5,2.9-3.2
	c0-0.5-0.1-0.9-0.3-1.3l50.7-29.3c0.6,0.7,1.5,1.2,2.5,1.2c0,0,0,0,0,0l0,58.8c0,0,0,0,0,0c-1.8,0-3.2,1.5-3.2,3.2
	c0,0.5,0.1,1,0.4,1.4L2.6,520.6z M110.2,523.8l-51.3,29.6c-0.6-0.9-1.6-1.5-2.7-1.5c-1,0-1.9,0.5-2.5,1.2L3,523.8
	c0.2-0.4,0.3-0.8,0.3-1.3c0-0.5-0.1-0.9-0.3-1.3L53.7,492c0.6,0.7,1.5,1.2,2.5,1.2c1.1,0,2.1-0.6,2.7-1.5l51.3,29.6
	c-0.2,0.4-0.3,0.8-0.3,1.3C109.9,523,110,523.4,110.2,523.8z M110.6,520.6L59.2,491c0.1-0.3,0.2-0.7,0.2-1.1c0-1.5-1.1-2.8-2.5-3.1
	l0-59c0.8-0.2,1.5-0.7,1.9-1.4l51.3,29.6c-0.2,0.4-0.3,0.8-0.3,1.3c0,1.7,1.3,3,2.9,3.2l0,58.9C111.9,519.4,111.1,519.9,110.6,520.6
	z M113.2,454c-1.1,0-2,0.5-2.6,1.3l-51.3-29.6c0.1-0.3,0.2-0.7,0.2-1.1c0-0.4-0.1-0.7-0.2-1.1l51.3-29.6c0.6,0.8,1.5,1.3,2.6,1.3
	c1.1,0,2-0.5,2.6-1.3l50.7,29.3c-0.2,0.4-0.4,0.9-0.4,1.5c0,0.5,0.1,1,0.4,1.4l-50.7,29.3C115.1,454.5,114.2,454,113.2,454z
	 M115.7,520.6c-0.5-0.7-1.3-1.2-2.2-1.3l0-58.9c1.6-0.2,2.9-1.5,2.9-3.2c0-0.5-0.1-0.9-0.3-1.3l50.7-29.3c0.6,0.7,1.5,1.2,2.5,1.2
	c0,0,0,0,0,0l0,58.8c0,0,0,0,0,0c-1.8,0-3.2,1.5-3.2,3.2c0,0.5,0.1,1,0.4,1.4L115.7,520.6z M223.3,523.8L172,553.4
	c-0.6-0.9-1.6-1.5-2.7-1.5c-1,0-1.9,0.5-2.5,1.2l-50.7-29.3c0.2-0.4,0.3-0.8,0.3-1.3c0-0.5-0.1-0.9-0.3-1.3l50.7-29.3
	c0.6,0.7,1.5,1.2,2.5,1.2c1.1,0,2.1-0.6,2.7-1.5l51.3,29.6c-0.2,0.4-0.3,0.8-0.3,1.3C223,523,223.1,523.4,223.3,523.8z M223.7,520.6
	L172.4,491c0.1-0.3,0.2-0.7,0.2-1.1c0-1.5-1.1-2.8-2.5-3.1l0-59c0.8-0.2,1.5-0.7,1.9-1.4l51.3,29.6c-0.2,0.4-0.3,0.8-0.3,1.3
	c0,1.7,1.3,3,2.9,3.2l0,58.9C225,519.4,224.2,519.9,223.7,520.6z M226.3,454c-1.1,0-2,0.5-2.6,1.3l-51.3-29.6
	c0.1-0.3,0.2-0.7,0.2-1.1c0-0.4-0.1-0.7-0.2-1.1l51.3-29.6c0.6,0.8,1.5,1.3,2.6,1.3c1.1,0,2-0.5,2.6-1.3l50.7,29.3
	c-0.2,0.4-0.4,0.9-0.4,1.5c0,0.5,0.1,1,0.4,1.4l-50.7,29.3C228.3,454.5,227.3,454,226.3,454z M228.9,520.6c-0.5-0.7-1.3-1.2-2.2-1.3
	l0-58.9c1.6-0.2,2.9-1.5,2.9-3.2c0-0.5-0.1-0.9-0.3-1.3l50.7-29.3c0.6,0.7,1.5,1.2,2.5,1.2c0,0,0,0,0,0l0,58.8c0,0,0,0,0,0
	c-1.8,0-3.2,1.5-3.2,3.2c0,0.5,0.1,1,0.4,1.4L228.9,520.6z M336.4,523.8l-51.3,29.6c-0.6-0.9-1.6-1.5-2.7-1.5c-1,0-1.9,0.5-2.5,1.2
	l-50.7-29.3c0.2-0.4,0.3-0.8,0.3-1.3c0-0.5-0.1-0.9-0.3-1.3L280,492c0.6,0.7,1.5,1.2,2.5,1.2c1.1,0,2.1-0.6,2.7-1.5l51.3,29.6
	c-0.2,0.4-0.3,0.8-0.3,1.3C336.2,523,336.3,523.4,336.4,523.8z M336.8,520.6L285.5,491c0.1-0.3,0.2-0.7,0.2-1.1
	c0-1.5-1.1-2.8-2.5-3.1l0-59c0.8-0.2,1.5-0.7,1.9-1.4l51.3,29.6c-0.2,0.4-0.3,0.8-0.3,1.3c0,1.7,1.3,3,2.9,3.2l0,58.9
	C338.1,519.4,337.3,519.9,336.8,520.6z M339.4,454c-1.1,0-2,0.5-2.6,1.3l-51.3-29.6c0.1-0.3,0.2-0.7,0.2-1.1c0-0.4-0.1-0.7-0.2-1.1
	l51.3-29.6c0.6,0.8,1.5,1.3,2.6,1.3c1.1,0,2-0.5,2.6-1.3l50.7,29.3c-0.2,0.4-0.4,0.9-0.4,1.5c0,0.5,0.1,1,0.4,1.4L342,455.3
	C341.4,454.5,340.5,454,339.4,454z M342,520.6c-0.5-0.7-1.3-1.2-2.2-1.3l0-58.9c1.6-0.2,2.9-1.5,2.9-3.2c0-0.5-0.1-0.9-0.3-1.3
	l50.7-29.3c0.6,0.7,1.5,1.2,2.5,1.2c0,0,0,0,0,0l0,58.8c0,0,0,0,0,0c-1.8,0-3.2,1.5-3.2,3.2c0,0.5,0.1,1,0.4,1.4L342,520.6z
	 M449.6,523.8l-51.3,29.6c-0.6-0.9-1.6-1.5-2.7-1.5c-1,0-1.9,0.5-2.5,1.2l-50.7-29.3c0.2-0.4,0.3-0.8,0.3-1.3c0-0.5-0.1-0.9-0.3-1.3
	l50.7-29.3c0.6,0.7,1.5,1.2,2.5,1.2c1.1,0,2.1-0.6,2.7-1.5l51.3,29.6c-0.2,0.4-0.3,0.8-0.3,1.3C449.3,523,449.4,523.4,449.6,523.8z
	 M450,520.6L398.6,491c0.1-0.3,0.2-0.7,0.2-1.1c0-1.5-1.1-2.8-2.5-3.1l0-59c0.8-0.2,1.5-0.7,1.9-1.4l51.3,29.6
	c-0.2,0.4-0.3,0.8-0.3,1.3c0,1.7,1.3,3,2.9,3.2l0,58.9C451.3,519.4,450.5,519.9,450,520.6z M452.5,454c-1.1,0-2,0.5-2.6,1.3
	l-51.3-29.6c0.1-0.3,0.2-0.7,0.2-1.1c0-0.4-0.1-0.7-0.2-1.1l51.3-29.6c0.6,0.8,1.5,1.3,2.6,1.3c1.1,0,2-0.5,2.6-1.3l50.7,29.3
	c-0.2,0.4-0.4,0.9-0.4,1.5c0,0.5,0.1,1,0.4,1.4l-50.7,29.3C454.5,454.5,453.6,454,452.5,454z M455.1,520.6c-0.5-0.7-1.3-1.2-2.2-1.3
	l0-58.9c1.6-0.2,2.9-1.5,2.9-3.2c0-0.5-0.1-0.9-0.3-1.3l50.7-29.3c0.6,0.7,1.5,1.2,2.5,1.2c0,0,0,0,0,0l0,58.8c0,0,0,0,0,0
	c-1.8,0-3.2,1.5-3.2,3.2c0,0.5,0.1,1,0.4,1.4L455.1,520.6z M562.7,523.8l-51.3,29.6c-0.6-0.9-1.6-1.5-2.7-1.5c-1,0-1.9,0.5-2.5,1.2
	l-50.7-29.3c0.2-0.4,0.3-0.8,0.3-1.3c0-0.5-0.1-0.9-0.3-1.3l50.7-29.3c0.6,0.7,1.5,1.2,2.5,1.2c1.1,0,2.1-0.6,2.7-1.5l51.3,29.6
	c-0.2,0.4-0.3,0.8-0.3,1.3C562.4,523,562.5,523.4,562.7,523.8z M562.7,455.9c-0.2,0.4-0.3,0.8-0.3,1.3c0,1.7,1.3,3,2.9,3.2l0,58.9
	c-0.9,0.1-1.7,0.6-2.2,1.3L511.8,491c0.1-0.3,0.2-0.7,0.2-1.1c0-1.5-1.1-2.8-2.5-3.1l0-59c0.8-0.2,1.5-0.7,1.9-1.4L562.7,455.9z
	 M565.3,388.7c-1.6,0.2-2.9,1.5-2.9,3.2c0,0.5,0.1,0.9,0.3,1.3l-51.3,29.6c-0.4-0.7-1.1-1.2-1.9-1.4l0-59c1.4-0.4,2.5-1.6,2.5-3.1
	c0-0.4-0.1-0.7-0.2-1.1l51.3-29.6c0.5,0.7,1.3,1.2,2.2,1.3L565.3,388.7z M562.7,260c-0.2,0.4-0.3,0.8-0.3,1.3c0,1.7,1.3,3,2.9,3.2
	l0,58.9c-0.9,0.1-1.7,0.6-2.2,1.3L511.8,295c0.1-0.3,0.2-0.7,0.2-1.1c0-1.5-1.1-2.8-2.5-3.1v-59c0.8-0.2,1.5-0.7,1.9-1.4L562.7,260z
	 M565.3,192.7c-1.6,0.2-2.9,1.5-2.9,3.2c0,0.5,0.1,0.9,0.3,1.3l-51.3,29.6c-0.4-0.7-1.1-1.2-1.9-1.4v-59c1.4-0.3,2.5-1.6,2.5-3.1
	c0-0.4-0.1-0.7-0.2-1.1l51.3-29.6c0.5,0.7,1.3,1.2,2.2,1.3V192.7z M562.7,64c-0.2,0.4-0.3,0.8-0.3,1.3c0,1.7,1.3,3,2.9,3.2v58.9
	c-0.9,0.1-1.7,0.6-2.2,1.3l-51.3-29.6c0.1-0.3,0.2-0.7,0.2-1.1c0-1.5-1.1-2.8-2.5-3.1v-59c0.8-0.2,1.5-0.7,1.9-1.4L562.7,64z"/>
<path opacity="0.41" fill="#D0E2DF" d="M1131.1,3.2V0h-3.2c0,0.5,0.1,0.9,0.3,1.3l-51.3,29.6c-0.4-0.7-1.1-1.2-1.9-1.4V0h-0.8v29.4
	c0,0,0,0,0,0c-1,0-1.9,0.5-2.5,1.2l-50.7-29.3c0.2-0.4,0.3-0.8,0.3-1.3h-6.5c0,0.5,0.1,0.9,0.3,1.3l-51.3,29.6
	c-0.4-0.7-1.1-1.2-1.9-1.4V0H961v29.4c0,0,0,0,0,0c-1,0-1.9,0.5-2.5,1.2L907.8,1.3c0.2-0.4,0.3-0.8,0.3-1.3h-6.5
	c0,0.5,0.1,0.9,0.3,1.3l-51.3,29.6c-0.4-0.7-1.1-1.2-1.9-1.4V0h-0.8v29.4c0,0,0,0,0,0c-1,0-1.9,0.5-2.5,1.2L794.7,1.3
	c0.2-0.4,0.3-0.8,0.3-1.3h-6.5c0,0.5,0.1,0.9,0.3,1.3l-51.3,29.6c-0.4-0.7-1.1-1.2-1.9-1.4V0h-0.8v29.4c0,0,0,0,0,0
	c-1,0-1.9,0.5-2.5,1.2L681.6,1.3c0.2-0.4,0.3-0.8,0.3-1.3h-6.5c0,0.5,0.1,0.9,0.3,1.3l-51.3,29.6c-0.4-0.7-1.1-1.2-1.9-1.4V0h-0.8
	v29.4c0,0,0,0,0,0c-1,0-1.9,0.5-2.5,1.2L568.4,1.3c0.2-0.4,0.3-0.8,0.3-1.3h-3.2v3.2c1.1,0,2-0.5,2.6-1.3l50.7,29.3
	c-0.2,0.4-0.4,0.9-0.4,1.5s0.1,1,0.4,1.5L568,63.4c-0.6-0.8-1.5-1.3-2.6-1.3v137.1c1.1,0,2-0.5,2.6-1.3l50.7,29.3
	c-0.2,0.4-0.4,0.9-0.4,1.5c0,0.5,0.1,1,0.4,1.4L568,259.3c-0.6-0.8-1.5-1.3-2.6-1.3v137.1c1.1,0,2-0.5,2.6-1.3l50.7,29.3
	c-0.2,0.4-0.4,0.9-0.4,1.5c0,0.5,0.1,1,0.4,1.4L568,455.3c-0.6-0.8-1.5-1.3-2.6-1.3v133.9h3.2c0-1.7-1.3-3-2.9-3.2l0-58.9
	c0.9-0.1,1.7-0.6,2.2-1.3l50.7,29.3c-0.2,0.4-0.4,0.9-0.4,1.5c0,1.8,1.5,3.2,3.2,3.2c0,0,0,0,0,0v29.4h0.8v-29.5
	c1.4-0.4,2.5-1.6,2.5-3.1c0-0.4-0.1-0.7-0.2-1.1l51.3-29.6c0.5,0.7,1.3,1.2,2.2,1.3l0,58.9c-1.6,0.2-2.9,1.5-2.9,3.2h6.5
	c0-1.7-1.3-3-2.9-3.2l0-58.9c0.9-0.1,1.7-0.6,2.2-1.3l50.7,29.3c-0.2,0.4-0.4,0.9-0.4,1.5c0,1.8,1.5,3.2,3.2,3.2c0,0,0,0,0,0v29.4
	h0.8v-29.5c1.4-0.4,2.5-1.6,2.5-3.1c0-0.4-0.1-0.7-0.2-1.1l51.3-29.6c0.5,0.7,1.3,1.2,2.2,1.3l0,58.9c-1.6,0.2-2.9,1.5-2.9,3.2h6.5
	c0-1.7-1.3-3-2.9-3.2l0-58.9c0.9-0.1,1.7-0.6,2.2-1.3l50.7,29.3c-0.2,0.4-0.4,0.9-0.4,1.5c0,1.8,1.5,3.2,3.2,3.2c0,0,0,0,0,0l0,29.4
	h0.8l0-29.5c1.4-0.4,2.5-1.6,2.5-3.1c0-0.4-0.1-0.7-0.2-1.1l51.3-29.6c0.5,0.7,1.3,1.2,2.2,1.3l0,58.9c-1.6,0.2-2.9,1.5-2.9,3.2h6.5
	c0-1.7-1.3-3-2.9-3.2l0-58.9c0.9-0.1,1.7-0.6,2.2-1.3l50.7,29.3c-0.2,0.4-0.4,0.9-0.4,1.5c0,1.8,1.5,3.2,3.2,3.2c0,0,0,0,0,0v29.4
	h0.8v-29.5c1.4-0.4,2.5-1.6,2.5-3.1c0-0.4-0.1-0.7-0.2-1.1l51.3-29.6c0.5,0.7,1.3,1.2,2.2,1.3l0,58.9c-1.6,0.2-2.9,1.5-2.9,3.2h6.5
	c0-1.7-1.3-3-2.9-3.2l0-58.9c0.9-0.1,1.7-0.6,2.2-1.3l50.7,29.3c-0.2,0.4-0.4,0.9-0.4,1.5c0,1.8,1.5,3.2,3.2,3.2c0,0,0,0,0,0v29.4
	h0.8v-29.5c1.4-0.4,2.5-1.6,2.5-3.1c0-0.4-0.1-0.7-0.2-1.1l51.3-29.6c0.5,0.7,1.3,1.2,2.2,1.3l0,58.9c-1.6,0.2-2.9,1.5-2.9,3.2h3.2
	V454c-1.1,0-2,0.5-2.6,1.3l-51.3-29.6c0.1-0.3,0.2-0.7,0.2-1.1c0-0.4-0.1-0.7-0.2-1.1l51.3-29.6c0.6,0.8,1.5,1.3,2.6,1.3V258
	c-1.1,0-2,0.5-2.6,1.3l-51.3-29.6c0.1-0.3,0.2-0.7,0.2-1.1c0-0.4-0.1-0.7-0.2-1.1l51.3-29.6c0.6,0.8,1.5,1.3,2.6,1.3V62.1
	c-1.1,0-2,0.5-2.6,1.3l-51.3-29.6c0.1-0.3,0.2-0.7,0.2-1.1s-0.1-0.7-0.2-1.1l51.3-29.6C1129.1,2.7,1130,3.2,1131.1,3.2z
	 M1076.8,99.8l51.3,29.6c-0.2,0.4-0.3,0.8-0.3,1.3c0,0.5,0.1,0.9,0.3,1.3l-51.3,29.6c-0.6-0.9-1.6-1.5-2.7-1.5c-1,0-1.9,0.5-2.5,1.2
	l-50.7-29.3c0.2-0.4,0.3-0.8,0.3-1.3c0-0.5-0.1-0.9-0.3-1.3l50.7-29.3c0.6,0.7,1.5,1.2,2.5,1.2
	C1075.3,101.2,1076.3,100.6,1076.8,99.8z M1128.1,327.9l-51.3,29.6c-0.6-0.9-1.6-1.5-2.7-1.5c-1,0-1.9,0.5-2.5,1.2l-50.7-29.3
	c0.2-0.4,0.3-0.8,0.3-1.3s-0.1-0.9-0.3-1.3l50.7-29.3c0.6,0.7,1.5,1.2,2.5,1.2c1.1,0,2.1-0.6,2.7-1.5l51.3,29.6
	c-0.2,0.4-0.3,0.8-0.3,1.3C1127.9,327,1128,327.5,1128.1,327.9z M1018.4,388.7l0-58.9c0.9-0.1,1.7-0.6,2.2-1.3l50.7,29.3
	c-0.2,0.4-0.4,0.9-0.4,1.5c0,1.8,1.5,3.2,3.2,3.2c0,0,0,0,0,0l0,58.8c0,0,0,0,0,0c-1,0-1.9,0.5-2.5,1.2l-50.7-29.3
	c0.2-0.4,0.3-0.8,0.3-1.3C1021.2,390.2,1020,388.9,1018.4,388.7z M1015,393.2l-51.3,29.6c-0.4-0.7-1.1-1.2-1.9-1.4l0-59
	c1.4-0.4,2.5-1.6,2.5-3.1c0-0.4-0.1-0.7-0.2-1.1l51.3-29.6c0.5,0.7,1.3,1.2,2.2,1.3l0,58.9c-1.6,0.2-2.9,1.5-2.9,3.2
	C1014.7,392.4,1014.8,392.8,1015,393.2z M905.2,388.7l0-58.9c0.9-0.1,1.7-0.6,2.2-1.3l50.7,29.3c-0.2,0.4-0.4,0.9-0.4,1.5
	c0,1.8,1.5,3.2,3.2,3.2c0,0,0,0,0,0l0,58.8c0,0,0,0,0,0c-1,0-1.9,0.5-2.5,1.2l-50.7-29.3c0.2-0.4,0.3-0.8,0.3-1.3
	C908.1,390.2,906.8,388.9,905.2,388.7z M901.9,393.2l-51.3,29.6c-0.4-0.7-1.1-1.2-1.9-1.4l0-59c1.4-0.4,2.5-1.6,2.5-3.1
	c0-0.4-0.1-0.7-0.2-1.1l51.3-29.6c0.5,0.7,1.3,1.2,2.2,1.3l0,58.9c-1.6,0.2-2.9,1.5-2.9,3.2C901.6,392.4,901.7,392.8,901.9,393.2z
	 M792.1,388.7l0-58.9c0.9-0.1,1.7-0.6,2.2-1.3l50.7,29.3c-0.2,0.4-0.4,0.9-0.4,1.5c0,1.8,1.5,3.2,3.2,3.2c0,0,0,0,0,0l0,58.8
	c0,0,0,0,0,0c-1,0-1.9,0.5-2.5,1.2l-50.7-29.3c0.2-0.4,0.3-0.8,0.3-1.3C794.9,390.2,793.7,388.9,792.1,388.7z M788.7,393.2
	l-51.3,29.6c-0.4-0.7-1.1-1.2-1.9-1.4l0-59c1.4-0.4,2.5-1.6,2.5-3.1c0-0.4-0.1-0.7-0.2-1.1l51.3-29.6c0.5,0.7,1.3,1.2,2.2,1.3
	l0,58.9c-1.6,0.2-2.9,1.5-2.9,3.2C788.5,392.4,788.6,392.8,788.7,393.2z M679,388.7l0-58.9c0.9-0.1,1.7-0.6,2.2-1.3l50.7,29.3
	c-0.2,0.4-0.4,0.9-0.4,1.5c0,1.8,1.5,3.2,3.2,3.2c0,0,0,0,0,0l0,58.8c0,0,0,0,0,0c-1,0-1.9,0.5-2.5,1.2l-50.7-29.3
	c0.2-0.4,0.3-0.8,0.3-1.3C681.8,390.2,680.6,388.9,679,388.7z M675.6,393.2l-51.3,29.6c-0.4-0.7-1.1-1.2-1.9-1.4l0-59
	c1.4-0.4,2.5-1.6,2.5-3.1c0-0.4-0.1-0.7-0.2-1.1l51.3-29.6c0.5,0.7,1.3,1.2,2.2,1.3l0,58.9c-1.6,0.2-2.9,1.5-2.9,3.2
	C675.3,392.4,675.4,392.8,675.6,393.2z M568.4,325.3l50.7-29.3c0.6,0.7,1.5,1.2,2.5,1.2c1.1,0,2.1-0.6,2.7-1.5l51.3,29.6
	c-0.2,0.4-0.3,0.8-0.3,1.3s0.1,0.9,0.3,1.3l-51.3,29.6c-0.6-0.9-1.6-1.5-2.7-1.5c-1,0-1.9,0.5-2.5,1.2l-50.7-29.3
	c0.2-0.4,0.3-0.8,0.3-1.3S568.6,325.7,568.4,325.3z M676,324.6L624.7,295c0.1-0.3,0.2-0.7,0.2-1.1c0-1.5-1.1-2.8-2.5-3.1v-59
	c0.8-0.2,1.5-0.7,1.9-1.4l51.3,29.6c-0.2,0.4-0.3,0.8-0.3,1.3c0,1.7,1.3,3,2.9,3.2l0,58.9C677.3,323.5,676.5,324,676,324.6z
	 M624.7,162.2l51.3-29.6c0.5,0.7,1.3,1.2,2.2,1.3v58.9c-1.6,0.2-2.9,1.5-2.9,3.2c0,0.5,0.1,0.9,0.3,1.3l-51.3,29.6
	c-0.4-0.7-1.1-1.2-1.9-1.4v-59c1.4-0.3,2.5-1.6,2.5-3.1C624.9,162.9,624.8,162.5,624.7,162.2z M676,259.3l-51.3-29.6
	c0.1-0.3,0.2-0.7,0.2-1.1c0-0.4-0.1-0.7-0.2-1.1l51.3-29.6c0.6,0.8,1.5,1.3,2.6,1.3c1.1,0,2-0.5,2.6-1.3l50.7,29.3
	c-0.2,0.4-0.4,0.9-0.4,1.5c0,0.5,0.1,1,0.4,1.4l-50.7,29.3c-0.6-0.8-1.5-1.3-2.6-1.3S676.6,258.5,676,259.3z M734.7,166.5
	C734.7,166.5,734.8,166.5,734.7,166.5l0,58.8c0,0,0,0,0,0c-1,0-1.9,0.5-2.5,1.2l-50.7-29.3c0.2-0.4,0.3-0.8,0.3-1.3
	c0-1.7-1.3-3-2.9-3.2v-58.9c0.9-0.1,1.7-0.6,2.2-1.3l50.7,29.3c-0.2,0.4-0.4,0.9-0.4,1.5C731.5,165.1,733,166.5,734.7,166.5z
	 M731.9,295.4l-50.7,29.3c-0.5-0.7-1.3-1.2-2.2-1.3l0-58.9c1.6-0.2,2.9-1.5,2.9-3.2c0-0.5-0.1-0.9-0.3-1.3l50.7-29.3
	c0.6,0.7,1.5,1.2,2.5,1.2c0,0,0,0,0,0v58.8c0,0,0,0,0,0c-1.8,0-3.2,1.5-3.2,3.2C731.5,294.5,731.6,294.9,731.9,295.4z M734.7,356
	c-1,0-1.9,0.5-2.5,1.2l-50.7-29.3c0.2-0.4,0.3-0.8,0.3-1.3s-0.1-0.9-0.3-1.3l50.7-29.3c0.6,0.7,1.5,1.2,2.5,1.2
	c1.1,0,2.1-0.6,2.7-1.5l51.3,29.6c-0.2,0.4-0.3,0.8-0.3,1.3s0.1,0.9,0.3,1.3l-51.3,29.6C736.9,356.6,735.9,356,734.7,356z
	 M789.1,324.6L737.8,295c0.1-0.3,0.2-0.7,0.2-1.1c0-1.5-1.1-2.8-2.5-3.1v-59c0.8-0.2,1.5-0.7,1.9-1.4l51.3,29.6
	c-0.2,0.4-0.3,0.8-0.3,1.3c0,1.7,1.3,3,2.9,3.2l0,58.9C790.4,323.5,789.6,324,789.1,324.6z M737.8,162.2l51.3-29.6
	c0.5,0.7,1.3,1.2,2.2,1.3v58.9c-1.6,0.2-2.9,1.5-2.9,3.2c0,0.5,0.1,0.9,0.3,1.3l-51.3,29.6c-0.4-0.7-1.1-1.2-1.9-1.4v-59
	c1.4-0.3,2.5-1.6,2.5-3.1C738,162.9,737.9,162.5,737.8,162.2z M789.1,259.3l-51.3-29.6c0.1-0.3,0.2-0.7,0.2-1.1
	c0-0.4-0.1-0.7-0.2-1.1l51.3-29.6c0.6,0.8,1.5,1.3,2.6,1.3s2-0.5,2.6-1.3l50.7,29.3c-0.2,0.4-0.4,0.9-0.4,1.5c0,0.5,0.1,1,0.4,1.4
	l-50.7,29.3c-0.6-0.8-1.5-1.3-2.6-1.3C790.6,258,789.7,258.5,789.1,259.3z M847.9,166.5C847.9,166.5,847.9,166.5,847.9,166.5l0,58.8
	c0,0,0,0,0,0c-1,0-1.9,0.5-2.5,1.2l-50.7-29.3c0.2-0.4,0.3-0.8,0.3-1.3c0-1.7-1.3-3-2.9-3.2v-58.9c0.9-0.1,1.7-0.6,2.2-1.3
	l50.7,29.3c-0.2,0.4-0.4,0.9-0.4,1.5C844.6,165.1,846.1,166.5,847.9,166.5z M845,295.4l-50.7,29.3c-0.5-0.7-1.3-1.2-2.2-1.3l0-58.9
	c1.6-0.2,2.9-1.5,2.9-3.2c0-0.5-0.1-0.9-0.3-1.3l50.7-29.3c0.6,0.7,1.5,1.2,2.5,1.2c0,0,0,0,0,0v58.8c0,0,0,0,0,0
	c-1.8,0-3.2,1.5-3.2,3.2C844.6,294.5,844.8,294.9,845,295.4z M847.9,356c-1,0-1.9,0.5-2.5,1.2l-50.7-29.3c0.2-0.4,0.3-0.8,0.3-1.3
	s-0.1-0.9-0.3-1.3l50.7-29.3c0.6,0.7,1.5,1.2,2.5,1.2c1.1,0,2.1-0.6,2.7-1.5l51.3,29.6c-0.2,0.4-0.3,0.8-0.3,1.3
	c0,0.5,0.1,0.9,0.3,1.3l-51.3,29.6C850,356.6,849,356,847.9,356z M902.3,324.6L850.9,295c0.1-0.3,0.2-0.7,0.2-1.1
	c0-1.5-1.1-2.8-2.5-3.1v-59c0.8-0.2,1.5-0.7,1.9-1.4l51.3,29.6c-0.2,0.4-0.3,0.8-0.3,1.3c0,1.7,1.3,3,2.9,3.2l0,58.9
	C903.6,323.5,902.8,324,902.3,324.6z M850.9,162.2l51.3-29.6c0.5,0.7,1.3,1.2,2.2,1.3v58.9c-1.6,0.2-2.9,1.5-2.9,3.2
	c0,0.5,0.1,0.9,0.3,1.3l-51.3,29.6c-0.4-0.7-1.1-1.2-1.9-1.4v-59c1.4-0.3,2.5-1.6,2.5-3.1C851.1,162.9,851,162.5,850.9,162.2z
	 M902.3,259.3l-51.3-29.6c0.1-0.3,0.2-0.7,0.2-1.1c0-0.4-0.1-0.7-0.2-1.1l51.3-29.6c0.6,0.8,1.5,1.3,2.6,1.3c1.1,0,2-0.5,2.6-1.3
	l50.7,29.3c-0.2,0.4-0.4,0.9-0.4,1.5c0,0.5,0.1,1,0.4,1.4l-50.7,29.3c-0.6-0.8-1.5-1.3-2.6-1.3C903.8,258,902.8,258.5,902.3,259.3z
	 M961,166.5C961,166.5,961,166.5,961,166.5l0,58.8c0,0,0,0,0,0c-1,0-1.9,0.5-2.5,1.2l-50.7-29.3c0.2-0.4,0.3-0.8,0.3-1.3
	c0-1.7-1.3-3-2.9-3.2v-58.9c0.9-0.1,1.7-0.6,2.2-1.3l50.7,29.3c-0.2,0.4-0.4,0.9-0.4,1.5C957.8,165.1,959.2,166.5,961,166.5z
	 M958.1,295.4l-50.7,29.3c-0.5-0.7-1.3-1.2-2.2-1.3l0-58.9c1.6-0.2,2.9-1.5,2.9-3.2c0-0.5-0.1-0.9-0.3-1.3l50.7-29.3
	c0.6,0.7,1.5,1.2,2.5,1.2c0,0,0,0,0,0v58.8c0,0,0,0,0,0c-1.8,0-3.2,1.5-3.2,3.2C957.8,294.5,957.9,294.9,958.1,295.4z M961,356
	c-1,0-1.9,0.5-2.5,1.2l-50.7-29.3c0.2-0.4,0.3-0.8,0.3-1.3s-0.1-0.9-0.3-1.3l50.7-29.3c0.6,0.7,1.5,1.2,2.5,1.2
	c1.1,0,2.1-0.6,2.7-1.5l51.3,29.6c-0.2,0.4-0.3,0.8-0.3,1.3c0,0.5,0.1,0.9,0.3,1.3l-51.3,29.6C963.1,356.6,962.1,356,961,356z
	 M1015.4,324.6L964.1,295c0.1-0.3,0.2-0.7,0.2-1.1c0-1.5-1.1-2.8-2.5-3.1v-59c0.8-0.2,1.5-0.7,1.9-1.4L1015,260
	c-0.2,0.4-0.3,0.8-0.3,1.3c0,1.7,1.3,3,2.9,3.2l0,58.9C1016.7,323.5,1015.9,324,1015.4,324.6z M964.1,162.2l51.3-29.6
	c0.5,0.7,1.3,1.2,2.2,1.3v58.9c-1.6,0.2-2.9,1.5-2.9,3.2c0,0.5,0.1,0.9,0.3,1.3l-51.3,29.6c-0.4-0.7-1.1-1.2-1.9-1.4v-59
	c1.4-0.3,2.5-1.6,2.5-3.1C964.3,162.9,964.2,162.5,964.1,162.2z M1015.4,259.3l-51.3-29.6c0.1-0.3,0.2-0.7,0.2-1.1
	c0-0.4-0.1-0.7-0.2-1.1l51.3-29.6c0.6,0.8,1.5,1.3,2.6,1.3s2-0.5,2.6-1.3l50.7,29.3c-0.2,0.4-0.4,0.9-0.4,1.5c0,0.5,0.1,1,0.4,1.4
	l-50.7,29.3c-0.6-0.8-1.5-1.3-2.6-1.3S1016,258.5,1015.4,259.3z M1071.3,295.4l-50.7,29.3c-0.5-0.7-1.3-1.2-2.2-1.3l0-58.9
	c1.6-0.2,2.9-1.5,2.9-3.2c0-0.5-0.1-0.9-0.3-1.3l50.7-29.3c0.6,0.7,1.5,1.2,2.5,1.2c0,0,0,0,0,0v58.8c0,0,0,0,0,0
	c-1.8,0-3.2,1.5-3.2,3.2C1070.9,294.5,1071,294.9,1071.3,295.4z M1074.2,225.4C1074.1,225.4,1074.1,225.4,1074.2,225.4
	c-1,0-1.9,0.5-2.5,1.2l-50.7-29.3c0.2-0.4,0.3-0.8,0.3-1.3c0-1.7-1.3-3-2.9-3.2v-58.9c0.9-0.1,1.7-0.6,2.2-1.3l50.7,29.3
	c-0.2,0.4-0.4,0.9-0.4,1.5c0,1.8,1.5,3.2,3.2,3.2c0,0,0,0,0,0V225.4z M1074.1,35.9C1074.1,35.9,1074.1,35.9,1074.1,35.9l0,58.8
	c0,0,0,0,0,0c-1.8,0-3.2,1.5-3.2,3.2c0,0.5,0.1,1,0.4,1.4l-50.7,29.3c-0.5-0.7-1.3-1.2-2.2-1.3V68.5c1.6-0.2,2.9-1.5,2.9-3.2
	c0-0.5-0.1-0.9-0.3-1.3l50.7-29.3C1072.3,35.4,1073.2,35.9,1074.1,35.9z M964.1,31.6l51.3-29.6c0.6,0.8,1.5,1.3,2.6,1.3
	c1.1,0,2-0.5,2.6-1.3l50.7,29.3c-0.2,0.4-0.4,0.9-0.4,1.5s0.1,1,0.4,1.4l-50.7,29.3c-0.6-0.8-1.5-1.3-2.6-1.3c-1.1,0-2,0.5-2.6,1.3
	l-51.3-29.6c0.1-0.3,0.2-0.7,0.2-1.1S964.2,31.9,964.1,31.6z M961.8,35.8c0.8-0.2,1.5-0.7,1.9-1.4L1015,64c-0.2,0.4-0.3,0.8-0.3,1.3
	c0,1.7,1.3,3,2.9,3.2v58.9c-0.9,0.1-1.7,0.6-2.2,1.3l-51.3-29.6c0.1-0.3,0.2-0.7,0.2-1.1c0-1.5-1.1-2.8-2.5-3.1V35.8z M963.7,99.8
	l51.3,29.6c-0.2,0.4-0.3,0.8-0.3,1.3c0,0.5,0.1,0.9,0.3,1.3l-51.3,29.6c-0.6-0.9-1.6-1.5-2.7-1.5c-1,0-1.9,0.5-2.5,1.2l-50.7-29.3
	c0.2-0.4,0.3-0.8,0.3-1.3c0-0.5-0.1-0.9-0.3-1.3l50.7-29.3c0.6,0.7,1.5,1.2,2.5,1.2C962.1,101.2,963.1,100.6,963.7,99.8z M961,35.9
	C961,35.9,961,35.9,961,35.9l0,58.8c0,0,0,0,0,0c-1.8,0-3.2,1.5-3.2,3.2c0,0.5,0.1,1,0.4,1.4l-50.7,29.3c-0.5-0.7-1.3-1.2-2.2-1.3
	V68.5c1.6-0.2,2.9-1.5,2.9-3.2c0-0.5-0.1-0.9-0.3-1.3l50.7-29.3C959.1,35.4,960,35.9,961,35.9z M850.9,31.6l51.3-29.6
	c0.6,0.8,1.5,1.3,2.6,1.3c1.1,0,2-0.5,2.6-1.3l50.7,29.3c-0.2,0.4-0.4,0.9-0.4,1.4s0.1,1,0.4,1.4l-50.7,29.3
	c-0.6-0.8-1.5-1.3-2.6-1.3c-1.1,0-2,0.5-2.6,1.3l-51.3-29.6c0.1-0.3,0.2-0.7,0.2-1.1S851,31.9,850.9,31.6z M848.7,35.8
	c0.8-0.2,1.5-0.7,1.9-1.4L901.9,64c-0.2,0.4-0.3,0.8-0.3,1.3c0,1.7,1.3,3,2.9,3.2v58.9c-0.9,0.1-1.7,0.6-2.2,1.3l-51.3-29.6
	c0.1-0.3,0.2-0.7,0.2-1.1c0-1.5-1.1-2.8-2.5-3.1V35.8z M850.6,99.8l51.3,29.6c-0.2,0.4-0.3,0.8-0.3,1.3c0,0.5,0.1,0.9,0.3,1.3
	l-51.3,29.6c-0.6-0.9-1.6-1.5-2.7-1.5c-1,0-1.9,0.5-2.5,1.2l-50.7-29.3c0.2-0.4,0.3-0.8,0.3-1.3c0-0.5-0.1-0.9-0.3-1.3l50.7-29.3
	c0.6,0.7,1.5,1.2,2.5,1.2C849,101.2,850,100.6,850.6,99.8z M847.9,35.9C847.9,35.9,847.9,35.9,847.9,35.9l0,58.8c0,0,0,0,0,0
	c-1.8,0-3.2,1.5-3.2,3.2c0,0.5,0.1,1,0.4,1.4l-50.7,29.3c-0.5-0.7-1.3-1.2-2.2-1.3V68.5c1.6-0.2,2.9-1.5,2.9-3.2
	c0-0.5-0.1-0.9-0.3-1.3l50.7-29.3C846,35.4,846.9,35.9,847.9,35.9z M737.8,31.6l51.3-29.6c0.6,0.8,1.5,1.3,2.6,1.3
	c1.1,0,2-0.5,2.6-1.3L845,31.2c-0.2,0.4-0.4,0.9-0.4,1.5s0.1,1,0.4,1.5l-50.7,29.3c-0.6-0.8-1.5-1.3-2.6-1.3c-1.1,0-2,0.5-2.6,1.3
	l-51.3-29.6c0.1-0.3,0.2-0.7,0.2-1.1S737.9,31.9,737.8,31.6z M735.5,35.8c0.8-0.2,1.5-0.7,1.9-1.4L788.7,64
	c-0.2,0.4-0.3,0.8-0.3,1.3c0,1.7,1.3,3,2.9,3.2v58.9c-0.9,0.1-1.7,0.6-2.2,1.3l-51.3-29.6c0.1-0.3,0.2-0.7,0.2-1.1
	c0-1.5-1.1-2.8-2.5-3.1V35.8z M737.5,99.8l51.3,29.6c-0.2,0.4-0.3,0.8-0.3,1.3c0,0.5,0.1,0.9,0.3,1.3l-51.3,29.6
	c-0.6-0.9-1.6-1.5-2.7-1.5c-1,0-1.9,0.5-2.5,1.2l-50.7-29.3c0.2-0.4,0.3-0.8,0.3-1.3c0-0.5-0.1-0.9-0.3-1.3l50.7-29.3
	c0.6,0.7,1.5,1.2,2.5,1.2C735.9,101.2,736.9,100.6,737.5,99.8z M734.7,35.9C734.7,35.9,734.8,35.9,734.7,35.9l0,58.8c0,0,0,0,0,0
	c-1.8,0-3.2,1.5-3.2,3.2c0,0.5,0.1,1,0.4,1.4l-50.7,29.3c-0.5-0.7-1.3-1.2-2.2-1.3V68.5c1.6-0.2,2.9-1.5,2.9-3.2
	c0-0.5-0.1-0.9-0.3-1.3l50.7-29.3C732.9,35.4,733.8,35.9,734.7,35.9z M624.7,31.6L676,1.9c0.6,0.8,1.5,1.3,2.6,1.3s2-0.5,2.6-1.3
	l50.7,29.3c-0.2,0.4-0.4,0.9-0.4,1.5s0.1,1,0.4,1.5l-50.7,29.3c-0.6-0.8-1.5-1.3-2.6-1.3s-2,0.5-2.6,1.3l-51.3-29.6
	c0.1-0.3,0.2-0.7,0.2-1.1S624.8,31.9,624.7,31.6z M622.4,35.8c0.8-0.2,1.5-0.7,1.9-1.4L675.6,64c-0.2,0.4-0.3,0.8-0.3,1.3
	c0,1.7,1.3,3,2.9,3.2v58.9c-0.9,0.1-1.7,0.6-2.2,1.3l-51.3-29.6c0.1-0.3,0.2-0.7,0.2-1.1c0-1.5-1.1-2.8-2.5-3.1V35.8z M624.3,99.8
	l51.3,29.6c-0.2,0.4-0.3,0.8-0.3,1.3c0,0.5,0.1,0.9,0.3,1.3l-51.3,29.6c-0.6-0.9-1.6-1.5-2.7-1.5c-1,0-1.9,0.5-2.5,1.2l-50.7-29.3
	c0.2-0.4,0.3-0.8,0.3-1.3c0-0.5-0.1-0.9-0.3-1.3l50.7-29.3c0.6,0.7,1.5,1.2,2.5,1.2C622.7,101.2,623.7,100.6,624.3,99.8z
	 M565.8,68.5c1.6-0.2,2.9-1.5,2.9-3.2c0-0.5-0.1-0.9-0.3-1.3l50.7-29.3c0.6,0.7,1.5,1.2,2.5,1.2c0,0,0,0,0,0v58.8c0,0,0,0,0,0
	c-1.8,0-3.2,1.5-3.2,3.2c0,0.5,0.1,1,0.4,1.4L568,128.7c-0.5-0.7-1.3-1.2-2.2-1.3V68.5z M568.4,197.2c0.2-0.4,0.3-0.8,0.3-1.3
	c0-1.7-1.3-3-2.9-3.2v-58.9c0.9-0.1,1.7-0.6,2.2-1.3l50.7,29.3c-0.2,0.4-0.4,0.9-0.4,1.5c0,1.8,1.5,3.2,3.2,3.2c0,0,0,0,0,0v58.8
	c0,0,0,0,0,0c-1,0-1.9,0.5-2.5,1.2L568.4,197.2z M568.7,261.3c0-0.5-0.1-0.9-0.3-1.3l50.7-29.3c0.6,0.7,1.5,1.2,2.5,1.2c0,0,0,0,0,0
	v58.8c0,0,0,0,0,0c-1.8,0-3.2,1.5-3.2,3.2c0,0.5,0.1,1,0.4,1.4L568,324.6c-0.5-0.7-1.3-1.2-2.2-1.3l0-58.9
	C567.4,264.3,568.7,262.9,568.7,261.3z M568.4,393.2c0.2-0.4,0.3-0.8,0.3-1.3c0-1.7-1.3-3-2.9-3.2l0-58.9c0.9-0.1,1.7-0.6,2.2-1.3
	l50.7,29.3c-0.2,0.4-0.4,0.9-0.4,1.5c0,1.8,1.5,3.2,3.2,3.2c0,0,0,0,0,0l0,58.8c0,0,0,0,0,0c-1,0-1.9,0.5-2.5,1.2L568.4,393.2z
	 M568,520.6c-0.5-0.7-1.3-1.2-2.2-1.3l0-58.9c1.6-0.2,2.9-1.5,2.9-3.2c0-0.5-0.1-0.9-0.3-1.3l50.7-29.3c0.6,0.7,1.5,1.2,2.5,1.2
	c0,0,0,0,0,0l0,58.8c0,0,0,0,0,0c-1.8,0-3.2,1.5-3.2,3.2c0,0.5,0.1,1,0.4,1.4L568,520.6z M675.6,523.8l-51.3,29.6
	c-0.6-0.9-1.6-1.5-2.7-1.5c-1,0-1.9,0.5-2.5,1.2l-50.7-29.3c0.2-0.4,0.3-0.8,0.3-1.3c0-0.5-0.1-0.9-0.3-1.3l50.7-29.3
	c0.6,0.7,1.5,1.2,2.5,1.2c1.1,0,2.1-0.6,2.7-1.5l51.3,29.6c-0.2,0.4-0.3,0.8-0.3,1.3C675.3,523,675.4,523.4,675.6,523.8z M676,520.6
	L624.7,491c0.1-0.3,0.2-0.7,0.2-1.1c0-1.5-1.1-2.8-2.5-3.1l0-59c0.8-0.2,1.5-0.7,1.9-1.4l51.3,29.6c-0.2,0.4-0.3,0.8-0.3,1.3
	c0,1.7,1.3,3,2.9,3.2l0,58.9C677.3,519.4,676.5,519.9,676,520.6z M678.6,454c-1.1,0-2,0.5-2.6,1.3l-51.3-29.6
	c0.1-0.3,0.2-0.7,0.2-1.1c0-0.4-0.1-0.7-0.2-1.1l51.3-29.6c0.6,0.8,1.5,1.3,2.6,1.3c1.1,0,2-0.5,2.6-1.3l50.7,29.3
	c-0.2,0.4-0.4,0.9-0.4,1.5c0,0.5,0.1,1,0.4,1.4l-50.7,29.3C680.6,454.5,679.6,454,678.6,454z M681.2,520.6c-0.5-0.7-1.3-1.2-2.2-1.3
	l0-58.9c1.6-0.2,2.9-1.5,2.9-3.2c0-0.5-0.1-0.9-0.3-1.3l50.7-29.3c0.6,0.7,1.5,1.2,2.5,1.2c0,0,0,0,0,0l0,58.8c0,0,0,0,0,0
	c-1.8,0-3.2,1.5-3.2,3.2c0,0.5,0.1,1,0.4,1.4L681.2,520.6z M788.7,523.8l-51.3,29.6c-0.6-0.9-1.6-1.5-2.7-1.5c-1,0-1.9,0.5-2.5,1.2
	l-50.7-29.3c0.2-0.4,0.3-0.8,0.3-1.3c0-0.5-0.1-0.9-0.3-1.3l50.7-29.3c0.6,0.7,1.5,1.2,2.5,1.2c1.1,0,2.1-0.6,2.7-1.5l51.3,29.6
	c-0.2,0.4-0.3,0.8-0.3,1.3C788.5,523,788.6,523.4,788.7,523.8z M789.1,520.6L737.8,491c0.1-0.3,0.2-0.7,0.2-1.1
	c0-1.5-1.1-2.8-2.5-3.1l0-59c0.8-0.2,1.5-0.7,1.9-1.4l51.3,29.6c-0.2,0.4-0.3,0.8-0.3,1.3c0,1.7,1.3,3,2.9,3.2l0,58.9
	C790.4,519.4,789.6,519.9,789.1,520.6z M791.7,454c-1.1,0-2,0.5-2.6,1.3l-51.3-29.6c0.1-0.3,0.2-0.7,0.2-1.1c0-0.4-0.1-0.7-0.2-1.1
	l51.3-29.6c0.6,0.8,1.5,1.3,2.6,1.3c1.1,0,2-0.5,2.6-1.3l50.7,29.3c-0.2,0.4-0.4,0.9-0.4,1.5c0,0.5,0.1,1,0.4,1.4l-50.7,29.3
	C793.7,454.5,792.8,454,791.7,454z M794.3,520.6c-0.5-0.7-1.3-1.2-2.2-1.3l0-58.9c1.6-0.2,2.9-1.5,2.9-3.2c0-0.5-0.1-0.9-0.3-1.3
	l50.7-29.3c0.6,0.7,1.5,1.2,2.5,1.2c0,0,0,0,0,0l0,58.8c0,0,0,0,0,0c-1.8,0-3.2,1.5-3.2,3.2c0,0.5,0.1,1,0.4,1.4L794.3,520.6z
	 M901.9,523.8l-51.3,29.6c-0.6-0.9-1.6-1.5-2.7-1.5c-1,0-1.9,0.5-2.5,1.2l-50.7-29.3c0.2-0.4,0.3-0.8,0.3-1.3c0-0.5-0.1-0.9-0.3-1.3
	l50.7-29.3c0.6,0.7,1.5,1.2,2.5,1.2c1.1,0,2.1-0.6,2.7-1.5l51.3,29.6c-0.2,0.4-0.3,0.8-0.3,1.3C901.6,523,901.7,523.4,901.9,523.8z
	 M902.3,520.6L850.9,491c0.1-0.3,0.2-0.7,0.2-1.1c0-1.5-1.1-2.8-2.5-3.1l0-59c0.8-0.2,1.5-0.7,1.9-1.4l51.3,29.6
	c-0.2,0.4-0.3,0.8-0.3,1.3c0,1.7,1.3,3,2.9,3.2l0,58.9C903.6,519.4,902.8,519.9,902.3,520.6z M904.8,454c-1.1,0-2,0.5-2.6,1.3
	l-51.3-29.6c0.1-0.3,0.2-0.7,0.2-1.1c0-0.4-0.1-0.7-0.2-1.1l51.3-29.6c0.6,0.8,1.5,1.3,2.6,1.3c1.1,0,2-0.5,2.6-1.3l50.7,29.3
	c-0.2,0.4-0.4,0.9-0.4,1.5c0,0.5,0.1,1,0.4,1.4l-50.7,29.3C906.8,454.5,905.9,454,904.8,454z M907.4,520.6c-0.5-0.7-1.3-1.2-2.2-1.3
	l0-58.9c1.6-0.2,2.9-1.5,2.9-3.2c0-0.5-0.1-0.9-0.3-1.3l50.7-29.3c0.6,0.7,1.5,1.2,2.5,1.2c0,0,0,0,0,0l0,58.8c0,0,0,0,0,0
	c-1.8,0-3.2,1.5-3.2,3.2c0,0.5,0.1,1,0.4,1.4L907.4,520.6z M1015,523.8l-51.3,29.6c-0.6-0.9-1.6-1.5-2.7-1.5c-1,0-1.9,0.5-2.5,1.2
	l-50.7-29.3c0.2-0.4,0.3-0.8,0.3-1.3c0-0.5-0.1-0.9-0.3-1.3l50.7-29.3c0.6,0.7,1.5,1.2,2.5,1.2c1.1,0,2.1-0.6,2.7-1.5l51.3,29.6
	c-0.2,0.4-0.3,0.8-0.3,1.3C1014.7,523,1014.8,523.4,1015,523.8z M1015.4,520.6L964.1,491c0.1-0.3,0.2-0.7,0.2-1.1
	c0-1.5-1.1-2.8-2.5-3.1l0-59c0.8-0.2,1.5-0.7,1.9-1.4l51.3,29.6c-0.2,0.4-0.3,0.8-0.3,1.3c0,1.7,1.3,3,2.9,3.2l0,58.9
	C1016.7,519.4,1015.9,519.9,1015.4,520.6z M1018,454c-1.1,0-2,0.5-2.6,1.3l-51.3-29.6c0.1-0.3,0.2-0.7,0.2-1.1
	c0-0.4-0.1-0.7-0.2-1.1l51.3-29.6c0.6,0.8,1.5,1.3,2.6,1.3c1.1,0,2-0.5,2.6-1.3l50.7,29.3c-0.2,0.4-0.4,0.9-0.4,1.5
	c0,0.5,0.1,1,0.4,1.4l-50.7,29.3C1020,454.5,1019,454,1018,454z M1020.6,520.6c-0.5-0.7-1.3-1.2-2.2-1.3l0-58.9
	c1.6-0.2,2.9-1.5,2.9-3.2c0-0.5-0.1-0.9-0.3-1.3l50.7-29.3c0.6,0.7,1.5,1.2,2.5,1.2c0,0,0,0,0,0l0,58.8c0,0,0,0,0,0
	c-1.8,0-3.2,1.5-3.2,3.2c0,0.5,0.1,1,0.4,1.4L1020.6,520.6z M1128.1,523.8l-51.3,29.6c-0.6-0.9-1.6-1.5-2.7-1.5
	c-1,0-1.9,0.5-2.5,1.2l-50.7-29.3c0.2-0.4,0.3-0.8,0.3-1.3c0-0.5-0.1-0.9-0.3-1.3l50.7-29.3c0.6,0.7,1.5,1.2,2.5,1.2
	c1.1,0,2.1-0.6,2.7-1.5l51.3,29.6c-0.2,0.4-0.3,0.8-0.3,1.3C1127.9,523,1128,523.4,1128.1,523.8z M1128.1,455.9
	c-0.2,0.4-0.3,0.8-0.3,1.3c0,1.7,1.3,3,2.9,3.2l0,58.9c-0.9,0.1-1.7,0.6-2.2,1.3l-51.3-29.6c0.1-0.3,0.2-0.7,0.2-1.1
	c0-1.5-1.1-2.8-2.5-3.1l0-59c0.8-0.2,1.5-0.7,1.9-1.4L1128.1,455.9z M1130.7,388.7c-1.6,0.2-2.9,1.5-2.9,3.2c0,0.5,0.1,0.9,0.3,1.3
	l-51.3,29.6c-0.4-0.7-1.1-1.2-1.9-1.4l0-59c1.4-0.4,2.5-1.6,2.5-3.1c0-0.4-0.1-0.7-0.2-1.1l51.3-29.6c0.5,0.7,1.3,1.2,2.2,1.3
	L1130.7,388.7z M1128.1,260c-0.2,0.4-0.3,0.8-0.3,1.3c0,1.7,1.3,3,2.9,3.2l0,58.9c-0.9,0.1-1.7,0.6-2.2,1.3l-51.3-29.6
	c0.1-0.3,0.2-0.7,0.2-1.1c0-1.5-1.1-2.8-2.5-3.1v-59c0.8-0.2,1.5-0.7,1.9-1.4L1128.1,260z M1130.7,192.7c-1.6,0.2-2.9,1.5-2.9,3.2
	c0,0.5,0.1,0.9,0.3,1.3l-51.3,29.6c-0.4-0.7-1.1-1.2-1.9-1.4v-59c1.4-0.3,2.5-1.6,2.5-3.1c0-0.4-0.1-0.7-0.2-1.1l51.3-29.6
	c0.5,0.7,1.3,1.2,2.2,1.3V192.7z M1128.1,64c-0.2,0.4-0.3,0.8-0.3,1.3c0,1.7,1.3,3,2.9,3.2v58.9c-0.9,0.1-1.7,0.6-2.2,1.3
	l-51.3-29.6c0.1-0.3,0.2-0.7,0.2-1.1c0-1.5-1.1-2.8-2.5-3.1v-59c0.8-0.2,1.5-0.7,1.9-1.4L1128.1,64z"/>
<path opacity="0.41" fill="#D0E2DF" d="M565.6,591.1v-3.2h-3.2c0,0.5,0.1,0.9,0.3,1.3l-51.3,29.6c-0.4-0.7-1.1-1.2-1.9-1.4v-29.5
	h-0.8v29.4c0,0,0,0,0,0c-1,0-1.9,0.5-2.5,1.2l-50.7-29.3c0.2-0.4,0.3-0.8,0.3-1.3h-6.5c0,0.5,0.1,0.9,0.3,1.3l-51.3,29.6
	c-0.4-0.7-1.1-1.2-1.9-1.4v-29.5h-0.8v29.4c0,0,0,0,0,0c-1,0-1.9,0.5-2.5,1.2l-50.7-29.3c0.2-0.4,0.3-0.8,0.3-1.3h-6.5
	c0,0.5,0.1,0.9,0.3,1.3L285,618.7c-0.4-0.7-1.1-1.2-1.9-1.4v-29.5h-0.8v29.4c0,0,0,0,0,0c-1,0-1.9,0.5-2.5,1.2l-50.7-29.3
	c0.2-0.4,0.3-0.8,0.3-1.3h-6.5c0,0.5,0.1,0.9,0.3,1.3l-51.3,29.6c-0.4-0.7-1.1-1.2-1.9-1.4v-29.5h-0.8v29.4c0,0,0,0,0,0
	c-1,0-1.9,0.5-2.5,1.2L116,589.1c0.2-0.4,0.3-0.8,0.3-1.3h-6.5c0,0.5,0.1,0.9,0.3,1.3l-51.3,29.6c-0.4-0.7-1.1-1.2-1.9-1.4v-29.5
	h-0.8v29.4c0,0,0,0,0,0c-1,0-1.9,0.5-2.5,1.2L2.9,589.1c0.2-0.4,0.3-0.8,0.3-1.3h-3.2v3.2c1.1,0,2-0.5,2.6-1.3l50.7,29.3
	c-0.2,0.4-0.4,0.9-0.4,1.5c0,0.5,0.1,1,0.4,1.5L2.5,651.2c-0.6-0.8-1.5-1.3-2.6-1.3v137.1c1.1,0,2-0.5,2.6-1.3L53.2,815
	c-0.2,0.4-0.4,0.9-0.4,1.5c0,0.5,0.1,1,0.4,1.4L2.5,847.2c-0.6-0.8-1.5-1.3-2.6-1.3V983c1.1,0,2-0.5,2.6-1.3l50.7,29.3
	c-0.2,0.4-0.4,0.9-0.4,1.5c0,0.5,0.1,1,0.4,1.4l-50.7,29.3c-0.6-0.8-1.5-1.3-2.6-1.3v133.9h3.2c0-1.7-1.3-3-2.9-3.2l0-58.9
	c0.9-0.1,1.7-0.6,2.2-1.3l50.7,29.3c-0.2,0.4-0.4,0.9-0.4,1.5c0,1.8,1.5,3.2,3.2,3.2c0,0,0,0,0,0v29.4h0.8v-29.5
	c1.4-0.4,2.5-1.6,2.5-3.1c0-0.4-0.1-0.7-0.2-1.1l51.3-29.6c0.5,0.7,1.3,1.2,2.2,1.3l0,58.9c-1.6,0.2-2.9,1.5-2.9,3.2h6.5
	c0-1.7-1.3-3-2.9-3.2l0-58.9c0.9-0.1,1.7-0.6,2.2-1.3l50.7,29.3c-0.2,0.4-0.4,0.9-0.4,1.5c0,1.8,1.5,3.2,3.2,3.2c0,0,0,0,0,0v29.4
	h0.8v-29.5c1.4-0.4,2.5-1.6,2.5-3.1c0-0.4-0.1-0.7-0.2-1.1l51.3-29.6c0.5,0.7,1.3,1.2,2.2,1.3l0,58.9c-1.6,0.2-2.9,1.5-2.9,3.2h6.5
	c0-1.7-1.3-3-2.9-3.2l0-58.9c0.9-0.1,1.7-0.6,2.2-1.3l50.7,29.3c-0.2,0.4-0.4,0.9-0.4,1.5c0,1.8,1.5,3.2,3.2,3.2c0,0,0,0,0,0l0,29.4
	h0.8l0-29.5c1.4-0.4,2.5-1.6,2.5-3.1c0-0.4-0.1-0.7-0.2-1.1l51.3-29.6c0.5,0.7,1.3,1.2,2.2,1.3l0,58.9c-1.6,0.2-2.9,1.5-2.9,3.2h6.5
	c0-1.7-1.3-3-2.9-3.2l0-58.9c0.9-0.1,1.7-0.6,2.2-1.3l50.7,29.3c-0.2,0.4-0.4,0.9-0.4,1.5c0,1.8,1.5,3.2,3.2,3.2c0,0,0,0,0,0v29.4
	h0.8v-29.5c1.4-0.4,2.5-1.6,2.5-3.1c0-0.4-0.1-0.7-0.2-1.1l51.3-29.6c0.5,0.7,1.3,1.2,2.2,1.3l0,58.9c-1.6,0.2-2.9,1.5-2.9,3.2h6.5
	c0-1.7-1.3-3-2.9-3.2l0-58.9c0.9-0.1,1.7-0.6,2.2-1.3l50.7,29.3c-0.2,0.4-0.4,0.9-0.4,1.5c0,1.8,1.5,3.2,3.2,3.2c0,0,0,0,0,0v29.4
	h0.8v-29.5c1.4-0.4,2.5-1.6,2.5-3.1c0-0.4-0.1-0.7-0.2-1.1l51.3-29.6c0.5,0.7,1.3,1.2,2.2,1.3l0,58.9c-1.6,0.2-2.9,1.5-2.9,3.2h3.2
	v-133.9c-1.1,0-2,0.5-2.6,1.3l-51.3-29.6c0.1-0.3,0.2-0.7,0.2-1.1c0-0.4-0.1-0.7-0.2-1.1l51.3-29.6c0.6,0.8,1.5,1.3,2.6,1.3V845.9
	c-1.1,0-2,0.5-2.6,1.3l-51.3-29.6c0.1-0.3,0.2-0.7,0.2-1.1c0-0.4-0.1-0.7-0.2-1.1l51.3-29.6c0.6,0.8,1.5,1.3,2.6,1.3V649.9
	c-1.1,0-2,0.5-2.6,1.3l-51.3-29.6c0.1-0.3,0.2-0.7,0.2-1.1c0-0.4-0.1-0.7-0.2-1.1l51.3-29.6C563.6,590.6,564.5,591.1,565.6,591.1z
	 M511.3,687.6l51.3,29.6c-0.2,0.4-0.3,0.8-0.3,1.3c0,0.5,0.1,0.9,0.3,1.3l-51.3,29.6c-0.6-0.9-1.6-1.5-2.7-1.5c-1,0-1.9,0.5-2.5,1.2
	l-50.7-29.3c0.2-0.4,0.3-0.8,0.3-1.3c0-0.5-0.1-0.9-0.3-1.3l50.7-29.3c0.6,0.7,1.5,1.2,2.5,1.2C509.7,689.1,510.7,688.5,511.3,687.6
	z M562.6,915.7l-51.3,29.6c-0.6-0.9-1.6-1.5-2.7-1.5c-1,0-1.9,0.5-2.5,1.2l-50.7-29.3c0.2-0.4,0.3-0.8,0.3-1.3
	c0-0.5-0.1-0.9-0.3-1.3l50.7-29.3c0.6,0.7,1.5,1.2,2.5,1.2c1.1,0,2.1-0.6,2.7-1.5l51.3,29.6c-0.2,0.4-0.3,0.8-0.3,1.3
	C562.3,914.9,562.4,915.3,562.6,915.7z M452.8,976.6l0-58.9c0.9-0.1,1.7-0.6,2.2-1.3l50.7,29.3c-0.2,0.4-0.4,0.9-0.4,1.5
	c0,1.8,1.5,3.2,3.2,3.2c0,0,0,0,0,0l0,58.8c0,0,0,0,0,0c-1,0-1.9,0.5-2.5,1.2L455.4,981c0.2-0.4,0.3-0.8,0.3-1.3
	C455.7,978.1,454.4,976.7,452.8,976.6z M449.4,981l-51.3,29.6c-0.4-0.7-1.1-1.2-1.9-1.4l0-59c1.4-0.4,2.5-1.6,2.5-3.1
	c0-0.4-0.1-0.7-0.2-1.1l51.3-29.6c0.5,0.7,1.3,1.2,2.2,1.3l0,58.9c-1.6,0.2-2.9,1.5-2.9,3.2C449.2,980.2,449.3,980.6,449.4,981z
	 M339.7,976.6l0-58.9c0.9-0.1,1.7-0.6,2.2-1.3l50.7,29.3c-0.2,0.4-0.4,0.9-0.4,1.5c0,1.8,1.5,3.2,3.2,3.2c0,0,0,0,0,0l0,58.8
	c0,0,0,0,0,0c-1,0-1.9,0.5-2.5,1.2L342.3,981c0.2-0.4,0.3-0.8,0.3-1.3C342.5,978.1,341.3,976.7,339.7,976.6z M336.3,981l-51.3,29.6
	c-0.4-0.7-1.1-1.2-1.9-1.4l0-59c1.4-0.4,2.5-1.6,2.5-3.1c0-0.4-0.1-0.7-0.2-1.1l51.3-29.6c0.5,0.7,1.3,1.2,2.2,1.3l0,58.9
	c-1.6,0.2-2.9,1.5-2.9,3.2C336.1,980.2,336.1,980.6,336.3,981z M226.5,976.6l0-58.9c0.9-0.1,1.7-0.6,2.2-1.3l50.7,29.3
	c-0.2,0.4-0.4,0.9-0.4,1.5c0,1.8,1.5,3.2,3.2,3.2c0,0,0,0,0,0l0,58.8c0,0,0,0,0,0c-1,0-1.9,0.5-2.5,1.2L229.1,981
	c0.2-0.4,0.3-0.8,0.3-1.3C229.4,978.1,228.2,976.7,226.5,976.6z M223.2,981l-51.3,29.6c-0.4-0.7-1.1-1.2-1.9-1.4l0-59
	c1.4-0.4,2.5-1.6,2.5-3.1c0-0.4-0.1-0.7-0.2-1.1l51.3-29.6c0.5,0.7,1.3,1.2,2.2,1.3l0,58.9c-1.6,0.2-2.9,1.5-2.9,3.2
	C222.9,980.2,223,980.6,223.2,981z M113.4,976.6l0-58.9c0.9-0.1,1.7-0.6,2.2-1.3l50.7,29.3c-0.2,0.4-0.4,0.9-0.4,1.5
	c0,1.8,1.5,3.2,3.2,3.2c0,0,0,0,0,0l0,58.8c0,0,0,0,0,0c-1,0-1.9,0.5-2.5,1.2L116,981c0.2-0.4,0.3-0.8,0.3-1.3
	C116.3,978.1,115,976.7,113.4,976.6z M110,981l-51.3,29.6c-0.4-0.7-1.1-1.2-1.9-1.4l0-59c1.4-0.4,2.5-1.6,2.5-3.1
	c0-0.4-0.1-0.7-0.2-1.1l51.3-29.6c0.5,0.7,1.3,1.2,2.2,1.3l0,58.9c-1.6,0.2-2.9,1.5-2.9,3.2C109.8,980.2,109.9,980.6,110,981z
	 M2.9,913.2l50.7-29.3c0.6,0.7,1.5,1.2,2.5,1.2c1.1,0,2.1-0.6,2.7-1.5l51.3,29.6c-0.2,0.4-0.3,0.8-0.3,1.3c0,0.5,0.1,0.9,0.3,1.3
	l-51.3,29.6c-0.6-0.9-1.6-1.5-2.7-1.5c-1,0-1.9,0.5-2.5,1.2L2.9,915.7c0.2-0.4,0.3-0.8,0.3-1.3C3.1,914,3,913.6,2.9,913.2z
	 M110.4,912.5l-51.3-29.6c0.1-0.3,0.2-0.7,0.2-1.1c0-1.5-1.1-2.8-2.5-3.1v-59c0.8-0.2,1.5-0.7,1.9-1.4l51.3,29.6
	c-0.2,0.4-0.3,0.8-0.3,1.3c0,1.7,1.3,3,2.9,3.2l0,58.9C111.7,911.3,111,911.8,110.4,912.5z M59.1,750.1l51.3-29.6
	c0.5,0.7,1.3,1.2,2.2,1.3v58.9c-1.6,0.2-2.9,1.5-2.9,3.2c0,0.5,0.1,0.9,0.3,1.3l-51.3,29.6c-0.4-0.7-1.1-1.2-1.9-1.4v-59
	c1.4-0.3,2.5-1.6,2.5-3.1C59.3,750.8,59.2,750.4,59.1,750.1z M110.4,847.2l-51.3-29.6c0.1-0.3,0.2-0.7,0.2-1.1
	c0-0.4-0.1-0.7-0.2-1.1l51.3-29.6c0.6,0.8,1.5,1.3,2.6,1.3c1.1,0,2-0.5,2.6-1.3l50.7,29.3c-0.2,0.4-0.4,0.9-0.4,1.5
	c0,0.5,0.1,1,0.4,1.4l-50.7,29.3c-0.6-0.8-1.5-1.3-2.6-1.3C112,845.9,111,846.4,110.4,847.2z M169.2,754.4
	C169.2,754.4,169.2,754.4,169.2,754.4l0,58.8c0,0,0,0,0,0c-1,0-1.9,0.5-2.5,1.2L116,785.1c0.2-0.4,0.3-0.8,0.3-1.3
	c0-1.7-1.3-3-2.9-3.2v-58.9c0.9-0.1,1.7-0.6,2.2-1.3l50.7,29.3c-0.2,0.4-0.4,0.9-0.4,1.5C166,752.9,167.4,754.4,169.2,754.4z
	 M166.3,883.2l-50.7,29.3c-0.5-0.7-1.3-1.2-2.2-1.3l0-58.9c1.6-0.2,2.9-1.5,2.9-3.2c0-0.5-0.1-0.9-0.3-1.3l50.7-29.3
	c0.6,0.7,1.5,1.2,2.5,1.2c0,0,0,0,0,0v58.8c0,0,0,0,0,0c-1.8,0-3.2,1.5-3.2,3.2C166,882.3,166.1,882.8,166.3,883.2z M169.2,943.9
	c-1,0-1.9,0.5-2.5,1.2L116,915.7c0.2-0.4,0.3-0.8,0.3-1.3c0-0.5-0.1-0.9-0.3-1.3l50.7-29.3c0.6,0.7,1.5,1.2,2.5,1.2
	c1.1,0,2.1-0.6,2.7-1.5l51.3,29.6c-0.2,0.4-0.3,0.8-0.3,1.3c0,0.5,0.1,0.9,0.3,1.3l-51.3,29.6C171.3,944.4,170.3,943.9,169.2,943.9z
	 M223.6,912.5l-51.3-29.6c0.1-0.3,0.2-0.7,0.2-1.1c0-1.5-1.1-2.8-2.5-3.1v-59c0.8-0.2,1.5-0.7,1.9-1.4l51.3,29.6
	c-0.2,0.4-0.3,0.8-0.3,1.3c0,1.7,1.3,3,2.9,3.2l0,58.9C224.9,911.3,224.1,911.8,223.6,912.5z M172.2,750.1l51.3-29.6
	c0.5,0.7,1.3,1.2,2.2,1.3v58.9c-1.6,0.2-2.9,1.5-2.9,3.2c0,0.5,0.1,0.9,0.3,1.3l-51.3,29.6c-0.4-0.7-1.1-1.2-1.9-1.4v-59
	c1.4-0.3,2.5-1.6,2.5-3.1C172.4,750.8,172.4,750.4,172.2,750.1z M223.6,847.2l-51.3-29.6c0.1-0.3,0.2-0.7,0.2-1.1
	c0-0.4-0.1-0.7-0.2-1.1l51.3-29.6c0.6,0.8,1.5,1.3,2.6,1.3s2-0.5,2.6-1.3l50.7,29.3c-0.2,0.4-0.4,0.9-0.4,1.5c0,0.5,0.1,1,0.4,1.4
	l-50.7,29.3c-0.6-0.8-1.5-1.3-2.6-1.3C225.1,845.9,224.2,846.4,223.6,847.2z M282.3,754.4C282.3,754.4,282.3,754.4,282.3,754.4
	l0,58.8c0,0,0,0,0,0c-1,0-1.9,0.5-2.5,1.2l-50.7-29.3c0.2-0.4,0.3-0.8,0.3-1.3c0-1.7-1.3-3-2.9-3.2v-58.9c0.9-0.1,1.7-0.6,2.2-1.3
	l50.7,29.3c-0.2,0.4-0.4,0.9-0.4,1.5C279.1,752.9,280.5,754.4,282.3,754.4z M279.4,883.2l-50.7,29.3c-0.5-0.7-1.3-1.2-2.2-1.3
	l0-58.9c1.6-0.2,2.9-1.5,2.9-3.2c0-0.5-0.1-0.9-0.3-1.3l50.7-29.3c0.6,0.7,1.5,1.2,2.5,1.2c0,0,0,0,0,0v58.8c0,0,0,0,0,0
	c-1.8,0-3.2,1.5-3.2,3.2C279.1,882.3,279.2,882.8,279.4,883.2z M282.3,943.9c-1,0-1.9,0.5-2.5,1.2l-50.7-29.3
	c0.2-0.4,0.3-0.8,0.3-1.3c0-0.5-0.1-0.9-0.3-1.3l50.7-29.3c0.6,0.7,1.5,1.2,2.5,1.2c1.1,0,2.1-0.6,2.7-1.5l51.3,29.6
	c-0.2,0.4-0.3,0.8-0.3,1.3c0,0.5,0.1,0.9,0.3,1.3L285,945.3C284.5,944.4,283.5,943.9,282.3,943.9z M336.7,912.5l-51.3-29.6
	c0.1-0.3,0.2-0.7,0.2-1.1c0-1.5-1.1-2.8-2.5-3.1v-59c0.8-0.2,1.5-0.7,1.9-1.4l51.3,29.6c-0.2,0.4-0.3,0.8-0.3,1.3
	c0,1.7,1.3,3,2.9,3.2l0,58.9C338,911.3,337.2,911.8,336.7,912.5z M285.4,750.1l51.3-29.6c0.5,0.7,1.3,1.2,2.2,1.3v58.9
	c-1.6,0.2-2.9,1.5-2.9,3.2c0,0.5,0.1,0.9,0.3,1.3L285,814.7c-0.4-0.7-1.1-1.2-1.9-1.4v-59c1.4-0.3,2.5-1.6,2.5-3.1
	C285.6,750.8,285.5,750.4,285.4,750.1z M336.7,847.2l-51.3-29.6c0.1-0.3,0.2-0.7,0.2-1.1c0-0.4-0.1-0.7-0.2-1.1l51.3-29.6
	c0.6,0.8,1.5,1.3,2.6,1.3c1.1,0,2-0.5,2.6-1.3l50.7,29.3c-0.2,0.4-0.4,0.9-0.4,1.5c0,0.5,0.1,1,0.4,1.4l-50.7,29.3
	c-0.6-0.8-1.5-1.3-2.6-1.3C338.2,845.9,337.3,846.4,336.7,847.2z M395.5,754.4C395.5,754.4,395.5,754.4,395.5,754.4l0,58.8
	c0,0,0,0,0,0c-1,0-1.9,0.5-2.5,1.2l-50.7-29.3c0.2-0.4,0.3-0.8,0.3-1.3c0-1.7-1.3-3-2.9-3.2v-58.9c0.9-0.1,1.7-0.6,2.2-1.3
	l50.7,29.3c-0.2,0.4-0.4,0.9-0.4,1.5C392.2,752.9,393.7,754.4,395.5,754.4z M392.6,883.2l-50.7,29.3c-0.5-0.7-1.3-1.2-2.2-1.3
	l0-58.9c1.6-0.2,2.9-1.5,2.9-3.2c0-0.5-0.1-0.9-0.3-1.3l50.7-29.3c0.6,0.7,1.5,1.2,2.5,1.2c0,0,0,0,0,0v58.8c0,0,0,0,0,0
	c-1.8,0-3.2,1.5-3.2,3.2C392.2,882.3,392.4,882.8,392.6,883.2z M395.5,943.9c-1,0-1.9,0.5-2.5,1.2l-50.7-29.3
	c0.2-0.4,0.3-0.8,0.3-1.3c0-0.5-0.1-0.9-0.3-1.3l50.7-29.3c0.6,0.7,1.5,1.2,2.5,1.2c1.1,0,2.1-0.6,2.7-1.5l51.3,29.6
	c-0.2,0.4-0.3,0.8-0.3,1.3c0,0.5,0.1,0.9,0.3,1.3l-51.3,29.6C397.6,944.4,396.6,943.9,395.5,943.9z M449.8,912.5l-51.3-29.6
	c0.1-0.3,0.2-0.7,0.2-1.1c0-1.5-1.1-2.8-2.5-3.1v-59c0.8-0.2,1.5-0.7,1.9-1.4l51.3,29.6c-0.2,0.4-0.3,0.8-0.3,1.3
	c0,1.7,1.3,3,2.9,3.2l0,58.9C451.1,911.3,450.4,911.8,449.8,912.5z M398.5,750.1l51.3-29.6c0.5,0.7,1.3,1.2,2.2,1.3v58.9
	c-1.6,0.2-2.9,1.5-2.9,3.2c0,0.5,0.1,0.9,0.3,1.3l-51.3,29.6c-0.4-0.7-1.1-1.2-1.9-1.4v-59c1.4-0.3,2.5-1.6,2.5-3.1
	C398.7,750.8,398.6,750.4,398.5,750.1z M449.8,847.2l-51.3-29.6c0.1-0.3,0.2-0.7,0.2-1.1c0-0.4-0.1-0.7-0.2-1.1l51.3-29.6
	c0.6,0.8,1.5,1.3,2.6,1.3s2-0.5,2.6-1.3l50.7,29.3c-0.2,0.4-0.4,0.9-0.4,1.5c0,0.5,0.1,1,0.4,1.4L455,847.2
	c-0.6-0.8-1.5-1.3-2.6-1.3S450.4,846.4,449.8,847.2z M505.7,883.2L455,912.5c-0.5-0.7-1.3-1.2-2.2-1.3l0-58.9
	c1.6-0.2,2.9-1.5,2.9-3.2c0-0.5-0.1-0.9-0.3-1.3l50.7-29.3c0.6,0.7,1.5,1.2,2.5,1.2c0,0,0,0,0,0v58.8c0,0,0,0,0,0
	c-1.8,0-3.2,1.5-3.2,3.2C505.4,882.3,505.5,882.8,505.7,883.2z M508.6,813.2C508.6,813.2,508.6,813.2,508.6,813.2
	c-1,0-1.9,0.5-2.5,1.2l-50.7-29.3c0.2-0.4,0.3-0.8,0.3-1.3c0-1.7-1.3-3-2.9-3.2v-58.9c0.9-0.1,1.7-0.6,2.2-1.3l50.7,29.3
	c-0.2,0.4-0.4,0.9-0.4,1.5c0,1.8,1.5,3.2,3.2,3.2c0,0,0,0,0,0V813.2z M508.6,623.8C508.6,623.8,508.6,623.8,508.6,623.8l0,58.8
	c0,0,0,0,0,0c-1.8,0-3.2,1.5-3.2,3.2c0,0.5,0.1,1,0.4,1.4L455,716.6c-0.5-0.7-1.3-1.2-2.2-1.3v-58.9c1.6-0.2,2.9-1.5,2.9-3.2
	c0-0.5-0.1-0.9-0.3-1.3l50.7-29.3C506.7,623.3,507.6,623.8,508.6,623.8z M398.5,619.4l51.3-29.6c0.6,0.8,1.5,1.3,2.6,1.3
	c1.1,0,2-0.5,2.6-1.3l50.7,29.3c-0.2,0.4-0.4,0.9-0.4,1.5c0,0.5,0.1,1,0.4,1.4L455,651.2c-0.6-0.8-1.5-1.3-2.6-1.3
	c-1.1,0-2,0.5-2.6,1.3l-51.3-29.6c0.1-0.3,0.2-0.7,0.2-1.1C398.7,620.1,398.6,619.8,398.5,619.4z M396.2,623.7
	c0.8-0.2,1.5-0.7,1.9-1.4l51.3,29.6c-0.2,0.4-0.3,0.8-0.3,1.3c0,1.7,1.3,3,2.9,3.2v58.9c-0.9,0.1-1.7,0.6-2.2,1.3l-51.3-29.6
	c0.1-0.3,0.2-0.7,0.2-1.1c0-1.5-1.1-2.8-2.5-3.1V623.7z M398.2,687.6l51.3,29.6c-0.2,0.4-0.3,0.8-0.3,1.3c0,0.5,0.1,0.9,0.3,1.3
	l-51.3,29.6c-0.6-0.9-1.6-1.5-2.7-1.5c-1,0-1.9,0.5-2.5,1.2l-50.7-29.3c0.2-0.4,0.3-0.8,0.3-1.3c0-0.5-0.1-0.9-0.3-1.3l50.7-29.3
	c0.6,0.7,1.5,1.2,2.5,1.2C396.6,689.1,397.6,688.5,398.2,687.6z M395.5,623.8C395.5,623.8,395.5,623.8,395.5,623.8l0,58.8
	c0,0,0,0,0,0c-1.8,0-3.2,1.5-3.2,3.2c0,0.5,0.1,1,0.4,1.4l-50.7,29.3c-0.5-0.7-1.3-1.2-2.2-1.3v-58.9c1.6-0.2,2.9-1.5,2.9-3.2
	c0-0.5-0.1-0.9-0.3-1.3l50.7-29.3C393.6,623.3,394.5,623.8,395.5,623.8z M285.4,619.4l51.3-29.6c0.6,0.8,1.5,1.3,2.6,1.3
	c1.1,0,2-0.5,2.6-1.3l50.7,29.3c-0.2,0.4-0.4,0.9-0.4,1.4c0,0.5,0.1,1,0.4,1.4l-50.7,29.3c-0.6-0.8-1.5-1.3-2.6-1.3
	c-1.1,0-2,0.5-2.6,1.3l-51.3-29.6c0.1-0.3,0.2-0.7,0.2-1.1C285.6,620.1,285.5,619.8,285.4,619.4z M283.1,623.7
	c0.8-0.2,1.5-0.7,1.9-1.4l51.3,29.6c-0.2,0.4-0.3,0.8-0.3,1.3c0,1.7,1.3,3,2.9,3.2v58.9c-0.9,0.1-1.7,0.6-2.2,1.3l-51.3-29.6
	c0.1-0.3,0.2-0.7,0.2-1.1c0-1.5-1.1-2.8-2.5-3.1V623.7z M285,687.6l51.3,29.6c-0.2,0.4-0.3,0.8-0.3,1.3c0,0.5,0.1,0.9,0.3,1.3
	L285,749.4c-0.6-0.9-1.6-1.5-2.7-1.5c-1,0-1.9,0.5-2.5,1.2l-50.7-29.3c0.2-0.4,0.3-0.8,0.3-1.3c0-0.5-0.1-0.9-0.3-1.3l50.7-29.3
	c0.6,0.7,1.5,1.2,2.5,1.2C283.5,689.1,284.5,688.5,285,687.6z M282.3,623.8C282.3,623.8,282.3,623.8,282.3,623.8l0,58.8c0,0,0,0,0,0
	c-1.8,0-3.2,1.5-3.2,3.2c0,0.5,0.1,1,0.4,1.4l-50.7,29.3c-0.5-0.7-1.3-1.2-2.2-1.3v-58.9c1.6-0.2,2.9-1.5,2.9-3.2
	c0-0.5-0.1-0.9-0.3-1.3l50.7-29.3C280.5,623.3,281.3,623.8,282.3,623.8z M172.2,619.4l51.3-29.6c0.6,0.8,1.5,1.3,2.6,1.3
	c1.1,0,2-0.5,2.6-1.3l50.7,29.3c-0.2,0.4-0.4,0.9-0.4,1.5c0,0.5,0.1,1,0.4,1.5l-50.7,29.3c-0.6-0.8-1.5-1.3-2.6-1.3
	c-1.1,0-2,0.5-2.6,1.3l-51.3-29.6c0.1-0.3,0.2-0.7,0.2-1.1C172.4,620.1,172.4,619.8,172.2,619.4z M170,623.7
	c0.8-0.2,1.5-0.7,1.9-1.4l51.3,29.6c-0.2,0.4-0.3,0.8-0.3,1.3c0,1.7,1.3,3,2.9,3.2v58.9c-0.9,0.1-1.7,0.6-2.2,1.3l-51.3-29.6
	c0.1-0.3,0.2-0.7,0.2-1.1c0-1.5-1.1-2.8-2.5-3.1V623.7z M171.9,687.6l51.3,29.6c-0.2,0.4-0.3,0.8-0.3,1.3c0,0.5,0.1,0.9,0.3,1.3
	l-51.3,29.6c-0.6-0.9-1.6-1.5-2.7-1.5c-1,0-1.9,0.5-2.5,1.2L116,719.8c0.2-0.4,0.3-0.8,0.3-1.3c0-0.5-0.1-0.9-0.3-1.3l50.7-29.3
	c0.6,0.7,1.5,1.2,2.5,1.2C170.3,689.1,171.3,688.5,171.9,687.6z M169.2,623.8C169.2,623.8,169.2,623.8,169.2,623.8l0,58.8
	c0,0,0,0,0,0c-1.8,0-3.2,1.5-3.2,3.2c0,0.5,0.1,1,0.4,1.4l-50.7,29.3c-0.5-0.7-1.3-1.2-2.2-1.3v-58.9c1.6-0.2,2.9-1.5,2.9-3.2
	c0-0.5-0.1-0.9-0.3-1.3l50.7-29.3C167.3,623.3,168.2,623.8,169.2,623.8z M59.1,619.4l51.3-29.6c0.6,0.8,1.5,1.3,2.6,1.3
	c1.1,0,2-0.5,2.6-1.3l50.7,29.3c-0.2,0.4-0.4,0.9-0.4,1.5c0,0.5,0.1,1,0.4,1.5l-50.7,29.3c-0.6-0.8-1.5-1.3-2.6-1.3
	c-1.1,0-2,0.5-2.6,1.3l-51.3-29.6c0.1-0.3,0.2-0.7,0.2-1.1C59.3,620.1,59.2,619.8,59.1,619.4z M56.8,623.7c0.8-0.2,1.5-0.7,1.9-1.4
	l51.3,29.6c-0.2,0.4-0.3,0.8-0.3,1.3c0,1.7,1.3,3,2.9,3.2v58.9c-0.9,0.1-1.7,0.6-2.2,1.3l-51.3-29.6c0.1-0.3,0.2-0.7,0.2-1.1
	c0-1.5-1.1-2.8-2.5-3.1V623.7z M58.8,687.6l51.3,29.6c-0.2,0.4-0.3,0.8-0.3,1.3c0,0.5,0.1,0.9,0.3,1.3l-51.3,29.6
	c-0.6-0.9-1.6-1.5-2.7-1.5c-1,0-1.9,0.5-2.5,1.2L2.9,719.8c0.2-0.4,0.3-0.8,0.3-1.3c0-0.5-0.1-0.9-0.3-1.3l50.7-29.3
	c0.6,0.7,1.5,1.2,2.5,1.2C57.2,689.1,58.2,688.5,58.8,687.6z M0.3,656.4c1.6-0.2,2.9-1.5,2.9-3.2c0-0.5-0.1-0.9-0.3-1.3l50.7-29.3
	c0.6,0.7,1.5,1.2,2.5,1.2c0,0,0,0,0,0v58.8c0,0,0,0,0,0c-1.8,0-3.2,1.5-3.2,3.2c0,0.5,0.1,1,0.4,1.4L2.5,716.6
	c-0.5-0.7-1.3-1.2-2.2-1.3V656.4z M2.9,785.1c0.2-0.4,0.3-0.8,0.3-1.3c0-1.7-1.3-3-2.9-3.2v-58.9c0.9-0.1,1.7-0.6,2.2-1.3l50.7,29.3
	c-0.2,0.4-0.4,0.9-0.4,1.5c0,1.8,1.5,3.2,3.2,3.2c0,0,0,0,0,0v58.8c0,0,0,0,0,0c-1,0-1.9,0.5-2.5,1.2L2.9,785.1z M3.1,849.1
	c0-0.5-0.1-0.9-0.3-1.3l50.7-29.3c0.6,0.7,1.5,1.2,2.5,1.2c0,0,0,0,0,0v58.8c0,0,0,0,0,0c-1.8,0-3.2,1.5-3.2,3.2
	c0,0.5,0.1,1,0.4,1.4L2.5,912.5c-0.5-0.7-1.3-1.2-2.2-1.3l0-58.9C1.9,852.1,3.1,850.8,3.1,849.1z M2.9,981c0.2-0.4,0.3-0.8,0.3-1.3
	c0-1.7-1.3-3-2.9-3.2l0-58.9c0.9-0.1,1.7-0.6,2.2-1.3l50.7,29.3c-0.2,0.4-0.4,0.9-0.4,1.5c0,1.8,1.5,3.2,3.2,3.2c0,0,0,0,0,0l0,58.8
	c0,0,0,0,0,0c-1,0-1.9,0.5-2.5,1.2L2.9,981z M2.5,1108.5c-0.5-0.7-1.3-1.2-2.2-1.3l0-58.9c1.6-0.2,2.9-1.5,2.9-3.2
	c0-0.5-0.1-0.9-0.3-1.3l50.7-29.3c0.6,0.7,1.5,1.2,2.5,1.2c0,0,0,0,0,0l0,58.8c0,0,0,0,0,0c-1.8,0-3.2,1.5-3.2,3.2
	c0,0.5,0.1,1,0.4,1.4L2.5,1108.5z M110,1111.7l-51.3,29.6c-0.6-0.9-1.6-1.5-2.7-1.5c-1,0-1.9,0.5-2.5,1.2l-50.7-29.3
	c0.2-0.4,0.3-0.8,0.3-1.3c0-0.5-0.1-0.9-0.3-1.3l50.7-29.3c0.6,0.7,1.5,1.2,2.5,1.2c1.1,0,2.1-0.6,2.7-1.5l51.3,29.6
	c-0.2,0.4-0.3,0.8-0.3,1.3C109.8,1110.8,109.9,1111.3,110,1111.7z M110.4,1108.5l-51.3-29.6c0.1-0.3,0.2-0.7,0.2-1.1
	c0-1.5-1.1-2.8-2.5-3.1l0-59c0.8-0.2,1.5-0.7,1.9-1.4l51.3,29.6c-0.2,0.4-0.3,0.8-0.3,1.3c0,1.7,1.3,3,2.9,3.2l0,58.9
	C111.7,1107.3,111,1107.8,110.4,1108.5z M113,1041.8c-1.1,0-2,0.5-2.6,1.3l-51.3-29.6c0.1-0.3,0.2-0.7,0.2-1.1
	c0-0.4-0.1-0.7-0.2-1.1l51.3-29.6c0.6,0.8,1.5,1.3,2.6,1.3c1.1,0,2-0.5,2.6-1.3l50.7,29.3c-0.2,0.4-0.4,0.9-0.4,1.5
	c0,0.5,0.1,1,0.4,1.4l-50.7,29.3C115,1042.4,114.1,1041.8,113,1041.8z M115.6,1108.5c-0.5-0.7-1.3-1.2-2.2-1.3l0-58.9
	c1.6-0.2,2.9-1.5,2.9-3.2c0-0.5-0.1-0.9-0.3-1.3l50.7-29.3c0.6,0.7,1.5,1.2,2.5,1.2c0,0,0,0,0,0l0,58.8c0,0,0,0,0,0
	c-1.8,0-3.2,1.5-3.2,3.2c0,0.5,0.1,1,0.4,1.4L115.6,1108.5z M223.2,1111.7l-51.3,29.6c-0.6-0.9-1.6-1.5-2.7-1.5
	c-1,0-1.9,0.5-2.5,1.2l-50.7-29.3c0.2-0.4,0.3-0.8,0.3-1.3c0-0.5-0.1-0.9-0.3-1.3l50.7-29.3c0.6,0.7,1.5,1.2,2.5,1.2
	c1.1,0,2.1-0.6,2.7-1.5l51.3,29.6c-0.2,0.4-0.3,0.8-0.3,1.3C222.9,1110.8,223,1111.3,223.2,1111.7z M223.6,1108.5l-51.3-29.6
	c0.1-0.3,0.2-0.7,0.2-1.1c0-1.5-1.1-2.8-2.5-3.1l0-59c0.8-0.2,1.5-0.7,1.9-1.4l51.3,29.6c-0.2,0.4-0.3,0.8-0.3,1.3
	c0,1.7,1.3,3,2.9,3.2l0,58.9C224.9,1107.3,224.1,1107.8,223.6,1108.5z M226.2,1041.8c-1.1,0-2,0.5-2.6,1.3l-51.3-29.6
	c0.1-0.3,0.2-0.7,0.2-1.1c0-0.4-0.1-0.7-0.2-1.1l51.3-29.6c0.6,0.8,1.5,1.3,2.6,1.3c1.1,0,2-0.5,2.6-1.3l50.7,29.3
	c-0.2,0.4-0.4,0.9-0.4,1.5c0,0.5,0.1,1,0.4,1.4l-50.7,29.3C228.2,1042.4,227.2,1041.8,226.2,1041.8z M228.7,1108.5
	c-0.5-0.7-1.3-1.2-2.2-1.3l0-58.9c1.6-0.2,2.9-1.5,2.9-3.2c0-0.5-0.1-0.9-0.3-1.3l50.7-29.3c0.6,0.7,1.5,1.2,2.5,1.2c0,0,0,0,0,0
	l0,58.8c0,0,0,0,0,0c-1.8,0-3.2,1.5-3.2,3.2c0,0.5,0.1,1,0.4,1.4L228.7,1108.5z M336.3,1111.7l-51.3,29.6c-0.6-0.9-1.6-1.5-2.7-1.5
	c-1,0-1.9,0.5-2.5,1.2l-50.7-29.3c0.2-0.4,0.3-0.8,0.3-1.3c0-0.5-0.1-0.9-0.3-1.3l50.7-29.3c0.6,0.7,1.5,1.2,2.5,1.2
	c1.1,0,2.1-0.6,2.7-1.5l51.3,29.6c-0.2,0.4-0.3,0.8-0.3,1.3C336.1,1110.8,336.1,1111.3,336.3,1111.7z M336.7,1108.5l-51.3-29.6
	c0.1-0.3,0.2-0.7,0.2-1.1c0-1.5-1.1-2.8-2.5-3.1l0-59c0.8-0.2,1.5-0.7,1.9-1.4l51.3,29.6c-0.2,0.4-0.3,0.8-0.3,1.3
	c0,1.7,1.3,3,2.9,3.2l0,58.9C338,1107.3,337.2,1107.8,336.7,1108.5z M339.3,1041.8c-1.1,0-2,0.5-2.6,1.3l-51.3-29.6
	c0.1-0.3,0.2-0.7,0.2-1.1c0-0.4-0.1-0.7-0.2-1.1l51.3-29.6c0.6,0.8,1.5,1.3,2.6,1.3c1.1,0,2-0.5,2.6-1.3l50.7,29.3
	c-0.2,0.4-0.4,0.9-0.4,1.5c0,0.5,0.1,1,0.4,1.4l-50.7,29.3C341.3,1042.4,340.4,1041.8,339.3,1041.8z M341.9,1108.5
	c-0.5-0.7-1.3-1.2-2.2-1.3l0-58.9c1.6-0.2,2.9-1.5,2.9-3.2c0-0.5-0.1-0.9-0.3-1.3l50.7-29.3c0.6,0.7,1.5,1.2,2.5,1.2c0,0,0,0,0,0
	l0,58.8c0,0,0,0,0,0c-1.8,0-3.2,1.5-3.2,3.2c0,0.5,0.1,1,0.4,1.4L341.9,1108.5z M449.4,1111.7l-51.3,29.6c-0.6-0.9-1.6-1.5-2.7-1.5
	c-1,0-1.9,0.5-2.5,1.2l-50.7-29.3c0.2-0.4,0.3-0.8,0.3-1.3c0-0.5-0.1-0.9-0.3-1.3l50.7-29.3c0.6,0.7,1.5,1.2,2.5,1.2
	c1.1,0,2.1-0.6,2.7-1.5l51.3,29.6c-0.2,0.4-0.3,0.8-0.3,1.3C449.2,1110.8,449.3,1111.3,449.4,1111.7z M449.8,1108.5l-51.3-29.6
	c0.1-0.3,0.2-0.7,0.2-1.1c0-1.5-1.1-2.8-2.5-3.1l0-59c0.8-0.2,1.5-0.7,1.9-1.4l51.3,29.6c-0.2,0.4-0.3,0.8-0.3,1.3
	c0,1.7,1.3,3,2.9,3.2l0,58.9C451.1,1107.3,450.4,1107.8,449.8,1108.5z M452.4,1041.8c-1.1,0-2,0.5-2.6,1.3l-51.3-29.6
	c0.1-0.3,0.2-0.7,0.2-1.1c0-0.4-0.1-0.7-0.2-1.1l51.3-29.6c0.6,0.8,1.5,1.3,2.6,1.3c1.1,0,2-0.5,2.6-1.3l50.7,29.3
	c-0.2,0.4-0.4,0.9-0.4,1.5c0,0.5,0.1,1,0.4,1.4l-50.7,29.3C454.4,1042.4,453.5,1041.8,452.4,1041.8z M455,1108.5
	c-0.5-0.7-1.3-1.2-2.2-1.3l0-58.9c1.6-0.2,2.9-1.5,2.9-3.2c0-0.5-0.1-0.9-0.3-1.3l50.7-29.3c0.6,0.7,1.5,1.2,2.5,1.2c0,0,0,0,0,0
	l0,58.8c0,0,0,0,0,0c-1.8,0-3.2,1.5-3.2,3.2c0,0.5,0.1,1,0.4,1.4L455,1108.5z M562.6,1111.7l-51.3,29.6c-0.6-0.9-1.6-1.5-2.7-1.5
	c-1,0-1.9,0.5-2.5,1.2l-50.7-29.3c0.2-0.4,0.3-0.8,0.3-1.3c0-0.5-0.1-0.9-0.3-1.3l50.7-29.3c0.6,0.7,1.5,1.2,2.5,1.2
	c1.1,0,2.1-0.6,2.7-1.5l51.3,29.6c-0.2,0.4-0.3,0.8-0.3,1.3C562.3,1110.8,562.4,1111.3,562.6,1111.7z M562.6,1043.8
	c-0.2,0.4-0.3,0.8-0.3,1.3c0,1.7,1.3,3,2.9,3.2l0,58.9c-0.9,0.1-1.7,0.6-2.2,1.3l-51.3-29.6c0.1-0.3,0.2-0.7,0.2-1.1
	c0-1.5-1.1-2.8-2.5-3.1l0-59c0.8-0.2,1.5-0.7,1.9-1.4L562.6,1043.8z M565.2,976.6c-1.6,0.2-2.9,1.5-2.9,3.2c0,0.5,0.1,0.9,0.3,1.3
	l-51.3,29.6c-0.4-0.7-1.1-1.2-1.9-1.4l0-59c1.4-0.4,2.5-1.6,2.5-3.1c0-0.4-0.1-0.7-0.2-1.1l51.3-29.6c0.5,0.7,1.3,1.2,2.2,1.3
	L565.2,976.6z M562.6,847.8c-0.2,0.4-0.3,0.8-0.3,1.3c0,1.7,1.3,3,2.9,3.2l0,58.9c-0.9,0.1-1.7,0.6-2.2,1.3l-51.3-29.6
	c0.1-0.3,0.2-0.7,0.2-1.1c0-1.5-1.1-2.8-2.5-3.1v-59c0.8-0.2,1.5-0.7,1.9-1.4L562.6,847.8z M565.2,780.6c-1.6,0.2-2.9,1.5-2.9,3.2
	c0,0.5,0.1,0.9,0.3,1.3l-51.3,29.6c-0.4-0.7-1.1-1.2-1.9-1.4v-59c1.4-0.3,2.5-1.6,2.5-3.1c0-0.4-0.1-0.7-0.2-1.1l51.3-29.6
	c0.5,0.7,1.3,1.2,2.2,1.3V780.6z M562.6,651.9c-0.2,0.4-0.3,0.8-0.3,1.3c0,1.7,1.3,3,2.9,3.2v58.9c-0.9,0.1-1.7,0.6-2.2,1.3
	l-51.3-29.6c0.1-0.3,0.2-0.7,0.2-1.1c0-1.5-1.1-2.8-2.5-3.1v-59c0.8-0.2,1.5-0.7,1.9-1.4L562.6,651.9z"/>
<path opacity="0.41" fill="#D0E2DF" d="M1131,591.1v-3.2h-3.2c0,0.5,0.1,0.9,0.3,1.3l-51.3,29.6c-0.4-0.7-1.1-1.2-1.9-1.4v-29.5
	h-0.8v29.4c0,0,0,0,0,0c-1,0-1.9,0.5-2.5,1.2l-50.7-29.3c0.2-0.4,0.3-0.8,0.3-1.3h-6.5c0,0.5,0.1,0.9,0.3,1.3l-51.3,29.6
	c-0.4-0.7-1.1-1.2-1.9-1.4v-29.5h-0.8v29.4c0,0,0,0,0,0c-1,0-1.9,0.5-2.5,1.2l-50.7-29.3c0.2-0.4,0.3-0.8,0.3-1.3h-6.5
	c0,0.5,0.1,0.9,0.3,1.3l-51.3,29.6c-0.4-0.7-1.1-1.2-1.9-1.4v-29.5h-0.8v29.4c0,0,0,0,0,0c-1,0-1.9,0.5-2.5,1.2l-50.7-29.3
	c0.2-0.4,0.3-0.8,0.3-1.3h-6.5c0,0.5,0.1,0.9,0.3,1.3l-51.3,29.6c-0.4-0.7-1.1-1.2-1.9-1.4v-29.5h-0.8v29.4c0,0,0,0,0,0
	c-1,0-1.9,0.5-2.5,1.2l-50.7-29.3c0.2-0.4,0.3-0.8,0.3-1.3h-6.5c0,0.5,0.1,0.9,0.3,1.3l-51.3,29.6c-0.4-0.7-1.1-1.2-1.9-1.4v-29.5
	h-0.8v29.4c0,0,0,0,0,0c-1,0-1.9,0.5-2.5,1.2l-50.7-29.3c0.2-0.4,0.3-0.8,0.3-1.3h-3.2v3.2c1.1,0,2-0.5,2.6-1.3l50.7,29.3
	c-0.2,0.4-0.4,0.9-0.4,1.5c0,0.5,0.1,1,0.4,1.5l-50.7,29.3c-0.6-0.8-1.5-1.3-2.6-1.3v137.1c1.1,0,2-0.5,2.6-1.3l50.7,29.3
	c-0.2,0.4-0.4,0.9-0.4,1.5c0,0.5,0.1,1,0.4,1.4l-50.7,29.3c-0.6-0.8-1.5-1.3-2.6-1.3V983c1.1,0,2-0.5,2.6-1.3l50.7,29.3
	c-0.2,0.4-0.4,0.9-0.4,1.5c0,0.5,0.1,1,0.4,1.4l-50.7,29.3c-0.6-0.8-1.5-1.3-2.6-1.3v133.9h3.2c0-1.7-1.3-3-2.9-3.2l0-58.9
	c0.9-0.1,1.7-0.6,2.2-1.3l50.7,29.3c-0.2,0.4-0.4,0.9-0.4,1.5c0,1.8,1.5,3.2,3.2,3.2c0,0,0,0,0,0v29.4h0.8v-29.5
	c1.4-0.4,2.5-1.6,2.5-3.1c0-0.4-0.1-0.7-0.2-1.1l51.3-29.6c0.5,0.7,1.3,1.2,2.2,1.3l0,58.9c-1.6,0.2-2.9,1.5-2.9,3.2h6.5
	c0-1.7-1.3-3-2.9-3.2l0-58.9c0.9-0.1,1.7-0.6,2.2-1.3l50.7,29.3c-0.2,0.4-0.4,0.9-0.4,1.5c0,1.8,1.5,3.2,3.2,3.2c0,0,0,0,0,0v29.4
	h0.8v-29.5c1.4-0.4,2.5-1.6,2.5-3.1c0-0.4-0.1-0.7-0.2-1.1l51.3-29.6c0.5,0.7,1.3,1.2,2.2,1.3l0,58.9c-1.6,0.2-2.9,1.5-2.9,3.2h6.5
	c0-1.7-1.3-3-2.9-3.2l0-58.9c0.9-0.1,1.7-0.6,2.2-1.3l50.7,29.3c-0.2,0.4-0.4,0.9-0.4,1.5c0,1.8,1.5,3.2,3.2,3.2c0,0,0,0,0,0l0,29.4
	h0.8l0-29.5c1.4-0.4,2.5-1.6,2.5-3.1c0-0.4-0.1-0.7-0.2-1.1l51.3-29.6c0.5,0.7,1.3,1.2,2.2,1.3l0,58.9c-1.6,0.2-2.9,1.5-2.9,3.2h6.5
	c0-1.7-1.3-3-2.9-3.2l0-58.9c0.9-0.1,1.7-0.6,2.2-1.3l50.7,29.3c-0.2,0.4-0.4,0.9-0.4,1.5c0,1.8,1.5,3.2,3.2,3.2c0,0,0,0,0,0v29.4
	h0.8v-29.5c1.4-0.4,2.5-1.6,2.5-3.1c0-0.4-0.1-0.7-0.2-1.1l51.3-29.6c0.5,0.7,1.3,1.2,2.2,1.3l0,58.9c-1.6,0.2-2.9,1.5-2.9,3.2h6.5
	c0-1.7-1.3-3-2.9-3.2l0-58.9c0.9-0.1,1.7-0.6,2.2-1.3l50.7,29.3c-0.2,0.4-0.4,0.9-0.4,1.5c0,1.8,1.5,3.2,3.2,3.2c0,0,0,0,0,0v29.4
	h0.8v-29.5c1.4-0.4,2.5-1.6,2.5-3.1c0-0.4-0.1-0.7-0.2-1.1l51.3-29.6c0.5,0.7,1.3,1.2,2.2,1.3l0,58.9c-1.6,0.2-2.9,1.5-2.9,3.2h3.2
	v-133.9c-1.1,0-2,0.5-2.6,1.3l-51.3-29.6c0.1-0.3,0.2-0.7,0.2-1.1c0-0.4-0.1-0.7-0.2-1.1l51.3-29.6c0.6,0.8,1.5,1.3,2.6,1.3V845.9
	c-1.1,0-2,0.5-2.6,1.3l-51.3-29.6c0.1-0.3,0.2-0.7,0.2-1.1c0-0.4-0.1-0.7-0.2-1.1l51.3-29.6c0.6,0.8,1.5,1.3,2.6,1.3V649.9
	c-1.1,0-2,0.5-2.6,1.3l-51.3-29.6c0.1-0.3,0.2-0.7,0.2-1.1c0-0.4-0.1-0.7-0.2-1.1l51.3-29.6C1129,590.6,1129.9,591.1,1131,591.1z
	 M1076.7,687.6l51.3,29.6c-0.2,0.4-0.3,0.8-0.3,1.3c0,0.5,0.1,0.9,0.3,1.3l-51.3,29.6c-0.6-0.9-1.6-1.5-2.7-1.5
	c-1,0-1.9,0.5-2.5,1.2l-50.7-29.3c0.2-0.4,0.3-0.8,0.3-1.3c0-0.5-0.1-0.9-0.3-1.3l50.7-29.3c0.6,0.7,1.5,1.2,2.5,1.2
	C1075.2,689.1,1076.1,688.5,1076.7,687.6z M1128,915.7l-51.3,29.6c-0.6-0.9-1.6-1.5-2.7-1.5c-1,0-1.9,0.5-2.5,1.2l-50.7-29.3
	c0.2-0.4,0.3-0.8,0.3-1.3c0-0.5-0.1-0.9-0.3-1.3l50.7-29.3c0.6,0.7,1.5,1.2,2.5,1.2c1.1,0,2.1-0.6,2.7-1.5l51.3,29.6
	c-0.2,0.4-0.3,0.8-0.3,1.3C1127.7,914.9,1127.8,915.3,1128,915.7z M1018.2,976.6l0-58.9c0.9-0.1,1.7-0.6,2.2-1.3l50.7,29.3
	c-0.2,0.4-0.4,0.9-0.4,1.5c0,1.8,1.5,3.2,3.2,3.2c0,0,0,0,0,0l0,58.8c0,0,0,0,0,0c-1,0-1.9,0.5-2.5,1.2l-50.7-29.3
	c0.2-0.4,0.3-0.8,0.3-1.3C1021.1,978.1,1019.8,976.7,1018.2,976.6z M1014.9,981l-51.3,29.6c-0.4-0.7-1.1-1.2-1.9-1.4l0-59
	c1.4-0.4,2.5-1.6,2.5-3.1c0-0.4-0.1-0.7-0.2-1.1l51.3-29.6c0.5,0.7,1.3,1.2,2.2,1.3l0,58.9c-1.6,0.2-2.9,1.5-2.9,3.2
	C1014.6,980.2,1014.7,980.6,1014.9,981z M905.1,976.6l0-58.9c0.9-0.1,1.7-0.6,2.2-1.3l50.7,29.3c-0.2,0.4-0.4,0.9-0.4,1.5
	c0,1.8,1.5,3.2,3.2,3.2c0,0,0,0,0,0l0,58.8c0,0,0,0,0,0c-1,0-1.9,0.5-2.5,1.2L907.7,981c0.2-0.4,0.3-0.8,0.3-1.3
	C908,978.1,906.7,976.7,905.1,976.6z M901.7,981l-51.3,29.6c-0.4-0.7-1.1-1.2-1.9-1.4l0-59c1.4-0.4,2.5-1.6,2.5-3.1
	c0-0.4-0.1-0.7-0.2-1.1l51.3-29.6c0.5,0.7,1.3,1.2,2.2,1.3l0,58.9c-1.6,0.2-2.9,1.5-2.9,3.2C901.5,980.2,901.6,980.6,901.7,981z
	 M792,976.6l0-58.9c0.9-0.1,1.7-0.6,2.2-1.3l50.7,29.3c-0.2,0.4-0.4,0.9-0.4,1.5c0,1.8,1.5,3.2,3.2,3.2c0,0,0,0,0,0l0,58.8
	c0,0,0,0,0,0c-1,0-1.9,0.5-2.5,1.2L794.6,981c0.2-0.4,0.3-0.8,0.3-1.3C794.8,978.1,793.6,976.7,792,976.6z M788.6,981l-51.3,29.6
	c-0.4-0.7-1.1-1.2-1.9-1.4l0-59c1.4-0.4,2.5-1.6,2.5-3.1c0-0.4-0.1-0.7-0.2-1.1l51.3-29.6c0.5,0.7,1.3,1.2,2.2,1.3l0,58.9
	c-1.6,0.2-2.9,1.5-2.9,3.2C788.3,980.2,788.4,980.6,788.6,981z M678.8,976.6l0-58.9c0.9-0.1,1.7-0.6,2.2-1.3l50.7,29.3
	c-0.2,0.4-0.4,0.9-0.4,1.5c0,1.8,1.5,3.2,3.2,3.2c0,0,0,0,0,0l0,58.8c0,0,0,0,0,0c-1,0-1.9,0.5-2.5,1.2L681.4,981
	c0.2-0.4,0.3-0.8,0.3-1.3C681.7,978.1,680.4,976.7,678.8,976.6z M675.5,981l-51.3,29.6c-0.4-0.7-1.1-1.2-1.9-1.4l0-59
	c1.4-0.4,2.5-1.6,2.5-3.1c0-0.4-0.1-0.7-0.2-1.1l51.3-29.6c0.5,0.7,1.3,1.2,2.2,1.3l0,58.9c-1.6,0.2-2.9,1.5-2.9,3.2
	C675.2,980.2,675.3,980.6,675.5,981z M568.3,913.2l50.7-29.3c0.6,0.7,1.5,1.2,2.5,1.2c1.1,0,2.1-0.6,2.7-1.5l51.3,29.6
	c-0.2,0.4-0.3,0.8-0.3,1.3c0,0.5,0.1,0.9,0.3,1.3l-51.3,29.6c-0.6-0.9-1.6-1.5-2.7-1.5c-1,0-1.9,0.5-2.5,1.2l-50.7-29.3
	c0.2-0.4,0.3-0.8,0.3-1.3C568.6,914,568.5,913.6,568.3,913.2z M675.9,912.5l-51.3-29.6c0.1-0.3,0.2-0.7,0.2-1.1
	c0-1.5-1.1-2.8-2.5-3.1v-59c0.8-0.2,1.5-0.7,1.9-1.4l51.3,29.6c-0.2,0.4-0.3,0.8-0.3,1.3c0,1.7,1.3,3,2.9,3.2l0,58.9
	C677.2,911.3,676.4,911.8,675.9,912.5z M624.5,750.1l51.3-29.6c0.5,0.7,1.3,1.2,2.2,1.3v58.9c-1.6,0.2-2.9,1.5-2.9,3.2
	c0,0.5,0.1,0.9,0.3,1.3l-51.3,29.6c-0.4-0.7-1.1-1.2-1.9-1.4v-59c1.4-0.3,2.5-1.6,2.5-3.1C624.7,750.8,624.7,750.4,624.5,750.1z
	 M675.9,847.2l-51.3-29.6c0.1-0.3,0.2-0.7,0.2-1.1c0-0.4-0.1-0.7-0.2-1.1l51.3-29.6c0.6,0.8,1.5,1.3,2.6,1.3c1.1,0,2-0.5,2.6-1.3
	l50.7,29.3c-0.2,0.4-0.4,0.9-0.4,1.5c0,0.5,0.1,1,0.4,1.4L681,847.2c-0.6-0.8-1.5-1.3-2.6-1.3S676.5,846.4,675.9,847.2z
	 M734.6,754.4C734.6,754.4,734.6,754.4,734.6,754.4l0,58.8c0,0,0,0,0,0c-1,0-1.9,0.5-2.5,1.2l-50.7-29.3c0.2-0.4,0.3-0.8,0.3-1.3
	c0-1.7-1.3-3-2.9-3.2v-58.9c0.9-0.1,1.7-0.6,2.2-1.3l50.7,29.3c-0.2,0.4-0.4,0.9-0.4,1.5C731.4,752.9,732.8,754.4,734.6,754.4z
	 M731.7,883.2L681,912.5c-0.5-0.7-1.3-1.2-2.2-1.3l0-58.9c1.6-0.2,2.9-1.5,2.9-3.2c0-0.5-0.1-0.9-0.3-1.3l50.7-29.3
	c0.6,0.7,1.5,1.2,2.5,1.2c0,0,0,0,0,0v58.8c0,0,0,0,0,0c-1.8,0-3.2,1.5-3.2,3.2C731.4,882.3,731.5,882.8,731.7,883.2z M734.6,943.9
	c-1,0-1.9,0.5-2.5,1.2l-50.7-29.3c0.2-0.4,0.3-0.8,0.3-1.3c0-0.5-0.1-0.9-0.3-1.3l50.7-29.3c0.6,0.7,1.5,1.2,2.5,1.2
	c1.1,0,2.1-0.6,2.7-1.5l51.3,29.6c-0.2,0.4-0.3,0.8-0.3,1.3c0,0.5,0.1,0.9,0.3,1.3l-51.3,29.6C736.7,944.4,735.8,943.9,734.6,943.9z
	 M789,912.5l-51.3-29.6c0.1-0.3,0.2-0.7,0.2-1.1c0-1.5-1.1-2.8-2.5-3.1v-59c0.8-0.2,1.5-0.7,1.9-1.4l51.3,29.6
	c-0.2,0.4-0.3,0.8-0.3,1.3c0,1.7,1.3,3,2.9,3.2l0,58.9C790.3,911.3,789.5,911.8,789,912.5z M737.7,750.1l51.3-29.6
	c0.5,0.7,1.3,1.2,2.2,1.3v58.9c-1.6,0.2-2.9,1.5-2.9,3.2c0,0.5,0.1,0.9,0.3,1.3l-51.3,29.6c-0.4-0.7-1.1-1.2-1.9-1.4v-59
	c1.4-0.3,2.5-1.6,2.5-3.1C737.9,750.8,737.8,750.4,737.7,750.1z M789,847.2l-51.3-29.6c0.1-0.3,0.2-0.7,0.2-1.1
	c0-0.4-0.1-0.7-0.2-1.1l51.3-29.6c0.6,0.8,1.5,1.3,2.6,1.3c1.1,0,2-0.5,2.6-1.3l50.7,29.3c-0.2,0.4-0.4,0.9-0.4,1.5
	c0,0.5,0.1,1,0.4,1.4l-50.7,29.3c-0.6-0.8-1.5-1.3-2.6-1.3C790.5,845.9,789.6,846.4,789,847.2z M847.8,754.4
	C847.8,754.4,847.8,754.4,847.8,754.4l0,58.8c0,0,0,0,0,0c-1,0-1.9,0.5-2.5,1.2l-50.7-29.3c0.2-0.4,0.3-0.8,0.3-1.3
	c0-1.7-1.3-3-2.9-3.2v-58.9c0.9-0.1,1.7-0.6,2.2-1.3l50.7,29.3c-0.2,0.4-0.4,0.9-0.4,1.5C844.5,752.9,846,754.4,847.8,754.4z
	 M844.9,883.2l-50.7,29.3c-0.5-0.7-1.3-1.2-2.2-1.3l0-58.9c1.6-0.2,2.9-1.5,2.9-3.2c0-0.5-0.1-0.9-0.3-1.3l50.7-29.3
	c0.6,0.7,1.5,1.2,2.5,1.2c0,0,0,0,0,0v58.8c0,0,0,0,0,0c-1.8,0-3.2,1.5-3.2,3.2C844.5,882.3,844.6,882.8,844.9,883.2z M847.8,943.9
	c-1,0-1.9,0.5-2.5,1.2l-50.7-29.3c0.2-0.4,0.3-0.8,0.3-1.3c0-0.5-0.1-0.9-0.3-1.3l50.7-29.3c0.6,0.7,1.5,1.2,2.5,1.2
	c1.1,0,2.1-0.6,2.7-1.5l51.3,29.6c-0.2,0.4-0.3,0.8-0.3,1.3c0,0.5,0.1,0.9,0.3,1.3l-51.3,29.6C849.9,944.4,848.9,943.9,847.8,943.9z
	 M902.1,912.5l-51.3-29.6c0.1-0.3,0.2-0.7,0.2-1.1c0-1.5-1.1-2.8-2.5-3.1v-59c0.8-0.2,1.5-0.7,1.9-1.4l51.3,29.6
	c-0.2,0.4-0.3,0.8-0.3,1.3c0,1.7,1.3,3,2.9,3.2l0,58.9C903.4,911.3,902.6,911.8,902.1,912.5z M850.8,750.1l51.3-29.6
	c0.5,0.7,1.3,1.2,2.2,1.3v58.9c-1.6,0.2-2.9,1.5-2.9,3.2c0,0.5,0.1,0.9,0.3,1.3l-51.3,29.6c-0.4-0.7-1.1-1.2-1.9-1.4v-59
	c1.4-0.3,2.5-1.6,2.5-3.1C851,750.8,850.9,750.4,850.8,750.1z M902.1,847.2l-51.3-29.6c0.1-0.3,0.2-0.7,0.2-1.1
	c0-0.4-0.1-0.7-0.2-1.1l51.3-29.6c0.6,0.8,1.5,1.3,2.6,1.3c1.1,0,2-0.5,2.6-1.3L958,815c-0.2,0.4-0.4,0.9-0.4,1.5
	c0,0.5,0.1,1,0.4,1.4l-50.7,29.3c-0.6-0.8-1.5-1.3-2.6-1.3S902.7,846.4,902.1,847.2z M960.9,754.4
	C960.9,754.4,960.9,754.4,960.9,754.4l0,58.8c0,0,0,0,0,0c-1,0-1.9,0.5-2.5,1.2l-50.7-29.3c0.2-0.4,0.3-0.8,0.3-1.3
	c0-1.7-1.3-3-2.9-3.2v-58.9c0.9-0.1,1.7-0.6,2.2-1.3l50.7,29.3c-0.2,0.4-0.4,0.9-0.4,1.5C957.6,752.9,959.1,754.4,960.9,754.4z
	 M958,883.2l-50.7,29.3c-0.5-0.7-1.3-1.2-2.2-1.3l0-58.9c1.6-0.2,2.9-1.5,2.9-3.2c0-0.5-0.1-0.9-0.3-1.3l50.7-29.3
	c0.6,0.7,1.5,1.2,2.5,1.2c0,0,0,0,0,0v58.8c0,0,0,0,0,0c-1.8,0-3.2,1.5-3.2,3.2C957.6,882.3,957.8,882.8,958,883.2z M960.9,943.9
	c-1,0-1.9,0.5-2.5,1.2l-50.7-29.3c0.2-0.4,0.3-0.8,0.3-1.3c0-0.5-0.1-0.9-0.3-1.3l50.7-29.3c0.6,0.7,1.5,1.2,2.5,1.2
	c1.1,0,2.1-0.6,2.7-1.5l51.3,29.6c-0.2,0.4-0.3,0.8-0.3,1.3c0,0.5,0.1,0.9,0.3,1.3l-51.3,29.6C963,944.4,962,943.9,960.9,943.9z
	 M1015.3,912.5l-51.3-29.6c0.1-0.3,0.2-0.7,0.2-1.1c0-1.5-1.1-2.8-2.5-3.1v-59c0.8-0.2,1.5-0.7,1.9-1.4l51.3,29.6
	c-0.2,0.4-0.3,0.8-0.3,1.3c0,1.7,1.3,3,2.9,3.2l0,58.9C1016.6,911.3,1015.8,911.8,1015.3,912.5z M963.9,750.1l51.3-29.6
	c0.5,0.7,1.3,1.2,2.2,1.3v58.9c-1.6,0.2-2.9,1.5-2.9,3.2c0,0.5,0.1,0.9,0.3,1.3l-51.3,29.6c-0.4-0.7-1.1-1.2-1.9-1.4v-59
	c1.4-0.3,2.5-1.6,2.5-3.1C964.1,750.8,964.1,750.4,963.9,750.1z M1015.3,847.2l-51.3-29.6c0.1-0.3,0.2-0.7,0.2-1.1
	c0-0.4-0.1-0.7-0.2-1.1l51.3-29.6c0.6,0.8,1.5,1.3,2.6,1.3s2-0.5,2.6-1.3l50.7,29.3c-0.2,0.4-0.4,0.9-0.4,1.5c0,0.5,0.1,1,0.4,1.4
	l-50.7,29.3c-0.6-0.8-1.5-1.3-2.6-1.3S1015.9,846.4,1015.3,847.2z M1071.1,883.2l-50.7,29.3c-0.5-0.7-1.3-1.2-2.2-1.3l0-58.9
	c1.6-0.2,2.9-1.5,2.9-3.2c0-0.5-0.1-0.9-0.3-1.3l50.7-29.3c0.6,0.7,1.5,1.2,2.5,1.2c0,0,0,0,0,0v58.8c0,0,0,0,0,0
	c-1.8,0-3.2,1.5-3.2,3.2C1070.8,882.3,1070.9,882.8,1071.1,883.2z M1074,813.2C1074,813.2,1074,813.2,1074,813.2
	c-1,0-1.9,0.5-2.5,1.1l-50.7-29.3c0.2-0.4,0.3-0.8,0.3-1.3c0-1.7-1.3-3-2.9-3.2v-58.9c0.9-0.1,1.7-0.6,2.2-1.3l50.7,29.3
	c-0.2,0.4-0.4,0.9-0.4,1.5c0,1.8,1.5,3.2,3.2,3.2c0,0,0,0,0,0V813.2z M1074,623.8C1074,623.8,1074,623.8,1074,623.8l0,58.8
	c0,0,0,0,0,0c-1.8,0-3.2,1.5-3.2,3.2c0,0.5,0.1,1,0.4,1.4l-50.7,29.3c-0.5-0.7-1.3-1.2-2.2-1.3v-58.9c1.6-0.2,2.9-1.5,2.9-3.2
	c0-0.5-0.1-0.9-0.3-1.3l50.7-29.3C1072.2,623.3,1073,623.8,1074,623.8z M963.9,619.4l51.3-29.6c0.6,0.8,1.5,1.3,2.6,1.3
	c1.1,0,2-0.5,2.6-1.3l50.7,29.3c-0.2,0.4-0.4,0.9-0.4,1.5c0,0.5,0.1,1,0.4,1.4l-50.7,29.3c-0.6-0.8-1.5-1.3-2.6-1.3
	c-1.1,0-2,0.5-2.6,1.3l-51.3-29.6c0.1-0.3,0.2-0.7,0.2-1.1C964.1,620.1,964.1,619.8,963.9,619.4z M961.7,623.7
	c0.8-0.2,1.5-0.7,1.9-1.4l51.3,29.6c-0.2,0.4-0.3,0.8-0.3,1.3c0,1.7,1.3,3,2.9,3.2v58.9c-0.9,0.1-1.7,0.6-2.2,1.3l-51.3-29.6
	c0.1-0.3,0.2-0.7,0.2-1.1c0-1.5-1.1-2.8-2.5-3.1V623.7z M963.6,687.6l51.3,29.6c-0.2,0.4-0.3,0.8-0.3,1.3c0,0.5,0.1,0.9,0.3,1.3
	l-51.3,29.6c-0.6-0.9-1.6-1.5-2.7-1.5c-1,0-1.9,0.5-2.5,1.2l-50.7-29.3c0.2-0.4,0.3-0.8,0.3-1.3c0-0.5-0.1-0.9-0.3-1.3l50.7-29.3
	c0.6,0.7,1.5,1.2,2.5,1.2C962,689.1,963,688.5,963.6,687.6z M960.9,623.8C960.9,623.8,960.9,623.8,960.9,623.8l0,58.8c0,0,0,0,0,0
	c-1.8,0-3.2,1.5-3.2,3.2c0,0.5,0.1,1,0.4,1.4l-50.7,29.3c-0.5-0.7-1.3-1.2-2.2-1.3v-58.9c1.6-0.2,2.9-1.5,2.9-3.2
	c0-0.5-0.1-0.9-0.3-1.3l50.7-29.3C959,623.3,959.9,623.8,960.9,623.8z M850.8,619.4l51.3-29.6c0.6,0.8,1.5,1.3,2.6,1.3
	s2-0.5,2.6-1.3l50.7,29.3c-0.2,0.4-0.4,0.9-0.4,1.4c0,0.5,0.1,1,0.4,1.4l-50.7,29.3c-0.6-0.8-1.5-1.3-2.6-1.3s-2,0.5-2.6,1.3
	l-51.3-29.6c0.1-0.3,0.2-0.7,0.2-1.1C851,620.1,850.9,619.8,850.8,619.4z M848.5,623.7c0.8-0.2,1.5-0.7,1.9-1.4l51.3,29.6
	c-0.2,0.4-0.3,0.8-0.3,1.3c0,1.7,1.3,3,2.9,3.2v58.9c-0.9,0.1-1.7,0.6-2.2,1.3l-51.3-29.6c0.1-0.3,0.2-0.7,0.2-1.1
	c0-1.5-1.1-2.8-2.5-3.1V623.7z M850.5,687.6l51.3,29.6c-0.2,0.4-0.3,0.8-0.3,1.3c0,0.5,0.1,0.9,0.3,1.3l-51.3,29.6
	c-0.6-0.9-1.6-1.5-2.7-1.5c-1,0-1.9,0.5-2.5,1.2l-50.7-29.3c0.2-0.4,0.3-0.8,0.3-1.3c0-0.5-0.1-0.9-0.3-1.3l50.7-29.3
	c0.6,0.7,1.5,1.2,2.5,1.2C848.9,689.1,849.9,688.5,850.5,687.6z M847.8,623.8C847.8,623.8,847.8,623.8,847.8,623.8l0,58.8
	c0,0,0,0,0,0c-1.8,0-3.2,1.5-3.2,3.2c0,0.5,0.1,1,0.4,1.4l-50.7,29.3c-0.5-0.7-1.3-1.2-2.2-1.3v-58.9c1.6-0.2,2.9-1.5,2.9-3.2
	c0-0.5-0.1-0.9-0.3-1.3l50.7-29.3C845.9,623.3,846.8,623.8,847.8,623.8z M737.7,619.4l51.3-29.6c0.6,0.8,1.5,1.3,2.6,1.3
	c1.1,0,2-0.5,2.6-1.3l50.7,29.3c-0.2,0.4-0.4,0.9-0.4,1.5c0,0.5,0.1,1,0.4,1.5l-50.7,29.3c-0.6-0.8-1.5-1.3-2.6-1.3
	c-1.1,0-2,0.5-2.6,1.3l-51.3-29.6c0.1-0.3,0.2-0.7,0.2-1.1C737.9,620.1,737.8,619.8,737.7,619.4z M735.4,623.7
	c0.8-0.2,1.5-0.7,1.9-1.4l51.3,29.6c-0.2,0.4-0.3,0.8-0.3,1.3c0,1.7,1.3,3,2.9,3.2v58.9c-0.9,0.1-1.7,0.6-2.2,1.3l-51.3-29.6
	c0.1-0.3,0.2-0.7,0.2-1.1c0-1.5-1.1-2.8-2.5-3.1V623.7z M737.3,687.6l51.3,29.6c-0.2,0.4-0.3,0.8-0.3,1.3c0,0.5,0.1,0.9,0.3,1.3
	l-51.3,29.6c-0.6-0.9-1.6-1.5-2.7-1.5c-1,0-1.9,0.5-2.5,1.2l-50.7-29.3c0.2-0.4,0.3-0.8,0.3-1.3c0-0.5-0.1-0.9-0.3-1.3l50.7-29.3
	c0.6,0.7,1.5,1.2,2.5,1.2C735.8,689.1,736.7,688.5,737.3,687.6z M734.6,623.8C734.6,623.8,734.6,623.8,734.6,623.8l0,58.8
	c0,0,0,0,0,0c-1.8,0-3.2,1.5-3.2,3.2c0,0.5,0.1,1,0.4,1.4L681,716.6c-0.5-0.7-1.3-1.2-2.2-1.3v-58.9c1.6-0.2,2.9-1.5,2.9-3.2
	c0-0.5-0.1-0.9-0.3-1.3l50.7-29.3C732.8,623.3,733.6,623.8,734.6,623.8z M624.5,619.4l51.3-29.6c0.6,0.8,1.5,1.3,2.6,1.3
	s2-0.5,2.6-1.3l50.7,29.3c-0.2,0.4-0.4,0.9-0.4,1.5c0,0.5,0.1,1,0.4,1.5L681,651.2c-0.6-0.8-1.5-1.3-2.6-1.3s-2,0.5-2.6,1.3
	l-51.3-29.6c0.1-0.3,0.2-0.7,0.2-1.1C624.7,620.1,624.7,619.8,624.5,619.4z M622.3,623.7c0.8-0.2,1.5-0.7,1.9-1.4l51.3,29.6
	c-0.2,0.4-0.3,0.8-0.3,1.3c0,1.7,1.3,3,2.9,3.2v58.9c-0.9,0.1-1.7,0.6-2.2,1.3l-51.3-29.6c0.1-0.3,0.2-0.7,0.2-1.1
	c0-1.5-1.1-2.8-2.5-3.1V623.7z M624.2,687.6l51.3,29.6c-0.2,0.4-0.3,0.8-0.3,1.3c0,0.5,0.1,0.9,0.3,1.3l-51.3,29.6
	c-0.6-0.9-1.6-1.5-2.7-1.5c-1,0-1.9,0.5-2.5,1.2l-50.7-29.3c0.2-0.4,0.3-0.8,0.3-1.3c0-0.5-0.1-0.9-0.3-1.3l50.7-29.3
	c0.6,0.7,1.5,1.2,2.5,1.2C622.6,689.1,623.6,688.5,624.2,687.6z M565.7,656.4c1.6-0.2,2.9-1.5,2.9-3.2c0-0.5-0.1-0.9-0.3-1.3
	l50.7-29.3c0.6,0.7,1.5,1.2,2.5,1.2c0,0,0,0,0,0v58.8c0,0,0,0,0,0c-1.8,0-3.2,1.5-3.2,3.2c0,0.5,0.1,1,0.4,1.4l-50.7,29.3
	c-0.5-0.7-1.3-1.2-2.2-1.3V656.4z M568.3,785.1c0.2-0.4,0.3-0.8,0.3-1.3c0-1.7-1.3-3-2.9-3.2v-58.9c0.9-0.1,1.7-0.6,2.2-1.3
	l50.7,29.3c-0.2,0.4-0.4,0.9-0.4,1.5c0,1.8,1.5,3.2,3.2,3.2c0,0,0,0,0,0v58.8c0,0,0,0,0,0c-1,0-1.9,0.5-2.5,1.2L568.3,785.1z
	 M568.6,849.1c0-0.5-0.1-0.9-0.3-1.3l50.7-29.3c0.6,0.7,1.5,1.2,2.5,1.2c0,0,0,0,0,0v58.8c0,0,0,0,0,0c-1.8,0-3.2,1.5-3.2,3.2
	c0,0.5,0.1,1,0.4,1.4l-50.7,29.3c-0.5-0.7-1.3-1.2-2.2-1.3l0-58.9C567.3,852.1,568.6,850.8,568.6,849.1z M568.3,981
	c0.2-0.4,0.3-0.8,0.3-1.3c0-1.7-1.3-3-2.9-3.2l0-58.9c0.9-0.1,1.7-0.6,2.2-1.3l50.7,29.3c-0.2,0.4-0.4,0.9-0.4,1.5
	c0,1.8,1.5,3.2,3.2,3.2c0,0,0,0,0,0l0,58.8c0,0,0,0,0,0c-1,0-1.9,0.5-2.5,1.2L568.3,981z M567.9,1108.5c-0.5-0.7-1.3-1.2-2.2-1.3
	l0-58.9c1.6-0.2,2.9-1.5,2.9-3.2c0-0.5-0.1-0.9-0.3-1.3l50.7-29.3c0.6,0.7,1.5,1.2,2.5,1.2c0,0,0,0,0,0l0,58.8c0,0,0,0,0,0
	c-1.8,0-3.2,1.5-3.2,3.2c0,0.5,0.1,1,0.4,1.4L567.9,1108.5z M675.5,1111.7l-51.3,29.6c-0.6-0.9-1.6-1.5-2.7-1.5
	c-1,0-1.9,0.5-2.5,1.2l-50.7-29.3c0.2-0.4,0.3-0.8,0.3-1.3c0-0.5-0.1-0.9-0.3-1.3l50.7-29.3c0.6,0.7,1.5,1.2,2.5,1.2
	c1.1,0,2.1-0.6,2.7-1.5l51.3,29.6c-0.2,0.4-0.3,0.8-0.3,1.3C675.2,1110.8,675.3,1111.3,675.5,1111.7z M675.9,1108.5l-51.3-29.6
	c0.1-0.3,0.2-0.7,0.2-1.1c0-1.5-1.1-2.8-2.5-3.1l0-59c0.8-0.2,1.5-0.7,1.9-1.4l51.3,29.6c-0.2,0.4-0.3,0.8-0.3,1.3
	c0,1.7,1.3,3,2.9,3.2l0,58.9C677.2,1107.3,676.4,1107.8,675.9,1108.5z M678.4,1041.8c-1.1,0-2,0.5-2.6,1.3l-51.3-29.6
	c0.1-0.3,0.2-0.7,0.2-1.1c0-0.4-0.1-0.7-0.2-1.1l51.3-29.6c0.6,0.8,1.5,1.3,2.6,1.3c1.1,0,2-0.5,2.6-1.3l50.7,29.3
	c-0.2,0.4-0.4,0.9-0.4,1.5c0,0.5,0.1,1,0.4,1.4l-50.7,29.3C680.4,1042.4,679.5,1041.8,678.4,1041.8z M681,1108.5
	c-0.5-0.7-1.3-1.2-2.2-1.3l0-58.9c1.6-0.2,2.9-1.5,2.9-3.2c0-0.5-0.1-0.9-0.3-1.3l50.7-29.3c0.6,0.7,1.5,1.2,2.5,1.2c0,0,0,0,0,0
	l0,58.8c0,0,0,0,0,0c-1.8,0-3.2,1.5-3.2,3.2c0,0.5,0.1,1,0.4,1.4L681,1108.5z M788.6,1111.7l-51.3,29.6c-0.6-0.9-1.6-1.5-2.7-1.5
	c-1,0-1.9,0.5-2.5,1.2l-50.7-29.3c0.2-0.4,0.3-0.8,0.3-1.3c0-0.5-0.1-0.9-0.3-1.3l50.7-29.3c0.6,0.7,1.5,1.2,2.5,1.2
	c1.1,0,2.1-0.6,2.7-1.5l51.3,29.6c-0.2,0.4-0.3,0.8-0.3,1.3C788.3,1110.8,788.4,1111.3,788.6,1111.7z M789,1108.5l-51.3-29.6
	c0.1-0.3,0.2-0.7,0.2-1.1c0-1.5-1.1-2.8-2.5-3.1l0-59c0.8-0.2,1.5-0.7,1.9-1.4l51.3,29.6c-0.2,0.4-0.3,0.8-0.3,1.3
	c0,1.7,1.3,3,2.9,3.2l0,58.9C790.3,1107.3,789.5,1107.8,789,1108.5z M791.6,1041.8c-1.1,0-2,0.5-2.6,1.3l-51.3-29.6
	c0.1-0.3,0.2-0.7,0.2-1.1c0-0.4-0.1-0.7-0.2-1.1l51.3-29.6c0.6,0.8,1.5,1.3,2.6,1.3c1.1,0,2-0.5,2.6-1.3l50.7,29.3
	c-0.2,0.4-0.4,0.9-0.4,1.5c0,0.5,0.1,1,0.4,1.4l-50.7,29.3C793.6,1042.4,792.6,1041.8,791.6,1041.8z M794.2,1108.5
	c-0.5-0.7-1.3-1.2-2.2-1.3l0-58.9c1.6-0.2,2.9-1.5,2.9-3.2c0-0.5-0.1-0.9-0.3-1.3l50.7-29.3c0.6,0.7,1.5,1.2,2.5,1.2c0,0,0,0,0,0
	l0,58.8c0,0,0,0,0,0c-1.8,0-3.2,1.5-3.2,3.2c0,0.5,0.1,1,0.4,1.4L794.2,1108.5z M901.7,1111.7l-51.3,29.6c-0.6-0.9-1.6-1.5-2.7-1.5
	c-1,0-1.9,0.5-2.5,1.2l-50.7-29.3c0.2-0.4,0.3-0.8,0.3-1.3c0-0.5-0.1-0.9-0.3-1.3l50.7-29.3c0.6,0.7,1.5,1.2,2.5,1.2
	c1.1,0,2.1-0.6,2.7-1.5l51.3,29.6c-0.2,0.4-0.3,0.8-0.3,1.3C901.5,1110.8,901.6,1111.3,901.7,1111.7z M902.1,1108.5l-51.3-29.6
	c0.1-0.3,0.2-0.7,0.2-1.1c0-1.5-1.1-2.8-2.5-3.1l0-59c0.8-0.2,1.5-0.7,1.9-1.4l51.3,29.6c-0.2,0.4-0.3,0.8-0.3,1.3
	c0,1.7,1.3,3,2.9,3.2l0,58.9C903.4,1107.3,902.6,1107.8,902.1,1108.5z M904.7,1041.8c-1.1,0-2,0.5-2.6,1.3l-51.3-29.6
	c0.1-0.3,0.2-0.7,0.2-1.1c0-0.4-0.1-0.7-0.2-1.1l51.3-29.6c0.6,0.8,1.5,1.3,2.6,1.3c1.1,0,2-0.5,2.6-1.3L958,1011
	c-0.2,0.4-0.4,0.9-0.4,1.5c0,0.5,0.1,1,0.4,1.4l-50.7,29.3C906.7,1042.4,905.8,1041.8,904.7,1041.8z M907.3,1108.5
	c-0.5-0.7-1.3-1.2-2.2-1.3l0-58.9c1.6-0.2,2.9-1.5,2.9-3.2c0-0.5-0.1-0.9-0.3-1.3l50.7-29.3c0.6,0.7,1.5,1.2,2.5,1.2c0,0,0,0,0,0
	l0,58.8c0,0,0,0,0,0c-1.8,0-3.2,1.5-3.2,3.2c0,0.5,0.1,1,0.4,1.4L907.3,1108.5z M1014.9,1111.7l-51.3,29.6c-0.6-0.9-1.6-1.5-2.7-1.5
	c-1,0-1.9,0.5-2.5,1.2l-50.7-29.3c0.2-0.4,0.3-0.8,0.3-1.3c0-0.5-0.1-0.9-0.3-1.3l50.7-29.3c0.6,0.7,1.5,1.2,2.5,1.2
	c1.1,0,2.1-0.6,2.7-1.5l51.3,29.6c-0.2,0.4-0.3,0.8-0.3,1.3C1014.6,1110.8,1014.7,1111.3,1014.9,1111.7z M1015.3,1108.5l-51.3-29.6
	c0.1-0.3,0.2-0.7,0.2-1.1c0-1.5-1.1-2.8-2.5-3.1l0-59c0.8-0.2,1.5-0.7,1.9-1.4l51.3,29.6c-0.2,0.4-0.3,0.8-0.3,1.3
	c0,1.7,1.3,3,2.9,3.2l0,58.9C1016.6,1107.3,1015.8,1107.8,1015.3,1108.5z M1017.8,1041.8c-1.1,0-2,0.5-2.6,1.3l-51.3-29.6
	c0.1-0.3,0.2-0.7,0.2-1.1c0-0.4-0.1-0.7-0.2-1.1l51.3-29.6c0.6,0.8,1.5,1.3,2.6,1.3c1.1,0,2-0.5,2.6-1.3l50.7,29.3
	c-0.2,0.4-0.4,0.9-0.4,1.5c0,0.5,0.1,1,0.4,1.4l-50.7,29.3C1019.8,1042.4,1018.9,1041.8,1017.8,1041.8z M1020.4,1108.5
	c-0.5-0.7-1.3-1.2-2.2-1.3l0-58.9c1.6-0.2,2.9-1.5,2.9-3.2c0-0.5-0.1-0.9-0.3-1.3l50.7-29.3c0.6,0.7,1.5,1.2,2.5,1.2c0,0,0,0,0,0
	l0,58.8c0,0,0,0,0,0c-1.8,0-3.2,1.5-3.2,3.2c0,0.5,0.1,1,0.4,1.4L1020.4,1108.5z M1128,1111.7l-51.3,29.6c-0.6-0.9-1.6-1.5-2.7-1.5
	c-1,0-1.9,0.5-2.5,1.2l-50.7-29.3c0.2-0.4,0.3-0.8,0.3-1.3c0-0.5-0.1-0.9-0.3-1.3l50.7-29.3c0.6,0.7,1.5,1.2,2.5,1.2
	c1.1,0,2.1-0.6,2.7-1.5l51.3,29.6c-0.2,0.4-0.3,0.8-0.3,1.3C1127.7,1110.8,1127.8,1111.3,1128,1111.7z M1128,1043.8
	c-0.2,0.4-0.3,0.8-0.3,1.3c0,1.7,1.3,3,2.9,3.2l0,58.9c-0.9,0.1-1.7,0.6-2.2,1.3l-51.3-29.6c0.1-0.3,0.2-0.7,0.2-1.1
	c0-1.5-1.1-2.8-2.5-3.1l0-59c0.8-0.2,1.5-0.7,1.9-1.4L1128,1043.8z M1130.6,976.6c-1.6,0.2-2.9,1.5-2.9,3.2c0,0.5,0.1,0.9,0.3,1.3
	l-51.3,29.6c-0.4-0.7-1.1-1.2-1.9-1.4l0-59c1.4-0.4,2.5-1.6,2.5-3.1c0-0.4-0.1-0.7-0.2-1.1l51.3-29.6c0.5,0.7,1.3,1.2,2.2,1.3
	L1130.6,976.6z M1128,847.8c-0.2,0.4-0.3,0.8-0.3,1.3c0,1.7,1.3,3,2.9,3.2l0,58.9c-0.9,0.1-1.7,0.6-2.2,1.3l-51.3-29.6
	c0.1-0.3,0.2-0.7,0.2-1.1c0-1.5-1.1-2.8-2.5-3.1v-59c0.8-0.2,1.5-0.7,1.9-1.4L1128,847.8z M1130.6,780.6c-1.6,0.2-2.9,1.5-2.9,3.2
	c0,0.5,0.1,0.9,0.3,1.3l-51.3,29.6c-0.4-0.7-1.1-1.2-1.9-1.4v-59c1.4-0.3,2.5-1.6,2.5-3.1c0-0.4-0.1-0.7-0.2-1.1l51.3-29.6
	c0.5,0.7,1.3,1.2,2.2,1.3V780.6z M1128,651.9c-0.2,0.4-0.3,0.8-0.3,1.3c0,1.7,1.3,3,2.9,3.2v58.9c-0.9,0.1-1.7,0.6-2.2,1.3
	l-51.3-29.6c0.1-0.3,0.2-0.7,0.2-1.1c0-1.5-1.1-2.8-2.5-3.1v-59c0.8-0.2,1.5-0.7,1.9-1.4L1128,651.9z"/>
</svg>
