<?xml version="1.0" encoding="utf-8"?>
<!-- Generator: Adobe Illustrator 18.0.0, SVG Export Plug-In . SVG Version: 6.00 Build 0)  -->
<!DOCTYPE svg PUBLIC "-//W3C//DTD SVG 1.1//EN" "http://www.w3.org/Graphics/SVG/1.1/DTD/svg11.dtd">
<svg version="1.1" id="Layer_1" xmlns="http://www.w3.org/2000/svg" xmlns:xlink="http://www.w3.org/1999/xlink" x="0px" y="0px"
	 viewBox="0 0 955.5 993.2" enable-background="new 0 0 955.5 993.2" xml:space="preserve">
<path opacity="0.41" fill="#D0E2DF" d="M477.9,2.7V0h-2.7c0,0.4,0.1,0.7,0.2,1.1l-43.3,25c-0.4-0.6-1-1-1.6-1.1V0h-0.6v24.9
	c0,0,0,0,0,0c-0.8,0-1.6,0.4-2.1,1L384.8,1.1C385,0.7,385,0.4,385,0h-5.5c0,0.4,0.1,0.7,0.2,1.1l-43.3,25c-0.4-0.6-1-1-1.6-1.1V0
	h-0.6v24.9c0,0,0,0,0,0c-0.8,0-1.6,0.4-2.1,1L289.2,1.1c0.1-0.3,0.2-0.7,0.2-1.1H284c0,0.4,0.1,0.7,0.2,1.1l-43.3,25
	c-0.4-0.6-1-1-1.6-1.1V0h-0.6v24.9c0,0,0,0,0,0c-0.8,0-1.6,0.4-2.1,1L193.7,1.1c0.1-0.3,0.2-0.7,0.2-1.1h-5.5c0,0.4,0.1,0.7,0.2,1.1
	l-43.3,25c-0.4-0.6-1-1-1.6-1.1V0H143v24.9c0,0,0,0,0,0c-0.8,0-1.6,0.4-2.1,1L98.1,1.1c0.1-0.3,0.2-0.7,0.2-1.1h-5.5
	c0,0.4,0.1,0.7,0.2,1.1l-43.3,25c-0.4-0.6-1-1-1.6-1.1V0h-0.6v24.9c0,0,0,0,0,0c-0.8,0-1.6,0.4-2.1,1L2.5,1.1C2.7,0.7,2.7,0.4,2.7,0
	H0v2.7c0.9,0,1.7-0.4,2.2-1.1L45,26.4c-0.2,0.4-0.3,0.8-0.3,1.2s0.1,0.9,0.3,1.2L2.2,53.5c-0.5-0.7-1.3-1.1-2.2-1.1v115.8
	c0.9,0,1.7-0.4,2.2-1.1L45,191.9c-0.2,0.4-0.3,0.8-0.3,1.2c0,0.4,0.1,0.9,0.3,1.2L2.2,219.1C1.7,218.4,0.9,218,0,218v115.8
	c0.9,0,1.7-0.4,2.2-1.1L45,357.4c-0.2,0.4-0.3,0.8-0.3,1.2c0,0.4,0.1,0.9,0.3,1.2L2.2,384.6c-0.5-0.7-1.3-1.1-2.2-1.1v113.1h2.7
	c0-1.4-1.1-2.5-2.4-2.7l0-49.8c0.8-0.1,1.4-0.5,1.9-1.1L45,467.8c-0.2,0.4-0.3,0.8-0.3,1.2c0,1.5,1.2,2.7,2.7,2.7c0,0,0,0,0,0v24.9
	h0.6v-24.9c1.2-0.3,2.1-1.4,2.1-2.7c0-0.3-0.1-0.6-0.2-0.9l43.4-25c0.4,0.6,1.1,1,1.9,1.1l0,49.8c-1.4,0.2-2.4,1.3-2.4,2.7h5.5
	c0-1.4-1.1-2.5-2.4-2.7l0-49.8c0.8-0.1,1.4-0.5,1.9-1.1l42.8,24.7c-0.2,0.4-0.3,0.8-0.3,1.2c0,1.5,1.2,2.7,2.7,2.7c0,0,0,0,0,0v24.9
	h0.6v-24.9c1.2-0.3,2.1-1.4,2.1-2.7c0-0.3-0.1-0.6-0.2-0.9l43.4-25c0.4,0.6,1.1,1,1.9,1.1l0,49.8c-1.4,0.2-2.4,1.3-2.4,2.7h5.5
	c0-1.4-1.1-2.5-2.4-2.7l0-49.8c0.8-0.1,1.4-0.5,1.9-1.1l42.8,24.7c-0.2,0.4-0.3,0.8-0.3,1.2c0,1.5,1.2,2.7,2.7,2.7c0,0,0,0,0,0
	l0,24.9h0.6l0-24.9c1.2-0.3,2.1-1.4,2.1-2.7c0-0.3-0.1-0.6-0.2-0.9l43.4-25c0.4,0.6,1.1,1,1.9,1.1l0,49.8c-1.4,0.2-2.4,1.3-2.4,2.7
	h5.5c0-1.4-1.1-2.5-2.4-2.7l0-49.8c0.8-0.1,1.4-0.5,1.9-1.1l42.8,24.7c-0.2,0.4-0.3,0.8-0.3,1.2c0,1.5,1.2,2.7,2.7,2.7c0,0,0,0,0,0
	v24.9h0.6v-24.9c1.2-0.3,2.1-1.4,2.1-2.7c0-0.3-0.1-0.6-0.2-0.9l43.4-25c0.4,0.6,1.1,1,1.9,1.1l0,49.8c-1.4,0.2-2.4,1.3-2.4,2.7h5.5
	c0-1.4-1.1-2.5-2.4-2.7l0-49.8c0.8-0.1,1.4-0.5,1.9-1.1l42.8,24.7c-0.2,0.4-0.3,0.8-0.3,1.2c0,1.5,1.2,2.7,2.7,2.7c0,0,0,0,0,0v24.9
	h0.6v-24.9c1.2-0.3,2.1-1.4,2.1-2.7c0-0.3-0.1-0.6-0.2-0.9l43.4-25c0.4,0.6,1.1,1,1.9,1.1l0,49.8c-1.4,0.2-2.4,1.3-2.4,2.7h2.7
	V383.5c-0.9,0-1.7,0.4-2.2,1.1l-43.4-25c0.1-0.3,0.2-0.6,0.2-0.9c0-0.3-0.1-0.6-0.2-0.9l43.4-25c0.5,0.7,1.3,1.1,2.2,1.1V218
	c-0.9,0-1.7,0.4-2.2,1.1l-43.4-25c0.1-0.3,0.2-0.6,0.2-0.9c0-0.3-0.1-0.6-0.2-0.9l43.4-25c0.5,0.7,1.3,1.1,2.2,1.1V52.4
	c-0.9,0-1.7,0.4-2.2,1.1l-43.4-25c0.1-0.3,0.2-0.6,0.2-0.9s-0.1-0.6-0.2-0.9l43.4-25C476.2,2.3,477,2.7,477.9,2.7z M432,84.3
	l43.3,25c-0.1,0.3-0.2,0.7-0.2,1.1c0,0.4,0.1,0.7,0.2,1.1l-43.3,25c-0.5-0.7-1.3-1.2-2.3-1.2c-0.8,0-1.6,0.4-2.1,1l-42.9-24.7
	c0.1-0.3,0.2-0.7,0.2-1.1c0-0.4-0.1-0.7-0.2-1.1l42.9-24.7c0.5,0.6,1.2,1,2.1,1C430.7,85.5,431.5,85,432,84.3z M475.4,277L432,302
	c-0.5-0.7-1.3-1.2-2.3-1.2c-0.8,0-1.6,0.4-2.1,1L384.8,277c0.1-0.3,0.2-0.7,0.2-1.1s-0.1-0.7-0.2-1.1l42.9-24.7c0.5,0.6,1.2,1,2.1,1
	c1,0,1.8-0.5,2.3-1.2l43.3,25c-0.1,0.3-0.2,0.7-0.2,1.1C475.1,276.3,475.2,276.6,475.4,277z M382.6,328.4l0-49.8
	c0.8-0.1,1.4-0.5,1.9-1.1l42.8,24.7c-0.2,0.4-0.3,0.8-0.3,1.2c0,1.5,1.2,2.7,2.7,2.7c0,0,0,0,0,0l0,49.7c0,0,0,0,0,0
	c-0.8,0-1.6,0.4-2.1,1l-42.9-24.7c0.1-0.3,0.2-0.7,0.2-1.1C385,329.7,384,328.5,382.6,328.4z M379.8,332.2l-43.3,25
	c-0.4-0.6-1-1-1.6-1.1l0-49.9c1.2-0.3,2.1-1.4,2.1-2.7c0-0.3-0.1-0.6-0.2-0.9l43.4-25c0.4,0.6,1.1,1,1.9,1.1l0,49.8
	c-1.4,0.2-2.4,1.3-2.4,2.7C379.6,331.5,379.6,331.8,379.8,332.2z M287,328.4l0-49.8c0.8-0.1,1.4-0.5,1.9-1.1l42.8,24.7
	c-0.2,0.4-0.3,0.8-0.3,1.2c0,1.5,1.2,2.7,2.7,2.7c0,0,0,0,0,0l0,49.7c0,0,0,0,0,0c-0.8,0-1.6,0.4-2.1,1l-42.9-24.7
	c0.1-0.3,0.2-0.7,0.2-1.1C289.5,329.7,288.4,328.5,287,328.4z M284.2,332.2l-43.3,25c-0.4-0.6-1-1-1.6-1.1l0-49.9
	c1.2-0.3,2.1-1.4,2.1-2.7c0-0.3-0.1-0.6-0.2-0.9l43.4-25c0.4,0.6,1.1,1,1.9,1.1l0,49.8c-1.4,0.2-2.4,1.3-2.4,2.7
	C284,331.5,284.1,331.8,284.2,332.2z M191.5,328.4l0-49.8c0.8-0.1,1.4-0.5,1.9-1.1l42.8,24.7c-0.2,0.4-0.3,0.8-0.3,1.2
	c0,1.5,1.2,2.7,2.7,2.7c0,0,0,0,0,0l0,49.7c0,0,0,0,0,0c-0.8,0-1.6,0.4-2.1,1l-42.9-24.7c0.1-0.3,0.2-0.7,0.2-1.1
	C193.9,329.7,192.8,328.5,191.5,328.4z M188.6,332.2l-43.3,25c-0.4-0.6-1-1-1.6-1.1l0-49.9c1.2-0.3,2.1-1.4,2.1-2.7
	c0-0.3-0.1-0.6-0.2-0.9l43.4-25c0.4,0.6,1.1,1,1.9,1.1l0,49.8c-1.4,0.2-2.4,1.3-2.4,2.7C188.4,331.5,188.5,331.8,188.6,332.2z
	 M95.9,328.4l0-49.8c0.8-0.1,1.4-0.5,1.9-1.1l42.8,24.7c-0.2,0.4-0.3,0.8-0.3,1.2c0,1.5,1.2,2.7,2.7,2.7c0,0,0,0,0,0l0,49.7
	c0,0,0,0,0,0c-0.8,0-1.6,0.4-2.1,1l-42.9-24.7c0.1-0.3,0.2-0.7,0.2-1.1C98.3,329.7,97.3,328.5,95.9,328.4z M93.1,332.2l-43.3,25
	c-0.4-0.6-1-1-1.6-1.1l0-49.9c1.2-0.3,2.1-1.4,2.1-2.7c0-0.3-0.1-0.6-0.2-0.9l43.4-25c0.4,0.6,1.1,1,1.9,1.1l0,49.8
	c-1.4,0.2-2.4,1.3-2.4,2.7C92.8,331.5,92.9,331.8,93.1,332.2z M2.5,274.8l42.9-24.7c0.5,0.6,1.2,1,2.1,1c1,0,1.8-0.5,2.3-1.2
	l43.3,25c-0.1,0.3-0.2,0.7-0.2,1.1s0.1,0.7,0.2,1.1l-43.3,25c-0.5-0.7-1.3-1.2-2.3-1.2c-0.8,0-1.6,0.4-2.1,1L2.5,277
	c0.1-0.3,0.2-0.7,0.2-1.1S2.7,275.2,2.5,274.8z M93.4,274.3l-43.4-25c0.1-0.3,0.2-0.6,0.2-0.9c0-1.3-0.9-2.4-2.1-2.7v-49.9
	c0.7-0.2,1.3-0.6,1.6-1.1l43.3,25c-0.1,0.3-0.2,0.7-0.2,1.1c0,1.4,1.1,2.5,2.4,2.7l0,49.8C94.5,273.3,93.8,273.7,93.4,274.3z
	 M50,137l43.4-25c0.4,0.6,1.1,1,1.9,1.1v49.8c-1.4,0.2-2.4,1.3-2.4,2.7c0,0.4,0.1,0.7,0.2,1.1l-43.3,25c-0.4-0.6-1-1-1.6-1.1v-49.9
	c1.2-0.3,2.1-1.4,2.1-2.7C50.2,137.6,50.1,137.3,50,137z M93.4,219.1L50,194c0.1-0.3,0.2-0.6,0.2-0.9c0-0.3-0.1-0.6-0.2-0.9l43.4-25
	c0.5,0.7,1.3,1.1,2.2,1.1c0.9,0,1.7-0.4,2.2-1.1l42.8,24.7c-0.2,0.4-0.3,0.8-0.3,1.2c0,0.4,0.1,0.9,0.3,1.2l-42.8,24.7
	c-0.5-0.7-1.3-1.1-2.2-1.1C94.7,218,93.9,218.4,93.4,219.1z M143,140.7C143,140.7,143,140.7,143,140.7l0,49.7c0,0,0,0,0,0
	c-0.8,0-1.6,0.4-2.1,1l-42.9-24.7c0.1-0.3,0.2-0.7,0.2-1.1c0-1.4-1.1-2.5-2.4-2.7v-49.8c0.8-0.1,1.4-0.5,1.9-1.1l42.8,24.7
	c-0.2,0.4-0.3,0.8-0.3,1.2C140.3,139.5,141.5,140.7,143,140.7z M140.6,249.5l-42.8,24.7c-0.4-0.6-1.1-1-1.9-1.1l0-49.8
	c1.4-0.2,2.4-1.3,2.4-2.7c0-0.4-0.1-0.7-0.2-1.1l42.9-24.7c0.5,0.6,1.2,1,2.1,1c0,0,0,0,0,0v49.7c0,0,0,0,0,0
	c-1.5,0-2.7,1.2-2.7,2.7C140.3,248.8,140.4,249.2,140.6,249.5z M143,300.7c-0.8,0-1.6,0.4-2.1,1L98.1,277c0.1-0.3,0.2-0.7,0.2-1.1
	s-0.1-0.7-0.2-1.1l42.9-24.7c0.5,0.6,1.2,1,2.1,1c1,0,1.8-0.5,2.3-1.2l43.3,25c-0.1,0.3-0.2,0.7-0.2,1.1s0.1,0.7,0.2,1.1l-43.3,25
	C144.8,301.2,144,300.7,143,300.7z M189,274.3l-43.4-25c0.1-0.3,0.2-0.6,0.2-0.9c0-1.3-0.9-2.4-2.1-2.7v-49.9
	c0.7-0.2,1.3-0.6,1.6-1.1l43.3,25c-0.1,0.3-0.2,0.7-0.2,1.1c0,1.4,1.1,2.5,2.4,2.7l0,49.8C190.1,273.3,189.4,273.7,189,274.3z
	 M145.6,137l43.4-25c0.4,0.6,1.1,1,1.9,1.1v49.8c-1.4,0.2-2.4,1.3-2.4,2.7c0,0.4,0.1,0.7,0.2,1.1l-43.3,25c-0.4-0.6-1-1-1.6-1.1
	v-49.9c1.2-0.3,2.1-1.4,2.1-2.7C145.8,137.6,145.7,137.3,145.6,137z M189,219.1l-43.4-25c0.1-0.3,0.2-0.6,0.2-0.9
	c0-0.3-0.1-0.6-0.2-0.9l43.4-25c0.5,0.7,1.3,1.1,2.2,1.1s1.7-0.4,2.2-1.1l42.8,24.7c-0.2,0.4-0.3,0.8-0.3,1.2c0,0.4,0.1,0.9,0.3,1.2
	l-42.8,24.7c-0.5-0.7-1.3-1.1-2.2-1.1C190.3,218,189.5,218.4,189,219.1z M238.6,140.7C238.6,140.7,238.6,140.7,238.6,140.7l0,49.7
	c0,0,0,0,0,0c-0.8,0-1.6,0.4-2.1,1l-42.9-24.7c0.1-0.3,0.2-0.7,0.2-1.1c0-1.4-1.1-2.5-2.4-2.7v-49.8c0.8-0.1,1.4-0.5,1.9-1.1
	l42.8,24.7c-0.2,0.4-0.3,0.8-0.3,1.2C235.9,139.5,237.1,140.7,238.6,140.7z M236.2,249.5l-42.8,24.7c-0.4-0.6-1.1-1-1.9-1.1l0-49.8
	c1.4-0.2,2.4-1.3,2.4-2.7c0-0.4-0.1-0.7-0.2-1.1l42.9-24.7c0.5,0.6,1.2,1,2.1,1c0,0,0,0,0,0v49.7c0,0,0,0,0,0
	c-1.5,0-2.7,1.2-2.7,2.7C235.9,248.8,236,249.2,236.2,249.5z M238.6,300.7c-0.8,0-1.6,0.4-2.1,1L193.7,277c0.1-0.3,0.2-0.7,0.2-1.1
	s-0.1-0.7-0.2-1.1l42.9-24.7c0.5,0.6,1.2,1,2.1,1c1,0,1.8-0.5,2.3-1.2l43.3,25c-0.1,0.3-0.2,0.7-0.2,1.1c0,0.4,0.1,0.7,0.2,1.1
	l-43.3,25C240.4,301.2,239.6,300.7,238.6,300.7z M284.5,274.3l-43.4-25c0.1-0.3,0.2-0.6,0.2-0.9c0-1.3-0.9-2.4-2.1-2.7v-49.9
	c0.7-0.2,1.3-0.6,1.6-1.1l43.3,25c-0.1,0.3-0.2,0.7-0.2,1.1c0,1.4,1.1,2.5,2.4,2.7l0,49.8C285.6,273.3,285,273.7,284.5,274.3z
	 M241.2,137l43.4-25c0.4,0.6,1.1,1,1.9,1.1v49.8c-1.4,0.2-2.4,1.3-2.4,2.7c0,0.4,0.1,0.7,0.2,1.1l-43.3,25c-0.4-0.6-1-1-1.6-1.1
	v-49.9c1.2-0.3,2.1-1.4,2.1-2.7C241.3,137.6,241.3,137.3,241.2,137z M284.5,219.1l-43.4-25c0.1-0.3,0.2-0.6,0.2-0.9
	c0-0.3-0.1-0.6-0.2-0.9l43.4-25c0.5,0.7,1.3,1.1,2.2,1.1c0.9,0,1.7-0.4,2.2-1.1l42.8,24.7c-0.2,0.4-0.3,0.8-0.3,1.2
	c0,0.4,0.1,0.9,0.3,1.2l-42.8,24.7c-0.5-0.7-1.3-1.1-2.2-1.1S285,218.4,284.5,219.1z M334.2,140.7
	C334.2,140.7,334.2,140.7,334.2,140.7l0,49.7c0,0,0,0,0,0c-0.8,0-1.6,0.4-2.1,1l-42.9-24.7c0.1-0.3,0.2-0.7,0.2-1.1
	c0-1.4-1.1-2.5-2.4-2.7v-49.8c0.8-0.1,1.4-0.5,1.9-1.1l42.8,24.7c-0.2,0.4-0.3,0.8-0.3,1.2C331.4,139.5,332.7,140.7,334.2,140.7z
	 M331.7,249.5l-42.8,24.7c-0.4-0.6-1.1-1-1.9-1.1l0-49.8c1.4-0.2,2.4-1.3,2.4-2.7c0-0.4-0.1-0.7-0.2-1.1l42.9-24.7
	c0.5,0.6,1.2,1,2.1,1c0,0,0,0,0,0v49.7c0,0,0,0,0,0c-1.5,0-2.7,1.2-2.7,2.7C331.4,248.8,331.6,249.2,331.7,249.5z M334.2,300.7
	c-0.8,0-1.6,0.4-2.1,1L289.2,277c0.1-0.3,0.2-0.7,0.2-1.1s-0.1-0.7-0.2-1.1l42.9-24.7c0.5,0.6,1.2,1,2.1,1c1,0,1.8-0.5,2.3-1.2
	l43.3,25c-0.1,0.3-0.2,0.7-0.2,1.1c0,0.4,0.1,0.7,0.2,1.1l-43.3,25C336,301.2,335.1,300.7,334.2,300.7z M380.1,274.3l-43.4-25
	c0.1-0.3,0.2-0.6,0.2-0.9c0-1.3-0.9-2.4-2.1-2.7v-49.9c0.7-0.2,1.3-0.6,1.6-1.1l43.3,25c-0.1,0.3-0.2,0.7-0.2,1.1
	c0,1.4,1.1,2.5,2.4,2.7l0,49.8C381.2,273.3,380.5,273.7,380.1,274.3z M336.7,137l43.4-25c0.4,0.6,1.1,1,1.9,1.1v49.8
	c-1.4,0.2-2.4,1.3-2.4,2.7c0,0.4,0.1,0.7,0.2,1.1l-43.3,25c-0.4-0.6-1-1-1.6-1.1v-49.9c1.2-0.3,2.1-1.4,2.1-2.7
	C336.9,137.6,336.9,137.3,336.7,137z M380.1,219.1l-43.4-25c0.1-0.3,0.2-0.6,0.2-0.9c0-0.3-0.1-0.6-0.2-0.9l43.4-25
	c0.5,0.7,1.3,1.1,2.2,1.1s1.7-0.4,2.2-1.1l42.8,24.7c-0.2,0.4-0.3,0.8-0.3,1.2c0,0.4,0.1,0.9,0.3,1.2l-42.8,24.7
	c-0.5-0.7-1.3-1.1-2.2-1.1S380.6,218.4,380.1,219.1z M427.3,249.5l-42.8,24.7c-0.4-0.6-1.1-1-1.9-1.1l0-49.8
	c1.4-0.2,2.4-1.3,2.4-2.7c0-0.4-0.1-0.7-0.2-1.1l42.9-24.7c0.5,0.6,1.2,1,2.1,1c0,0,0,0,0,0v49.7c0,0,0,0,0,0
	c-1.5,0-2.7,1.2-2.7,2.7C427,248.8,427.1,249.2,427.3,249.5z M429.8,190.4C429.8,190.4,429.8,190.4,429.8,190.4
	c-0.8,0-1.6,0.4-2.1,1l-42.9-24.7c0.1-0.3,0.2-0.7,0.2-1.1c0-1.4-1.1-2.5-2.4-2.7v-49.8c0.8-0.1,1.4-0.5,1.9-1.1l42.8,24.7
	c-0.2,0.4-0.3,0.8-0.3,1.2c0,1.5,1.2,2.7,2.7,2.7c0,0,0,0,0,0V190.4z M429.8,30.3C429.8,30.3,429.8,30.3,429.8,30.3l0,49.7
	c0,0,0,0,0,0c-1.5,0-2.7,1.2-2.7,2.7c0,0.4,0.1,0.9,0.3,1.2l-42.8,24.7c-0.4-0.6-1.1-1-1.9-1.1V57.9c1.4-0.2,2.4-1.3,2.4-2.7
	c0-0.4-0.1-0.7-0.2-1.1l42.9-24.7C428.2,29.9,428.9,30.3,429.8,30.3z M336.7,26.7l43.4-25c0.5,0.7,1.3,1.1,2.2,1.1
	c0.9,0,1.7-0.4,2.2-1.1l42.8,24.7c-0.2,0.4-0.3,0.8-0.3,1.2s0.1,0.9,0.3,1.2l-42.8,24.7c-0.5-0.7-1.3-1.1-2.2-1.1
	c-0.9,0-1.7,0.4-2.2,1.1l-43.4-25c0.1-0.3,0.2-0.6,0.2-0.9S336.9,27,336.7,26.7z M334.8,30.2c0.7-0.2,1.3-0.6,1.6-1.1l43.3,25
	c-0.1,0.3-0.2,0.7-0.2,1.1c0,1.4,1.1,2.5,2.4,2.7v49.8c-0.8,0.1-1.4,0.5-1.9,1.1l-43.4-25c0.1-0.3,0.2-0.6,0.2-0.9
	c0-1.3-0.9-2.4-2.1-2.7V30.2z M336.5,84.3l43.3,25c-0.1,0.3-0.2,0.7-0.2,1.1c0,0.4,0.1,0.7,0.2,1.1l-43.3,25
	c-0.5-0.7-1.3-1.2-2.3-1.2c-0.8,0-1.6,0.4-2.1,1l-42.9-24.7c0.1-0.3,0.2-0.7,0.2-1.1c0-0.4-0.1-0.7-0.2-1.1l42.9-24.7
	c0.5,0.6,1.2,1,2.1,1C335.1,85.5,336,85,336.5,84.3z M334.2,30.3C334.2,30.3,334.2,30.3,334.2,30.3l0,49.7c0,0,0,0,0,0
	c-1.5,0-2.7,1.2-2.7,2.7c0,0.4,0.1,0.9,0.3,1.2l-42.8,24.7c-0.4-0.6-1.1-1-1.9-1.1V57.9c1.4-0.2,2.4-1.3,2.4-2.7
	c0-0.4-0.1-0.7-0.2-1.1l42.9-24.7C332.6,29.9,333.3,30.3,334.2,30.3z M241.2,26.7l43.4-25c0.5,0.7,1.3,1.1,2.2,1.1s1.7-0.4,2.2-1.1
	l42.8,24.7c-0.2,0.4-0.3,0.8-0.3,1.2s0.1,0.9,0.3,1.2l-42.8,24.7c-0.5-0.7-1.3-1.1-2.2-1.1s-1.7,0.4-2.2,1.1l-43.4-25
	c0.1-0.3,0.2-0.6,0.2-0.9S241.3,27,241.2,26.7z M239.3,30.2c0.7-0.2,1.3-0.6,1.6-1.1l43.3,25c-0.1,0.3-0.2,0.7-0.2,1.1
	c0,1.4,1.1,2.5,2.4,2.7v49.8c-0.8,0.1-1.4,0.5-1.9,1.1l-43.4-25c0.1-0.3,0.2-0.6,0.2-0.9c0-1.3-0.9-2.4-2.1-2.7V30.2z M240.9,84.3
	l43.3,25c-0.1,0.3-0.2,0.7-0.2,1.1c0,0.4,0.1,0.7,0.2,1.1l-43.3,25c-0.5-0.7-1.3-1.2-2.3-1.2c-0.8,0-1.6,0.4-2.1,1l-42.9-24.7
	c0.1-0.3,0.2-0.7,0.2-1.1c0-0.4-0.1-0.7-0.2-1.1l42.9-24.7c0.5,0.6,1.2,1,2.1,1C239.6,85.5,240.4,85,240.9,84.3z M238.6,30.3
	C238.6,30.3,238.6,30.3,238.6,30.3l0,49.7c0,0,0,0,0,0c-1.5,0-2.7,1.2-2.7,2.7c0,0.4,0.1,0.9,0.3,1.2l-42.8,24.7
	c-0.4-0.6-1.1-1-1.9-1.1V57.9c1.4-0.2,2.4-1.3,2.4-2.7c0-0.4-0.1-0.7-0.2-1.1l42.9-24.7C237,29.9,237.8,30.3,238.6,30.3z
	 M145.6,26.7l43.4-25c0.5,0.7,1.3,1.1,2.2,1.1c0.9,0,1.7-0.4,2.2-1.1l42.8,24.7c-0.2,0.4-0.3,0.8-0.3,1.2s0.1,0.9,0.3,1.2
	l-42.8,24.7c-0.5-0.7-1.3-1.1-2.2-1.1c-0.9,0-1.7,0.4-2.2,1.1l-43.4-25c0.1-0.3,0.2-0.6,0.2-0.9S145.7,27,145.6,26.7z M143.7,30.2
	c0.7-0.2,1.3-0.6,1.6-1.1l43.3,25c-0.1,0.3-0.2,0.7-0.2,1.1c0,1.4,1.1,2.5,2.4,2.7v49.8c-0.8,0.1-1.4,0.5-1.9,1.1l-43.4-25
	c0.1-0.3,0.2-0.6,0.2-0.9c0-1.3-0.9-2.4-2.1-2.7V30.2z M145.3,84.3l43.3,25c-0.1,0.3-0.2,0.7-0.2,1.1c0,0.4,0.1,0.7,0.2,1.1
	l-43.3,25c-0.5-0.7-1.3-1.2-2.3-1.2c-0.8,0-1.6,0.4-2.1,1l-42.9-24.7c0.1-0.3,0.2-0.7,0.2-1.1c0-0.4-0.1-0.7-0.2-1.1L141,84.5
	c0.5,0.6,1.2,1,2.1,1C144,85.5,144.8,85,145.3,84.3z M143,30.3C143,30.3,143,30.3,143,30.3l0,49.7c0,0,0,0,0,0
	c-1.5,0-2.7,1.2-2.7,2.7c0,0.4,0.1,0.9,0.3,1.2l-42.8,24.7c-0.4-0.6-1.1-1-1.9-1.1V57.9c1.4-0.2,2.4-1.3,2.4-2.7
	c0-0.4-0.1-0.7-0.2-1.1L141,29.4C141.5,29.9,142.2,30.3,143,30.3z M50,26.7l43.4-25c0.5,0.7,1.3,1.1,2.2,1.1c0.9,0,1.7-0.4,2.2-1.1
	l42.8,24.7c-0.2,0.4-0.3,0.8-0.3,1.2s0.1,0.9,0.3,1.2L97.8,53.5c-0.5-0.7-1.3-1.1-2.2-1.1c-0.9,0-1.7,0.4-2.2,1.1L50,28.5
	c0.1-0.3,0.2-0.6,0.2-0.9S50.1,27,50,26.7z M48.1,30.2c0.7-0.2,1.3-0.6,1.6-1.1l43.3,25c-0.1,0.3-0.2,0.7-0.2,1.1
	c0,1.4,1.1,2.5,2.4,2.7v49.8c-0.8,0.1-1.4,0.5-1.9,1.1L50,83.7c0.1-0.3,0.2-0.6,0.2-0.9c0-1.3-0.9-2.4-2.1-2.7V30.2z M49.7,84.3
	l43.3,25c-0.1,0.3-0.2,0.7-0.2,1.1c0,0.4,0.1,0.7,0.2,1.1l-43.3,25c-0.5-0.7-1.3-1.2-2.3-1.2c-0.8,0-1.6,0.4-2.1,1L2.5,111.4
	c0.1-0.3,0.2-0.7,0.2-1.1c0-0.4-0.1-0.7-0.2-1.1l42.9-24.7c0.5,0.6,1.2,1,2.1,1C48.4,85.5,49.3,85,49.7,84.3z M0.3,57.9
	c1.4-0.2,2.4-1.3,2.4-2.7c0-0.4-0.1-0.7-0.2-1.1l42.9-24.7c0.5,0.6,1.2,1,2.1,1c0,0,0,0,0,0V80c0,0,0,0,0,0c-1.5,0-2.7,1.2-2.7,2.7
	c0,0.4,0.1,0.9,0.3,1.2L2.2,108.7c-0.4-0.6-1.1-1-1.9-1.1V57.9z M2.5,166.6c0.1-0.3,0.2-0.7,0.2-1.1c0-1.4-1.1-2.5-2.4-2.7v-49.8
	c0.8-0.1,1.4-0.5,1.9-1.1L45,136.7c-0.2,0.4-0.3,0.8-0.3,1.2c0,1.5,1.2,2.7,2.7,2.7c0,0,0,0,0,0v49.7c0,0,0,0,0,0
	c-0.8,0-1.6,0.4-2.1,1L2.5,166.6z M2.7,220.7c0-0.4-0.1-0.7-0.2-1.1l42.9-24.7c0.5,0.6,1.2,1,2.1,1c0,0,0,0,0,0v49.7c0,0,0,0,0,0
	c-1.5,0-2.7,1.2-2.7,2.7c0,0.4,0.1,0.9,0.3,1.2L2.2,274.3c-0.4-0.6-1.1-1-1.9-1.1l0-49.8C1.7,223.3,2.7,222.1,2.7,220.7z M2.5,332.2
	c0.1-0.3,0.2-0.7,0.2-1.1c0-1.4-1.1-2.5-2.4-2.7l0-49.8c0.8-0.1,1.4-0.5,1.9-1.1L45,302.3c-0.2,0.4-0.3,0.8-0.3,1.2
	c0,1.5,1.2,2.7,2.7,2.7c0,0,0,0,0,0l0,49.7c0,0,0,0,0,0c-0.8,0-1.6,0.4-2.1,1L2.5,332.2z M2.2,439.8c-0.4-0.6-1.1-1-1.9-1.1l0-49.8
	c1.4-0.2,2.4-1.3,2.4-2.7c0-0.4-0.1-0.7-0.2-1.1l42.9-24.7c0.5,0.6,1.2,1,2.1,1c0,0,0,0,0,0l0,49.7c0,0,0,0,0,0
	c-1.5,0-2.7,1.2-2.7,2.7c0,0.4,0.1,0.9,0.3,1.2L2.2,439.8z M93.1,442.5l-43.3,25c-0.5-0.7-1.3-1.2-2.3-1.2c-0.8,0-1.6,0.4-2.1,1
	L2.5,442.5c0.1-0.3,0.2-0.7,0.2-1.1c0-0.4-0.1-0.7-0.2-1.1l42.9-24.7c0.5,0.6,1.2,1,2.1,1c1,0,1.8-0.5,2.3-1.2l43.3,25
	c-0.1,0.3-0.2,0.7-0.2,1.1C92.8,441.8,92.9,442.2,93.1,442.5z M93.4,439.8l-43.4-25c0.1-0.3,0.2-0.6,0.2-0.9c0-1.3-0.9-2.4-2.1-2.7
	l0-49.9c0.7-0.2,1.3-0.6,1.6-1.1l43.3,25c-0.1,0.3-0.2,0.7-0.2,1.1c0,1.4,1.1,2.5,2.4,2.7l0,49.8C94.5,438.8,93.8,439.2,93.4,439.8z
	 M95.6,383.5c-0.9,0-1.7,0.4-2.2,1.1l-43.4-25c0.1-0.3,0.2-0.6,0.2-0.9c0-0.3-0.1-0.6-0.2-0.9l43.4-25c0.5,0.7,1.3,1.1,2.2,1.1
	c0.9,0,1.7-0.4,2.2-1.1l42.8,24.7c-0.2,0.4-0.3,0.8-0.3,1.2c0,0.4,0.1,0.9,0.3,1.2l-42.8,24.7C97.3,384,96.5,383.5,95.6,383.5z
	 M97.8,439.8c-0.4-0.6-1.1-1-1.9-1.1l0-49.8c1.4-0.2,2.4-1.3,2.4-2.7c0-0.4-0.1-0.7-0.2-1.1l42.9-24.7c0.5,0.6,1.2,1,2.1,1
	c0,0,0,0,0,0l0,49.7c0,0,0,0,0,0c-1.5,0-2.7,1.2-2.7,2.7c0,0.4,0.1,0.9,0.3,1.2L97.8,439.8z M188.6,442.5l-43.3,25
	c-0.5-0.7-1.3-1.2-2.3-1.2c-0.8,0-1.6,0.4-2.1,1l-42.9-24.7c0.1-0.3,0.2-0.7,0.2-1.1c0-0.4-0.1-0.7-0.2-1.1l42.9-24.7
	c0.5,0.6,1.2,1,2.1,1c1,0,1.8-0.5,2.3-1.2l43.3,25c-0.1,0.3-0.2,0.7-0.2,1.1C188.4,441.8,188.5,442.2,188.6,442.5z M189,439.8
	l-43.4-25c0.1-0.3,0.2-0.6,0.2-0.9c0-1.3-0.9-2.4-2.1-2.7l0-49.9c0.7-0.2,1.3-0.6,1.6-1.1l43.3,25c-0.1,0.3-0.2,0.7-0.2,1.1
	c0,1.4,1.1,2.5,2.4,2.7l0,49.8C190.1,438.8,189.4,439.2,189,439.8z M191.1,383.5c-0.9,0-1.7,0.4-2.2,1.1l-43.4-25
	c0.1-0.3,0.2-0.6,0.2-0.9c0-0.3-0.1-0.6-0.2-0.9l43.4-25c0.5,0.7,1.3,1.1,2.2,1.1c0.9,0,1.7-0.4,2.2-1.1l42.8,24.7
	c-0.2,0.4-0.3,0.8-0.3,1.2c0,0.4,0.1,0.9,0.3,1.2l-42.8,24.7C192.8,384,192,383.5,191.1,383.5z M193.3,439.8c-0.4-0.6-1.1-1-1.9-1.1
	l0-49.8c1.4-0.2,2.4-1.3,2.4-2.7c0-0.4-0.1-0.7-0.2-1.1l42.9-24.7c0.5,0.6,1.2,1,2.1,1c0,0,0,0,0,0l0,49.7c0,0,0,0,0,0
	c-1.5,0-2.7,1.2-2.7,2.7c0,0.4,0.1,0.9,0.3,1.2L193.3,439.8z M284.2,442.5l-43.3,25c-0.5-0.7-1.3-1.2-2.3-1.2c-0.8,0-1.6,0.4-2.1,1
	l-42.9-24.7c0.1-0.3,0.2-0.7,0.2-1.1c0-0.4-0.1-0.7-0.2-1.1l42.9-24.7c0.5,0.6,1.2,1,2.1,1c1,0,1.8-0.5,2.3-1.2l43.3,25
	c-0.1,0.3-0.2,0.7-0.2,1.1C284,441.8,284.1,442.2,284.2,442.5z M284.5,439.8l-43.4-25c0.1-0.3,0.2-0.6,0.2-0.9
	c0-1.3-0.9-2.4-2.1-2.7l0-49.9c0.7-0.2,1.3-0.6,1.6-1.1l43.3,25c-0.1,0.3-0.2,0.7-0.2,1.1c0,1.4,1.1,2.5,2.4,2.7l0,49.8
	C285.6,438.8,285,439.2,284.5,439.8z M286.7,383.5c-0.9,0-1.7,0.4-2.2,1.1l-43.4-25c0.1-0.3,0.2-0.6,0.2-0.9c0-0.3-0.1-0.6-0.2-0.9
	l43.4-25c0.5,0.7,1.3,1.1,2.2,1.1c0.9,0,1.7-0.4,2.2-1.1l42.8,24.7c-0.2,0.4-0.3,0.8-0.3,1.2c0,0.4,0.1,0.9,0.3,1.2l-42.8,24.7
	C288.4,384,287.6,383.5,286.7,383.5z M288.9,439.8c-0.4-0.6-1.1-1-1.9-1.1l0-49.8c1.4-0.2,2.4-1.3,2.4-2.7c0-0.4-0.1-0.7-0.2-1.1
	l42.9-24.7c0.5,0.6,1.2,1,2.1,1c0,0,0,0,0,0l0,49.7c0,0,0,0,0,0c-1.5,0-2.7,1.2-2.7,2.7c0,0.4,0.1,0.9,0.3,1.2L288.9,439.8z
	 M379.8,442.5l-43.3,25c-0.5-0.7-1.3-1.2-2.3-1.2c-0.8,0-1.6,0.4-2.1,1l-42.9-24.7c0.1-0.3,0.2-0.7,0.2-1.1c0-0.4-0.1-0.7-0.2-1.1
	l42.9-24.7c0.5,0.6,1.2,1,2.1,1c1,0,1.8-0.5,2.3-1.2l43.3,25c-0.1,0.3-0.2,0.7-0.2,1.1C379.6,441.8,379.6,442.2,379.8,442.5z
	 M380.1,439.8l-43.4-25c0.1-0.3,0.2-0.6,0.2-0.9c0-1.3-0.9-2.4-2.1-2.7l0-49.9c0.7-0.2,1.3-0.6,1.6-1.1l43.3,25
	c-0.1,0.3-0.2,0.7-0.2,1.1c0,1.4,1.1,2.5,2.4,2.7l0,49.8C381.2,438.8,380.5,439.2,380.1,439.8z M382.3,383.5c-0.9,0-1.7,0.4-2.2,1.1
	l-43.4-25c0.1-0.3,0.2-0.6,0.2-0.9c0-0.3-0.1-0.6-0.2-0.9l43.4-25c0.5,0.7,1.3,1.1,2.2,1.1c0.9,0,1.7-0.4,2.2-1.1l42.8,24.7
	c-0.2,0.4-0.3,0.8-0.3,1.2c0,0.4,0.1,0.9,0.3,1.2l-42.8,24.7C384,384,383.2,383.5,382.3,383.5z M384.5,439.8c-0.4-0.6-1.1-1-1.9-1.1
	l0-49.8c1.4-0.2,2.4-1.3,2.4-2.7c0-0.4-0.1-0.7-0.2-1.1l42.9-24.7c0.5,0.6,1.2,1,2.1,1c0,0,0,0,0,0l0,49.7c0,0,0,0,0,0
	c-1.5,0-2.7,1.2-2.7,2.7c0,0.4,0.1,0.9,0.3,1.2L384.5,439.8z M475.4,442.5l-43.3,25c-0.5-0.7-1.3-1.2-2.3-1.2c-0.8,0-1.6,0.4-2.1,1
	l-42.9-24.7c0.1-0.3,0.2-0.7,0.2-1.1c0-0.4-0.1-0.7-0.2-1.1l42.9-24.7c0.5,0.6,1.2,1,2.1,1c1,0,1.8-0.5,2.3-1.2l43.3,25
	c-0.1,0.3-0.2,0.7-0.2,1.1C475.1,441.8,475.2,442.2,475.4,442.5z M475.4,385.2c-0.1,0.3-0.2,0.7-0.2,1.1c0,1.4,1.1,2.5,2.4,2.7
	l0,49.8c-0.8,0.1-1.4,0.5-1.9,1.1l-43.4-25c0.1-0.3,0.2-0.6,0.2-0.9c0-1.3-0.9-2.4-2.1-2.7l0-49.9c0.7-0.2,1.3-0.6,1.6-1.1
	L475.4,385.2z M477.5,328.4c-1.4,0.2-2.4,1.3-2.4,2.7c0,0.4,0.1,0.7,0.2,1.1l-43.3,25c-0.4-0.6-1-1-1.6-1.1l0-49.9
	c1.2-0.3,2.1-1.4,2.1-2.7c0-0.3-0.1-0.6-0.2-0.9l43.4-25c0.4,0.6,1.1,1,1.9,1.1L477.5,328.4z M475.4,219.6c-0.1,0.3-0.2,0.7-0.2,1.1
	c0,1.4,1.1,2.5,2.4,2.7l0,49.8c-0.8,0.1-1.4,0.5-1.9,1.1l-43.4-25c0.1-0.3,0.2-0.6,0.2-0.9c0-1.3-0.9-2.4-2.1-2.7v-49.9
	c0.7-0.2,1.3-0.6,1.6-1.1L475.4,219.6z M477.5,162.8c-1.4,0.2-2.4,1.3-2.4,2.7c0,0.4,0.1,0.7,0.2,1.1l-43.3,25c-0.4-0.6-1-1-1.6-1.1
	v-49.9c1.2-0.3,2.1-1.4,2.1-2.7c0-0.3-0.1-0.6-0.2-0.9l43.4-25c0.4,0.6,1.1,1,1.9,1.1V162.8z M475.4,54.1c-0.1,0.3-0.2,0.7-0.2,1.1
	c0,1.4,1.1,2.5,2.4,2.7v49.8c-0.8,0.1-1.4,0.5-1.9,1.1l-43.4-25c0.1-0.3,0.2-0.6,0.2-0.9c0-1.3-0.9-2.4-2.1-2.7V30.2
	c0.7-0.2,1.3-0.6,1.6-1.1L475.4,54.1z"/>
<path opacity="0.41" fill="#D0E2DF" d="M955.5,2.7V0h-2.7c0,0.4,0.1,0.7,0.2,1.1l-43.3,25c-0.4-0.6-1-1-1.6-1.1V0h-0.6v24.9
	c0,0,0,0,0,0c-0.8,0-1.6,0.4-2.1,1L862.5,1.1c0.1-0.3,0.2-0.7,0.2-1.1h-5.5c0,0.4,0.1,0.7,0.2,1.1l-43.3,25c-0.4-0.6-1-1-1.6-1.1V0
	h-0.6v24.9c0,0,0,0,0,0c-0.8,0-1.6,0.4-2.1,1L766.9,1.1c0.1-0.3,0.2-0.7,0.2-1.1h-5.5c0,0.4,0.1,0.7,0.2,1.1l-43.3,25
	c-0.4-0.6-1-1-1.6-1.1V0h-0.6v24.9c0,0,0,0,0,0c-0.8,0-1.6,0.4-2.1,1L671.3,1.1c0.1-0.3,0.2-0.7,0.2-1.1h-5.5c0,0.4,0.1,0.7,0.2,1.1
	l-43.3,25c-0.4-0.6-1-1-1.6-1.1V0h-0.6v24.9c0,0,0,0,0,0c-0.8,0-1.6,0.4-2.1,1L575.8,1.1c0.1-0.3,0.2-0.7,0.2-1.1h-5.5
	c0,0.4,0.1,0.7,0.2,1.1l-43.3,25c-0.4-0.6-1-1-1.6-1.1V0h-0.6v24.9c0,0,0,0,0,0c-0.8,0-1.6,0.4-2.1,1L480.2,1.1
	c0.1-0.3,0.2-0.7,0.2-1.1h-2.7v2.7c0.9,0,1.7-0.4,2.2-1.1l42.8,24.7c-0.2,0.4-0.3,0.8-0.3,1.2s0.1,0.9,0.3,1.2l-42.8,24.7
	c-0.5-0.7-1.3-1.1-2.2-1.1v115.8c0.9,0,1.7-0.4,2.2-1.1l42.8,24.7c-0.2,0.4-0.3,0.8-0.3,1.2c0,0.4,0.1,0.9,0.3,1.2l-42.8,24.7
	c-0.5-0.7-1.3-1.1-2.2-1.1v115.8c0.9,0,1.7-0.4,2.2-1.1l42.8,24.7c-0.2,0.4-0.3,0.8-0.3,1.2c0,0.4,0.1,0.9,0.3,1.2l-42.8,24.7
	c-0.5-0.7-1.3-1.1-2.2-1.1v113.1h2.7c0-1.4-1.1-2.5-2.4-2.7l0-49.8c0.8-0.1,1.4-0.5,1.9-1.1l42.8,24.7c-0.2,0.4-0.3,0.8-0.3,1.2
	c0,1.5,1.2,2.7,2.7,2.7c0,0,0,0,0,0v24.9h0.6v-24.9c1.2-0.3,2.1-1.4,2.1-2.7c0-0.3-0.1-0.6-0.2-0.9l43.4-25c0.4,0.6,1.1,1,1.9,1.1
	l0,49.8c-1.4,0.2-2.4,1.3-2.4,2.7h5.5c0-1.4-1.1-2.5-2.4-2.7l0-49.8c0.8-0.1,1.4-0.5,1.9-1.1l42.8,24.7c-0.2,0.4-0.3,0.8-0.3,1.2
	c0,1.5,1.2,2.7,2.7,2.7c0,0,0,0,0,0v24.9h0.6v-24.9c1.2-0.3,2.1-1.4,2.1-2.7c0-0.3-0.1-0.6-0.2-0.9l43.4-25c0.4,0.6,1.1,1,1.9,1.1
	l0,49.8c-1.4,0.2-2.4,1.3-2.4,2.7h5.5c0-1.4-1.1-2.5-2.4-2.7l0-49.8c0.8-0.1,1.4-0.5,1.9-1.1l42.8,24.7c-0.2,0.4-0.3,0.8-0.3,1.2
	c0,1.5,1.2,2.7,2.7,2.7c0,0,0,0,0,0l0,24.9h0.6l0-24.9c1.2-0.3,2.1-1.4,2.1-2.7c0-0.3-0.1-0.6-0.2-0.9l43.4-25
	c0.4,0.6,1.1,1,1.9,1.1l0,49.8c-1.4,0.2-2.4,1.3-2.4,2.7h5.5c0-1.4-1.1-2.5-2.4-2.7l0-49.8c0.8-0.1,1.4-0.5,1.9-1.1l42.8,24.7
	c-0.2,0.4-0.3,0.8-0.3,1.2c0,1.5,1.2,2.7,2.7,2.7c0,0,0,0,0,0v24.9h0.6v-24.9c1.2-0.3,2.1-1.4,2.1-2.7c0-0.3-0.1-0.6-0.2-0.9
	l43.4-25c0.4,0.6,1.1,1,1.9,1.1l0,49.8c-1.4,0.2-2.4,1.3-2.4,2.7h5.5c0-1.4-1.1-2.5-2.4-2.7l0-49.8c0.8-0.1,1.4-0.5,1.9-1.1
	l42.8,24.7c-0.2,0.4-0.3,0.8-0.3,1.2c0,1.5,1.2,2.7,2.7,2.7c0,0,0,0,0,0v24.9h0.6v-24.9c1.2-0.3,2.1-1.4,2.1-2.7
	c0-0.3-0.1-0.6-0.2-0.9l43.4-25c0.4,0.6,1.1,1,1.9,1.1l0,49.8c-1.4,0.2-2.4,1.3-2.4,2.7h2.7V383.5c-0.9,0-1.7,0.4-2.2,1.1l-43.4-25
	c0.1-0.3,0.2-0.6,0.2-0.9c0-0.3-0.1-0.6-0.2-0.9l43.4-25c0.5,0.7,1.3,1.1,2.2,1.1V218c-0.9,0-1.7,0.4-2.2,1.1L910,194
	c0.1-0.3,0.2-0.6,0.2-0.9c0-0.3-0.1-0.6-0.2-0.9l43.4-25c0.5,0.7,1.3,1.1,2.2,1.1V52.4c-0.9,0-1.7,0.4-2.2,1.1l-43.4-25
	c0.1-0.3,0.2-0.6,0.2-0.9s-0.1-0.6-0.2-0.9l43.4-25C953.9,2.3,954.6,2.7,955.5,2.7z M909.7,84.3l43.3,25c-0.1,0.3-0.2,0.7-0.2,1.1
	c0,0.4,0.1,0.7,0.2,1.1l-43.3,25c-0.5-0.7-1.3-1.2-2.3-1.2c-0.8,0-1.6,0.4-2.1,1l-42.9-24.7c0.1-0.3,0.2-0.7,0.2-1.1
	c0-0.4-0.1-0.7-0.2-1.1l42.9-24.7c0.5,0.6,1.2,1,2.1,1C908.4,85.5,909.2,85,909.7,84.3z M953,277l-43.3,25c-0.5-0.7-1.3-1.2-2.3-1.2
	c-0.8,0-1.6,0.4-2.1,1L862.5,277c0.1-0.3,0.2-0.7,0.2-1.1s-0.1-0.7-0.2-1.1l42.9-24.7c0.5,0.6,1.2,1,2.1,1c1,0,1.8-0.5,2.3-1.2
	l43.3,25c-0.1,0.3-0.2,0.7-0.2,1.1C952.8,276.3,952.9,276.6,953,277z M860.3,328.4l0-49.8c0.8-0.1,1.4-0.5,1.9-1.1l42.8,24.7
	c-0.2,0.4-0.3,0.8-0.3,1.2c0,1.5,1.2,2.7,2.7,2.7c0,0,0,0,0,0l0,49.7c0,0,0,0,0,0c-0.8,0-1.6,0.4-2.1,1l-42.9-24.7
	c0.1-0.3,0.2-0.7,0.2-1.1C862.7,329.7,861.6,328.5,860.3,328.4z M857.4,332.2l-43.3,25c-0.4-0.6-1-1-1.6-1.1l0-49.9
	c1.2-0.3,2.1-1.4,2.1-2.7c0-0.3-0.1-0.6-0.2-0.9l43.4-25c0.4,0.6,1.1,1,1.9,1.1l0,49.8c-1.4,0.2-2.4,1.3-2.4,2.7
	C857.2,331.5,857.3,331.8,857.4,332.2z M764.7,328.4l0-49.8c0.8-0.1,1.4-0.5,1.9-1.1l42.8,24.7c-0.2,0.4-0.3,0.8-0.3,1.2
	c0,1.5,1.2,2.7,2.7,2.7c0,0,0,0,0,0l0,49.7c0,0,0,0,0,0c-0.8,0-1.6,0.4-2.1,1l-42.9-24.7c0.1-0.3,0.2-0.7,0.2-1.1
	C767.1,329.7,766.1,328.5,764.7,328.4z M761.9,332.2l-43.3,25c-0.4-0.6-1-1-1.6-1.1l0-49.9c1.2-0.3,2.1-1.4,2.1-2.7
	c0-0.3-0.1-0.6-0.2-0.9l43.4-25c0.4,0.6,1.1,1,1.9,1.1l0,49.8c-1.4,0.2-2.4,1.3-2.4,2.7C761.6,331.5,761.7,331.8,761.9,332.2z
	 M669.1,328.4l0-49.8c0.8-0.1,1.4-0.5,1.9-1.1l42.8,24.7c-0.2,0.4-0.3,0.8-0.3,1.2c0,1.5,1.2,2.7,2.7,2.7c0,0,0,0,0,0l0,49.7
	c0,0,0,0,0,0c-0.8,0-1.6,0.4-2.1,1l-42.9-24.7c0.1-0.3,0.2-0.7,0.2-1.1C671.6,329.7,670.5,328.5,669.1,328.4z M666.3,332.2l-43.3,25
	c-0.4-0.6-1-1-1.6-1.1l0-49.9c1.2-0.3,2.1-1.4,2.1-2.7c0-0.3-0.1-0.6-0.2-0.9l43.4-25c0.4,0.6,1.1,1,1.9,1.1l0,49.8
	c-1.4,0.2-2.4,1.3-2.4,2.7C666.1,331.5,666.2,331.8,666.3,332.2z M573.6,328.4l0-49.8c0.8-0.1,1.4-0.5,1.9-1.1l42.8,24.7
	c-0.2,0.4-0.3,0.8-0.3,1.2c0,1.5,1.2,2.7,2.7,2.7c0,0,0,0,0,0l0,49.7c0,0,0,0,0,0c-0.8,0-1.6,0.4-2.1,1l-42.9-24.7
	c0.1-0.3,0.2-0.7,0.2-1.1C576,329.7,574.9,328.5,573.6,328.4z M570.7,332.2l-43.3,25c-0.4-0.6-1-1-1.6-1.1l0-49.9
	c1.2-0.3,2.1-1.4,2.1-2.7c0-0.3-0.1-0.6-0.2-0.9l43.4-25c0.4,0.6,1.1,1,1.9,1.1l0,49.8c-1.4,0.2-2.4,1.3-2.4,2.7
	C570.5,331.5,570.6,331.8,570.7,332.2z M480.2,274.8l42.9-24.7c0.5,0.6,1.2,1,2.1,1c1,0,1.8-0.5,2.3-1.2l43.3,25
	c-0.1,0.3-0.2,0.7-0.2,1.1s0.1,0.7,0.2,1.1l-43.3,25c-0.5-0.7-1.3-1.2-2.3-1.2c-0.8,0-1.6,0.4-2.1,1L480.2,277
	c0.1-0.3,0.2-0.7,0.2-1.1S480.3,275.2,480.2,274.8z M571.1,274.3l-43.4-25c0.1-0.3,0.2-0.6,0.2-0.9c0-1.3-0.9-2.4-2.1-2.7v-49.9
	c0.7-0.2,1.3-0.6,1.6-1.1l43.3,25c-0.1,0.3-0.2,0.7-0.2,1.1c0,1.4,1.1,2.5,2.4,2.7l0,49.8C572.2,273.3,571.5,273.7,571.1,274.3z
	 M527.7,137l43.4-25c0.4,0.6,1.1,1,1.9,1.1v49.8c-1.4,0.2-2.4,1.3-2.4,2.7c0,0.4,0.1,0.7,0.2,1.1l-43.3,25c-0.4-0.6-1-1-1.6-1.1
	v-49.9c1.2-0.3,2.1-1.4,2.1-2.7C527.9,137.6,527.8,137.3,527.7,137z M571.1,219.1l-43.4-25c0.1-0.3,0.2-0.6,0.2-0.9
	c0-0.3-0.1-0.6-0.2-0.9l43.4-25c0.5,0.7,1.3,1.1,2.2,1.1c0.9,0,1.7-0.4,2.2-1.1l42.8,24.7c-0.2,0.4-0.3,0.8-0.3,1.2
	c0,0.4,0.1,0.9,0.3,1.2l-42.8,24.7c-0.5-0.7-1.3-1.1-2.2-1.1C572.3,218,571.6,218.4,571.1,219.1z M620.7,140.7
	C620.7,140.7,620.7,140.7,620.7,140.7l0,49.7c0,0,0,0,0,0c-0.8,0-1.6,0.4-2.1,1l-42.9-24.7c0.1-0.3,0.2-0.7,0.2-1.1
	c0-1.4-1.1-2.5-2.4-2.7v-49.8c0.8-0.1,1.4-0.5,1.9-1.1l42.8,24.7c-0.2,0.4-0.3,0.8-0.3,1.2C618,139.5,619.2,140.7,620.7,140.7z
	 M618.3,249.5l-42.8,24.7c-0.4-0.6-1.1-1-1.9-1.1l0-49.8c1.4-0.2,2.4-1.3,2.4-2.7c0-0.4-0.1-0.7-0.2-1.1l42.9-24.7
	c0.5,0.6,1.2,1,2.1,1c0,0,0,0,0,0v49.7c0,0,0,0,0,0c-1.5,0-2.7,1.2-2.7,2.7C618,248.8,618.1,249.2,618.3,249.5z M620.7,300.7
	c-0.8,0-1.6,0.4-2.1,1L575.8,277c0.1-0.3,0.2-0.7,0.2-1.1s-0.1-0.7-0.2-1.1l42.9-24.7c0.5,0.6,1.2,1,2.1,1c1,0,1.8-0.5,2.3-1.2
	l43.3,25c-0.1,0.3-0.2,0.7-0.2,1.1s0.1,0.7,0.2,1.1L623,302C622.5,301.2,621.7,300.7,620.7,300.7z M666.6,274.3l-43.4-25
	c0.1-0.3,0.2-0.6,0.2-0.9c0-1.3-0.9-2.4-2.1-2.7v-49.9c0.7-0.2,1.3-0.6,1.6-1.1l43.3,25c-0.1,0.3-0.2,0.7-0.2,1.1
	c0,1.4,1.1,2.5,2.4,2.7l0,49.8C667.7,273.3,667.1,273.7,666.6,274.3z M623.3,137l43.4-25c0.4,0.6,1.1,1,1.9,1.1v49.8
	c-1.4,0.2-2.4,1.3-2.4,2.7c0,0.4,0.1,0.7,0.2,1.1l-43.3,25c-0.4-0.6-1-1-1.6-1.1v-49.9c1.2-0.3,2.1-1.4,2.1-2.7
	C623.4,137.6,623.4,137.3,623.3,137z M666.6,219.1l-43.4-25c0.1-0.3,0.2-0.6,0.2-0.9c0-0.3-0.1-0.6-0.2-0.9l43.4-25
	c0.5,0.7,1.3,1.1,2.2,1.1s1.7-0.4,2.2-1.1l42.8,24.7c-0.2,0.4-0.3,0.8-0.3,1.2c0,0.4,0.1,0.9,0.3,1.2L671,219.1
	c-0.5-0.7-1.3-1.1-2.2-1.1C667.9,218,667.1,218.4,666.6,219.1z M716.3,140.7C716.3,140.7,716.3,140.7,716.3,140.7l0,49.7
	c0,0,0,0,0,0c-0.8,0-1.6,0.4-2.1,1l-42.9-24.7c0.1-0.3,0.2-0.7,0.2-1.1c0-1.4-1.1-2.5-2.4-2.7v-49.8c0.8-0.1,1.4-0.5,1.9-1.1
	l42.8,24.7c-0.2,0.4-0.3,0.8-0.3,1.2C713.5,139.5,714.8,140.7,716.3,140.7z M713.8,249.5L671,274.3c-0.4-0.6-1.1-1-1.9-1.1l0-49.8
	c1.4-0.2,2.4-1.3,2.4-2.7c0-0.4-0.1-0.7-0.2-1.1l42.9-24.7c0.5,0.6,1.2,1,2.1,1c0,0,0,0,0,0v49.7c0,0,0,0,0,0
	c-1.5,0-2.7,1.2-2.7,2.7C713.5,248.8,713.6,249.2,713.8,249.5z M716.3,300.7c-0.8,0-1.6,0.4-2.1,1L671.3,277
	c0.1-0.3,0.2-0.7,0.2-1.1s-0.1-0.7-0.2-1.1l42.9-24.7c0.5,0.6,1.2,1,2.1,1c1,0,1.8-0.5,2.3-1.2l43.3,25c-0.1,0.3-0.2,0.7-0.2,1.1
	c0,0.4,0.1,0.7,0.2,1.1l-43.3,25C718.1,301.2,717.2,300.7,716.3,300.7z M762.2,274.3l-43.4-25c0.1-0.3,0.2-0.6,0.2-0.9
	c0-1.3-0.9-2.4-2.1-2.7v-49.9c0.7-0.2,1.3-0.6,1.6-1.1l43.3,25c-0.1,0.3-0.2,0.7-0.2,1.1c0,1.4,1.1,2.5,2.4,2.7l0,49.8
	C763.3,273.3,762.6,273.7,762.2,274.3z M718.8,137l43.4-25c0.4,0.6,1.1,1,1.9,1.1v49.8c-1.4,0.2-2.4,1.3-2.4,2.7
	c0,0.4,0.1,0.7,0.2,1.1l-43.3,25c-0.4-0.6-1-1-1.6-1.1v-49.9c1.2-0.3,2.1-1.4,2.1-2.7C719,137.6,718.9,137.3,718.8,137z
	 M762.2,219.1l-43.4-25c0.1-0.3,0.2-0.6,0.2-0.9c0-0.3-0.1-0.6-0.2-0.9l43.4-25c0.5,0.7,1.3,1.1,2.2,1.1c0.9,0,1.7-0.4,2.2-1.1
	l42.8,24.7c-0.2,0.4-0.3,0.8-0.3,1.2c0,0.4,0.1,0.9,0.3,1.2l-42.8,24.7c-0.5-0.7-1.3-1.1-2.2-1.1C763.5,218,762.7,218.4,762.2,219.1
	z M811.8,140.7C811.8,140.7,811.8,140.7,811.8,140.7l0,49.7c0,0,0,0,0,0c-0.8,0-1.6,0.4-2.1,1l-42.9-24.7c0.1-0.3,0.2-0.7,0.2-1.1
	c0-1.4-1.1-2.5-2.4-2.7v-49.8c0.8-0.1,1.4-0.5,1.9-1.1l42.8,24.7c-0.2,0.4-0.3,0.8-0.3,1.2C809.1,139.5,810.3,140.7,811.8,140.7z
	 M809.4,249.5l-42.8,24.7c-0.4-0.6-1.1-1-1.9-1.1l0-49.8c1.4-0.2,2.4-1.3,2.4-2.7c0-0.4-0.1-0.7-0.2-1.1l42.9-24.7
	c0.5,0.6,1.2,1,2.1,1c0,0,0,0,0,0v49.7c0,0,0,0,0,0c-1.5,0-2.7,1.2-2.7,2.7C809.1,248.8,809.2,249.2,809.4,249.5z M811.8,300.7
	c-0.8,0-1.6,0.4-2.1,1L766.9,277c0.1-0.3,0.2-0.7,0.2-1.1s-0.1-0.7-0.2-1.1l42.9-24.7c0.5,0.6,1.2,1,2.1,1c1,0,1.8-0.5,2.3-1.2
	l43.3,25c-0.1,0.3-0.2,0.7-0.2,1.1c0,0.4,0.1,0.7,0.2,1.1l-43.3,25C813.6,301.2,812.8,300.7,811.8,300.7z M857.8,274.3l-43.4-25
	c0.1-0.3,0.2-0.6,0.2-0.9c0-1.3-0.9-2.4-2.1-2.7v-49.9c0.7-0.2,1.3-0.6,1.6-1.1l43.3,25c-0.1,0.3-0.2,0.7-0.2,1.1
	c0,1.4,1.1,2.5,2.4,2.7l0,49.8C858.9,273.3,858.2,273.7,857.8,274.3z M814.4,137l43.4-25c0.4,0.6,1.1,1,1.9,1.1v49.8
	c-1.4,0.2-2.4,1.3-2.4,2.7c0,0.4,0.1,0.7,0.2,1.1l-43.3,25c-0.4-0.6-1-1-1.6-1.1v-49.9c1.2-0.3,2.1-1.4,2.1-2.7
	C814.6,137.6,814.5,137.3,814.4,137z M857.8,219.1l-43.4-25c0.1-0.3,0.2-0.6,0.2-0.9c0-0.3-0.1-0.6-0.2-0.9l43.4-25
	c0.5,0.7,1.3,1.1,2.2,1.1s1.7-0.4,2.2-1.1l42.8,24.7c-0.2,0.4-0.3,0.8-0.3,1.2c0,0.4,0.1,0.9,0.3,1.2l-42.8,24.7
	c-0.5-0.7-1.3-1.1-2.2-1.1S858.3,218.4,857.8,219.1z M905,249.5l-42.8,24.7c-0.4-0.6-1.1-1-1.9-1.1l0-49.8c1.4-0.2,2.4-1.3,2.4-2.7
	c0-0.4-0.1-0.7-0.2-1.1l42.9-24.7c0.5,0.6,1.2,1,2.1,1c0,0,0,0,0,0v49.7c0,0,0,0,0,0c-1.5,0-2.7,1.2-2.7,2.7
	C904.7,248.8,904.8,249.2,905,249.5z M907.4,190.4C907.4,190.4,907.4,190.4,907.4,190.4c-0.8,0-1.6,0.4-2.1,1l-42.9-24.7
	c0.1-0.3,0.2-0.7,0.2-1.1c0-1.4-1.1-2.5-2.4-2.7v-49.8c0.8-0.1,1.4-0.5,1.9-1.1l42.8,24.7c-0.2,0.4-0.3,0.8-0.3,1.2
	c0,1.5,1.2,2.7,2.7,2.7c0,0,0,0,0,0V190.4z M907.4,30.3C907.4,30.3,907.4,30.3,907.4,30.3l0,49.7c0,0,0,0,0,0
	c-1.5,0-2.7,1.2-2.7,2.7c0,0.4,0.1,0.9,0.3,1.2l-42.8,24.7c-0.4-0.6-1.1-1-1.9-1.1V57.9c1.4-0.2,2.4-1.3,2.4-2.7
	c0-0.4-0.1-0.7-0.2-1.1l42.9-24.7C905.8,29.9,906.6,30.3,907.4,30.3z M814.4,26.7l43.4-25c0.5,0.7,1.3,1.1,2.2,1.1
	c0.9,0,1.7-0.4,2.2-1.1L905,26.4c-0.2,0.4-0.3,0.8-0.3,1.2s0.1,0.9,0.3,1.2l-42.8,24.7c-0.5-0.7-1.3-1.1-2.2-1.1
	c-0.9,0-1.7,0.4-2.2,1.1l-43.4-25c0.1-0.3,0.2-0.6,0.2-0.9S814.5,27,814.4,26.7z M812.5,30.2c0.7-0.2,1.3-0.6,1.6-1.1l43.3,25
	c-0.1,0.3-0.2,0.7-0.2,1.1c0,1.4,1.1,2.5,2.4,2.7v49.8c-0.8,0.1-1.4,0.5-1.9,1.1l-43.4-25c0.1-0.3,0.2-0.6,0.2-0.9
	c0-1.3-0.9-2.4-2.1-2.7V30.2z M814.1,84.3l43.3,25c-0.1,0.3-0.2,0.7-0.2,1.1c0,0.4,0.1,0.7,0.2,1.1l-43.3,25
	c-0.5-0.7-1.3-1.2-2.3-1.2c-0.8,0-1.6,0.4-2.1,1l-42.9-24.7c0.1-0.3,0.2-0.7,0.2-1.1c0-0.4-0.1-0.7-0.2-1.1l42.9-24.7
	c0.5,0.6,1.2,1,2.1,1C812.8,85.5,813.6,85,814.1,84.3z M811.8,30.3C811.8,30.3,811.8,30.3,811.8,30.3l0,49.7c0,0,0,0,0,0
	c-1.5,0-2.7,1.2-2.7,2.7c0,0.4,0.1,0.9,0.3,1.2l-42.8,24.7c-0.4-0.6-1.1-1-1.9-1.1V57.9c1.4-0.2,2.4-1.3,2.4-2.7
	c0-0.4-0.1-0.7-0.2-1.1l42.9-24.7C810.3,29.9,811,30.3,811.8,30.3z M718.8,26.7l43.4-25c0.5,0.7,1.3,1.1,2.2,1.1
	c0.9,0,1.7-0.4,2.2-1.1l42.8,24.7c-0.2,0.4-0.3,0.8-0.3,1.2s0.1,0.9,0.3,1.2l-42.8,24.7c-0.5-0.7-1.3-1.1-2.2-1.1
	c-0.9,0-1.7,0.4-2.2,1.1l-43.4-25c0.1-0.3,0.2-0.6,0.2-0.9S718.9,27,718.8,26.7z M716.9,30.2c0.7-0.2,1.3-0.6,1.6-1.1l43.3,25
	c-0.1,0.3-0.2,0.7-0.2,1.1c0,1.4,1.1,2.5,2.4,2.7v49.8c-0.8,0.1-1.4,0.5-1.9,1.1l-43.4-25c0.1-0.3,0.2-0.6,0.2-0.9
	c0-1.3-0.9-2.4-2.1-2.7V30.2z M718.6,84.3l43.3,25c-0.1,0.3-0.2,0.7-0.2,1.1c0,0.4,0.1,0.7,0.2,1.1l-43.3,25
	c-0.5-0.7-1.3-1.2-2.3-1.2c-0.8,0-1.6,0.4-2.1,1l-42.9-24.7c0.1-0.3,0.2-0.7,0.2-1.1c0-0.4-0.1-0.7-0.2-1.1l42.9-24.7
	c0.5,0.6,1.2,1,2.1,1C717.2,85.5,718.1,85,718.6,84.3z M716.3,30.3C716.3,30.3,716.3,30.3,716.3,30.3l0,49.7c0,0,0,0,0,0
	c-1.5,0-2.7,1.2-2.7,2.7c0,0.4,0.1,0.9,0.3,1.2L671,108.7c-0.4-0.6-1.1-1-1.9-1.1V57.9c1.4-0.2,2.4-1.3,2.4-2.7
	c0-0.4-0.1-0.7-0.2-1.1l42.9-24.7C714.7,29.9,715.4,30.3,716.3,30.3z M623.3,26.7l43.4-25c0.5,0.7,1.3,1.1,2.2,1.1
	c0.9,0,1.7-0.4,2.2-1.1l42.8,24.7c-0.2,0.4-0.3,0.8-0.3,1.2s0.1,0.9,0.3,1.2L671,53.5c-0.5-0.7-1.3-1.1-2.2-1.1
	c-0.9,0-1.7,0.4-2.2,1.1l-43.4-25c0.1-0.3,0.2-0.6,0.2-0.9S623.4,27,623.3,26.7z M621.4,30.2c0.7-0.2,1.3-0.6,1.6-1.1l43.3,25
	c-0.1,0.3-0.2,0.7-0.2,1.1c0,1.4,1.1,2.5,2.4,2.7v49.8c-0.8,0.1-1.4,0.5-1.9,1.1l-43.4-25c0.1-0.3,0.2-0.6,0.2-0.9
	c0-1.3-0.9-2.4-2.1-2.7V30.2z M623,84.3l43.3,25c-0.1,0.3-0.2,0.7-0.2,1.1c0,0.4,0.1,0.7,0.2,1.1l-43.3,25c-0.5-0.7-1.3-1.2-2.3-1.2
	c-0.8,0-1.6,0.4-2.1,1l-42.9-24.7c0.1-0.3,0.2-0.7,0.2-1.1c0-0.4-0.1-0.7-0.2-1.1l42.9-24.7c0.5,0.6,1.2,1,2.1,1
	C621.7,85.5,622.5,85,623,84.3z M620.7,30.3C620.7,30.3,620.7,30.3,620.7,30.3l0,49.7c0,0,0,0,0,0c-1.5,0-2.7,1.2-2.7,2.7
	c0,0.4,0.1,0.9,0.3,1.2l-42.8,24.7c-0.4-0.6-1.1-1-1.9-1.1V57.9c1.4-0.2,2.4-1.3,2.4-2.7c0-0.4-0.1-0.7-0.2-1.1l42.9-24.7
	C619.1,29.9,619.9,30.3,620.7,30.3z M527.7,26.7l43.4-25c0.5,0.7,1.3,1.1,2.2,1.1c0.9,0,1.7-0.4,2.2-1.1l42.8,24.7
	c-0.2,0.4-0.3,0.8-0.3,1.2s0.1,0.9,0.3,1.2l-42.8,24.7c-0.5-0.7-1.3-1.1-2.2-1.1c-0.9,0-1.7,0.4-2.2,1.1l-43.4-25
	c0.1-0.3,0.2-0.6,0.2-0.9S527.8,27,527.7,26.7z M525.8,30.2c0.7-0.2,1.3-0.6,1.6-1.1l43.3,25c-0.1,0.3-0.2,0.7-0.2,1.1
	c0,1.4,1.1,2.5,2.4,2.7v49.8c-0.8,0.1-1.4,0.5-1.9,1.1l-43.4-25c0.1-0.3,0.2-0.6,0.2-0.9c0-1.3-0.9-2.4-2.1-2.7V30.2z M527.4,84.3
	l43.3,25c-0.1,0.3-0.2,0.7-0.2,1.1c0,0.4,0.1,0.7,0.2,1.1l-43.3,25c-0.5-0.7-1.3-1.2-2.3-1.2c-0.8,0-1.6,0.4-2.1,1l-42.9-24.7
	c0.1-0.3,0.2-0.7,0.2-1.1c0-0.4-0.1-0.7-0.2-1.1L523,84.5c0.5,0.6,1.2,1,2.1,1C526.1,85.5,526.9,85,527.4,84.3z M478,57.9
	c1.4-0.2,2.4-1.3,2.4-2.7c0-0.4-0.1-0.7-0.2-1.1L523,29.4c0.5,0.6,1.2,1,2.1,1c0,0,0,0,0,0V80c0,0,0,0,0,0c-1.5,0-2.7,1.2-2.7,2.7
	c0,0.4,0.1,0.9,0.3,1.2l-42.8,24.7c-0.4-0.6-1.1-1-1.9-1.1V57.9z M480.2,166.6c0.1-0.3,0.2-0.7,0.2-1.1c0-1.4-1.1-2.5-2.4-2.7v-49.8
	c0.8-0.1,1.4-0.5,1.9-1.1l42.8,24.7c-0.2,0.4-0.3,0.8-0.3,1.2c0,1.5,1.2,2.7,2.7,2.7c0,0,0,0,0,0v49.7c0,0,0,0,0,0
	c-0.8,0-1.6,0.4-2.1,1L480.2,166.6z M480.4,220.7c0-0.4-0.1-0.7-0.2-1.1l42.9-24.7c0.5,0.6,1.2,1,2.1,1c0,0,0,0,0,0v49.7
	c0,0,0,0,0,0c-1.5,0-2.7,1.2-2.7,2.7c0,0.4,0.1,0.9,0.3,1.2l-42.8,24.7c-0.4-0.6-1.1-1-1.9-1.1l0-49.8
	C479.3,223.3,480.4,222.1,480.4,220.7z M480.2,332.2c0.1-0.3,0.2-0.7,0.2-1.1c0-1.4-1.1-2.5-2.4-2.7l0-49.8c0.8-0.1,1.4-0.5,1.9-1.1
	l42.8,24.7c-0.2,0.4-0.3,0.8-0.3,1.2c0,1.5,1.2,2.7,2.7,2.7c0,0,0,0,0,0l0,49.7c0,0,0,0,0,0c-0.8,0-1.6,0.4-2.1,1L480.2,332.2z
	 M479.9,439.8c-0.4-0.6-1.1-1-1.9-1.1l0-49.8c1.4-0.2,2.4-1.3,2.4-2.7c0-0.4-0.1-0.7-0.2-1.1l42.9-24.7c0.5,0.6,1.2,1,2.1,1
	c0,0,0,0,0,0l0,49.7c0,0,0,0,0,0c-1.5,0-2.7,1.2-2.7,2.7c0,0.4,0.1,0.9,0.3,1.2L479.9,439.8z M570.7,442.5l-43.3,25
	c-0.5-0.7-1.3-1.2-2.3-1.2c-0.8,0-1.6,0.4-2.1,1l-42.9-24.7c0.1-0.3,0.2-0.7,0.2-1.1c0-0.4-0.1-0.7-0.2-1.1l42.9-24.7
	c0.5,0.6,1.2,1,2.1,1c1,0,1.8-0.5,2.3-1.2l43.3,25c-0.1,0.3-0.2,0.7-0.2,1.1C570.5,441.8,570.6,442.2,570.7,442.5z M571.1,439.8
	l-43.4-25c0.1-0.3,0.2-0.6,0.2-0.9c0-1.3-0.9-2.4-2.1-2.7l0-49.9c0.7-0.2,1.3-0.6,1.6-1.1l43.3,25c-0.1,0.3-0.2,0.7-0.2,1.1
	c0,1.4,1.1,2.5,2.4,2.7l0,49.8C572.2,438.8,571.5,439.2,571.1,439.8z M573.2,383.5c-0.9,0-1.7,0.4-2.2,1.1l-43.4-25
	c0.1-0.3,0.2-0.6,0.2-0.9c0-0.3-0.1-0.6-0.2-0.9l43.4-25c0.5,0.7,1.3,1.1,2.2,1.1c0.9,0,1.7-0.4,2.2-1.1l42.8,24.7
	c-0.2,0.4-0.3,0.8-0.3,1.2c0,0.4,0.1,0.9,0.3,1.2l-42.8,24.7C574.9,384,574.1,383.5,573.2,383.5z M575.4,439.8
	c-0.4-0.6-1.1-1-1.9-1.1l0-49.8c1.4-0.2,2.4-1.3,2.4-2.7c0-0.4-0.1-0.7-0.2-1.1l42.9-24.7c0.5,0.6,1.2,1,2.1,1c0,0,0,0,0,0l0,49.7
	c0,0,0,0,0,0c-1.5,0-2.7,1.2-2.7,2.7c0,0.4,0.1,0.9,0.3,1.2L575.4,439.8z M666.3,442.5l-43.3,25c-0.5-0.7-1.3-1.2-2.3-1.2
	c-0.8,0-1.6,0.4-2.1,1l-42.9-24.7c0.1-0.3,0.2-0.7,0.2-1.1c0-0.4-0.1-0.7-0.2-1.1l42.9-24.7c0.5,0.6,1.2,1,2.1,1
	c1,0,1.8-0.5,2.3-1.2l43.3,25c-0.1,0.3-0.2,0.7-0.2,1.1C666.1,441.8,666.2,442.2,666.3,442.5z M666.6,439.8l-43.4-25
	c0.1-0.3,0.2-0.6,0.2-0.9c0-1.3-0.9-2.4-2.1-2.7l0-49.9c0.7-0.2,1.3-0.6,1.6-1.1l43.3,25c-0.1,0.3-0.2,0.7-0.2,1.1
	c0,1.4,1.1,2.5,2.4,2.7l0,49.8C667.7,438.8,667.1,439.2,666.6,439.8z M668.8,383.5c-0.9,0-1.7,0.4-2.2,1.1l-43.4-25
	c0.1-0.3,0.2-0.6,0.2-0.9c0-0.3-0.1-0.6-0.2-0.9l43.4-25c0.5,0.7,1.3,1.1,2.2,1.1c0.9,0,1.7-0.4,2.2-1.1l42.8,24.7
	c-0.2,0.4-0.3,0.8-0.3,1.2c0,0.4,0.1,0.9,0.3,1.2L671,384.6C670.5,384,669.7,383.5,668.8,383.5z M671,439.8c-0.4-0.6-1.1-1-1.9-1.1
	l0-49.8c1.4-0.2,2.4-1.3,2.4-2.7c0-0.4-0.1-0.7-0.2-1.1l42.9-24.7c0.5,0.6,1.2,1,2.1,1c0,0,0,0,0,0l0,49.7c0,0,0,0,0,0
	c-1.5,0-2.7,1.2-2.7,2.7c0,0.4,0.1,0.9,0.3,1.2L671,439.8z M761.9,442.5l-43.3,25c-0.5-0.7-1.3-1.2-2.3-1.2c-0.8,0-1.6,0.4-2.1,1
	l-42.9-24.7c0.1-0.3,0.2-0.7,0.2-1.1c0-0.4-0.1-0.7-0.2-1.1l42.9-24.7c0.5,0.6,1.2,1,2.1,1c1,0,1.8-0.5,2.3-1.2l43.3,25
	c-0.1,0.3-0.2,0.7-0.2,1.1C761.6,441.8,761.7,442.2,761.9,442.5z M762.2,439.8l-43.4-25c0.1-0.3,0.2-0.6,0.2-0.9
	c0-1.3-0.9-2.4-2.1-2.7l0-49.9c0.7-0.2,1.3-0.6,1.6-1.1l43.3,25c-0.1,0.3-0.2,0.7-0.2,1.1c0,1.4,1.1,2.5,2.4,2.7l0,49.8
	C763.3,438.8,762.6,439.2,762.2,439.8z M764.4,383.5c-0.9,0-1.7,0.4-2.2,1.1l-43.4-25c0.1-0.3,0.2-0.6,0.2-0.9
	c0-0.3-0.1-0.6-0.2-0.9l43.4-25c0.5,0.7,1.3,1.1,2.2,1.1c0.9,0,1.7-0.4,2.2-1.1l42.8,24.7c-0.2,0.4-0.3,0.8-0.3,1.2
	c0,0.4,0.1,0.9,0.3,1.2l-42.8,24.7C766.1,384,765.3,383.5,764.4,383.5z M766.6,439.8c-0.4-0.6-1.1-1-1.9-1.1l0-49.8
	c1.4-0.2,2.4-1.3,2.4-2.7c0-0.4-0.1-0.7-0.2-1.1l42.9-24.7c0.5,0.6,1.2,1,2.1,1c0,0,0,0,0,0l0,49.7c0,0,0,0,0,0
	c-1.5,0-2.7,1.2-2.7,2.7c0,0.4,0.1,0.9,0.3,1.2L766.6,439.8z M857.4,442.5l-43.3,25c-0.5-0.7-1.3-1.2-2.3-1.2c-0.8,0-1.6,0.4-2.1,1
	l-42.9-24.7c0.1-0.3,0.2-0.7,0.2-1.1c0-0.4-0.1-0.7-0.2-1.1l42.9-24.7c0.5,0.6,1.2,1,2.1,1c1,0,1.8-0.5,2.3-1.2l43.3,25
	c-0.1,0.3-0.2,0.7-0.2,1.1C857.2,441.8,857.3,442.2,857.4,442.5z M857.8,439.8l-43.4-25c0.1-0.3,0.2-0.6,0.2-0.9
	c0-1.3-0.9-2.4-2.1-2.7l0-49.9c0.7-0.2,1.3-0.6,1.6-1.1l43.3,25c-0.1,0.3-0.2,0.7-0.2,1.1c0,1.4,1.1,2.5,2.4,2.7l0,49.8
	C858.9,438.8,858.2,439.2,857.8,439.8z M860,383.5c-0.9,0-1.7,0.4-2.2,1.1l-43.4-25c0.1-0.3,0.2-0.6,0.2-0.9c0-0.3-0.1-0.6-0.2-0.9
	l43.4-25c0.5,0.7,1.3,1.1,2.2,1.1c0.9,0,1.7-0.4,2.2-1.1l42.8,24.7c-0.2,0.4-0.3,0.8-0.3,1.2c0,0.4,0.1,0.9,0.3,1.2l-42.8,24.7
	C861.6,384,860.9,383.5,860,383.5z M862.1,439.8c-0.4-0.6-1.1-1-1.9-1.1l0-49.8c1.4-0.2,2.4-1.3,2.4-2.7c0-0.4-0.1-0.7-0.2-1.1
	l42.9-24.7c0.5,0.6,1.2,1,2.1,1c0,0,0,0,0,0l0,49.7c0,0,0,0,0,0c-1.5,0-2.7,1.2-2.7,2.7c0,0.4,0.1,0.9,0.3,1.2L862.1,439.8z
	 M953,442.5l-43.3,25c-0.5-0.7-1.3-1.2-2.3-1.2c-0.8,0-1.6,0.4-2.1,1l-42.9-24.7c0.1-0.3,0.2-0.7,0.2-1.1c0-0.4-0.1-0.7-0.2-1.1
	l42.9-24.7c0.5,0.6,1.2,1,2.1,1c1,0,1.8-0.5,2.3-1.2l43.3,25c-0.1,0.3-0.2,0.7-0.2,1.1C952.8,441.8,952.9,442.2,953,442.5z
	 M953,385.2c-0.1,0.3-0.2,0.7-0.2,1.1c0,1.4,1.1,2.5,2.4,2.7l0,49.8c-0.8,0.1-1.4,0.5-1.9,1.1l-43.4-25c0.1-0.3,0.2-0.6,0.2-0.9
	c0-1.3-0.9-2.4-2.1-2.7l0-49.9c0.7-0.2,1.3-0.6,1.6-1.1L953,385.2z M955.2,328.4c-1.4,0.2-2.4,1.3-2.4,2.7c0,0.4,0.1,0.7,0.2,1.1
	l-43.3,25c-0.4-0.6-1-1-1.6-1.1l0-49.9c1.2-0.3,2.1-1.4,2.1-2.7c0-0.3-0.1-0.6-0.2-0.9l43.4-25c0.4,0.6,1.1,1,1.9,1.1L955.2,328.4z
	 M953,219.6c-0.1,0.3-0.2,0.7-0.2,1.1c0,1.4,1.1,2.5,2.4,2.7l0,49.8c-0.8,0.1-1.4,0.5-1.9,1.1l-43.4-25c0.1-0.3,0.2-0.6,0.2-0.9
	c0-1.3-0.9-2.4-2.1-2.7v-49.9c0.7-0.2,1.3-0.6,1.6-1.1L953,219.6z M955.2,162.8c-1.4,0.2-2.4,1.3-2.4,2.7c0,0.4,0.1,0.7,0.2,1.1
	l-43.3,25c-0.4-0.6-1-1-1.6-1.1v-49.9c1.2-0.3,2.1-1.4,2.1-2.7c0-0.3-0.1-0.6-0.2-0.9l43.4-25c0.4,0.6,1.1,1,1.9,1.1V162.8z
	 M953,54.1c-0.1,0.3-0.2,0.7-0.2,1.1c0,1.4,1.1,2.5,2.4,2.7v49.8c-0.8,0.1-1.4,0.5-1.9,1.1l-43.4-25c0.1-0.3,0.2-0.6,0.2-0.9
	c0-1.3-0.9-2.4-2.1-2.7V30.2c0.7-0.2,1.3-0.6,1.6-1.1L953,54.1z"/>
<path opacity="0.41" fill="#D0E2DF" d="M477.8,499.4v-2.7H475c0,0.4,0.1,0.7,0.2,1.1l-43.3,25c-0.4-0.6-1-1-1.6-1.1v-24.9h-0.6v24.9
	c0,0,0,0,0,0c-0.8,0-1.6,0.4-2.1,1l-42.9-24.7c0.1-0.3,0.2-0.7,0.2-1.1h-5.5c0,0.4,0.1,0.7,0.2,1.1l-43.3,25c-0.4-0.6-1-1-1.6-1.1
	v-24.9h-0.6v24.9c0,0,0,0,0,0c-0.8,0-1.6,0.4-2.1,1l-42.9-24.7c0.1-0.3,0.2-0.7,0.2-1.1h-5.5c0,0.4,0.1,0.7,0.2,1.1l-43.3,25
	c-0.4-0.6-1-1-1.6-1.1v-24.9h-0.6v24.9c0,0,0,0,0,0c-0.8,0-1.6,0.4-2.1,1l-42.9-24.7c0.1-0.3,0.2-0.7,0.2-1.1h-5.5
	c0,0.4,0.1,0.7,0.2,1.1l-43.3,25c-0.4-0.6-1-1-1.6-1.1v-24.9h-0.6v24.9c0,0,0,0,0,0c-0.8,0-1.6,0.4-2.1,1L98,497.7
	c0.1-0.3,0.2-0.7,0.2-1.1h-5.5c0,0.4,0.1,0.7,0.2,1.1l-43.3,25c-0.4-0.6-1-1-1.6-1.1v-24.9h-0.6v24.9c0,0,0,0,0,0
	c-0.8,0-1.6,0.4-2.1,1L2.4,497.7c0.1-0.3,0.2-0.7,0.2-1.1h-2.7v2.7c0.9,0,1.7-0.4,2.2-1.1L44.9,523c-0.2,0.4-0.3,0.8-0.3,1.2
	c0,0.4,0.1,0.9,0.3,1.2L2.1,550.2c-0.5-0.7-1.3-1.1-2.2-1.1v115.8c0.9,0,1.7-0.4,2.2-1.1l42.8,24.7c-0.2,0.4-0.3,0.8-0.3,1.2
	c0,0.4,0.1,0.9,0.3,1.2L2.1,715.7c-0.5-0.7-1.3-1.1-2.2-1.1v115.8c0.9,0,1.7-0.4,2.2-1.1l42.8,24.7c-0.2,0.4-0.3,0.8-0.3,1.2
	c0,0.4,0.1,0.9,0.3,1.2L2.1,881.2c-0.5-0.7-1.3-1.1-2.2-1.1v113.1h2.7c0-1.4-1.1-2.5-2.4-2.7l0-49.8c0.8-0.1,1.4-0.5,1.9-1.1
	l42.8,24.7c-0.2,0.4-0.3,0.8-0.3,1.2c0,1.5,1.2,2.7,2.7,2.7c0,0,0,0,0,0v24.9H48v-24.9c1.2-0.3,2.1-1.4,2.1-2.7
	c0-0.3-0.1-0.6-0.2-0.9l43.4-25c0.4,0.6,1.1,1,1.9,1.1l0,49.8c-1.4,0.2-2.4,1.3-2.4,2.7h5.5c0-1.4-1.1-2.5-2.4-2.7l0-49.8
	c0.8-0.1,1.4-0.5,1.9-1.1l42.8,24.7c-0.2,0.4-0.3,0.8-0.3,1.2c0,1.5,1.2,2.7,2.7,2.7c0,0,0,0,0,0v24.9h0.6v-24.9
	c1.2-0.3,2.1-1.4,2.1-2.7c0-0.3-0.1-0.6-0.2-0.9l43.4-25c0.4,0.6,1.1,1,1.9,1.1l0,49.8c-1.4,0.2-2.4,1.3-2.4,2.7h5.5
	c0-1.4-1.1-2.5-2.4-2.7l0-49.8c0.8-0.1,1.4-0.5,1.9-1.1l42.8,24.7c-0.2,0.4-0.3,0.8-0.3,1.2c0,1.5,1.2,2.7,2.7,2.7c0,0,0,0,0,0
	l0,24.9h0.6l0-24.9c1.2-0.3,2.1-1.4,2.1-2.7c0-0.3-0.1-0.6-0.2-0.9l43.4-25c0.4,0.6,1.1,1,1.9,1.1l0,49.8c-1.4,0.2-2.4,1.3-2.4,2.7
	h5.5c0-1.4-1.1-2.5-2.4-2.7l0-49.8c0.8-0.1,1.4-0.5,1.9-1.1l42.8,24.7c-0.2,0.4-0.3,0.8-0.3,1.2c0,1.5,1.2,2.7,2.7,2.7c0,0,0,0,0,0
	v24.9h0.6v-24.9c1.2-0.3,2.1-1.4,2.1-2.7c0-0.3-0.1-0.6-0.2-0.9l43.4-25c0.4,0.6,1.1,1,1.9,1.1l0,49.8c-1.4,0.2-2.4,1.3-2.4,2.7h5.5
	c0-1.4-1.1-2.5-2.4-2.7l0-49.8c0.8-0.1,1.4-0.5,1.9-1.1l42.8,24.7c-0.2,0.4-0.3,0.8-0.3,1.2c0,1.5,1.2,2.7,2.7,2.7c0,0,0,0,0,0v24.9
	h0.6v-24.9c1.2-0.3,2.1-1.4,2.1-2.7c0-0.3-0.1-0.6-0.2-0.9l43.4-25c0.4,0.6,1.1,1,1.9,1.1l0,49.8c-1.4,0.2-2.4,1.3-2.4,2.7h2.7
	V880.1c-0.9,0-1.7,0.4-2.2,1.1l-43.4-25c0.1-0.3,0.2-0.6,0.2-0.9c0-0.3-0.1-0.6-0.2-0.9l43.4-25c0.5,0.7,1.3,1.1,2.2,1.1V714.6
	c-0.9,0-1.7,0.4-2.2,1.1l-43.4-25c0.1-0.3,0.2-0.6,0.2-0.9c0-0.3-0.1-0.6-0.2-0.9l43.4-25c0.5,0.7,1.3,1.1,2.2,1.1V549.1
	c-0.9,0-1.7,0.4-2.2,1.1l-43.4-25c0.1-0.3,0.2-0.6,0.2-0.9s-0.1-0.6-0.2-0.9l43.4-25C476.1,498.9,476.9,499.4,477.8,499.4z
	 M431.9,580.9l43.3,25c-0.1,0.3-0.2,0.7-0.2,1.1c0,0.4,0.1,0.7,0.2,1.1l-43.3,25c-0.5-0.7-1.3-1.2-2.3-1.2c-0.8,0-1.6,0.4-2.1,1
	l-42.9-24.7c0.1-0.3,0.2-0.7,0.2-1.1c0-0.4-0.1-0.7-0.2-1.1l42.9-24.7c0.5,0.6,1.2,1,2.1,1C430.6,582.1,431.4,581.6,431.9,580.9z
	 M475.3,773.6l-43.3,25c-0.5-0.7-1.3-1.2-2.3-1.2c-0.8,0-1.6,0.4-2.1,1l-42.9-24.7c0.1-0.3,0.2-0.7,0.2-1.1c0-0.4-0.1-0.7-0.2-1.1
	l42.9-24.7c0.5,0.6,1.2,1,2.1,1c1,0,1.8-0.5,2.3-1.2l43.3,25c-0.1,0.3-0.2,0.7-0.2,1.1C475,772.9,475.1,773.3,475.3,773.6z
	 M382.5,825l0-49.8c0.8-0.1,1.4-0.5,1.9-1.1l42.8,24.7c-0.2,0.4-0.3,0.8-0.3,1.2c0,1.5,1.2,2.7,2.7,2.7c0,0,0,0,0,0l0,49.7
	c0,0,0,0,0,0c-0.8,0-1.6,0.4-2.1,1l-42.9-24.7c0.1-0.3,0.2-0.7,0.2-1.1C384.9,826.3,383.9,825.2,382.5,825z M379.7,828.8l-43.3,25
	c-0.4-0.6-1-1-1.6-1.1l0-49.9c1.2-0.3,2.1-1.4,2.1-2.7c0-0.3-0.1-0.6-0.2-0.9l43.4-25c0.4,0.6,1.1,1,1.9,1.1l0,49.8
	c-1.4,0.2-2.4,1.3-2.4,2.7C379.5,828.1,379.5,828.4,379.7,828.8z M286.9,825l0-49.8c0.8-0.1,1.4-0.5,1.9-1.1l42.8,24.7
	c-0.2,0.4-0.3,0.8-0.3,1.2c0,1.5,1.2,2.7,2.7,2.7c0,0,0,0,0,0l0,49.7c0,0,0,0,0,0c-0.8,0-1.6,0.4-2.1,1l-42.9-24.7
	c0.1-0.3,0.2-0.7,0.2-1.1C289.4,826.3,288.3,825.2,286.9,825z M284.1,828.8l-43.3,25c-0.4-0.6-1-1-1.6-1.1l0-49.9
	c1.2-0.3,2.1-1.4,2.1-2.7c0-0.3-0.1-0.6-0.2-0.9l43.4-25c0.4,0.6,1.1,1,1.9,1.1l0,49.8c-1.4,0.2-2.4,1.3-2.4,2.7
	C283.9,828.1,284,828.4,284.1,828.8z M191.4,825l0-49.8c0.8-0.1,1.4-0.5,1.9-1.1l42.8,24.7c-0.2,0.4-0.3,0.8-0.3,1.2
	c0,1.5,1.2,2.7,2.7,2.7c0,0,0,0,0,0l0,49.7c0,0,0,0,0,0c-0.8,0-1.6,0.4-2.1,1l-42.9-24.7c0.1-0.3,0.2-0.7,0.2-1.1
	C193.8,826.3,192.7,825.2,191.4,825z M188.5,828.8l-43.3,25c-0.4-0.6-1-1-1.6-1.1l0-49.9c1.2-0.3,2.1-1.4,2.1-2.7
	c0-0.3-0.1-0.6-0.2-0.9l43.4-25c0.4,0.6,1.1,1,1.9,1.1l0,49.8c-1.4,0.2-2.4,1.3-2.4,2.7C188.3,828.1,188.4,828.4,188.5,828.8z
	 M95.8,825l0-49.8c0.8-0.1,1.4-0.5,1.9-1.1l42.8,24.7c-0.2,0.4-0.3,0.8-0.3,1.2c0,1.5,1.2,2.7,2.7,2.7c0,0,0,0,0,0l0,49.7
	c0,0,0,0,0,0c-0.8,0-1.6,0.4-2.1,1L98,828.8c0.1-0.3,0.2-0.7,0.2-1.1C98.2,826.3,97.2,825.2,95.8,825z M93,828.8l-43.3,25
	c-0.4-0.6-1-1-1.6-1.1l0-49.9c1.2-0.3,2.1-1.4,2.1-2.7c0-0.3-0.1-0.6-0.2-0.9l43.4-25c0.4,0.6,1.1,1,1.9,1.1l0,49.8
	c-1.4,0.2-2.4,1.3-2.4,2.7C92.7,828.1,92.8,828.4,93,828.8z M2.4,771.4l42.9-24.7c0.5,0.6,1.2,1,2.1,1c1,0,1.8-0.5,2.3-1.2l43.3,25
	c-0.1,0.3-0.2,0.7-0.2,1.1c0,0.4,0.1,0.7,0.2,1.1l-43.3,25c-0.5-0.7-1.3-1.2-2.3-1.2c-0.8,0-1.6,0.4-2.1,1L2.4,773.6
	c0.1-0.3,0.2-0.7,0.2-1.1C2.6,772.1,2.6,771.8,2.4,771.4z M93.3,770.9l-43.4-25c0.1-0.3,0.2-0.6,0.2-0.9c0-1.3-0.9-2.4-2.1-2.7
	v-49.9c0.7-0.2,1.3-0.6,1.6-1.1l43.3,25c-0.1,0.3-0.2,0.7-0.2,1.1c0,1.4,1.1,2.5,2.4,2.7l0,49.8C94.4,769.9,93.7,770.3,93.3,770.9z
	 M49.9,633.7l43.4-25c0.4,0.6,1.1,1,1.9,1.1v49.8c-1.4,0.2-2.4,1.3-2.4,2.7c0,0.4,0.1,0.7,0.2,1.1l-43.3,25c-0.4-0.6-1-1-1.6-1.1
	v-49.9c1.2-0.3,2.1-1.4,2.1-2.7C50.1,634.2,50,633.9,49.9,633.7z M93.3,715.7l-43.4-25c0.1-0.3,0.2-0.6,0.2-0.9
	c0-0.3-0.1-0.6-0.2-0.9l43.4-25c0.5,0.7,1.3,1.1,2.2,1.1c0.9,0,1.7-0.4,2.2-1.1l42.8,24.7c-0.2,0.4-0.3,0.8-0.3,1.2
	c0,0.4,0.1,0.9,0.3,1.2l-42.8,24.7c-0.5-0.7-1.3-1.1-2.2-1.1C94.6,714.6,93.8,715,93.3,715.7z M142.9,637.3
	C142.9,637.3,142.9,637.3,142.9,637.3l0,49.7c0,0,0,0,0,0c-0.8,0-1.6,0.4-2.1,1L98,663.2c0.1-0.3,0.2-0.7,0.2-1.1
	c0-1.4-1.1-2.5-2.4-2.7v-49.8c0.8-0.1,1.4-0.5,1.9-1.1l42.8,24.7c-0.2,0.4-0.3,0.8-0.3,1.2C140.2,636.1,141.4,637.3,142.9,637.3z
	 M140.5,746.2l-42.8,24.7c-0.4-0.6-1.1-1-1.9-1.1l0-49.8c1.4-0.2,2.4-1.3,2.4-2.7c0-0.4-0.1-0.7-0.2-1.1l42.9-24.7
	c0.5,0.6,1.2,1,2.1,1c0,0,0,0,0,0v49.7c0,0,0,0,0,0c-1.5,0-2.7,1.2-2.7,2.7C140.2,745.4,140.3,745.8,140.5,746.2z M142.9,797.4
	c-0.8,0-1.6,0.4-2.1,1L98,773.6c0.1-0.3,0.2-0.7,0.2-1.1c0-0.4-0.1-0.7-0.2-1.1l42.9-24.7c0.5,0.6,1.2,1,2.1,1c1,0,1.8-0.5,2.3-1.2
	l43.3,25c-0.1,0.3-0.2,0.7-0.2,1.1c0,0.4,0.1,0.7,0.2,1.1l-43.3,25C144.7,797.9,143.9,797.4,142.9,797.4z M188.9,770.9l-43.4-25
	c0.1-0.3,0.2-0.6,0.2-0.9c0-1.3-0.9-2.4-2.1-2.7v-49.9c0.7-0.2,1.3-0.6,1.6-1.1l43.3,25c-0.1,0.3-0.2,0.7-0.2,1.1
	c0,1.4,1.1,2.5,2.4,2.7l0,49.8C190,769.9,189.3,770.3,188.9,770.9z M145.5,633.7l43.4-25c0.4,0.6,1.1,1,1.9,1.1v49.8
	c-1.4,0.2-2.4,1.3-2.4,2.7c0,0.4,0.1,0.7,0.2,1.1l-43.3,25c-0.4-0.6-1-1-1.6-1.1v-49.9c1.2-0.3,2.1-1.4,2.1-2.7
	C145.7,634.2,145.6,633.9,145.5,633.7z M188.9,715.7l-43.4-25c0.1-0.3,0.2-0.6,0.2-0.9c0-0.3-0.1-0.6-0.2-0.9l43.4-25
	c0.5,0.7,1.3,1.1,2.2,1.1s1.7-0.4,2.2-1.1l42.8,24.7c-0.2,0.4-0.3,0.8-0.3,1.2c0,0.4,0.1,0.9,0.3,1.2l-42.8,24.7
	c-0.5-0.7-1.3-1.1-2.2-1.1C190.1,714.6,189.4,715,188.9,715.7z M238.5,637.3C238.5,637.3,238.5,637.3,238.5,637.3l0,49.7
	c0,0,0,0,0,0c-0.8,0-1.6,0.4-2.1,1l-42.9-24.7c0.1-0.3,0.2-0.7,0.2-1.1c0-1.4-1.1-2.5-2.4-2.7v-49.8c0.8-0.1,1.4-0.5,1.9-1.1
	l42.8,24.7c-0.2,0.4-0.3,0.8-0.3,1.2C235.8,636.1,237,637.3,238.5,637.3z M236.1,746.2l-42.8,24.7c-0.4-0.6-1.1-1-1.9-1.1l0-49.8
	c1.4-0.2,2.4-1.3,2.4-2.7c0-0.4-0.1-0.7-0.2-1.1l42.9-24.7c0.5,0.6,1.2,1,2.1,1c0,0,0,0,0,0v49.7c0,0,0,0,0,0
	c-1.5,0-2.7,1.2-2.7,2.7C235.8,745.4,235.9,745.8,236.1,746.2z M238.5,797.4c-0.8,0-1.6,0.4-2.1,1l-42.9-24.7
	c0.1-0.3,0.2-0.7,0.2-1.1c0-0.4-0.1-0.7-0.2-1.1l42.9-24.7c0.5,0.6,1.2,1,2.1,1c1,0,1.8-0.5,2.3-1.2l43.3,25
	c-0.1,0.3-0.2,0.7-0.2,1.1c0,0.4,0.1,0.7,0.2,1.1l-43.3,25C240.3,797.9,239.5,797.4,238.5,797.4z M284.4,770.9l-43.4-25
	c0.1-0.3,0.2-0.6,0.2-0.9c0-1.3-0.9-2.4-2.1-2.7v-49.9c0.7-0.2,1.3-0.6,1.6-1.1l43.3,25c-0.1,0.3-0.2,0.7-0.2,1.1
	c0,1.4,1.1,2.5,2.4,2.7l0,49.8C285.5,769.9,284.9,770.3,284.4,770.9z M241.1,633.7l43.4-25c0.4,0.6,1.1,1,1.9,1.1v49.8
	c-1.4,0.2-2.4,1.3-2.4,2.7c0,0.4,0.1,0.7,0.2,1.1l-43.3,25c-0.4-0.6-1-1-1.6-1.1v-49.9c1.2-0.3,2.1-1.4,2.1-2.7
	C241.2,634.2,241.2,633.9,241.1,633.7z M284.4,715.7l-43.4-25c0.1-0.3,0.2-0.6,0.2-0.9c0-0.3-0.1-0.6-0.2-0.9l43.4-25
	c0.5,0.7,1.3,1.1,2.2,1.1c0.9,0,1.7-0.4,2.2-1.1l42.8,24.7c-0.2,0.4-0.3,0.8-0.3,1.2c0,0.4,0.1,0.9,0.3,1.2l-42.8,24.7
	c-0.5-0.7-1.3-1.1-2.2-1.1S284.9,715,284.4,715.7z M334.1,637.3C334.1,637.3,334.1,637.3,334.1,637.3l0,49.7c0,0,0,0,0,0
	c-0.8,0-1.6,0.4-2.1,1l-42.9-24.7c0.1-0.3,0.2-0.7,0.2-1.1c0-1.4-1.1-2.5-2.4-2.7v-49.8c0.8-0.1,1.4-0.5,1.9-1.1l42.8,24.7
	c-0.2,0.4-0.3,0.8-0.3,1.2C331.3,636.1,332.6,637.3,334.1,637.3z M331.6,746.2l-42.8,24.7c-0.4-0.6-1.1-1-1.9-1.1l0-49.8
	c1.4-0.2,2.4-1.3,2.4-2.7c0-0.4-0.1-0.7-0.2-1.1l42.9-24.7c0.5,0.6,1.2,1,2.1,1c0,0,0,0,0,0v49.7c0,0,0,0,0,0
	c-1.5,0-2.7,1.2-2.7,2.7C331.3,745.4,331.4,745.8,331.6,746.2z M334.1,797.4c-0.8,0-1.6,0.4-2.1,1l-42.9-24.7
	c0.1-0.3,0.2-0.7,0.2-1.1c0-0.4-0.1-0.7-0.2-1.1l42.9-24.7c0.5,0.6,1.2,1,2.1,1c1,0,1.8-0.5,2.3-1.2l43.3,25
	c-0.1,0.3-0.2,0.7-0.2,1.1c0,0.4,0.1,0.7,0.2,1.1l-43.3,25C335.9,797.9,335,797.4,334.1,797.4z M380,770.9l-43.4-25
	c0.1-0.3,0.2-0.6,0.2-0.9c0-1.3-0.9-2.4-2.1-2.7v-49.9c0.7-0.2,1.3-0.6,1.6-1.1l43.3,25c-0.1,0.3-0.2,0.7-0.2,1.1
	c0,1.4,1.1,2.5,2.4,2.7l0,49.8C381.1,769.9,380.4,770.3,380,770.9z M336.6,633.7l43.4-25c0.4,0.6,1.1,1,1.9,1.1v49.8
	c-1.4,0.2-2.4,1.3-2.4,2.7c0,0.4,0.1,0.7,0.2,1.1l-43.3,25c-0.4-0.6-1-1-1.6-1.1v-49.9c1.2-0.3,2.1-1.4,2.1-2.7
	C336.8,634.2,336.7,633.9,336.6,633.7z M380,715.7l-43.4-25c0.1-0.3,0.2-0.6,0.2-0.9c0-0.3-0.1-0.6-0.2-0.9l43.4-25
	c0.5,0.7,1.3,1.1,2.2,1.1c0.9,0,1.7-0.4,2.2-1.1l42.8,24.7c-0.2,0.4-0.3,0.8-0.3,1.2c0,0.4,0.1,0.9,0.3,1.2l-42.8,24.7
	c-0.5-0.7-1.3-1.1-2.2-1.1C381.3,714.6,380.5,715,380,715.7z M427.2,746.2l-42.8,24.7c-0.4-0.6-1.1-1-1.9-1.1l0-49.8
	c1.4-0.2,2.4-1.3,2.4-2.7c0-0.4-0.1-0.7-0.2-1.1l42.9-24.7c0.5,0.6,1.2,1,2.1,1c0,0,0,0,0,0v49.7c0,0,0,0,0,0
	c-1.5,0-2.7,1.2-2.7,2.7C426.9,745.4,427,745.8,427.2,746.2z M429.7,687C429.7,687,429.7,687,429.7,687c-0.8,0-1.6,0.4-2.1,1
	l-42.9-24.7c0.1-0.3,0.2-0.7,0.2-1.1c0-1.4-1.1-2.5-2.4-2.7v-49.8c0.8-0.1,1.4-0.5,1.9-1.1l42.8,24.7c-0.2,0.4-0.3,0.8-0.3,1.2
	c0,1.5,1.2,2.7,2.7,2.7c0,0,0,0,0,0V687z M429.6,526.9C429.7,526.9,429.7,526.9,429.6,526.9l0,49.7c0,0,0,0,0,0
	c-1.5,0-2.7,1.2-2.7,2.7c0,0.4,0.1,0.9,0.3,1.2l-42.8,24.7c-0.4-0.6-1.1-1-1.9-1.1v-49.8c1.4-0.2,2.4-1.3,2.4-2.7
	c0-0.4-0.1-0.7-0.2-1.1l42.9-24.7C428.1,526.6,428.8,526.9,429.6,526.9z M336.6,523.3l43.4-25c0.5,0.7,1.3,1.1,2.2,1.1
	c0.9,0,1.7-0.4,2.2-1.1l42.8,24.7c-0.2,0.4-0.3,0.8-0.3,1.2c0,0.4,0.1,0.9,0.3,1.2l-42.8,24.7c-0.5-0.7-1.3-1.1-2.2-1.1
	c-0.9,0-1.7,0.4-2.2,1.1l-43.4-25c0.1-0.3,0.2-0.6,0.2-0.9S336.7,523.6,336.6,523.3z M334.7,526.9c0.7-0.2,1.3-0.6,1.6-1.1l43.3,25
	c-0.1,0.3-0.2,0.7-0.2,1.1c0,1.4,1.1,2.5,2.4,2.7v49.8c-0.8,0.1-1.4,0.5-1.9,1.1l-43.4-25c0.1-0.3,0.2-0.6,0.2-0.9
	c0-1.3-0.9-2.4-2.1-2.7V526.9z M336.4,580.9l43.3,25c-0.1,0.3-0.2,0.7-0.2,1.1c0,0.4,0.1,0.7,0.2,1.1l-43.3,25
	c-0.5-0.7-1.3-1.2-2.3-1.2c-0.8,0-1.6,0.4-2.1,1l-42.9-24.7c0.1-0.3,0.2-0.7,0.2-1.1c0-0.4-0.1-0.7-0.2-1.1l42.9-24.7
	c0.5,0.6,1.2,1,2.1,1C335,582.1,335.9,581.6,336.4,580.9z M334.1,526.9C334.1,526.9,334.1,526.9,334.1,526.9l0,49.7c0,0,0,0,0,0
	c-1.5,0-2.7,1.2-2.7,2.7c0,0.4,0.1,0.9,0.3,1.2l-42.8,24.7c-0.4-0.6-1.1-1-1.9-1.1v-49.8c1.4-0.2,2.4-1.3,2.4-2.7
	c0-0.4-0.1-0.7-0.2-1.1L332,526C332.5,526.6,333.2,526.9,334.1,526.9z M241.1,523.3l43.4-25c0.5,0.7,1.3,1.1,2.2,1.1
	s1.7-0.4,2.2-1.1l42.8,24.7c-0.2,0.4-0.3,0.8-0.3,1.2c0,0.4,0.1,0.9,0.3,1.2l-42.8,24.7c-0.5-0.7-1.3-1.1-2.2-1.1s-1.7,0.4-2.2,1.1
	l-43.4-25c0.1-0.3,0.2-0.6,0.2-0.9S241.2,523.6,241.1,523.3z M239.2,526.9c0.7-0.2,1.3-0.6,1.6-1.1l43.3,25
	c-0.1,0.3-0.2,0.7-0.2,1.1c0,1.4,1.1,2.5,2.4,2.7v49.8c-0.8,0.1-1.4,0.5-1.9,1.1l-43.4-25c0.1-0.3,0.2-0.6,0.2-0.9
	c0-1.3-0.9-2.4-2.1-2.7V526.9z M240.8,580.9l43.3,25c-0.1,0.3-0.2,0.7-0.2,1.1c0,0.4,0.1,0.7,0.2,1.1l-43.3,25
	c-0.5-0.7-1.3-1.2-2.3-1.2c-0.8,0-1.6,0.4-2.1,1l-42.9-24.7c0.1-0.3,0.2-0.7,0.2-1.1c0-0.4-0.1-0.7-0.2-1.1l42.9-24.7
	c0.5,0.6,1.2,1,2.1,1C239.5,582.1,240.3,581.6,240.8,580.9z M238.5,526.9C238.5,526.9,238.5,526.9,238.5,526.9l0,49.7c0,0,0,0,0,0
	c-1.5,0-2.7,1.2-2.7,2.7c0,0.4,0.1,0.9,0.3,1.2l-42.8,24.7c-0.4-0.6-1.1-1-1.9-1.1v-49.8c1.4-0.2,2.4-1.3,2.4-2.7
	c0-0.4-0.1-0.7-0.2-1.1l42.9-24.7C236.9,526.6,237.7,526.9,238.5,526.9z M145.5,523.3l43.4-25c0.5,0.7,1.3,1.1,2.2,1.1
	c0.9,0,1.7-0.4,2.2-1.1l42.8,24.7c-0.2,0.4-0.3,0.8-0.3,1.2c0,0.4,0.1,0.9,0.3,1.2l-42.8,24.7c-0.5-0.7-1.3-1.1-2.2-1.1
	c-0.9,0-1.7,0.4-2.2,1.1l-43.4-25c0.1-0.3,0.2-0.6,0.2-0.9S145.6,523.6,145.5,523.3z M143.6,526.9c0.7-0.2,1.3-0.6,1.6-1.1l43.3,25
	c-0.1,0.3-0.2,0.7-0.2,1.1c0,1.4,1.1,2.5,2.4,2.7v49.8c-0.8,0.1-1.4,0.5-1.9,1.1l-43.4-25c0.1-0.3,0.2-0.6,0.2-0.9
	c0-1.3-0.9-2.4-2.1-2.7V526.9z M145.2,580.9l43.3,25c-0.1,0.3-0.2,0.7-0.2,1.1c0,0.4,0.1,0.7,0.2,1.1l-43.3,25
	c-0.5-0.7-1.3-1.2-2.3-1.2c-0.8,0-1.6,0.4-2.1,1L98,608.1c0.1-0.3,0.2-0.7,0.2-1.1c0-0.4-0.1-0.7-0.2-1.1l42.9-24.7
	c0.5,0.6,1.2,1,2.1,1C143.9,582.1,144.7,581.6,145.2,580.9z M142.9,526.9C142.9,526.9,142.9,526.9,142.9,526.9l0,49.7c0,0,0,0,0,0
	c-1.5,0-2.7,1.2-2.7,2.7c0,0.4,0.1,0.9,0.3,1.2l-42.8,24.7c-0.4-0.6-1.1-1-1.9-1.1v-49.8c1.4-0.2,2.4-1.3,2.4-2.7
	c0-0.4-0.1-0.7-0.2-1.1l42.9-24.7C141.4,526.6,142.1,526.9,142.9,526.9z M49.9,523.3l43.4-25c0.5,0.7,1.3,1.1,2.2,1.1
	c0.9,0,1.7-0.4,2.2-1.1l42.8,24.7c-0.2,0.4-0.3,0.8-0.3,1.2c0,0.4,0.1,0.9,0.3,1.2l-42.8,24.7c-0.5-0.7-1.3-1.1-2.2-1.1
	c-0.9,0-1.7,0.4-2.2,1.1l-43.4-25c0.1-0.3,0.2-0.6,0.2-0.9S50,523.6,49.9,523.3z M48,526.9c0.7-0.2,1.3-0.6,1.6-1.1l43.3,25
	c-0.1,0.3-0.2,0.7-0.2,1.1c0,1.4,1.1,2.5,2.4,2.7v49.8c-0.8,0.1-1.4,0.5-1.9,1.1l-43.4-25c0.1-0.3,0.2-0.6,0.2-0.9
	c0-1.3-0.9-2.4-2.1-2.7V526.9z M49.6,580.9l43.3,25c-0.1,0.3-0.2,0.7-0.2,1.1c0,0.4,0.1,0.7,0.2,1.1l-43.3,25
	c-0.5-0.7-1.3-1.2-2.3-1.2c-0.8,0-1.6,0.4-2.1,1L2.4,608.1c0.1-0.3,0.2-0.7,0.2-1.1c0-0.4-0.1-0.7-0.2-1.1l42.9-24.7
	c0.5,0.6,1.2,1,2.1,1C48.3,582.1,49.1,581.6,49.6,580.9z M0.2,554.5c1.4-0.2,2.4-1.3,2.4-2.7c0-0.4-0.1-0.7-0.2-1.1L45.3,526
	c0.5,0.6,1.2,1,2.1,1c0,0,0,0,0,0v49.7c0,0,0,0,0,0c-1.5,0-2.7,1.2-2.7,2.7c0,0.4,0.1,0.9,0.3,1.2L2.1,605.3c-0.4-0.6-1.1-1-1.9-1.1
	V554.5z M2.4,663.2c0.1-0.3,0.2-0.7,0.2-1.1c0-1.4-1.1-2.5-2.4-2.7v-49.8c0.8-0.1,1.4-0.5,1.9-1.1l42.8,24.7
	c-0.2,0.4-0.3,0.8-0.3,1.2c0,1.5,1.2,2.7,2.7,2.7c0,0,0,0,0,0V687c0,0,0,0,0,0c-0.8,0-1.6,0.4-2.1,1L2.4,663.2z M2.6,717.3
	c0-0.4-0.1-0.7-0.2-1.1l42.9-24.7c0.5,0.6,1.2,1,2.1,1c0,0,0,0,0,0v49.7c0,0,0,0,0,0c-1.5,0-2.7,1.2-2.7,2.7c0,0.4,0.1,0.9,0.3,1.2
	L2.1,770.9c-0.4-0.6-1.1-1-1.9-1.1l0-49.8C1.6,719.9,2.6,718.7,2.6,717.3z M2.4,828.8c0.1-0.3,0.2-0.7,0.2-1.1
	c0-1.4-1.1-2.5-2.4-2.7l0-49.8c0.8-0.1,1.4-0.5,1.9-1.1l42.8,24.7c-0.2,0.4-0.3,0.8-0.3,1.2c0,1.5,1.2,2.7,2.7,2.7c0,0,0,0,0,0
	l0,49.7c0,0,0,0,0,0c-0.8,0-1.6,0.4-2.1,1L2.4,828.8z M2.1,936.4c-0.4-0.6-1.1-1-1.9-1.1l0-49.8c1.4-0.2,2.4-1.3,2.4-2.7
	c0-0.4-0.1-0.7-0.2-1.1l42.9-24.7c0.5,0.6,1.2,1,2.1,1c0,0,0,0,0,0l0,49.7c0,0,0,0,0,0c-1.5,0-2.7,1.2-2.7,2.7
	c0,0.4,0.1,0.9,0.3,1.2L2.1,936.4z M93,939.1l-43.3,25c-0.5-0.7-1.3-1.2-2.3-1.2c-0.8,0-1.6,0.4-2.1,1L2.4,939.1
	c0.1-0.3,0.2-0.7,0.2-1.1c0-0.4-0.1-0.7-0.2-1.1l42.9-24.7c0.5,0.6,1.2,1,2.1,1c1,0,1.8-0.5,2.3-1.2L93,937
	c-0.1,0.3-0.2,0.7-0.2,1.1C92.7,938.4,92.8,938.8,93,939.1z M93.3,936.4l-43.4-25c0.1-0.3,0.2-0.6,0.2-0.9c0-1.3-0.9-2.4-2.1-2.7
	l0-49.9c0.7-0.2,1.3-0.6,1.6-1.1l43.3,25c-0.1,0.3-0.2,0.7-0.2,1.1c0,1.4,1.1,2.5,2.4,2.7l0,49.8C94.4,935.4,93.7,935.8,93.3,936.4z
	 M95.5,880.1c-0.9,0-1.7,0.4-2.2,1.1l-43.4-25c0.1-0.3,0.2-0.6,0.2-0.9c0-0.3-0.1-0.6-0.2-0.9l43.4-25c0.5,0.7,1.3,1.1,2.2,1.1
	c0.9,0,1.7-0.4,2.2-1.1l42.8,24.7c-0.2,0.4-0.3,0.8-0.3,1.2c0,0.4,0.1,0.9,0.3,1.2l-42.8,24.7C97.2,880.6,96.4,880.1,95.5,880.1z
	 M97.7,936.4c-0.4-0.6-1.1-1-1.9-1.1l0-49.8c1.4-0.2,2.4-1.3,2.4-2.7c0-0.4-0.1-0.7-0.2-1.1l42.9-24.7c0.5,0.6,1.2,1,2.1,1
	c0,0,0,0,0,0l0,49.7c0,0,0,0,0,0c-1.5,0-2.7,1.2-2.7,2.7c0,0.4,0.1,0.9,0.3,1.2L97.7,936.4z M188.5,939.1l-43.3,25
	c-0.5-0.7-1.3-1.2-2.3-1.2c-0.8,0-1.6,0.4-2.1,1L98,939.1c0.1-0.3,0.2-0.7,0.2-1.1c0-0.4-0.1-0.7-0.2-1.1l42.9-24.7
	c0.5,0.6,1.2,1,2.1,1c1,0,1.8-0.5,2.3-1.2l43.3,25c-0.1,0.3-0.2,0.7-0.2,1.1C188.3,938.4,188.4,938.8,188.5,939.1z M188.9,936.4
	l-43.4-25c0.1-0.3,0.2-0.6,0.2-0.9c0-1.3-0.9-2.4-2.1-2.7l0-49.9c0.7-0.2,1.3-0.6,1.6-1.1l43.3,25c-0.1,0.3-0.2,0.7-0.2,1.1
	c0,1.4,1.1,2.5,2.4,2.7l0,49.8C190,935.4,189.3,935.8,188.9,936.4z M191,880.1c-0.9,0-1.7,0.4-2.2,1.1l-43.4-25
	c0.1-0.3,0.2-0.6,0.2-0.9c0-0.3-0.1-0.6-0.2-0.9l43.4-25c0.5,0.7,1.3,1.1,2.2,1.1c0.9,0,1.7-0.4,2.2-1.1l42.8,24.7
	c-0.2,0.4-0.3,0.8-0.3,1.2c0,0.4,0.1,0.9,0.3,1.2l-42.8,24.7C192.7,880.6,191.9,880.1,191,880.1z M193.2,936.4
	c-0.4-0.6-1.1-1-1.9-1.1l0-49.8c1.4-0.2,2.4-1.3,2.4-2.7c0-0.4-0.1-0.7-0.2-1.1l42.9-24.7c0.5,0.6,1.2,1,2.1,1c0,0,0,0,0,0l0,49.7
	c0,0,0,0,0,0c-1.5,0-2.7,1.2-2.7,2.7c0,0.4,0.1,0.9,0.3,1.2L193.2,936.4z M284.1,939.1l-43.3,25c-0.5-0.7-1.3-1.2-2.3-1.2
	c-0.8,0-1.6,0.4-2.1,1l-42.9-24.7c0.1-0.3,0.2-0.7,0.2-1.1c0-0.4-0.1-0.7-0.2-1.1l42.9-24.7c0.5,0.6,1.2,1,2.1,1
	c1,0,1.8-0.5,2.3-1.2l43.3,25c-0.1,0.3-0.2,0.7-0.2,1.1C283.9,938.4,284,938.8,284.1,939.1z M284.4,936.4l-43.4-25
	c0.1-0.3,0.2-0.6,0.2-0.9c0-1.3-0.9-2.4-2.1-2.7l0-49.9c0.7-0.2,1.3-0.6,1.6-1.1l43.3,25c-0.1,0.3-0.2,0.7-0.2,1.1
	c0,1.4,1.1,2.5,2.4,2.7l0,49.8C285.5,935.4,284.9,935.8,284.4,936.4z M286.6,880.1c-0.9,0-1.7,0.4-2.2,1.1l-43.4-25
	c0.1-0.3,0.2-0.6,0.2-0.9c0-0.3-0.1-0.6-0.2-0.9l43.4-25c0.5,0.7,1.3,1.1,2.2,1.1c0.9,0,1.7-0.4,2.2-1.1l42.8,24.7
	c-0.2,0.4-0.3,0.8-0.3,1.2c0,0.4,0.1,0.9,0.3,1.2l-42.8,24.7C288.3,880.6,287.5,880.1,286.6,880.1z M288.8,936.4
	c-0.4-0.6-1.1-1-1.9-1.1l0-49.8c1.4-0.2,2.4-1.3,2.4-2.7c0-0.4-0.1-0.7-0.2-1.1l42.9-24.7c0.5,0.6,1.2,1,2.1,1c0,0,0,0,0,0l0,49.7
	c0,0,0,0,0,0c-1.5,0-2.7,1.2-2.7,2.7c0,0.4,0.1,0.9,0.3,1.2L288.8,936.4z M379.7,939.1l-43.3,25c-0.5-0.7-1.3-1.2-2.3-1.2
	c-0.8,0-1.6,0.4-2.1,1l-42.9-24.7c0.1-0.3,0.2-0.7,0.2-1.1c0-0.4-0.1-0.7-0.2-1.1l42.9-24.7c0.5,0.6,1.2,1,2.1,1
	c1,0,1.8-0.5,2.3-1.2l43.3,25c-0.1,0.3-0.2,0.7-0.2,1.1C379.5,938.4,379.5,938.8,379.7,939.1z M380,936.4l-43.4-25
	c0.1-0.3,0.2-0.6,0.2-0.9c0-1.3-0.9-2.4-2.1-2.7l0-49.9c0.7-0.2,1.3-0.6,1.6-1.1l43.3,25c-0.1,0.3-0.2,0.7-0.2,1.1
	c0,1.4,1.1,2.5,2.4,2.7l0,49.8C381.1,935.4,380.4,935.8,380,936.4z M382.2,880.1c-0.9,0-1.7,0.4-2.2,1.1l-43.4-25
	c0.1-0.3,0.2-0.6,0.2-0.9c0-0.3-0.1-0.6-0.2-0.9l43.4-25c0.5,0.7,1.3,1.1,2.2,1.1c0.9,0,1.7-0.4,2.2-1.1l42.8,24.7
	c-0.2,0.4-0.3,0.8-0.3,1.2c0,0.4,0.1,0.9,0.3,1.2l-42.8,24.7C383.9,880.6,383.1,880.1,382.2,880.1z M384.4,936.4
	c-0.4-0.6-1.1-1-1.9-1.1l0-49.8c1.4-0.2,2.4-1.3,2.4-2.7c0-0.4-0.1-0.7-0.2-1.1l42.9-24.7c0.5,0.6,1.2,1,2.1,1c0,0,0,0,0,0l0,49.7
	c0,0,0,0,0,0c-1.5,0-2.7,1.2-2.7,2.7c0,0.4,0.1,0.9,0.3,1.2L384.4,936.4z M475.3,939.1l-43.3,25c-0.5-0.7-1.3-1.2-2.3-1.2
	c-0.8,0-1.6,0.4-2.1,1l-42.9-24.7c0.1-0.3,0.2-0.7,0.2-1.1c0-0.4-0.1-0.7-0.2-1.1l42.9-24.7c0.5,0.6,1.2,1,2.1,1
	c1,0,1.8-0.5,2.3-1.2l43.3,25c-0.1,0.3-0.2,0.7-0.2,1.1C475,938.4,475.1,938.8,475.3,939.1z M475.3,881.8c-0.1,0.3-0.2,0.7-0.2,1.1
	c0,1.4,1.1,2.5,2.4,2.7l0,49.8c-0.8,0.1-1.4,0.5-1.9,1.1l-43.4-25c0.1-0.3,0.2-0.6,0.2-0.9c0-1.3-0.9-2.4-2.1-2.7l0-49.9
	c0.7-0.2,1.3-0.6,1.6-1.1L475.3,881.8z M477.4,825c-1.4,0.2-2.4,1.3-2.4,2.7c0,0.4,0.1,0.7,0.2,1.1l-43.3,25c-0.4-0.6-1-1-1.6-1.1
	l0-49.9c1.2-0.3,2.1-1.4,2.1-2.7c0-0.3-0.1-0.6-0.2-0.9l43.4-25c0.4,0.6,1.1,1,1.9,1.1L477.4,825z M475.3,716.3
	c-0.1,0.3-0.2,0.7-0.2,1.1c0,1.4,1.1,2.5,2.4,2.7l0,49.8c-0.8,0.1-1.4,0.5-1.9,1.1l-43.4-25c0.1-0.3,0.2-0.6,0.2-0.9
	c0-1.3-0.9-2.4-2.1-2.7v-49.9c0.7-0.2,1.3-0.6,1.6-1.1L475.3,716.3z M477.4,659.5c-1.4,0.2-2.4,1.3-2.4,2.7c0,0.4,0.1,0.7,0.2,1.1
	l-43.3,25c-0.4-0.6-1-1-1.6-1.1v-49.9c1.2-0.3,2.1-1.4,2.1-2.7c0-0.3-0.1-0.6-0.2-0.9l43.4-25c0.4,0.6,1.1,1,1.9,1.1V659.5z
	 M475.3,550.7c-0.1,0.3-0.2,0.7-0.2,1.1c0,1.4,1.1,2.5,2.4,2.7v49.8c-0.8,0.1-1.4,0.5-1.9,1.1l-43.4-25c0.1-0.3,0.2-0.6,0.2-0.9
	c0-1.3-0.9-2.4-2.1-2.7v-49.9c0.7-0.2,1.3-0.6,1.6-1.1L475.3,550.7z"/>
<path opacity="0.41" fill="#D0E2DF" d="M955.4,499.4v-2.7h-2.7c0,0.4,0.1,0.7,0.2,1.1l-43.3,25c-0.4-0.6-1-1-1.6-1.1v-24.9h-0.6
	v24.9c0,0,0,0,0,0c-0.8,0-1.6,0.4-2.1,1l-42.9-24.7c0.1-0.3,0.2-0.7,0.2-1.1h-5.5c0,0.4,0.1,0.7,0.2,1.1l-43.3,25
	c-0.4-0.6-1-1-1.6-1.1v-24.9h-0.6v24.9c0,0,0,0,0,0c-0.8,0-1.6,0.4-2.1,1l-42.9-24.7c0.1-0.3,0.2-0.7,0.2-1.1h-5.5
	c0,0.4,0.1,0.7,0.2,1.1l-43.3,25c-0.4-0.6-1-1-1.6-1.1v-24.9h-0.6v24.9c0,0,0,0,0,0c-0.8,0-1.6,0.4-2.1,1l-42.9-24.7
	c0.1-0.3,0.2-0.7,0.2-1.1H666c0,0.4,0.1,0.7,0.2,1.1l-43.3,25c-0.4-0.6-1-1-1.6-1.1v-24.9h-0.6v24.9c0,0,0,0,0,0
	c-0.8,0-1.6,0.4-2.1,1l-42.9-24.7c0.1-0.3,0.2-0.7,0.2-1.1h-5.5c0,0.4,0.1,0.7,0.2,1.1l-43.3,25c-0.4-0.6-1-1-1.6-1.1v-24.9H525
	v24.9c0,0,0,0,0,0c-0.8,0-1.6,0.4-2.1,1l-42.9-24.7c0.1-0.3,0.2-0.7,0.2-1.1h-2.7v2.7c0.9,0,1.7-0.4,2.2-1.1l42.8,24.7
	c-0.2,0.4-0.3,0.8-0.3,1.2c0,0.4,0.1,0.9,0.3,1.2l-42.8,24.7c-0.5-0.7-1.3-1.1-2.2-1.1v115.8c0.9,0,1.7-0.4,2.2-1.1l42.8,24.7
	c-0.2,0.4-0.3,0.8-0.3,1.2c0,0.4,0.1,0.9,0.3,1.2l-42.8,24.7c-0.5-0.7-1.3-1.1-2.2-1.1v115.8c0.9,0,1.7-0.4,2.2-1.1l42.8,24.7
	c-0.2,0.4-0.3,0.8-0.3,1.2c0,0.4,0.1,0.9,0.3,1.2l-42.8,24.7c-0.5-0.7-1.3-1.1-2.2-1.1v113.1h2.7c0-1.4-1.1-2.5-2.4-2.7l0-49.8
	c0.8-0.1,1.4-0.5,1.9-1.1l42.8,24.7c-0.2,0.4-0.3,0.8-0.3,1.2c0,1.5,1.2,2.7,2.7,2.7c0,0,0,0,0,0v24.9h0.6v-24.9
	c1.2-0.3,2.1-1.4,2.1-2.7c0-0.3-0.1-0.6-0.2-0.9l43.4-25c0.4,0.6,1.1,1,1.9,1.1l0,49.8c-1.4,0.2-2.4,1.3-2.4,2.7h5.5
	c0-1.4-1.1-2.5-2.4-2.7l0-49.8c0.8-0.1,1.4-0.5,1.9-1.1l42.8,24.7c-0.2,0.4-0.3,0.8-0.3,1.2c0,1.5,1.2,2.7,2.7,2.7c0,0,0,0,0,0v24.9
	h0.6v-24.9c1.2-0.3,2.1-1.4,2.1-2.7c0-0.3-0.1-0.6-0.2-0.9l43.4-25c0.4,0.6,1.1,1,1.9,1.1l0,49.8c-1.4,0.2-2.4,1.3-2.4,2.7h5.5
	c0-1.4-1.1-2.5-2.4-2.7l0-49.8c0.8-0.1,1.4-0.5,1.9-1.1l42.8,24.7c-0.2,0.4-0.3,0.8-0.3,1.2c0,1.5,1.2,2.7,2.7,2.7c0,0,0,0,0,0
	l0,24.9h0.6l0-24.9c1.2-0.3,2.1-1.4,2.1-2.7c0-0.3-0.1-0.6-0.2-0.9l43.4-25c0.4,0.6,1.1,1,1.9,1.1l0,49.8c-1.4,0.2-2.4,1.3-2.4,2.7
	h5.5c0-1.4-1.1-2.5-2.4-2.7l0-49.8c0.8-0.1,1.4-0.5,1.9-1.1l42.8,24.7c-0.2,0.4-0.3,0.8-0.3,1.2c0,1.5,1.2,2.7,2.7,2.7c0,0,0,0,0,0
	v24.9h0.6v-24.9c1.2-0.3,2.1-1.4,2.1-2.7c0-0.3-0.1-0.6-0.2-0.9l43.4-25c0.4,0.6,1.1,1,1.9,1.1l0,49.8c-1.4,0.2-2.4,1.3-2.4,2.7h5.5
	c0-1.4-1.1-2.5-2.4-2.7l0-49.8c0.8-0.1,1.4-0.5,1.9-1.1l42.8,24.7c-0.2,0.4-0.3,0.8-0.3,1.2c0,1.5,1.2,2.7,2.7,2.7c0,0,0,0,0,0v24.9
	h0.6v-24.9c1.2-0.3,2.1-1.4,2.1-2.7c0-0.3-0.1-0.6-0.2-0.9l43.4-25c0.4,0.6,1.1,1,1.9,1.1l0,49.8c-1.4,0.2-2.4,1.3-2.4,2.7h2.7
	V880.1c-0.9,0-1.7,0.4-2.2,1.1l-43.4-25c0.1-0.3,0.2-0.6,0.2-0.9c0-0.3-0.1-0.6-0.2-0.9l43.4-25c0.5,0.7,1.3,1.1,2.2,1.1V714.6
	c-0.9,0-1.7,0.4-2.2,1.1l-43.4-25c0.1-0.3,0.2-0.6,0.2-0.9c0-0.3-0.1-0.6-0.2-0.9l43.4-25c0.5,0.7,1.3,1.1,2.2,1.1V549.1
	c-0.9,0-1.7,0.4-2.2,1.1l-43.4-25c0.1-0.3,0.2-0.6,0.2-0.9s-0.1-0.6-0.2-0.9l43.4-25C953.7,498.9,954.5,499.4,955.4,499.4z
	 M909.6,580.9l43.3,25c-0.1,0.3-0.2,0.7-0.2,1.1c0,0.4,0.1,0.7,0.2,1.1l-43.3,25c-0.5-0.7-1.3-1.2-2.3-1.2c-0.8,0-1.6,0.4-2.1,1
	l-42.9-24.7c0.1-0.3,0.2-0.7,0.2-1.1c0-0.4-0.1-0.7-0.2-1.1l42.9-24.7c0.5,0.6,1.2,1,2.1,1C908.3,582.1,909.1,581.6,909.6,580.9z
	 M952.9,773.6l-43.3,25c-0.5-0.7-1.3-1.2-2.3-1.2c-0.8,0-1.6,0.4-2.1,1l-42.9-24.7c0.1-0.3,0.2-0.7,0.2-1.1c0-0.4-0.1-0.7-0.2-1.1
	l42.9-24.7c0.5,0.6,1.2,1,2.1,1c1,0,1.8-0.5,2.3-1.2l43.3,25c-0.1,0.3-0.2,0.7-0.2,1.1C952.7,772.9,952.8,773.3,952.9,773.6z
	 M860.2,825l0-49.8c0.8-0.1,1.4-0.5,1.9-1.1l42.8,24.7c-0.2,0.4-0.3,0.8-0.3,1.2c0,1.5,1.2,2.7,2.7,2.7c0,0,0,0,0,0l0,49.7
	c0,0,0,0,0,0c-0.8,0-1.6,0.4-2.1,1l-42.9-24.7c0.1-0.3,0.2-0.7,0.2-1.1C862.6,826.3,861.5,825.2,860.2,825z M857.3,828.8l-43.3,25
	c-0.4-0.6-1-1-1.6-1.1l0-49.9c1.2-0.3,2.1-1.4,2.1-2.7c0-0.3-0.1-0.6-0.2-0.9l43.4-25c0.4,0.6,1.1,1,1.9,1.1l0,49.8
	c-1.4,0.2-2.4,1.3-2.4,2.7C857.1,828.1,857.2,828.4,857.3,828.8z M764.6,825l0-49.8c0.8-0.1,1.4-0.5,1.9-1.1l42.8,24.7
	c-0.2,0.4-0.3,0.8-0.3,1.2c0,1.5,1.2,2.7,2.7,2.7c0,0,0,0,0,0l0,49.7c0,0,0,0,0,0c-0.8,0-1.6,0.4-2.1,1l-42.9-24.7
	c0.1-0.3,0.2-0.7,0.2-1.1C767,826.3,766,825.2,764.6,825z M761.8,828.8l-43.3,25c-0.4-0.6-1-1-1.6-1.1l0-49.9
	c1.2-0.3,2.1-1.4,2.1-2.7c0-0.3-0.1-0.6-0.2-0.9l43.4-25c0.4,0.6,1.1,1,1.9,1.1l0,49.8c-1.4,0.2-2.4,1.3-2.4,2.7
	C761.5,828.1,761.6,828.4,761.8,828.8z M669,825l0-49.8c0.8-0.1,1.4-0.5,1.9-1.1l42.8,24.7c-0.2,0.4-0.3,0.8-0.3,1.2
	c0,1.5,1.2,2.7,2.7,2.7c0,0,0,0,0,0l0,49.7c0,0,0,0,0,0c-0.8,0-1.6,0.4-2.1,1l-42.9-24.7c0.1-0.3,0.2-0.7,0.2-1.1
	C671.4,826.3,670.4,825.2,669,825z M666.2,828.8l-43.3,25c-0.4-0.6-1-1-1.6-1.1l0-49.9c1.2-0.3,2.1-1.4,2.1-2.7
	c0-0.3-0.1-0.6-0.2-0.9l43.4-25c0.4,0.6,1.1,1,1.9,1.1l0,49.8c-1.4,0.2-2.4,1.3-2.4,2.7C666,828.1,666.1,828.4,666.2,828.8z
	 M573.5,825l0-49.8c0.8-0.1,1.4-0.5,1.9-1.1l42.8,24.7c-0.2,0.4-0.3,0.8-0.3,1.2c0,1.5,1.2,2.7,2.7,2.7c0,0,0,0,0,0l0,49.7
	c0,0,0,0,0,0c-0.8,0-1.6,0.4-2.1,1l-42.9-24.7c0.1-0.3,0.2-0.7,0.2-1.1C575.9,826.3,574.8,825.2,573.5,825z M570.6,828.8l-43.3,25
	c-0.4-0.6-1-1-1.6-1.1l0-49.9c1.2-0.3,2.1-1.4,2.1-2.7c0-0.3-0.1-0.6-0.2-0.9l43.4-25c0.4,0.6,1.1,1,1.9,1.1l0,49.8
	c-1.4,0.2-2.4,1.3-2.4,2.7C570.4,828.1,570.5,828.4,570.6,828.8z M480.1,771.4l42.9-24.7c0.5,0.6,1.2,1,2.1,1c1,0,1.8-0.5,2.3-1.2
	l43.3,25c-0.1,0.3-0.2,0.7-0.2,1.1c0,0.4,0.1,0.7,0.2,1.1l-43.3,25c-0.5-0.7-1.3-1.2-2.3-1.2c-0.8,0-1.6,0.4-2.1,1l-42.9-24.7
	c0.1-0.3,0.2-0.7,0.2-1.1C480.3,772.1,480.2,771.8,480.1,771.4z M571,770.9l-43.4-25c0.1-0.3,0.2-0.6,0.2-0.9c0-1.3-0.9-2.4-2.1-2.7
	v-49.9c0.7-0.2,1.3-0.6,1.6-1.1l43.3,25c-0.1,0.3-0.2,0.7-0.2,1.1c0,1.4,1.1,2.5,2.4,2.7l0,49.8C572.1,769.9,571.4,770.3,571,770.9z
	 M527.6,633.7l43.4-25c0.4,0.6,1.1,1,1.9,1.1v49.8c-1.4,0.2-2.4,1.3-2.4,2.7c0,0.4,0.1,0.7,0.2,1.1l-43.3,25c-0.4-0.6-1-1-1.6-1.1
	v-49.9c1.2-0.3,2.1-1.4,2.1-2.7C527.8,634.2,527.7,633.9,527.6,633.7z M571,715.7l-43.4-25c0.1-0.3,0.2-0.6,0.2-0.9
	c0-0.3-0.1-0.6-0.2-0.9l43.4-25c0.5,0.7,1.3,1.1,2.2,1.1c0.9,0,1.7-0.4,2.2-1.1l42.8,24.7c-0.2,0.4-0.3,0.8-0.3,1.2
	c0,0.4,0.1,0.9,0.3,1.2l-42.8,24.7c-0.5-0.7-1.3-1.1-2.2-1.1C572.2,714.6,571.5,715,571,715.7z M620.6,637.3
	C620.6,637.3,620.6,637.3,620.6,637.3l0,49.7c0,0,0,0,0,0c-0.8,0-1.6,0.4-2.1,1l-42.9-24.7c0.1-0.3,0.2-0.7,0.2-1.1
	c0-1.4-1.1-2.5-2.4-2.7v-49.8c0.8-0.1,1.4-0.5,1.9-1.1l42.8,24.7c-0.2,0.4-0.3,0.8-0.3,1.2C617.9,636.1,619.1,637.3,620.6,637.3z
	 M618.2,746.2l-42.8,24.7c-0.4-0.6-1.1-1-1.9-1.1l0-49.8c1.4-0.2,2.4-1.3,2.4-2.7c0-0.4-0.1-0.7-0.2-1.1l42.9-24.7
	c0.5,0.6,1.2,1,2.1,1c0,0,0,0,0,0v49.7c0,0,0,0,0,0c-1.5,0-2.7,1.2-2.7,2.7C617.9,745.4,618,745.8,618.2,746.2z M620.6,797.4
	c-0.8,0-1.6,0.4-2.1,1l-42.9-24.7c0.1-0.3,0.2-0.7,0.2-1.1c0-0.4-0.1-0.7-0.2-1.1l42.9-24.7c0.5,0.6,1.2,1,2.1,1
	c1,0,1.8-0.5,2.3-1.2l43.3,25c-0.1,0.3-0.2,0.7-0.2,1.1c0,0.4,0.1,0.7,0.2,1.1l-43.3,25C622.4,797.9,621.5,797.4,620.6,797.4z
	 M666.5,770.9l-43.4-25c0.1-0.3,0.2-0.6,0.2-0.9c0-1.3-0.9-2.4-2.1-2.7v-49.9c0.7-0.2,1.3-0.6,1.6-1.1l43.3,25
	c-0.1,0.3-0.2,0.7-0.2,1.1c0,1.4,1.1,2.5,2.4,2.7l0,49.8C667.6,769.9,667,770.3,666.5,770.9z M623.2,633.7l43.4-25
	c0.4,0.6,1.1,1,1.9,1.1v49.8c-1.4,0.2-2.4,1.3-2.4,2.7c0,0.4,0.1,0.7,0.2,1.1l-43.3,25c-0.4-0.6-1-1-1.6-1.1v-49.9
	c1.2-0.3,2.1-1.4,2.1-2.7C623.3,634.2,623.3,633.9,623.2,633.7z M666.5,715.7l-43.4-25c0.1-0.3,0.2-0.6,0.2-0.9
	c0-0.3-0.1-0.6-0.2-0.9l43.4-25c0.5,0.7,1.3,1.1,2.2,1.1s1.7-0.4,2.2-1.1l42.8,24.7c-0.2,0.4-0.3,0.8-0.3,1.2c0,0.4,0.1,0.9,0.3,1.2
	l-42.8,24.7c-0.5-0.7-1.3-1.1-2.2-1.1C667.8,714.6,667,715,666.5,715.7z M716.2,637.3C716.2,637.3,716.2,637.3,716.2,637.3l0,49.7
	c0,0,0,0,0,0c-0.8,0-1.6,0.4-2.1,1l-42.9-24.7c0.1-0.3,0.2-0.7,0.2-1.1c0-1.4-1.1-2.5-2.4-2.7v-49.8c0.8-0.1,1.4-0.5,1.9-1.1
	l42.8,24.7c-0.2,0.4-0.3,0.8-0.3,1.2C713.4,636.1,714.7,637.3,716.2,637.3z M713.7,746.2l-42.8,24.7c-0.4-0.6-1.1-1-1.9-1.1l0-49.8
	c1.4-0.2,2.4-1.3,2.4-2.7c0-0.4-0.1-0.7-0.2-1.1l42.9-24.7c0.5,0.6,1.2,1,2.1,1c0,0,0,0,0,0v49.7c0,0,0,0,0,0
	c-1.5,0-2.7,1.2-2.7,2.7C713.4,745.4,713.5,745.8,713.7,746.2z M716.2,797.4c-0.8,0-1.6,0.4-2.1,1l-42.9-24.7
	c0.1-0.3,0.2-0.7,0.2-1.1c0-0.4-0.1-0.7-0.2-1.1l42.9-24.7c0.5,0.6,1.2,1,2.1,1c1,0,1.8-0.5,2.3-1.2l43.3,25
	c-0.1,0.3-0.2,0.7-0.2,1.1c0,0.4,0.1,0.7,0.2,1.1l-43.3,25C718,797.9,717.1,797.4,716.2,797.4z M762.1,770.9l-43.4-25
	c0.1-0.3,0.2-0.6,0.2-0.9c0-1.3-0.9-2.4-2.1-2.7v-49.9c0.7-0.2,1.3-0.6,1.6-1.1l43.3,25c-0.1,0.3-0.2,0.7-0.2,1.1
	c0,1.4,1.1,2.5,2.4,2.7l0,49.8C763.2,769.9,762.5,770.3,762.1,770.9z M718.7,633.7l43.4-25c0.4,0.6,1.1,1,1.9,1.1v49.8
	c-1.4,0.2-2.4,1.3-2.4,2.7c0,0.4,0.1,0.7,0.2,1.1l-43.3,25c-0.4-0.6-1-1-1.6-1.1v-49.9c1.2-0.3,2.1-1.4,2.1-2.7
	C718.9,634.2,718.8,633.9,718.7,633.7z M762.1,715.7l-43.4-25c0.1-0.3,0.2-0.6,0.2-0.9c0-0.3-0.1-0.6-0.2-0.9l43.4-25
	c0.5,0.7,1.3,1.1,2.2,1.1c0.9,0,1.7-0.4,2.2-1.1l42.8,24.7c-0.2,0.4-0.3,0.8-0.3,1.2c0,0.4,0.1,0.9,0.3,1.2l-42.8,24.7
	c-0.5-0.7-1.3-1.1-2.2-1.1C763.4,714.6,762.6,715,762.1,715.7z M811.7,637.3C811.7,637.3,811.7,637.3,811.7,637.3l0,49.7
	c0,0,0,0,0,0c-0.8,0-1.6,0.4-2.1,1l-42.9-24.7c0.1-0.3,0.2-0.7,0.2-1.1c0-1.4-1.1-2.5-2.4-2.7v-49.8c0.8-0.1,1.4-0.5,1.9-1.1
	l42.8,24.7c-0.2,0.4-0.3,0.8-0.3,1.2C809,636.1,810.2,637.3,811.7,637.3z M809.3,746.2l-42.8,24.7c-0.4-0.6-1.1-1-1.9-1.1l0-49.8
	c1.4-0.2,2.4-1.3,2.4-2.7c0-0.4-0.1-0.7-0.2-1.1l42.9-24.7c0.5,0.6,1.2,1,2.1,1c0,0,0,0,0,0v49.7c0,0,0,0,0,0
	c-1.5,0-2.7,1.2-2.7,2.7C809,745.4,809.1,745.8,809.3,746.2z M811.7,797.4c-0.8,0-1.6,0.4-2.1,1l-42.9-24.7c0.1-0.3,0.2-0.7,0.2-1.1
	c0-0.4-0.1-0.7-0.2-1.1l42.9-24.7c0.5,0.6,1.2,1,2.1,1c1,0,1.8-0.5,2.3-1.2l43.3,25c-0.1,0.3-0.2,0.7-0.2,1.1c0,0.4,0.1,0.7,0.2,1.1
	l-43.3,25C813.5,797.9,812.7,797.4,811.7,797.4z M857.7,770.9l-43.4-25c0.1-0.3,0.2-0.6,0.2-0.9c0-1.3-0.9-2.4-2.1-2.7v-49.9
	c0.7-0.2,1.3-0.6,1.6-1.1l43.3,25c-0.1,0.3-0.2,0.7-0.2,1.1c0,1.4,1.1,2.5,2.4,2.7l0,49.8C858.8,769.9,858.1,770.3,857.7,770.9z
	 M814.3,633.7l43.4-25c0.4,0.6,1.1,1,1.9,1.1v49.8c-1.4,0.2-2.4,1.3-2.4,2.7c0,0.4,0.1,0.7,0.2,1.1l-43.3,25c-0.4-0.6-1-1-1.6-1.1
	v-49.9c1.2-0.3,2.1-1.4,2.1-2.7C814.5,634.2,814.4,633.9,814.3,633.7z M857.7,715.7l-43.4-25c0.1-0.3,0.2-0.6,0.2-0.9
	c0-0.3-0.1-0.6-0.2-0.9l43.4-25c0.5,0.7,1.3,1.1,2.2,1.1s1.7-0.4,2.2-1.1l42.8,24.7c-0.2,0.4-0.3,0.8-0.3,1.2c0,0.4,0.1,0.9,0.3,1.2
	L862,715.7c-0.5-0.7-1.3-1.1-2.2-1.1S858.2,715,857.7,715.7z M904.9,746.2L862,770.9c-0.4-0.6-1.1-1-1.9-1.1l0-49.8
	c1.4-0.2,2.4-1.3,2.4-2.7c0-0.4-0.1-0.7-0.2-1.1l42.9-24.7c0.5,0.6,1.2,1,2.1,1c0,0,0,0,0,0v49.7c0,0,0,0,0,0
	c-1.5,0-2.7,1.2-2.7,2.7C904.6,745.4,904.7,745.8,904.9,746.2z M907.3,687C907.3,687,907.3,687,907.3,687c-0.8,0-1.6,0.4-2.1,1
	l-42.9-24.7c0.1-0.3,0.2-0.7,0.2-1.1c0-1.4-1.1-2.5-2.4-2.7v-49.8c0.8-0.1,1.4-0.5,1.9-1.1l42.8,24.7c-0.2,0.4-0.3,0.8-0.3,1.2
	c0,1.5,1.2,2.7,2.7,2.7c0,0,0,0,0,0V687z M907.3,526.9C907.3,526.9,907.3,526.9,907.3,526.9l0,49.7c0,0,0,0,0,0
	c-1.5,0-2.7,1.2-2.7,2.7c0,0.4,0.1,0.9,0.3,1.2L862,605.3c-0.4-0.6-1.1-1-1.9-1.1v-49.8c1.4-0.2,2.4-1.3,2.4-2.7
	c0-0.4-0.1-0.7-0.2-1.1l42.9-24.7C905.7,526.6,906.5,526.9,907.3,526.9z M814.3,523.3l43.4-25c0.5,0.7,1.3,1.1,2.2,1.1
	c0.9,0,1.7-0.4,2.2-1.1l42.8,24.7c-0.2,0.4-0.3,0.8-0.3,1.2c0,0.4,0.1,0.9,0.3,1.2L862,550.2c-0.5-0.7-1.3-1.1-2.2-1.1
	c-0.9,0-1.7,0.4-2.2,1.1l-43.4-25c0.1-0.3,0.2-0.6,0.2-0.9S814.4,523.6,814.3,523.3z M812.4,526.9c0.7-0.2,1.3-0.6,1.6-1.1l43.3,25
	c-0.1,0.3-0.2,0.7-0.2,1.1c0,1.4,1.1,2.5,2.4,2.7v49.8c-0.8,0.1-1.4,0.5-1.9,1.1l-43.4-25c0.1-0.3,0.2-0.6,0.2-0.9
	c0-1.3-0.9-2.4-2.1-2.7V526.9z M814,580.9l43.3,25c-0.1,0.3-0.2,0.7-0.2,1.1c0,0.4,0.1,0.7,0.2,1.1l-43.3,25
	c-0.5-0.7-1.3-1.2-2.3-1.2c-0.8,0-1.6,0.4-2.1,1l-42.9-24.7c0.1-0.3,0.2-0.7,0.2-1.1c0-0.4-0.1-0.7-0.2-1.1l42.9-24.7
	c0.5,0.6,1.2,1,2.1,1C812.7,582.1,813.5,581.6,814,580.9z M811.7,526.9C811.7,526.9,811.7,526.9,811.7,526.9l0,49.7c0,0,0,0,0,0
	c-1.5,0-2.7,1.2-2.7,2.7c0,0.4,0.1,0.9,0.3,1.2l-42.8,24.7c-0.4-0.6-1.1-1-1.9-1.1v-49.8c1.4-0.2,2.4-1.3,2.4-2.7
	c0-0.4-0.1-0.7-0.2-1.1l42.9-24.7C810.2,526.6,810.9,526.9,811.7,526.9z M718.7,523.3l43.4-25c0.5,0.7,1.3,1.1,2.2,1.1
	c0.9,0,1.7-0.4,2.2-1.1l42.8,24.7c-0.2,0.4-0.3,0.8-0.3,1.2c0,0.4,0.1,0.9,0.3,1.2l-42.8,24.7c-0.5-0.7-1.3-1.1-2.2-1.1
	c-0.9,0-1.7,0.4-2.2,1.1l-43.4-25c0.1-0.3,0.2-0.6,0.2-0.9S718.8,523.6,718.7,523.3z M716.8,526.9c0.7-0.2,1.3-0.6,1.6-1.1l43.3,25
	c-0.1,0.3-0.2,0.7-0.2,1.1c0,1.4,1.1,2.5,2.4,2.7v49.8c-0.8,0.1-1.4,0.5-1.9,1.1l-43.4-25c0.1-0.3,0.2-0.6,0.2-0.9
	c0-1.3-0.9-2.4-2.1-2.7V526.9z M718.5,580.9l43.3,25c-0.1,0.3-0.2,0.7-0.2,1.1c0,0.4,0.1,0.7,0.2,1.1l-43.3,25
	c-0.5-0.7-1.3-1.2-2.3-1.2c-0.8,0-1.6,0.4-2.1,1l-42.9-24.7c0.1-0.3,0.2-0.7,0.2-1.1c0-0.4-0.1-0.7-0.2-1.1l42.9-24.7
	c0.5,0.6,1.2,1,2.1,1C717.1,582.1,718,581.6,718.5,580.9z M716.2,526.9C716.2,526.9,716.2,526.9,716.2,526.9l0,49.7c0,0,0,0,0,0
	c-1.5,0-2.7,1.2-2.7,2.7c0,0.4,0.1,0.9,0.3,1.2l-42.8,24.7c-0.4-0.6-1.1-1-1.9-1.1v-49.8c1.4-0.2,2.4-1.3,2.4-2.7
	c0-0.4-0.1-0.7-0.2-1.1l42.9-24.7C714.6,526.6,715.3,526.9,716.2,526.9z M623.2,523.3l43.4-25c0.5,0.7,1.3,1.1,2.2,1.1
	c0.9,0,1.7-0.4,2.2-1.1l42.8,24.7c-0.2,0.4-0.3,0.8-0.3,1.2c0,0.4,0.1,0.9,0.3,1.2l-42.8,24.7c-0.5-0.7-1.3-1.1-2.2-1.1
	c-0.9,0-1.7,0.4-2.2,1.1l-43.4-25c0.1-0.3,0.2-0.6,0.2-0.9S623.3,523.6,623.2,523.3z M621.2,526.9c0.7-0.2,1.3-0.6,1.6-1.1l43.3,25
	c-0.1,0.3-0.2,0.7-0.2,1.1c0,1.4,1.1,2.5,2.4,2.7v49.8c-0.8,0.1-1.4,0.5-1.9,1.1l-43.4-25c0.1-0.3,0.2-0.6,0.2-0.9
	c0-1.3-0.9-2.4-2.1-2.7V526.9z M622.9,580.9l43.3,25c-0.1,0.3-0.2,0.7-0.2,1.1c0,0.4,0.1,0.7,0.2,1.1l-43.3,25
	c-0.5-0.7-1.3-1.2-2.3-1.2c-0.8,0-1.6,0.4-2.1,1l-42.9-24.7c0.1-0.3,0.2-0.7,0.2-1.1c0-0.4-0.1-0.7-0.2-1.1l42.9-24.7
	c0.5,0.6,1.2,1,2.1,1C621.5,582.1,622.4,581.6,622.9,580.9z M620.6,526.9C620.6,526.9,620.6,526.9,620.6,526.9l0,49.7c0,0,0,0,0,0
	c-1.5,0-2.7,1.2-2.7,2.7c0,0.4,0.1,0.9,0.3,1.2l-42.8,24.7c-0.4-0.6-1.1-1-1.9-1.1v-49.8c1.4-0.2,2.4-1.3,2.4-2.7
	c0-0.4-0.1-0.7-0.2-1.1l42.9-24.7C619,526.6,619.8,526.9,620.6,526.9z M527.6,523.3l43.4-25c0.5,0.7,1.3,1.1,2.2,1.1
	c0.9,0,1.7-0.4,2.2-1.1l42.8,24.7c-0.2,0.4-0.3,0.8-0.3,1.2c0,0.4,0.1,0.9,0.3,1.2l-42.8,24.7c-0.5-0.7-1.3-1.1-2.2-1.1
	c-0.9,0-1.7,0.4-2.2,1.1l-43.4-25c0.1-0.3,0.2-0.6,0.2-0.9S527.7,523.6,527.6,523.3z M525.7,526.9c0.7-0.2,1.3-0.6,1.6-1.1l43.3,25
	c-0.1,0.3-0.2,0.7-0.2,1.1c0,1.4,1.1,2.5,2.4,2.7v49.8c-0.8,0.1-1.4,0.5-1.9,1.1l-43.4-25c0.1-0.3,0.2-0.6,0.2-0.9
	c0-1.3-0.9-2.4-2.1-2.7V526.9z M527.3,580.9l43.3,25c-0.1,0.3-0.2,0.7-0.2,1.1c0,0.4,0.1,0.7,0.2,1.1l-43.3,25
	c-0.5-0.7-1.3-1.2-2.3-1.2c-0.8,0-1.6,0.4-2.1,1l-42.9-24.7c0.1-0.3,0.2-0.7,0.2-1.1c0-0.4-0.1-0.7-0.2-1.1l42.9-24.7
	c0.5,0.6,1.2,1,2.1,1C526,582.1,526.8,581.6,527.3,580.9z M477.9,554.5c1.4-0.2,2.4-1.3,2.4-2.7c0-0.4-0.1-0.7-0.2-1.1l42.9-24.7
	c0.5,0.6,1.2,1,2.1,1c0,0,0,0,0,0v49.7c0,0,0,0,0,0c-1.5,0-2.7,1.2-2.7,2.7c0,0.4,0.1,0.9,0.3,1.2l-42.8,24.7
	c-0.4-0.6-1.1-1-1.9-1.1V554.5z M480.1,663.2c0.1-0.3,0.2-0.7,0.2-1.1c0-1.4-1.1-2.5-2.4-2.7v-49.8c0.8-0.1,1.4-0.5,1.9-1.1
	l42.8,24.7c-0.2,0.4-0.3,0.8-0.3,1.2c0,1.5,1.2,2.7,2.7,2.7c0,0,0,0,0,0V687c0,0,0,0,0,0c-0.8,0-1.6,0.4-2.1,1L480.1,663.2z
	 M480.3,717.3c0-0.4-0.1-0.7-0.2-1.1l42.9-24.7c0.5,0.6,1.2,1,2.1,1c0,0,0,0,0,0v49.7c0,0,0,0,0,0c-1.5,0-2.7,1.2-2.7,2.7
	c0,0.4,0.1,0.9,0.3,1.2l-42.8,24.7c-0.4-0.6-1.1-1-1.9-1.1l0-49.8C479.2,719.9,480.3,718.7,480.3,717.3z M480.1,828.8
	c0.1-0.3,0.2-0.7,0.2-1.1c0-1.4-1.1-2.5-2.4-2.7l0-49.8c0.8-0.1,1.4-0.5,1.9-1.1l42.8,24.7c-0.2,0.4-0.3,0.8-0.3,1.2
	c0,1.5,1.2,2.7,2.7,2.7c0,0,0,0,0,0l0,49.7c0,0,0,0,0,0c-0.8,0-1.6,0.4-2.1,1L480.1,828.8z M479.7,936.4c-0.4-0.6-1.1-1-1.9-1.1
	l0-49.8c1.4-0.2,2.4-1.3,2.4-2.7c0-0.4-0.1-0.7-0.2-1.1l42.9-24.7c0.5,0.6,1.2,1,2.1,1c0,0,0,0,0,0l0,49.7c0,0,0,0,0,0
	c-1.5,0-2.7,1.2-2.7,2.7c0,0.4,0.1,0.9,0.3,1.2L479.7,936.4z M570.6,939.1l-43.3,25c-0.5-0.7-1.3-1.2-2.3-1.2c-0.8,0-1.6,0.4-2.1,1
	l-42.9-24.7c0.1-0.3,0.2-0.7,0.2-1.1c0-0.4-0.1-0.7-0.2-1.1l42.9-24.7c0.5,0.6,1.2,1,2.1,1c1,0,1.8-0.5,2.3-1.2l43.3,25
	c-0.1,0.3-0.2,0.7-0.2,1.1C570.4,938.4,570.5,938.8,570.6,939.1z M571,936.4l-43.4-25c0.1-0.3,0.2-0.6,0.2-0.9
	c0-1.3-0.9-2.4-2.1-2.7l0-49.9c0.7-0.2,1.3-0.6,1.6-1.1l43.3,25c-0.1,0.3-0.2,0.7-0.2,1.1c0,1.4,1.1,2.5,2.4,2.7l0,49.8
	C572.1,935.4,571.4,935.8,571,936.4z M573.1,880.1c-0.9,0-1.7,0.4-2.2,1.1l-43.4-25c0.1-0.3,0.2-0.6,0.2-0.9c0-0.3-0.1-0.6-0.2-0.9
	l43.4-25c0.5,0.7,1.3,1.1,2.2,1.1c0.9,0,1.7-0.4,2.2-1.1l42.8,24.7c-0.2,0.4-0.3,0.8-0.3,1.2c0,0.4,0.1,0.9,0.3,1.2l-42.8,24.7
	C574.8,880.6,574,880.1,573.1,880.1z M575.3,936.4c-0.4-0.6-1.1-1-1.9-1.1l0-49.8c1.4-0.2,2.4-1.3,2.4-2.7c0-0.4-0.1-0.7-0.2-1.1
	l42.9-24.7c0.5,0.6,1.2,1,2.1,1c0,0,0,0,0,0l0,49.7c0,0,0,0,0,0c-1.5,0-2.7,1.2-2.7,2.7c0,0.4,0.1,0.9,0.3,1.2L575.3,936.4z
	 M666.2,939.1l-43.3,25c-0.5-0.7-1.3-1.2-2.3-1.2c-0.8,0-1.6,0.4-2.1,1l-42.9-24.7c0.1-0.3,0.2-0.7,0.2-1.1c0-0.4-0.1-0.7-0.2-1.1
	l42.9-24.7c0.5,0.6,1.2,1,2.1,1c1,0,1.8-0.5,2.3-1.2l43.3,25c-0.1,0.3-0.2,0.7-0.2,1.1C666,938.4,666.1,938.8,666.2,939.1z
	 M666.5,936.4l-43.4-25c0.1-0.3,0.2-0.6,0.2-0.9c0-1.3-0.9-2.4-2.1-2.7l0-49.9c0.7-0.2,1.3-0.6,1.6-1.1l43.3,25
	c-0.1,0.3-0.2,0.7-0.2,1.1c0,1.4,1.1,2.5,2.4,2.7l0,49.8C667.6,935.4,667,935.8,666.5,936.4z M668.7,880.1c-0.9,0-1.7,0.4-2.2,1.1
	l-43.4-25c0.1-0.3,0.2-0.6,0.2-0.9c0-0.3-0.1-0.6-0.2-0.9l43.4-25c0.5,0.7,1.3,1.1,2.2,1.1c0.9,0,1.7-0.4,2.2-1.1l42.8,24.7
	c-0.2,0.4-0.3,0.8-0.3,1.2c0,0.4,0.1,0.9,0.3,1.2l-42.8,24.7C670.4,880.6,669.6,880.1,668.7,880.1z M670.9,936.4
	c-0.4-0.6-1.1-1-1.9-1.1l0-49.8c1.4-0.2,2.4-1.3,2.4-2.7c0-0.4-0.1-0.7-0.2-1.1l42.9-24.7c0.5,0.6,1.2,1,2.1,1c0,0,0,0,0,0l0,49.7
	c0,0,0,0,0,0c-1.5,0-2.7,1.2-2.7,2.7c0,0.4,0.1,0.9,0.3,1.2L670.9,936.4z M761.8,939.1l-43.3,25c-0.5-0.7-1.3-1.2-2.3-1.2
	c-0.8,0-1.6,0.4-2.1,1l-42.9-24.7c0.1-0.3,0.2-0.7,0.2-1.1c0-0.4-0.1-0.7-0.2-1.1l42.9-24.7c0.5,0.6,1.2,1,2.1,1
	c1,0,1.8-0.5,2.3-1.2l43.3,25c-0.1,0.3-0.2,0.7-0.2,1.1C761.5,938.4,761.6,938.8,761.8,939.1z M762.1,936.4l-43.4-25
	c0.1-0.3,0.2-0.6,0.2-0.9c0-1.3-0.9-2.4-2.1-2.7l0-49.9c0.7-0.2,1.3-0.6,1.6-1.1l43.3,25c-0.1,0.3-0.2,0.7-0.2,1.1
	c0,1.4,1.1,2.5,2.4,2.7l0,49.8C763.2,935.4,762.5,935.8,762.1,936.4z M764.3,880.1c-0.9,0-1.7,0.4-2.2,1.1l-43.4-25
	c0.1-0.3,0.2-0.6,0.2-0.9c0-0.3-0.1-0.6-0.2-0.9l43.4-25c0.5,0.7,1.3,1.1,2.2,1.1c0.9,0,1.7-0.4,2.2-1.1l42.8,24.7
	c-0.2,0.4-0.3,0.8-0.3,1.2c0,0.4,0.1,0.9,0.3,1.2l-42.8,24.7C766,880.6,765.2,880.1,764.3,880.1z M766.5,936.4
	c-0.4-0.6-1.1-1-1.9-1.1l0-49.8c1.4-0.2,2.4-1.3,2.4-2.7c0-0.4-0.1-0.7-0.2-1.1l42.9-24.7c0.5,0.6,1.2,1,2.1,1c0,0,0,0,0,0l0,49.7
	c0,0,0,0,0,0c-1.5,0-2.7,1.2-2.7,2.7c0,0.4,0.1,0.9,0.3,1.2L766.5,936.4z M857.3,939.1l-43.3,25c-0.5-0.7-1.3-1.2-2.3-1.2
	c-0.8,0-1.6,0.4-2.1,1l-42.9-24.7c0.1-0.3,0.2-0.7,0.2-1.1c0-0.4-0.1-0.7-0.2-1.1l42.9-24.7c0.5,0.6,1.2,1,2.1,1
	c1,0,1.8-0.5,2.3-1.2l43.3,25c-0.1,0.3-0.2,0.7-0.2,1.1C857.1,938.4,857.2,938.8,857.3,939.1z M857.7,936.4l-43.4-25
	c0.1-0.3,0.2-0.6,0.2-0.9c0-1.3-0.9-2.4-2.1-2.7l0-49.9c0.7-0.2,1.3-0.6,1.6-1.1l43.3,25c-0.1,0.3-0.2,0.7-0.2,1.1
	c0,1.4,1.1,2.5,2.4,2.7l0,49.8C858.8,935.4,858.1,935.8,857.7,936.4z M859.9,880.1c-0.9,0-1.7,0.4-2.2,1.1l-43.4-25
	c0.1-0.3,0.2-0.6,0.2-0.9c0-0.3-0.1-0.6-0.2-0.9l43.4-25c0.5,0.7,1.3,1.1,2.2,1.1c0.9,0,1.7-0.4,2.2-1.1l42.8,24.7
	c-0.2,0.4-0.3,0.8-0.3,1.2c0,0.4,0.1,0.9,0.3,1.2L862,881.2C861.5,880.6,860.8,880.1,859.9,880.1z M862,936.4
	c-0.4-0.6-1.1-1-1.9-1.1l0-49.8c1.4-0.2,2.4-1.3,2.4-2.7c0-0.4-0.1-0.7-0.2-1.1l42.9-24.7c0.5,0.6,1.2,1,2.1,1c0,0,0,0,0,0l0,49.7
	c0,0,0,0,0,0c-1.5,0-2.7,1.2-2.7,2.7c0,0.4,0.1,0.9,0.3,1.2L862,936.4z M952.9,939.1l-43.3,25c-0.5-0.7-1.3-1.2-2.3-1.2
	c-0.8,0-1.6,0.4-2.1,1l-42.9-24.7c0.1-0.3,0.2-0.7,0.2-1.1c0-0.4-0.1-0.7-0.2-1.1l42.9-24.7c0.5,0.6,1.2,1,2.1,1
	c1,0,1.8-0.5,2.3-1.2l43.3,25c-0.1,0.3-0.2,0.7-0.2,1.1C952.7,938.4,952.8,938.8,952.9,939.1z M952.9,881.8
	c-0.1,0.3-0.2,0.7-0.2,1.1c0,1.4,1.1,2.5,2.4,2.7l0,49.8c-0.8,0.1-1.4,0.5-1.9,1.1l-43.4-25c0.1-0.3,0.2-0.6,0.2-0.9
	c0-1.3-0.9-2.4-2.1-2.7l0-49.9c0.7-0.2,1.3-0.6,1.6-1.1L952.9,881.8z M955.1,825c-1.4,0.2-2.4,1.3-2.4,2.7c0,0.4,0.1,0.7,0.2,1.1
	l-43.3,25c-0.4-0.6-1-1-1.6-1.1l0-49.9c1.2-0.3,2.1-1.4,2.1-2.7c0-0.3-0.1-0.6-0.2-0.9l43.4-25c0.4,0.6,1.1,1,1.9,1.1L955.1,825z
	 M952.9,716.3c-0.1,0.3-0.2,0.7-0.2,1.1c0,1.4,1.1,2.5,2.4,2.7l0,49.8c-0.8,0.1-1.4,0.5-1.9,1.1l-43.4-25c0.1-0.3,0.2-0.6,0.2-0.9
	c0-1.3-0.9-2.4-2.1-2.7v-49.9c0.7-0.2,1.3-0.6,1.6-1.1L952.9,716.3z M955.1,659.5c-1.4,0.2-2.4,1.3-2.4,2.7c0,0.4,0.1,0.7,0.2,1.1
	l-43.3,25c-0.4-0.6-1-1-1.6-1.1v-49.9c1.2-0.3,2.1-1.4,2.1-2.7c0-0.3-0.1-0.6-0.2-0.9l43.4-25c0.4,0.6,1.1,1,1.9,1.1V659.5z
	 M952.9,550.7c-0.1,0.3-0.2,0.7-0.2,1.1c0,1.4,1.1,2.5,2.4,2.7v49.8c-0.8,0.1-1.4,0.5-1.9,1.1l-43.4-25c0.1-0.3,0.2-0.6,0.2-0.9
	c0-1.3-0.9-2.4-2.1-2.7v-49.9c0.7-0.2,1.3-0.6,1.6-1.1L952.9,550.7z"/>
</svg>
