<?xml version="1.0" encoding="utf-8"?>
<!-- Generator: Adobe Illustrator 18.0.0, SVG Export Plug-In . SVG Version: 6.00 Build 0)  -->
<!DOCTYPE svg PUBLIC "-//W3C//DTD SVG 1.1//EN" "http://www.w3.org/Graphics/SVG/1.1/DTD/svg11.dtd">
<svg version="1.1" id="Layer_1" xmlns="http://www.w3.org/2000/svg" xmlns:xlink="http://www.w3.org/1999/xlink" x="0px" y="0px"
	 viewBox="0 0 690 717.1" enable-background="new 0 0 690 717.1" xml:space="preserve">
<path opacity="0.41" fill="#D0E2DF" d="M690,4V0h-4c0,0.6,0.1,1.1,0.3,1.6l-62.5,36.1c-0.5-0.8-1.4-1.4-2.4-1.7V0h-0.9v35.9
	c0,0,0,0,0,0c-1.2,0-2.3,0.6-3,1.4L555.6,1.6c0.2-0.5,0.3-1,0.3-1.6H548c0,0.6,0.1,1.1,0.3,1.6l-62.5,36.1c-0.5-0.8-1.4-1.4-2.4-1.7
	V0h-0.9v35.9c0,0,0,0,0,0c-1.2,0-2.3,0.6-3,1.4L417.6,1.6c0.2-0.5,0.3-1,0.3-1.6H410c0,0.6,0.1,1.1,0.3,1.6l-62.5,36.1
	c-0.5-0.8-1.4-1.4-2.4-1.7V0h-0.9v35.9c0,0,0,0,0,0c-1.2,0-2.3,0.6-3,1.4L279.6,1.6c0.2-0.5,0.3-1,0.3-1.6H272
	c0,0.6,0.1,1.1,0.3,1.6l-62.5,36.1c-0.5-0.8-1.4-1.4-2.4-1.7V0h-0.9v35.9c0,0,0,0,0,0c-1.2,0-2.3,0.6-3,1.4L141.6,1.6
	c0.2-0.5,0.3-1,0.3-1.6H134c0,0.6,0.1,1.1,0.3,1.6L71.8,37.7c-0.5-0.8-1.4-1.4-2.4-1.7V0h-0.9v35.9c0,0,0,0,0,0
	c-1.2,0-2.3,0.6-3,1.4L3.6,1.6C3.8,1.1,4,0.6,4,0H0v4c1.3,0,2.4-0.6,3.2-1.6L65,38.1c-0.3,0.5-0.4,1.1-0.4,1.8
	c0,0.6,0.2,1.2,0.4,1.8L3.2,77.3c-0.7-1-1.9-1.6-3.2-1.6V243c1.3,0,2.4-0.6,3.2-1.6L65,277.1c-0.3,0.5-0.4,1.1-0.4,1.8
	c0,0.6,0.2,1.2,0.4,1.8L3.2,316.3c-0.7-1-1.9-1.6-3.2-1.6V482c1.3,0,2.4-0.6,3.2-1.6L65,516.1c-0.3,0.5-0.4,1.1-0.4,1.8
	c0,0.6,0.2,1.2,0.4,1.8L3.2,555.3c-0.7-1-1.9-1.6-3.2-1.6v163.3h4c0-2-1.5-3.7-3.5-3.9l0-71.9c1.1-0.1,2.1-0.7,2.7-1.5L65,675.4
	c-0.3,0.5-0.4,1.1-0.4,1.8c0,2.2,1.8,4,4,4c0,0,0,0,0,0v35.9h0.9v-36c1.7-0.4,3-2,3-3.8c0-0.5-0.1-0.9-0.2-1.3l62.6-36.2
	c0.6,0.8,1.6,1.4,2.7,1.5l0,71.9c-2,0.2-3.5,1.9-3.5,3.9h7.9c0-2-1.5-3.7-3.5-3.9l0-71.9c1.1-0.1,2.1-0.7,2.7-1.5l61.8,35.7
	c-0.3,0.5-0.4,1.1-0.4,1.8c0,2.2,1.8,4,4,4c0,0,0,0,0,0v35.9h0.9v-36c1.7-0.4,3-2,3-3.8c0-0.5-0.1-0.9-0.2-1.3l62.6-36.2
	c0.6,0.8,1.6,1.4,2.7,1.5l0,71.9c-2,0.2-3.5,1.9-3.5,3.9h7.9c0-2-1.5-3.7-3.5-3.9l0-71.9c1.1-0.1,2.1-0.7,2.7-1.5l61.8,35.7
	c-0.3,0.5-0.4,1.1-0.4,1.8c0,2.2,1.8,4,4,4c0,0,0,0,0,0l0,35.9h0.9l0-36c1.7-0.4,3-2,3-3.8c0-0.5-0.1-0.9-0.2-1.3l62.6-36.1
	c0.6,0.8,1.6,1.4,2.7,1.5l0,71.9c-2,0.2-3.5,1.9-3.5,3.9h7.9c0-2-1.5-3.7-3.5-3.9l0-71.9c1.1-0.1,2.1-0.7,2.7-1.5l61.8,35.7
	c-0.3,0.5-0.4,1.1-0.4,1.8c0,2.2,1.8,4,4,4c0,0,0,0,0,0v35.9h0.9v-36c1.7-0.4,3-2,3-3.8c0-0.5-0.1-0.9-0.2-1.3l62.6-36.1
	c0.6,0.8,1.6,1.4,2.7,1.5l0,71.9c-2,0.2-3.5,1.9-3.5,3.9h7.9c0-2-1.5-3.7-3.5-3.9l0-71.9c1.1-0.1,2.1-0.7,2.7-1.5l61.8,35.7
	c-0.3,0.5-0.4,1.1-0.4,1.8c0,2.2,1.8,4,4,4c0,0,0,0,0,0v35.9h0.9v-36c1.7-0.4,3-2,3-3.8c0-0.5-0.1-0.9-0.2-1.3l62.6-36.1
	c0.6,0.8,1.6,1.4,2.7,1.5l0,71.9c-2,0.2-3.5,1.9-3.5,3.9h4V553.8c-1.3,0-2.4,0.6-3.2,1.6l-62.6-36.1c0.1-0.4,0.2-0.9,0.2-1.3
	c0-0.5-0.1-0.9-0.2-1.3l62.6-36.2c0.7,1,1.9,1.6,3.2,1.6V314.7c-1.3,0-2.4,0.6-3.2,1.6l-62.6-36.1c0.1-0.4,0.2-0.9,0.2-1.3
	c0-0.5-0.1-0.9-0.2-1.3l62.6-36.2c0.7,1,1.9,1.6,3.2,1.6V75.7c-1.3,0-2.4,0.6-3.2,1.6l-62.6-36.1c0.1-0.4,0.2-0.9,0.2-1.3
	s-0.1-0.9-0.2-1.3l62.6-36.1C687.6,3.3,688.7,4,690,4z M623.8,121.7l62.5,36.1c-0.2,0.5-0.3,1-0.3,1.6c0,0.6,0.1,1.1,0.3,1.6
	L623.8,197c-0.7-1.1-1.9-1.8-3.3-1.8c-1.2,0-2.3,0.6-3,1.4l-61.9-35.7c0.2-0.5,0.3-1,0.3-1.6c0-0.6-0.1-1.1-0.3-1.6l61.9-35.7
	c0.7,0.9,1.8,1.4,3,1.4C621.9,123.5,623.1,122.8,623.8,121.7z M686.4,399.9L623.8,436c-0.7-1.1-1.9-1.8-3.3-1.8
	c-1.2,0-2.3,0.6-3,1.4l-61.9-35.7c0.2-0.5,0.3-1,0.3-1.6s-0.1-1.1-0.3-1.6l61.9-35.7c0.7,0.9,1.8,1.4,3,1.4c1.4,0,2.6-0.7,3.3-1.8
	l62.5,36.1c-0.2,0.5-0.3,1-0.3,1.6C686,398.9,686.1,399.4,686.4,399.9z M552.5,474.1l0-71.9c1.1-0.1,2.1-0.7,2.7-1.5l61.8,35.7
	c-0.3,0.5-0.4,1.1-0.4,1.8c0,2.2,1.8,4,4,4c0,0,0,0,0,0l0,71.8c0,0,0,0,0,0c-1.2,0-2.3,0.6-3,1.4l-61.9-35.7c0.2-0.5,0.3-1,0.3-1.6
	C555.9,476,554.4,474.4,552.5,474.1z M548.4,479.6l-62.5,36.1c-0.5-0.8-1.4-1.4-2.4-1.7l0-72c1.7-0.4,3-2,3-3.8
	c0-0.5-0.1-0.9-0.2-1.3l62.6-36.1c0.6,0.8,1.6,1.4,2.7,1.5l0,71.9c-2,0.2-3.5,1.9-3.5,3.9C548,478.6,548.1,479.1,548.4,479.6z
	 M414.5,474.1l0-71.9c1.1-0.1,2.1-0.7,2.7-1.5l61.8,35.7c-0.3,0.5-0.4,1.1-0.4,1.8c0,2.2,1.8,4,4,4c0,0,0,0,0,0l0,71.8c0,0,0,0,0,0
	c-1.2,0-2.3,0.6-3,1.4l-61.9-35.7c0.2-0.5,0.3-1,0.3-1.6C417.9,476,416.4,474.4,414.5,474.1z M410.4,479.6l-62.5,36.1
	c-0.5-0.8-1.4-1.4-2.4-1.7l0-72c1.7-0.4,3-2,3-3.8c0-0.5-0.1-0.9-0.2-1.3l62.6-36.2c0.6,0.8,1.6,1.4,2.7,1.5l0,71.9
	c-2,0.2-3.5,1.9-3.5,3.9C410,478.6,410.2,479.1,410.4,479.6z M276.5,474.1l0-71.9c1.1-0.1,2.1-0.7,2.7-1.5l61.8,35.7
	c-0.3,0.5-0.4,1.1-0.4,1.8c0,2.2,1.8,4,4,4c0,0,0,0,0,0l0,71.8c0,0,0,0,0,0c-1.2,0-2.3,0.6-3,1.4l-61.9-35.7c0.2-0.5,0.3-1,0.3-1.6
	C279.9,476,278.4,474.4,276.5,474.1z M272.4,479.6l-62.5,36.1c-0.5-0.8-1.4-1.4-2.4-1.7l0-72c1.7-0.4,3-2,3-3.8
	c0-0.5-0.1-0.9-0.2-1.3l62.6-36.2c0.6,0.8,1.6,1.4,2.7,1.5l0,71.9c-2,0.2-3.5,1.9-3.5,3.9C272,478.6,272.2,479.1,272.4,479.6z
	 M138.5,474.1l0-71.9c1.1-0.1,2.1-0.7,2.7-1.5l61.8,35.7c-0.3,0.5-0.4,1.1-0.4,1.8c0,2.2,1.8,4,4,4c0,0,0,0,0,0l0,71.8c0,0,0,0,0,0
	c-1.2,0-2.3,0.6-3,1.4l-61.9-35.7c0.2-0.5,0.3-1,0.3-1.6C142,476,140.4,474.4,138.5,474.1z M134.4,479.6l-62.5,36.1
	c-0.5-0.8-1.4-1.4-2.4-1.7l0-72c1.7-0.4,3-2,3-3.8c0-0.5-0.1-0.9-0.2-1.3l62.6-36.2c0.6,0.8,1.6,1.4,2.7,1.5l0,71.9
	c-2,0.2-3.5,1.9-3.5,3.9C134,478.6,134.2,479.1,134.4,479.6z M3.6,396.8l61.9-35.7c0.7,0.9,1.8,1.4,3,1.4c1.4,0,2.6-0.7,3.3-1.8
	l62.5,36.1c-0.2,0.5-0.3,1-0.3,1.6s0.1,1.1,0.3,1.6L71.8,436c-0.7-1.1-1.9-1.8-3.3-1.8c-1.2,0-2.3,0.6-3,1.4L3.6,399.9
	c0.2-0.5,0.3-1,0.3-1.6S3.8,397.3,3.6,396.8z M134.8,396l-62.6-36.1c0.1-0.4,0.2-0.9,0.2-1.3c0-1.9-1.3-3.4-3-3.8v-72
	c1-0.2,1.8-0.8,2.4-1.7l62.5,36.1c-0.2,0.5-0.3,1-0.3,1.6c0,2,1.5,3.7,3.5,3.9l0,71.9C136.4,394.6,135.5,395.2,134.8,396z
	 M72.2,197.9l62.6-36.2c0.6,0.8,1.6,1.4,2.7,1.5v71.9c-2,0.2-3.5,1.9-3.5,3.9c0,0.6,0.1,1.1,0.3,1.6l-62.5,36.1
	c-0.5-0.8-1.4-1.4-2.4-1.7v-72c1.7-0.4,3-2,3-3.8C72.5,198.7,72.4,198.3,72.2,197.9z M134.8,316.3l-62.6-36.1
	c0.1-0.4,0.2-0.9,0.2-1.3c0-0.5-0.1-0.9-0.2-1.3l62.6-36.2c0.7,1,1.9,1.6,3.2,1.6c1.3,0,2.4-0.6,3.2-1.6l61.8,35.7
	c-0.3,0.5-0.4,1.1-0.4,1.8c0,0.6,0.2,1.2,0.4,1.8l-61.8,35.7c-0.7-1-1.9-1.6-3.2-1.6S135.6,315.4,134.8,316.3z M206.5,203.1
	C206.5,203.1,206.5,203.1,206.5,203.1l0,71.8c0,0,0,0,0,0c-1.2,0-2.3,0.6-3,1.4l-61.9-35.7c0.2-0.5,0.3-1,0.3-1.6
	c0-2-1.5-3.7-3.5-3.9v-71.9c1.1-0.1,2.1-0.7,2.7-1.5l61.8,35.7c-0.3,0.5-0.4,1.1-0.4,1.8C202.6,201.4,204.3,203.1,206.5,203.1z
	 M203,360.3L141.2,396c-0.6-0.8-1.6-1.4-2.7-1.5l0-71.9c2-0.2,3.5-1.9,3.5-3.9c0-0.6-0.1-1.1-0.3-1.6l61.9-35.7
	c0.7,0.9,1.8,1.4,3,1.4c0,0,0,0,0,0v71.8c0,0,0,0,0,0c-2.2,0-4,1.8-4,4C202.6,359.2,202.7,359.8,203,360.3z M206.5,434.2
	c-1.2,0-2.3,0.6-3,1.4l-61.9-35.7c0.2-0.5,0.3-1,0.3-1.6s-0.1-1.1-0.3-1.6l61.9-35.7c0.7,0.9,1.8,1.4,3,1.4c1.4,0,2.6-0.7,3.3-1.8
	l62.5,36.1c-0.2,0.5-0.3,1-0.3,1.6s0.1,1.1,0.3,1.6L209.8,436C209.1,435,207.9,434.2,206.5,434.2z M272.8,396l-62.6-36.1
	c0.1-0.4,0.2-0.9,0.2-1.3c0-1.9-1.3-3.4-3-3.8v-72c1-0.2,1.8-0.8,2.4-1.7l62.5,36.1c-0.2,0.5-0.3,1-0.3,1.6c0,2,1.5,3.7,3.5,3.9
	l0,71.9C274.4,394.6,273.5,395.2,272.8,396z M210.2,197.9l62.6-36.2c0.6,0.8,1.6,1.4,2.7,1.5v71.9c-2,0.2-3.5,1.9-3.5,3.9
	c0,0.6,0.1,1.1,0.3,1.6l-62.5,36.1c-0.5-0.8-1.4-1.4-2.4-1.7v-72c1.7-0.4,3-2,3-3.8C210.5,198.7,210.4,198.3,210.2,197.9z
	 M272.8,316.3l-62.6-36.1c0.1-0.4,0.2-0.9,0.2-1.3c0-0.5-0.1-0.9-0.2-1.3l62.6-36.2c0.7,1,1.9,1.6,3.2,1.6s2.4-0.6,3.2-1.6
	l61.8,35.7c-0.3,0.5-0.4,1.1-0.4,1.8c0,0.6,0.2,1.2,0.4,1.8l-61.8,35.7c-0.7-1-1.9-1.6-3.2-1.6C274.7,314.7,273.6,315.4,272.8,316.3
	z M344.5,203.1C344.5,203.1,344.5,203.1,344.5,203.1l0,71.8c0,0,0,0,0,0c-1.2,0-2.3,0.6-3,1.4l-61.9-35.7c0.2-0.5,0.3-1,0.3-1.6
	c0-2-1.5-3.7-3.5-3.9v-71.9c1.1-0.1,2.1-0.7,2.7-1.5l61.8,35.7c-0.3,0.5-0.4,1.1-0.4,1.8C340.6,201.4,342.3,203.1,344.5,203.1z
	 M341,360.3L279.1,396c-0.6-0.8-1.6-1.4-2.7-1.5l0-71.9c2-0.2,3.5-1.9,3.5-3.9c0-0.6-0.1-1.1-0.3-1.6l61.9-35.7
	c0.7,0.9,1.8,1.4,3,1.4c0,0,0,0,0,0v71.8c0,0,0,0,0,0c-2.2,0-4,1.8-4,4C340.6,359.2,340.7,359.8,341,360.3z M344.5,434.2
	c-1.2,0-2.3,0.6-3,1.4l-61.9-35.7c0.2-0.5,0.3-1,0.3-1.6s-0.1-1.1-0.3-1.6l61.9-35.7c0.7,0.9,1.8,1.4,3,1.4c1.4,0,2.6-0.7,3.3-1.8
	l62.5,36.1c-0.2,0.5-0.3,1-0.3,1.6c0,0.6,0.1,1.1,0.3,1.6L347.8,436C347.1,435,345.9,434.2,344.5,434.2z M410.8,396l-62.6-36.1
	c0.1-0.4,0.2-0.9,0.2-1.3c0-1.9-1.3-3.4-3-3.8v-72c1-0.2,1.8-0.8,2.4-1.7l62.5,36.1c-0.2,0.5-0.3,1-0.3,1.6c0,2,1.5,3.7,3.5,3.9
	l0,71.9C412.4,394.6,411.5,395.2,410.8,396z M348.2,197.9l62.6-36.2c0.6,0.8,1.6,1.4,2.7,1.5v71.9c-2,0.2-3.5,1.9-3.5,3.9
	c0,0.6,0.1,1.1,0.3,1.6l-62.5,36.1c-0.5-0.8-1.4-1.4-2.4-1.7v-72c1.7-0.4,3-2,3-3.8C348.5,198.7,348.4,198.3,348.2,197.9z
	 M410.8,316.3l-62.6-36.1c0.1-0.4,0.2-0.9,0.2-1.3c0-0.5-0.1-0.9-0.2-1.3l62.6-36.2c0.7,1,1.9,1.6,3.2,1.6c1.3,0,2.4-0.6,3.2-1.6
	l61.8,35.7c-0.3,0.5-0.4,1.1-0.4,1.8c0,0.6,0.2,1.2,0.4,1.8l-61.8,35.7c-0.7-1-1.9-1.6-3.2-1.6C412.7,314.7,411.6,315.4,410.8,316.3
	z M482.5,203.1C482.5,203.1,482.5,203.1,482.5,203.1l0,71.8c0,0,0,0,0,0c-1.2,0-2.3,0.6-3,1.4l-61.9-35.7c0.2-0.5,0.3-1,0.3-1.6
	c0-2-1.5-3.7-3.5-3.9v-71.9c1.1-0.1,2.1-0.7,2.7-1.5l61.8,35.7c-0.3,0.5-0.4,1.1-0.4,1.8C478.6,201.4,480.3,203.1,482.5,203.1z
	 M479,360.3L417.1,396c-0.6-0.8-1.6-1.4-2.7-1.5l0-71.9c2-0.2,3.5-1.9,3.5-3.9c0-0.6-0.1-1.1-0.3-1.6l61.9-35.7
	c0.7,0.9,1.8,1.4,3,1.4c0,0,0,0,0,0v71.8c0,0,0,0,0,0c-2.2,0-4,1.8-4,4C478.6,359.2,478.7,359.8,479,360.3z M482.5,434.2
	c-1.2,0-2.3,0.6-3,1.4l-61.9-35.7c0.2-0.5,0.3-1,0.3-1.6s-0.1-1.1-0.3-1.6l61.9-35.7c0.7,0.9,1.8,1.4,3,1.4c1.4,0,2.6-0.7,3.3-1.8
	l62.5,36.1c-0.2,0.5-0.3,1-0.3,1.6c0,0.6,0.1,1.1,0.3,1.6L485.8,436C485.1,435,483.9,434.2,482.5,434.2z M548.8,396l-62.6-36.1
	c0.1-0.4,0.2-0.9,0.2-1.3c0-1.9-1.3-3.4-3-3.8v-72c1-0.2,1.8-0.8,2.4-1.7l62.5,36.1c-0.2,0.5-0.3,1-0.3,1.6c0,2,1.5,3.7,3.5,3.9
	l0,71.9C550.4,394.6,549.5,395.2,548.8,396z M486.2,197.9l62.6-36.1c0.6,0.8,1.6,1.4,2.7,1.5v71.9c-2,0.2-3.5,1.9-3.5,3.9
	c0,0.6,0.1,1.1,0.3,1.6l-62.5,36.1c-0.5-0.8-1.4-1.4-2.4-1.7v-72c1.7-0.4,3-2,3-3.8C486.5,198.7,486.4,198.3,486.2,197.9z
	 M548.8,316.3l-62.6-36.1c0.1-0.4,0.2-0.9,0.2-1.3c0-0.5-0.1-0.9-0.2-1.3l62.6-36.2c0.7,1,1.9,1.6,3.2,1.6c1.3,0,2.4-0.6,3.2-1.6
	l61.8,35.7c-0.3,0.5-0.4,1.1-0.4,1.8c0,0.6,0.2,1.2,0.4,1.8l-61.8,35.7c-0.7-1-1.9-1.6-3.2-1.6C550.7,314.7,549.6,315.4,548.8,316.3
	z M617,360.3L555.1,396c-0.6-0.8-1.6-1.4-2.7-1.5l0-71.9c2-0.2,3.5-1.9,3.5-3.9c0-0.6-0.1-1.1-0.3-1.6l61.9-35.7
	c0.7,0.9,1.8,1.4,3,1.4c0,0,0,0,0,0v71.8c0,0,0,0,0,0c-2.2,0-4,1.8-4,4C616.6,359.2,616.7,359.8,617,360.3z M620.5,274.9
	C620.5,274.9,620.5,274.9,620.5,274.9c-1.2,0-2.3,0.6-3,1.4l-61.9-35.7c0.2-0.5,0.3-1,0.3-1.6c0-2-1.5-3.7-3.5-3.9v-71.9
	c1.1-0.1,2.1-0.7,2.7-1.5l61.8,35.7c-0.3,0.5-0.4,1.1-0.4,1.8c0,2.2,1.8,4,4,4c0,0,0,0,0,0V274.9z M620.5,43.8
	C620.5,43.8,620.5,43.8,620.5,43.8l0,71.8c0,0,0,0,0,0c-2.2,0-4,1.8-4,4c0,0.6,0.2,1.2,0.4,1.8L555.1,157c-0.6-0.8-1.6-1.4-2.7-1.5
	V83.6c2-0.2,3.5-1.9,3.5-3.9c0-0.6-0.1-1.1-0.3-1.6l61.9-35.7C618.2,43.2,619.3,43.8,620.5,43.8z M486.2,38.5l62.6-36.1
	c0.7,1,1.9,1.6,3.2,1.6c1.3,0,2.4-0.6,3.2-1.6L617,38.1c-0.3,0.5-0.4,1.1-0.4,1.8c0,0.6,0.2,1.2,0.4,1.8l-61.8,35.7
	c-0.7-1-1.9-1.6-3.2-1.6c-1.3,0-2.4,0.6-3.2,1.6l-62.6-36.1c0.1-0.4,0.2-0.9,0.2-1.3S486.4,38.9,486.2,38.5z M483.5,43.7
	c1-0.2,1.8-0.8,2.4-1.7l62.5,36.1c-0.2,0.5-0.3,1-0.3,1.6c0,2,1.5,3.7,3.5,3.9v71.9c-1.1,0.1-2.1,0.7-2.7,1.5l-62.6-36.1
	c0.1-0.4,0.2-0.9,0.2-1.3c0-1.9-1.3-3.4-3-3.8V43.7z M485.8,121.7l62.5,36.1c-0.2,0.5-0.3,1-0.3,1.6c0,0.6,0.1,1.1,0.3,1.6
	L485.8,197c-0.7-1.1-1.9-1.8-3.3-1.8c-1.2,0-2.3,0.6-3,1.4l-61.9-35.7c0.2-0.5,0.3-1,0.3-1.6c0-0.6-0.1-1.1-0.3-1.6l61.9-35.7
	c0.7,0.9,1.8,1.4,3,1.4C483.9,123.5,485.1,122.8,485.8,121.7z M482.5,43.8C482.5,43.8,482.5,43.8,482.5,43.8l0,71.8c0,0,0,0,0,0
	c-2.2,0-4,1.8-4,4c0,0.6,0.2,1.2,0.4,1.8L417.1,157c-0.6-0.8-1.6-1.4-2.7-1.5V83.6c2-0.2,3.5-1.9,3.5-3.9c0-0.6-0.1-1.1-0.3-1.6
	l61.9-35.7C480.2,43.2,481.3,43.8,482.5,43.8z M348.2,38.5l62.6-36.1c0.7,1,1.9,1.6,3.2,1.6c1.3,0,2.4-0.6,3.2-1.6L479,38.1
	c-0.3,0.5-0.4,1.1-0.4,1.8c0,0.6,0.2,1.2,0.4,1.8l-61.8,35.7c-0.7-1-1.9-1.6-3.2-1.6c-1.3,0-2.4,0.6-3.2,1.6l-62.6-36.1
	c0.1-0.4,0.2-0.9,0.2-1.3S348.4,38.9,348.2,38.5z M345.5,43.7c1-0.2,1.8-0.8,2.4-1.7l62.5,36.1c-0.2,0.5-0.3,1-0.3,1.6
	c0,2,1.5,3.7,3.5,3.9v71.9c-1.1,0.1-2.1,0.7-2.7,1.5l-62.6-36.1c0.1-0.4,0.2-0.9,0.2-1.3c0-1.9-1.3-3.4-3-3.8V43.7z M347.8,121.7
	l62.5,36.1c-0.2,0.5-0.3,1-0.3,1.6c0,0.6,0.1,1.1,0.3,1.6L347.8,197c-0.7-1.1-1.9-1.8-3.3-1.8c-1.2,0-2.3,0.6-3,1.4l-61.9-35.7
	c0.2-0.5,0.3-1,0.3-1.6c0-0.6-0.1-1.1-0.3-1.6l61.9-35.7c0.7,0.9,1.8,1.4,3,1.4C345.9,123.5,347.1,122.8,347.8,121.7z M344.5,43.8
	C344.5,43.8,344.5,43.8,344.5,43.8l0,71.8c0,0,0,0,0,0c-2.2,0-4,1.8-4,4c0,0.6,0.2,1.2,0.4,1.8L279.1,157c-0.6-0.8-1.6-1.4-2.7-1.5
	V83.6c2-0.2,3.5-1.9,3.5-3.9c0-0.6-0.1-1.1-0.3-1.6l61.9-35.7C342.2,43.2,343.3,43.8,344.5,43.8z M210.2,38.5l62.6-36.1
	c0.7,1,1.9,1.6,3.2,1.6c1.3,0,2.4-0.6,3.2-1.6L341,38.1c-0.3,0.5-0.4,1.1-0.4,1.8c0,0.6,0.2,1.2,0.4,1.8l-61.8,35.7
	c-0.7-1-1.9-1.6-3.2-1.6c-1.3,0-2.4,0.6-3.2,1.6l-62.6-36.1c0.1-0.4,0.2-0.9,0.2-1.3S210.4,38.9,210.2,38.5z M207.5,43.7
	c1-0.2,1.8-0.8,2.4-1.7l62.5,36.1c-0.2,0.5-0.3,1-0.3,1.6c0,2,1.5,3.7,3.5,3.9v71.9c-1.1,0.1-2.1,0.7-2.7,1.5l-62.6-36.1
	c0.1-0.4,0.2-0.9,0.2-1.3c0-1.9-1.3-3.4-3-3.8V43.7z M209.8,121.7l62.5,36.1c-0.2,0.5-0.3,1-0.3,1.6c0,0.6,0.1,1.1,0.3,1.6
	L209.8,197c-0.7-1.1-1.9-1.8-3.3-1.8c-1.2,0-2.3,0.6-3,1.4l-61.9-35.7c0.2-0.5,0.3-1,0.3-1.6c0-0.6-0.1-1.1-0.3-1.6l61.9-35.7
	c0.7,0.9,1.8,1.4,3,1.4C207.9,123.5,209.1,122.8,209.8,121.7z M206.5,43.8C206.5,43.8,206.5,43.8,206.5,43.8l0,71.8c0,0,0,0,0,0
	c-2.2,0-4,1.8-4,4c0,0.6,0.2,1.2,0.4,1.8L141.2,157c-0.6-0.8-1.6-1.4-2.7-1.5V83.6c2-0.2,3.5-1.9,3.5-3.9c0-0.6-0.1-1.1-0.3-1.6
	l61.9-35.7C204.2,43.2,205.3,43.8,206.5,43.8z M72.2,38.5l62.6-36.1c0.7,1,1.9,1.6,3.2,1.6s2.4-0.6,3.2-1.6L203,38.1
	c-0.3,0.5-0.4,1.1-0.4,1.8c0,0.6,0.2,1.2,0.4,1.8l-61.8,35.7c-0.7-1-1.9-1.6-3.2-1.6s-2.4,0.6-3.2,1.6L72.2,41.2
	c0.1-0.4,0.2-0.9,0.2-1.3S72.4,38.9,72.2,38.5z M69.5,43.7c1-0.2,1.8-0.8,2.4-1.7l62.5,36.1c-0.2,0.5-0.3,1-0.3,1.6
	c0,2,1.5,3.7,3.5,3.9v71.9c-1.1,0.1-2.1,0.7-2.7,1.5l-62.6-36.1c0.1-0.4,0.2-0.9,0.2-1.3c0-1.9-1.3-3.4-3-3.8V43.7z M71.8,121.7
	l62.5,36.1c-0.2,0.5-0.3,1-0.3,1.6c0,0.6,0.1,1.1,0.3,1.6L71.8,197c-0.7-1.1-1.9-1.8-3.3-1.8c-1.2,0-2.3,0.6-3,1.4L3.6,160.9
	c0.2-0.5,0.3-1,0.3-1.6c0-0.6-0.1-1.1-0.3-1.6l61.9-35.7c0.7,0.9,1.8,1.4,3,1.4C69.9,123.5,71.1,122.8,71.8,121.7z M0.5,83.6
	c2-0.2,3.5-1.9,3.5-3.9c0-0.6-0.1-1.1-0.3-1.6l61.9-35.7c0.7,0.9,1.8,1.4,3,1.4c0,0,0,0,0,0v71.8c0,0,0,0,0,0c-2.2,0-4,1.8-4,4
	c0,0.6,0.2,1.2,0.4,1.8L3.2,157c-0.6-0.8-1.6-1.4-2.7-1.5V83.6z M3.6,240.6c0.2-0.5,0.3-1,0.3-1.6c0-2-1.5-3.7-3.5-3.9v-71.9
	c1.1-0.1,2.1-0.7,2.7-1.5L65,197.4c-0.3,0.5-0.4,1.1-0.4,1.8c0,2.2,1.8,4,4,4c0,0,0,0,0,0v71.8c0,0,0,0,0,0c-1.2,0-2.3,0.6-3,1.4
	L3.6,240.6z M4,318.7c0-0.6-0.1-1.1-0.3-1.6l61.9-35.7c0.7,0.9,1.8,1.4,3,1.4c0,0,0,0,0,0v71.8c0,0,0,0,0,0c-2.2,0-4,1.8-4,4
	c0,0.6,0.2,1.2,0.4,1.8L3.2,396c-0.6-0.8-1.6-1.4-2.7-1.5l0-71.9C2.4,322.4,4,320.7,4,318.7z M3.6,479.6c0.2-0.5,0.3-1,0.3-1.6
	c0-2-1.5-3.7-3.5-3.9l0-71.9c1.1-0.1,2.1-0.7,2.7-1.5L65,436.4c-0.3,0.5-0.4,1.1-0.4,1.8c0,2.2,1.8,4,4,4c0,0,0,0,0,0l0,71.8
	c0,0,0,0,0,0c-1.2,0-2.3,0.6-3,1.4L3.6,479.6z M3.2,635c-0.6-0.8-1.6-1.4-2.7-1.5l0-71.9c2-0.2,3.5-1.9,3.5-3.9
	c0-0.6-0.1-1.1-0.3-1.6l61.9-35.7c0.7,0.9,1.8,1.4,3,1.4c0,0,0,0,0,0l0,71.8c0,0,0,0,0,0c-2.2,0-4,1.8-4,4c0,0.6,0.2,1.2,0.4,1.8
	L3.2,635z M134.4,638.9L71.8,675c-0.7-1.1-1.9-1.8-3.3-1.8c-1.2,0-2.3,0.6-3,1.4L3.6,638.9c0.2-0.5,0.3-1,0.3-1.6
	c0-0.6-0.1-1.1-0.3-1.6l61.9-35.7c0.7,0.9,1.8,1.4,3,1.4c1.4,0,2.6-0.7,3.3-1.8l62.5,36.1c-0.2,0.5-0.3,1-0.3,1.6
	C134,637.9,134.2,638.5,134.4,638.9z M134.8,635l-62.6-36.1c0.1-0.4,0.2-0.9,0.2-1.3c0-1.9-1.3-3.4-3-3.8l0-72
	c1-0.2,1.8-0.8,2.4-1.7l62.5,36.1c-0.2,0.5-0.3,1-0.3,1.6c0,2,1.5,3.7,3.5,3.9l0,71.9C136.4,633.6,135.5,634.2,134.8,635z
	 M138,553.8c-1.3,0-2.4,0.6-3.2,1.6l-62.6-36.1c0.1-0.4,0.2-0.9,0.2-1.3c0-0.5-0.1-0.9-0.2-1.3l62.6-36.2c0.7,1,1.9,1.6,3.2,1.6
	c1.3,0,2.4-0.6,3.2-1.6l61.8,35.7c-0.3,0.5-0.4,1.1-0.4,1.8c0,0.6,0.2,1.2,0.4,1.8l-61.8,35.7C140.4,554.4,139.3,553.8,138,553.8z
	 M141.2,635c-0.6-0.8-1.6-1.4-2.7-1.5l0-71.9c2-0.2,3.5-1.9,3.5-3.9c0-0.6-0.1-1.1-0.3-1.6l61.9-35.7c0.7,0.9,1.8,1.4,3,1.4
	c0,0,0,0,0,0l0,71.8c0,0,0,0,0,0c-2.2,0-4,1.8-4,4c0,0.6,0.2,1.2,0.4,1.8L141.2,635z M272.4,638.9L209.8,675
	c-0.7-1.1-1.9-1.8-3.3-1.8c-1.2,0-2.3,0.6-3,1.4l-61.9-35.7c0.2-0.5,0.3-1,0.3-1.6c0-0.6-0.1-1.1-0.3-1.6l61.9-35.7
	c0.7,0.9,1.8,1.4,3,1.4c1.4,0,2.6-0.7,3.3-1.8l62.5,36.1c-0.2,0.5-0.3,1-0.3,1.6C272,637.9,272.2,638.5,272.4,638.9z M272.8,635
	l-62.6-36.1c0.1-0.4,0.2-0.9,0.2-1.3c0-1.9-1.3-3.4-3-3.8l0-72c1-0.2,1.8-0.8,2.4-1.7l62.5,36.1c-0.2,0.5-0.3,1-0.3,1.6
	c0,2,1.5,3.7,3.5,3.9l0,71.9C274.4,633.6,273.5,634.2,272.8,635z M276,553.8c-1.3,0-2.4,0.6-3.2,1.6l-62.6-36.1
	c0.1-0.4,0.2-0.9,0.2-1.3c0-0.5-0.1-0.9-0.2-1.3l62.6-36.2c0.7,1,1.9,1.6,3.2,1.6c1.3,0,2.4-0.6,3.2-1.6l61.8,35.7
	c-0.3,0.5-0.4,1.1-0.4,1.8c0,0.6,0.2,1.2,0.4,1.8l-61.8,35.7C278.4,554.4,277.3,553.8,276,553.8z M279.1,635
	c-0.6-0.8-1.6-1.4-2.7-1.5l0-71.9c2-0.2,3.5-1.9,3.5-3.9c0-0.6-0.1-1.1-0.3-1.6l61.9-35.7c0.7,0.9,1.8,1.4,3,1.4c0,0,0,0,0,0l0,71.8
	c0,0,0,0,0,0c-2.2,0-4,1.8-4,4c0,0.6,0.2,1.2,0.4,1.8L279.1,635z M410.4,638.9L347.8,675c-0.7-1.1-1.9-1.8-3.3-1.8
	c-1.2,0-2.3,0.6-3,1.4l-61.9-35.7c0.2-0.5,0.3-1,0.3-1.6c0-0.6-0.1-1.1-0.3-1.6l61.9-35.7c0.7,0.9,1.8,1.4,3,1.4
	c1.4,0,2.6-0.7,3.3-1.8l62.5,36.1c-0.2,0.5-0.3,1-0.3,1.6C410,637.9,410.2,638.5,410.4,638.9z M410.8,635l-62.6-36.1
	c0.1-0.4,0.2-0.9,0.2-1.3c0-1.9-1.3-3.4-3-3.8l0-72c1-0.2,1.8-0.8,2.4-1.7l62.5,36.1c-0.2,0.5-0.3,1-0.3,1.6c0,2,1.5,3.7,3.5,3.9
	l0,71.9C412.4,633.6,411.5,634.2,410.8,635z M414,553.8c-1.3,0-2.4,0.6-3.2,1.6l-62.6-36.2c0.1-0.4,0.2-0.9,0.2-1.3
	c0-0.5-0.1-0.9-0.2-1.3l62.6-36.2c0.7,1,1.9,1.6,3.2,1.6c1.3,0,2.4-0.6,3.2-1.6l61.8,35.7c-0.3,0.5-0.4,1.1-0.4,1.8
	c0,0.6,0.2,1.2,0.4,1.8l-61.8,35.7C416.4,554.4,415.3,553.8,414,553.8z M417.1,635c-0.6-0.8-1.6-1.4-2.7-1.5l0-71.9
	c2-0.2,3.5-1.9,3.5-3.9c0-0.6-0.1-1.1-0.3-1.6l61.9-35.7c0.7,0.9,1.8,1.4,3,1.4c0,0,0,0,0,0l0,71.8c0,0,0,0,0,0c-2.2,0-4,1.8-4,4
	c0,0.6,0.2,1.2,0.4,1.8L417.1,635z M548.4,638.9L485.8,675c-0.7-1.1-1.9-1.8-3.3-1.8c-1.2,0-2.3,0.6-3,1.4l-61.9-35.7
	c0.2-0.5,0.3-1,0.3-1.6c0-0.6-0.1-1.1-0.3-1.6l61.9-35.7c0.7,0.9,1.8,1.4,3,1.4c1.4,0,2.6-0.7,3.3-1.8l62.5,36.1
	c-0.2,0.5-0.3,1-0.3,1.6C548,637.9,548.1,638.5,548.4,638.9z M548.8,635l-62.6-36.1c0.1-0.4,0.2-0.9,0.2-1.3c0-1.9-1.3-3.4-3-3.8
	l0-72c1-0.2,1.8-0.8,2.4-1.7l62.5,36.1c-0.2,0.5-0.3,1-0.3,1.6c0,2,1.5,3.7,3.5,3.9l0,71.9C550.4,633.6,549.5,634.2,548.8,635z
	 M552,553.8c-1.3,0-2.4,0.6-3.2,1.6l-62.6-36.1c0.1-0.4,0.2-0.9,0.2-1.3c0-0.5-0.1-0.9-0.2-1.3l62.6-36.2c0.7,1,1.9,1.6,3.2,1.6
	c1.3,0,2.4-0.6,3.2-1.6l61.8,35.7c-0.3,0.5-0.4,1.1-0.4,1.8c0,0.6,0.2,1.2,0.4,1.8l-61.8,35.7C554.4,554.4,553.3,553.8,552,553.8z
	 M555.1,635c-0.6-0.8-1.6-1.4-2.7-1.5l0-71.9c2-0.2,3.5-1.9,3.5-3.9c0-0.6-0.1-1.1-0.3-1.6l61.9-35.7c0.7,0.9,1.8,1.4,3,1.4
	c0,0,0,0,0,0l0,71.8c0,0,0,0,0,0c-2.2,0-4,1.8-4,4c0,0.6,0.2,1.2,0.4,1.8L555.1,635z M686.4,638.9L623.8,675
	c-0.7-1.1-1.9-1.8-3.3-1.8c-1.2,0-2.3,0.6-3,1.4l-61.9-35.7c0.2-0.5,0.3-1,0.3-1.6c0-0.6-0.1-1.1-0.3-1.6l61.9-35.7
	c0.7,0.9,1.8,1.4,3,1.4c1.4,0,2.6-0.7,3.3-1.8l62.5,36.1c-0.2,0.5-0.3,1-0.3,1.6C686,637.9,686.1,638.5,686.4,638.9z M686.4,556.2
	c-0.2,0.5-0.3,1-0.3,1.6c0,2,1.5,3.7,3.5,3.9l0,71.9c-1.1,0.1-2.1,0.7-2.7,1.5l-62.6-36.1c0.1-0.4,0.2-0.9,0.2-1.3
	c0-1.9-1.3-3.4-3-3.8l0-72c1-0.2,1.8-0.8,2.4-1.7L686.4,556.2z M689.5,474.1c-2,0.2-3.5,1.9-3.5,3.9c0,0.6,0.1,1.1,0.3,1.6
	l-62.5,36.1c-0.5-0.8-1.4-1.4-2.4-1.7l0-72c1.7-0.4,3-2,3-3.8c0-0.5-0.1-0.9-0.2-1.3l62.6-36.1c0.6,0.8,1.6,1.4,2.7,1.5L689.5,474.1
	z M686.4,317.1c-0.2,0.5-0.3,1-0.3,1.6c0,2,1.5,3.7,3.5,3.9l0,71.9c-1.1,0.1-2.1,0.7-2.7,1.5l-62.6-36.1c0.1-0.4,0.2-0.9,0.2-1.3
	c0-1.9-1.3-3.4-3-3.8v-72c1-0.2,1.8-0.8,2.4-1.7L686.4,317.1z M689.5,235.1c-2,0.2-3.5,1.9-3.5,3.9c0,0.6,0.1,1.1,0.3,1.6
	l-62.5,36.1c-0.5-0.8-1.4-1.4-2.4-1.7v-72c1.7-0.4,3-2,3-3.8c0-0.5-0.1-0.9-0.2-1.3l62.6-36.1c0.6,0.8,1.6,1.4,2.7,1.5V235.1z
	 M686.4,78.1c-0.2,0.5-0.3,1-0.3,1.6c0,2,1.5,3.7,3.5,3.9v71.9c-1.1,0.1-2.1,0.7-2.7,1.5l-62.6-36.1c0.1-0.4,0.2-0.9,0.2-1.3
	c0-1.9-1.3-3.4-3-3.8v-72c1-0.2,1.8-0.8,2.4-1.7L686.4,78.1z"/>
</svg>
