<?xml version="1.0" encoding="utf-8"?>
<!-- Generator: Adobe Illustrator 18.0.0, SVG Export Plug-In . SVG Version: 6.00 Build 0)  -->
<!DOCTYPE svg PUBLIC "-//W3C//DTD SVG 1.1//EN" "http://www.w3.org/Graphics/SVG/1.1/DTD/svg11.dtd">
<svg version="1.1" id="Layer_1" xmlns="http://www.w3.org/2000/svg" xmlns:xlink="http://www.w3.org/1999/xlink" x="0px" y="0px"
	 viewBox="0 0 552.5 574.1" enable-background="new 0 0 552.5 574.1" xml:space="preserve">
<path opacity="0.41" fill="#D0E2DF" d="M552.5,3.2V0h-3.2c0,0.4,0.1,0.9,0.3,1.2l-50.1,28.9c-0.4-0.7-1.1-1.1-1.9-1.3V0h-0.8v28.7
	c0,0,0,0,0,0c-1,0-1.8,0.4-2.4,1.1L444.9,1.2c0.2-0.4,0.3-0.8,0.3-1.2h-6.3c0,0.4,0.1,0.9,0.3,1.2L389,30.2
	c-0.4-0.7-1.1-1.1-1.9-1.3V0h-0.8v28.7c0,0,0,0,0,0c-1,0-1.8,0.4-2.4,1.1L334.4,1.2c0.2-0.4,0.3-0.8,0.3-1.2h-6.3
	c0,0.4,0.1,0.9,0.3,1.2l-50.1,28.9c-0.4-0.7-1.1-1.1-1.9-1.3V0h-0.8v28.7c0,0,0,0,0,0c-1,0-1.8,0.4-2.4,1.1L223.9,1.2
	c0.2-0.4,0.3-0.8,0.3-1.2h-6.3c0,0.4,0.1,0.9,0.3,1.2L168,30.2c-0.4-0.7-1.1-1.1-1.9-1.3V0h-0.8v28.7c0,0,0,0,0,0
	c-1,0-1.8,0.4-2.4,1.1L113.4,1.2c0.2-0.4,0.3-0.8,0.3-1.2h-6.3c0,0.4,0.1,0.9,0.3,1.2L57.5,30.2c-0.4-0.7-1.1-1.1-1.9-1.3V0h-0.8
	v28.7c0,0,0,0,0,0c-1,0-1.8,0.4-2.4,1.1L2.9,1.2C3.1,0.9,3.2,0.4,3.2,0H0v3.2c1,0,1.9-0.5,2.5-1.3L52,30.5c-0.2,0.4-0.3,0.9-0.3,1.4
	s0.1,1,0.3,1.4L2.5,61.9C1.9,61.1,1,60.6,0,60.6v133.9c1,0,1.9-0.5,2.5-1.3L52,221.9c-0.2,0.4-0.3,0.9-0.3,1.4c0,0.5,0.1,1,0.3,1.4
	L2.5,253.3C1.9,252.5,1,252,0,252v133.9c1,0,1.9-0.5,2.5-1.3L52,413.2c-0.2,0.4-0.3,0.9-0.3,1.4c0,0.5,0.1,1,0.3,1.4L2.5,444.7
	c-0.6-0.8-1.5-1.3-2.5-1.3v130.8h3.2c0-1.6-1.2-2.9-2.8-3.1l0-57.5c0.9-0.1,1.6-0.6,2.2-1.2L52,540.8c-0.2,0.4-0.3,0.9-0.3,1.4
	c0,1.7,1.4,3.2,3.2,3.2c0,0,0,0,0,0v28.7h0.8v-28.8c1.4-0.3,2.4-1.6,2.4-3.1c0-0.4-0.1-0.7-0.2-1.1l50.1-28.9
	c0.5,0.7,1.3,1.1,2.2,1.2l0,57.5c-1.6,0.2-2.8,1.5-2.8,3.1h6.3c0-1.6-1.2-2.9-2.8-3.1l0-57.5c0.9-0.1,1.6-0.6,2.2-1.2l49.5,28.6
	c-0.2,0.4-0.3,0.9-0.3,1.4c0,1.7,1.4,3.2,3.2,3.2c0,0,0,0,0,0v28.7h0.8v-28.8c1.4-0.3,2.4-1.6,2.4-3.1c0-0.4-0.1-0.7-0.2-1.1
	l50.1-28.9c0.5,0.7,1.3,1.1,2.2,1.2l0,57.5c-1.6,0.2-2.8,1.5-2.8,3.1h6.3c0-1.6-1.2-2.9-2.8-3.1l0-57.5c0.9-0.1,1.6-0.6,2.2-1.2
	l49.5,28.6c-0.2,0.4-0.3,0.9-0.3,1.4c0,1.7,1.4,3.2,3.2,3.2c0,0,0,0,0,0l0,28.7h0.8l0-28.8c1.4-0.3,2.4-1.6,2.4-3.1
	c0-0.4-0.1-0.7-0.2-1.1l50.1-28.9c0.5,0.7,1.3,1.1,2.2,1.2l0,57.5c-1.6,0.2-2.8,1.5-2.8,3.1h6.3c0-1.6-1.2-2.9-2.8-3.1l0-57.5
	c0.9-0.1,1.6-0.6,2.2-1.2l49.5,28.6c-0.2,0.4-0.3,0.9-0.3,1.4c0,1.7,1.4,3.2,3.2,3.2c0,0,0,0,0,0v28.7h0.8v-28.8
	c1.4-0.3,2.4-1.6,2.4-3.1c0-0.4-0.1-0.7-0.2-1.1l50.1-28.9c0.5,0.7,1.3,1.1,2.2,1.2l0,57.5c-1.6,0.2-2.8,1.5-2.8,3.1h6.3
	c0-1.6-1.2-2.9-2.8-3.1l0-57.5c0.9-0.1,1.6-0.6,2.2-1.2l49.5,28.6c-0.2,0.4-0.3,0.9-0.3,1.4c0,1.7,1.4,3.2,3.2,3.2c0,0,0,0,0,0v28.7
	h0.8v-28.8c1.4-0.3,2.4-1.6,2.4-3.1c0-0.4-0.1-0.7-0.2-1.1l50.1-28.9c0.5,0.7,1.3,1.1,2.2,1.2l0,57.5c-1.6,0.2-2.8,1.5-2.8,3.1h3.2
	V443.4c-1,0-1.9,0.5-2.5,1.3l-50.1-28.9c0.1-0.3,0.2-0.7,0.2-1.1c0-0.4-0.1-0.7-0.2-1.1l50.1-28.9c0.6,0.8,1.5,1.3,2.5,1.3V252
	c-1,0-1.9,0.5-2.5,1.3l-50.1-28.9c0.1-0.3,0.2-0.7,0.2-1.1c0-0.4-0.1-0.7-0.2-1.1l50.1-28.9c0.6,0.8,1.5,1.3,2.5,1.3V60.6
	c-1,0-1.9,0.5-2.5,1.3L499.8,33c0.1-0.3,0.2-0.7,0.2-1.1c0-0.4-0.1-0.7-0.2-1.1l50.1-28.9C550.5,2.7,551.4,3.2,552.5,3.2z
	 M499.5,97.4l50.1,28.9c-0.2,0.4-0.3,0.8-0.3,1.2c0,0.4,0.1,0.9,0.3,1.2l-50.1,28.9c-0.6-0.9-1.5-1.4-2.6-1.4c-1,0-1.8,0.4-2.4,1.1
	l-49.5-28.6c0.2-0.4,0.3-0.8,0.3-1.2c0-0.4-0.1-0.9-0.3-1.2l49.5-28.6c0.6,0.7,1.4,1.1,2.4,1.1C497.9,98.9,498.9,98.3,499.5,97.4z
	 M549.5,320.2l-50.1,28.9c-0.6-0.9-1.5-1.4-2.6-1.4c-1,0-1.8,0.4-2.4,1.1l-49.5-28.6c0.2-0.4,0.3-0.8,0.3-1.2s-0.1-0.9-0.3-1.2
	l49.5-28.6c0.6,0.7,1.4,1.1,2.4,1.1c1.1,0,2.1-0.6,2.6-1.4l50.1,28.9c-0.2,0.4-0.3,0.8-0.3,1.2C549.3,319.4,549.4,319.8,549.5,320.2
	z M442.3,379.6l0-57.5c0.9-0.1,1.6-0.6,2.2-1.2l49.5,28.6c-0.2,0.4-0.3,0.9-0.3,1.4c0,1.7,1.4,3.2,3.2,3.2c0,0,0,0,0,0l0,57.5
	c0,0,0,0,0,0c-1,0-1.8,0.4-2.4,1.1L444.9,384c0.2-0.4,0.3-0.8,0.3-1.2C445.1,381.1,443.9,379.8,442.3,379.6z M439.1,384L389,412.9
	c-0.4-0.7-1.1-1.1-1.9-1.3l0-57.7c1.4-0.3,2.4-1.6,2.4-3.1c0-0.4-0.1-0.7-0.2-1.1l50.1-28.9c0.5,0.7,1.3,1.1,2.2,1.2l0,57.5
	c-1.6,0.2-2.8,1.5-2.8,3.1C438.8,383.2,438.9,383.6,439.1,384z M331.8,379.6l0-57.5c0.9-0.1,1.6-0.6,2.2-1.2l49.5,28.6
	c-0.2,0.4-0.3,0.9-0.3,1.4c0,1.7,1.4,3.2,3.2,3.2c0,0,0,0,0,0l0,57.5c0,0,0,0,0,0c-1,0-1.8,0.4-2.4,1.1L334.4,384
	c0.2-0.4,0.3-0.8,0.3-1.2C334.6,381.1,333.4,379.8,331.8,379.6z M328.6,384l-50.1,28.9c-0.4-0.7-1.1-1.1-1.9-1.3l0-57.7
	c1.4-0.3,2.4-1.6,2.4-3.1c0-0.4-0.1-0.7-0.2-1.1l50.1-28.9c0.5,0.7,1.3,1.1,2.2,1.2l0,57.5c-1.6,0.2-2.8,1.5-2.8,3.1
	C328.3,383.2,328.4,383.6,328.6,384z M221.4,379.6l0-57.5c0.9-0.1,1.6-0.6,2.2-1.2l49.5,28.6c-0.2,0.4-0.3,0.9-0.3,1.4
	c0,1.7,1.4,3.2,3.2,3.2c0,0,0,0,0,0l0,57.5c0,0,0,0,0,0c-1,0-1.8,0.4-2.4,1.1L223.9,384c0.2-0.4,0.3-0.8,0.3-1.2
	C224.1,381.1,222.9,379.8,221.4,379.6z M218.1,384L168,412.9c-0.4-0.7-1.1-1.1-1.9-1.3l0-57.7c1.4-0.3,2.4-1.6,2.4-3.1
	c0-0.4-0.1-0.7-0.2-1.1l50.1-28.9c0.5,0.7,1.3,1.1,2.2,1.2l0,57.5c-1.6,0.2-2.8,1.5-2.8,3.1C217.8,383.2,217.9,383.6,218.1,384z
	 M110.9,379.6l0-57.5c0.9-0.1,1.6-0.6,2.2-1.2l49.5,28.6c-0.2,0.4-0.3,0.9-0.3,1.4c0,1.7,1.4,3.2,3.2,3.2c0,0,0,0,0,0l0,57.5
	c0,0,0,0,0,0c-1,0-1.8,0.4-2.4,1.1L113.4,384c0.2-0.4,0.3-0.8,0.3-1.2C113.7,381.1,112.4,379.8,110.9,379.6z M107.6,384l-50.1,28.9
	c-0.4-0.7-1.1-1.1-1.9-1.3l0-57.7c1.4-0.3,2.4-1.6,2.4-3.1c0-0.4-0.1-0.7-0.2-1.1l50.1-28.9c0.5,0.7,1.3,1.1,2.2,1.2l0,57.5
	c-1.6,0.2-2.8,1.5-2.8,3.1C107.3,383.2,107.4,383.6,107.6,384z M2.9,317.7l49.5-28.6c0.6,0.7,1.4,1.1,2.4,1.1c1.1,0,2.1-0.6,2.6-1.4
	l50.1,28.9c-0.2,0.4-0.3,0.8-0.3,1.2s0.1,0.9,0.3,1.2l-50.1,28.9c-0.6-0.9-1.5-1.4-2.6-1.4c-1,0-1.8,0.4-2.4,1.1L2.9,320.2
	c0.2-0.4,0.3-0.8,0.3-1.2S3.1,318.1,2.9,317.7z M108,317.1l-50.1-28.9c0.1-0.3,0.2-0.7,0.2-1.1c0-1.5-1-2.7-2.4-3.1v-57.7
	c0.8-0.2,1.5-0.7,1.9-1.3l50.1,28.9c-0.2,0.4-0.3,0.8-0.3,1.2c0,1.6,1.2,2.9,2.8,3.1l0,57.5C109.2,315.9,108.5,316.4,108,317.1z
	 M57.8,158.4l50.1-28.9c0.5,0.7,1.3,1.1,2.2,1.2v57.5c-1.6,0.2-2.8,1.5-2.8,3.1c0,0.4,0.1,0.9,0.3,1.2l-50.1,28.9
	c-0.4-0.7-1.1-1.1-1.9-1.3v-57.7c1.4-0.3,2.4-1.6,2.4-3.1C58,159.1,58,158.8,57.8,158.4z M108,253.3l-50.1-28.9
	c0.1-0.3,0.2-0.7,0.2-1.1c0-0.4-0.1-0.7-0.2-1.1l50.1-28.9c0.6,0.8,1.5,1.3,2.5,1.3c1,0,1.9-0.5,2.5-1.3l49.5,28.6
	c-0.2,0.4-0.3,0.9-0.3,1.4c0,0.5,0.1,1,0.3,1.4L113,253.3c-0.6-0.8-1.5-1.3-2.5-1.3C109.5,252,108.5,252.5,108,253.3z M165.4,162.6
	C165.4,162.6,165.4,162.6,165.4,162.6l0,57.5c0,0,0,0,0,0c-1,0-1.8,0.4-2.4,1.1l-49.5-28.6c0.2-0.4,0.3-0.8,0.3-1.2
	c0-1.6-1.2-2.9-2.8-3.1v-57.5c0.9-0.1,1.6-0.6,2.2-1.2l49.5,28.6c-0.2,0.4-0.3,0.9-0.3,1.4C162.2,161.2,163.6,162.6,165.4,162.6z
	 M162.5,288.5L113,317.1c-0.5-0.7-1.3-1.1-2.2-1.2l0-57.5c1.6-0.2,2.8-1.5,2.8-3.1c0-0.4-0.1-0.9-0.3-1.2l49.5-28.6
	c0.6,0.7,1.4,1.1,2.4,1.1c0,0,0,0,0,0v57.5c0,0,0,0,0,0c-1.7,0-3.2,1.4-3.2,3.2C162.2,287.6,162.3,288.1,162.5,288.5z M165.4,347.7
	c-1,0-1.8,0.4-2.4,1.1l-49.5-28.6c0.2-0.4,0.3-0.8,0.3-1.2s-0.1-0.9-0.3-1.2l49.5-28.6c0.6,0.7,1.4,1.1,2.4,1.1
	c1.1,0,2.1-0.6,2.6-1.4l50.1,28.9c-0.2,0.4-0.3,0.8-0.3,1.2s0.1,0.9,0.3,1.2L168,349.1C167.4,348.3,166.5,347.7,165.4,347.7z
	 M218.5,317.1l-50.1-28.9c0.1-0.3,0.2-0.7,0.2-1.1c0-1.5-1-2.7-2.4-3.1v-57.7c0.8-0.2,1.5-0.7,1.9-1.3l50.1,28.9
	c-0.2,0.4-0.3,0.8-0.3,1.2c0,1.6,1.2,2.9,2.8,3.1l0,57.5C219.7,315.9,219,316.4,218.5,317.1z M168.3,158.4l50.1-28.9
	c0.5,0.7,1.3,1.1,2.2,1.2v57.5c-1.6,0.2-2.8,1.5-2.8,3.1c0,0.4,0.1,0.9,0.3,1.2L168,221.5c-0.4-0.7-1.1-1.1-1.9-1.3v-57.7
	c1.4-0.3,2.4-1.6,2.4-3.1C168.5,159.1,168.4,158.8,168.3,158.4z M218.5,253.3l-50.1-28.9c0.1-0.3,0.2-0.7,0.2-1.1
	c0-0.4-0.1-0.7-0.2-1.1l50.1-28.9c0.6,0.8,1.5,1.3,2.5,1.3s1.9-0.5,2.5-1.3l49.5,28.6c-0.2,0.4-0.3,0.9-0.3,1.4c0,0.5,0.1,1,0.3,1.4
	l-49.5,28.6c-0.6-0.8-1.5-1.3-2.5-1.3C219.9,252,219,252.5,218.5,253.3z M275.8,162.6C275.8,162.6,275.9,162.6,275.8,162.6l0,57.5
	c0,0,0,0,0,0c-1,0-1.8,0.4-2.4,1.1l-49.5-28.6c0.2-0.4,0.3-0.8,0.3-1.2c0-1.6-1.2-2.9-2.8-3.1v-57.5c0.9-0.1,1.6-0.6,2.2-1.2
	l49.5,28.6c-0.2,0.4-0.3,0.9-0.3,1.4C272.7,161.2,274.1,162.6,275.8,162.6z M273,288.5l-49.5,28.6c-0.5-0.7-1.3-1.1-2.2-1.2l0-57.5
	c1.6-0.2,2.8-1.5,2.8-3.1c0-0.4-0.1-0.9-0.3-1.2l49.5-28.6c0.6,0.7,1.4,1.1,2.4,1.1c0,0,0,0,0,0v57.5c0,0,0,0,0,0
	c-1.7,0-3.2,1.4-3.2,3.2C272.7,287.6,272.8,288.1,273,288.5z M275.8,347.7c-1,0-1.8,0.4-2.4,1.1l-49.5-28.6c0.2-0.4,0.3-0.8,0.3-1.2
	s-0.1-0.9-0.3-1.2l49.5-28.6c0.6,0.7,1.4,1.1,2.4,1.1c1.1,0,2.1-0.6,2.6-1.4l50.1,28.9c-0.2,0.4-0.3,0.8-0.3,1.2
	c0,0.4,0.1,0.9,0.3,1.2l-50.1,28.9C277.9,348.3,276.9,347.7,275.8,347.7z M328.9,317.1l-50.1-28.9c0.1-0.3,0.2-0.7,0.2-1.1
	c0-1.5-1-2.7-2.4-3.1v-57.7c0.8-0.2,1.5-0.7,1.9-1.3l50.1,28.9c-0.2,0.4-0.3,0.8-0.3,1.2c0,1.6,1.2,2.9,2.8,3.1l0,57.5
	C330.2,315.9,329.5,316.4,328.9,317.1z M278.8,158.4l50.1-28.9c0.5,0.7,1.3,1.1,2.2,1.2v57.5c-1.6,0.2-2.8,1.5-2.8,3.1
	c0,0.4,0.1,0.9,0.3,1.2l-50.1,28.9c-0.4-0.7-1.1-1.1-1.9-1.3v-57.7c1.4-0.3,2.4-1.6,2.4-3.1C279,159.1,278.9,158.8,278.8,158.4z
	 M328.9,253.3l-50.1-28.9c0.1-0.3,0.2-0.7,0.2-1.1c0-0.4-0.1-0.7-0.2-1.1l50.1-28.9c0.6,0.8,1.5,1.3,2.5,1.3c1,0,1.9-0.5,2.5-1.3
	l49.5,28.6c-0.2,0.4-0.3,0.9-0.3,1.4c0,0.5,0.1,1,0.3,1.4L334,253.3c-0.6-0.8-1.5-1.3-2.5-1.3C330.4,252,329.5,252.5,328.9,253.3z
	 M386.3,162.6C386.3,162.6,386.3,162.6,386.3,162.6l0,57.5c0,0,0,0,0,0c-1,0-1.8,0.4-2.4,1.1l-49.5-28.6c0.2-0.4,0.3-0.8,0.3-1.2
	c0-1.6-1.2-2.9-2.8-3.1v-57.5c0.9-0.1,1.6-0.6,2.2-1.2l49.5,28.6c-0.2,0.4-0.3,0.9-0.3,1.4C383.2,161.2,384.6,162.6,386.3,162.6z
	 M383.5,288.5L334,317.1c-0.5-0.7-1.3-1.1-2.2-1.2l0-57.5c1.6-0.2,2.8-1.5,2.8-3.1c0-0.4-0.1-0.9-0.3-1.2l49.5-28.6
	c0.6,0.7,1.4,1.1,2.4,1.1c0,0,0,0,0,0v57.5c0,0,0,0,0,0c-1.7,0-3.2,1.4-3.2,3.2C383.2,287.6,383.3,288.1,383.5,288.5z M386.3,347.7
	c-1,0-1.8,0.4-2.4,1.1l-49.5-28.6c0.2-0.4,0.3-0.8,0.3-1.2s-0.1-0.9-0.3-1.2l49.5-28.6c0.6,0.7,1.4,1.1,2.4,1.1
	c1.1,0,2.1-0.6,2.6-1.4l50.1,28.9c-0.2,0.4-0.3,0.8-0.3,1.2c0,0.4,0.1,0.9,0.3,1.2L389,349.1C388.4,348.3,387.4,347.7,386.3,347.7z
	 M439.4,317.1l-50.1-28.9c0.1-0.3,0.2-0.7,0.2-1.1c0-1.5-1-2.7-2.4-3.1v-57.7c0.8-0.2,1.5-0.7,1.9-1.3l50.1,28.9
	c-0.2,0.4-0.3,0.8-0.3,1.2c0,1.6,1.2,2.9,2.8,3.1l0,57.5C440.7,315.9,439.9,316.4,439.4,317.1z M389.3,158.4l50.1-28.9
	c0.5,0.7,1.3,1.1,2.2,1.2v57.5c-1.6,0.2-2.8,1.5-2.8,3.1c0,0.4,0.1,0.9,0.3,1.2L389,221.5c-0.4-0.7-1.1-1.1-1.9-1.3v-57.7
	c1.4-0.3,2.4-1.6,2.4-3.1C389.5,159.1,389.4,158.8,389.3,158.4z M439.4,253.3l-50.1-28.9c0.1-0.3,0.2-0.7,0.2-1.1
	c0-0.4-0.1-0.7-0.2-1.1l50.1-28.9c0.6,0.8,1.5,1.3,2.5,1.3c1,0,1.9-0.5,2.5-1.3l49.5,28.6c-0.2,0.4-0.3,0.9-0.3,1.4
	c0,0.5,0.1,1,0.3,1.4l-49.5,28.6c-0.6-0.8-1.5-1.3-2.5-1.3C440.9,252,440,252.5,439.4,253.3z M494,288.5l-49.5,28.6
	c-0.5-0.7-1.3-1.1-2.2-1.2l0-57.5c1.6-0.2,2.8-1.5,2.8-3.1c0-0.4-0.1-0.9-0.3-1.2l49.5-28.6c0.6,0.7,1.4,1.1,2.4,1.1c0,0,0,0,0,0
	v57.5c0,0,0,0,0,0c-1.7,0-3.2,1.4-3.2,3.2C493.7,287.6,493.8,288.1,494,288.5z M496.8,220.1C496.8,220.1,496.8,220.1,496.8,220.1
	c-1,0-1.8,0.4-2.4,1.1l-49.5-28.6c0.2-0.4,0.3-0.8,0.3-1.2c0-1.6-1.2-2.9-2.8-3.1v-57.5c0.9-0.1,1.6-0.6,2.2-1.2l49.5,28.6
	c-0.2,0.4-0.3,0.9-0.3,1.4c0,1.7,1.4,3.2,3.2,3.2c0,0,0,0,0,0V220.1z M496.8,35.1C496.8,35.1,496.8,35.1,496.8,35.1l0,57.5
	c0,0,0,0,0,0c-1.7,0-3.2,1.4-3.2,3.2c0,0.5,0.1,1,0.3,1.4l-49.5,28.6c-0.5-0.7-1.3-1.1-2.2-1.2V66.9c1.6-0.2,2.8-1.5,2.8-3.1
	c0-0.4-0.1-0.9-0.3-1.2l49.5-28.6C495,34.6,495.9,35.1,496.8,35.1z M389.3,30.8l50.1-28.9c0.6,0.8,1.5,1.3,2.5,1.3
	c1,0,1.9-0.5,2.5-1.3L494,30.5c-0.2,0.4-0.3,0.9-0.3,1.4s0.1,1,0.3,1.4l-49.5,28.6c-0.6-0.8-1.5-1.3-2.5-1.3c-1,0-1.9,0.5-2.5,1.3
	L389.3,33c0.1-0.3,0.2-0.7,0.2-1.1C389.5,31.5,389.4,31.2,389.3,30.8z M387.1,35c0.8-0.2,1.5-0.7,1.9-1.3l50.1,28.9
	c-0.2,0.4-0.3,0.8-0.3,1.2c0,1.6,1.2,2.9,2.8,3.1v57.5c-0.9,0.1-1.6,0.6-2.2,1.2l-50.1-28.9c0.1-0.3,0.2-0.7,0.2-1.1
	c0-1.5-1-2.7-2.4-3.1V35z M389,97.4l50.1,28.9c-0.2,0.4-0.3,0.8-0.3,1.2c0,0.4,0.1,0.9,0.3,1.2L389,157.7c-0.6-0.9-1.5-1.4-2.6-1.4
	c-1,0-1.8,0.4-2.4,1.1l-49.5-28.6c0.2-0.4,0.3-0.8,0.3-1.2c0-0.4-0.1-0.9-0.3-1.2l49.5-28.6c0.6,0.7,1.4,1.1,2.4,1.1
	C387.4,98.9,388.4,98.3,389,97.4z M386.3,35.1C386.3,35.1,386.3,35.1,386.3,35.1l0,57.5c0,0,0,0,0,0c-1.7,0-3.2,1.4-3.2,3.2
	c0,0.5,0.1,1,0.3,1.4L334,125.7c-0.5-0.7-1.3-1.1-2.2-1.2V66.9c1.6-0.2,2.8-1.5,2.8-3.1c0-0.4-0.1-0.9-0.3-1.2l49.5-28.6
	C384.5,34.6,385.4,35.1,386.3,35.1z M278.8,30.8l50.1-28.9c0.6,0.8,1.5,1.3,2.5,1.3c1,0,1.9-0.5,2.5-1.3l49.5,28.6
	c-0.2,0.4-0.3,0.9-0.3,1.4s0.1,1,0.3,1.4L334,61.9c-0.6-0.8-1.5-1.3-2.5-1.3c-1,0-1.9,0.5-2.5,1.3L278.8,33c0.1-0.3,0.2-0.7,0.2-1.1
	C279,31.5,278.9,31.2,278.8,30.8z M276.6,35c0.8-0.2,1.5-0.7,1.9-1.3l50.1,28.9c-0.2,0.4-0.3,0.8-0.3,1.2c0,1.6,1.2,2.9,2.8,3.1
	v57.5c-0.9,0.1-1.6,0.6-2.2,1.2l-50.1-28.9c0.1-0.3,0.2-0.7,0.2-1.1c0-1.5-1-2.7-2.4-3.1V35z M278.5,97.4l50.1,28.9
	c-0.2,0.4-0.3,0.8-0.3,1.2c0,0.4,0.1,0.9,0.3,1.2l-50.1,28.9c-0.6-0.9-1.5-1.4-2.6-1.4c-1,0-1.8,0.4-2.4,1.1l-49.5-28.6
	c0.2-0.4,0.3-0.8,0.3-1.2c0-0.4-0.1-0.9-0.3-1.2l49.5-28.6c0.6,0.7,1.4,1.1,2.4,1.1C276.9,98.9,277.9,98.3,278.5,97.4z M275.8,35.1
	C275.8,35.1,275.9,35.1,275.8,35.1l0,57.5c0,0,0,0,0,0c-1.7,0-3.2,1.4-3.2,3.2c0,0.5,0.1,1,0.3,1.4l-49.5,28.6
	c-0.5-0.7-1.3-1.1-2.2-1.2V66.9c1.6-0.2,2.8-1.5,2.8-3.1c0-0.4-0.1-0.9-0.3-1.2l49.5-28.6C274,34.6,274.9,35.1,275.8,35.1z
	 M168.3,30.8l50.1-28.9c0.6,0.8,1.5,1.3,2.5,1.3c1,0,1.9-0.5,2.5-1.3L273,30.5c-0.2,0.4-0.3,0.9-0.3,1.4s0.1,1,0.3,1.4l-49.5,28.6
	c-0.6-0.8-1.5-1.3-2.5-1.3c-1,0-1.9,0.5-2.5,1.3L168.3,33c0.1-0.3,0.2-0.7,0.2-1.1C168.5,31.5,168.4,31.2,168.3,30.8z M166.1,35
	c0.8-0.2,1.5-0.7,1.9-1.3l50.1,28.9c-0.2,0.4-0.3,0.8-0.3,1.2c0,1.6,1.2,2.9,2.8,3.1v57.5c-0.9,0.1-1.6,0.6-2.2,1.2l-50.1-28.9
	c0.1-0.3,0.2-0.7,0.2-1.1c0-1.5-1-2.7-2.4-3.1V35z M168,97.4l50.1,28.9c-0.2,0.4-0.3,0.8-0.3,1.2c0,0.4,0.1,0.9,0.3,1.2L168,157.7
	c-0.6-0.9-1.5-1.4-2.6-1.4c-1,0-1.8,0.4-2.4,1.1l-49.5-28.6c0.2-0.4,0.3-0.8,0.3-1.2c0-0.4-0.1-0.9-0.3-1.2l49.5-28.6
	c0.6,0.7,1.4,1.1,2.4,1.1C166.5,98.9,167.4,98.3,168,97.4z M165.4,35.1C165.4,35.1,165.4,35.1,165.4,35.1l0,57.5c0,0,0,0,0,0
	c-1.7,0-3.2,1.4-3.2,3.2c0,0.5,0.1,1,0.3,1.4L113,125.7c-0.5-0.7-1.3-1.1-2.2-1.2V66.9c1.6-0.2,2.8-1.5,2.8-3.1
	c0-0.4-0.1-0.9-0.3-1.2l49.5-28.6C163.5,34.6,164.4,35.1,165.4,35.1z M57.8,30.8L108,1.9c0.6,0.8,1.5,1.3,2.5,1.3
	c1,0,1.9-0.5,2.5-1.3l49.5,28.6c-0.2,0.4-0.3,0.9-0.3,1.4s0.1,1,0.3,1.4L113,61.9c-0.6-0.8-1.5-1.3-2.5-1.3c-1,0-1.9,0.5-2.5,1.3
	L57.8,33c0.1-0.3,0.2-0.7,0.2-1.1C58,31.5,58,31.2,57.8,30.8z M55.6,35c0.8-0.2,1.5-0.7,1.9-1.3l50.1,28.9c-0.2,0.4-0.3,0.8-0.3,1.2
	c0,1.6,1.2,2.9,2.8,3.1v57.5c-0.9,0.1-1.6,0.6-2.2,1.2L57.8,96.7c0.1-0.3,0.2-0.7,0.2-1.1c0-1.5-1-2.7-2.4-3.1V35z M57.5,97.4
	l50.1,28.9c-0.2,0.4-0.3,0.8-0.3,1.2c0,0.4,0.1,0.9,0.3,1.2l-50.1,28.9c-0.6-0.9-1.5-1.4-2.6-1.4c-1,0-1.8,0.4-2.4,1.1L2.9,128.8
	c0.2-0.4,0.3-0.8,0.3-1.2c0-0.4-0.1-0.9-0.3-1.2l49.5-28.6c0.6,0.7,1.4,1.1,2.4,1.1C56,98.9,56.9,98.3,57.5,97.4z M0.4,66.9
	c1.6-0.2,2.8-1.5,2.8-3.1c0-0.4-0.1-0.9-0.3-1.2l49.5-28.6c0.6,0.7,1.4,1.1,2.4,1.1c0,0,0,0,0,0v57.5c0,0,0,0,0,0
	c-1.7,0-3.2,1.4-3.2,3.2c0,0.5,0.1,1,0.3,1.4L2.5,125.7c-0.5-0.7-1.3-1.1-2.2-1.2V66.9z M2.9,192.6c0.2-0.4,0.3-0.8,0.3-1.2
	c0-1.6-1.2-2.9-2.8-3.1v-57.5c0.9-0.1,1.6-0.6,2.2-1.2L52,158.1c-0.2,0.4-0.3,0.9-0.3,1.4c0,1.7,1.4,3.2,3.2,3.2c0,0,0,0,0,0v57.5
	c0,0,0,0,0,0c-1,0-1.8,0.4-2.4,1.1L2.9,192.6z M3.2,255.2c0-0.4-0.1-0.9-0.3-1.2l49.5-28.6c0.6,0.7,1.4,1.1,2.4,1.1c0,0,0,0,0,0
	v57.5c0,0,0,0,0,0c-1.7,0-3.2,1.4-3.2,3.2c0,0.5,0.1,1,0.3,1.4L2.5,317.1c-0.5-0.7-1.3-1.1-2.2-1.2l0-57.5
	C1.9,258.1,3.2,256.8,3.2,255.2z M2.9,384c0.2-0.4,0.3-0.8,0.3-1.2c0-1.6-1.2-2.9-2.8-3.1l0-57.5c0.9-0.1,1.6-0.6,2.2-1.2L52,349.4
	c-0.2,0.4-0.3,0.9-0.3,1.4c0,1.7,1.4,3.2,3.2,3.2c0,0,0,0,0,0l0,57.5c0,0,0,0,0,0c-1,0-1.8,0.4-2.4,1.1L2.9,384z M2.5,508.4
	c-0.5-0.7-1.3-1.1-2.2-1.2l0-57.5c1.6-0.2,2.8-1.5,2.8-3.1c0-0.4-0.1-0.9-0.3-1.2l49.5-28.6c0.6,0.7,1.4,1.1,2.4,1.1c0,0,0,0,0,0
	l0,57.5c0,0,0,0,0,0c-1.7,0-3.2,1.4-3.2,3.2c0,0.5,0.1,1,0.3,1.4L2.5,508.4z M107.6,511.6l-50.1,28.9c-0.6-0.9-1.5-1.4-2.6-1.4
	c-1,0-1.8,0.4-2.4,1.1L2.9,511.6c0.2-0.4,0.3-0.8,0.3-1.2c0-0.4-0.1-0.9-0.3-1.2l49.5-28.6c0.6,0.7,1.4,1.1,2.4,1.1
	c1.1,0,2.1-0.6,2.6-1.4l50.1,28.9c-0.2,0.4-0.3,0.8-0.3,1.2C107.3,510.8,107.4,511.2,107.6,511.6z M108,508.4l-50.1-28.9
	c0.1-0.3,0.2-0.7,0.2-1.1c0-1.5-1-2.7-2.4-3.1l0-57.7c0.8-0.2,1.5-0.7,1.9-1.3l50.1,28.9c-0.2,0.4-0.3,0.8-0.3,1.2
	c0,1.6,1.2,2.9,2.8,3.1l0,57.5C109.2,507.3,108.5,507.8,108,508.4z M110.5,443.4c-1,0-1.9,0.5-2.5,1.3l-50.1-28.9
	c0.1-0.3,0.2-0.7,0.2-1.1c0-0.4-0.1-0.7-0.2-1.1l50.1-28.9c0.6,0.8,1.5,1.3,2.5,1.3c1,0,1.9-0.5,2.5-1.3l49.5,28.6
	c-0.2,0.4-0.3,0.9-0.3,1.4c0,0.5,0.1,1,0.3,1.4L113,444.7C112.4,443.9,111.5,443.4,110.5,443.4z M113,508.4
	c-0.5-0.7-1.3-1.1-2.2-1.2l0-57.5c1.6-0.2,2.8-1.5,2.8-3.1c0-0.4-0.1-0.9-0.3-1.2l49.5-28.6c0.6,0.7,1.4,1.1,2.4,1.1c0,0,0,0,0,0
	l0,57.5c0,0,0,0,0,0c-1.7,0-3.2,1.4-3.2,3.2c0,0.5,0.1,1,0.3,1.4L113,508.4z M218.1,511.6L168,540.5c-0.6-0.9-1.5-1.4-2.6-1.4
	c-1,0-1.8,0.4-2.4,1.1l-49.5-28.6c0.2-0.4,0.3-0.8,0.3-1.2c0-0.4-0.1-0.9-0.3-1.2l49.5-28.6c0.6,0.7,1.4,1.1,2.4,1.1
	c1.1,0,2.1-0.6,2.6-1.4l50.1,28.9c-0.2,0.4-0.3,0.8-0.3,1.2C217.8,510.8,217.9,511.2,218.1,511.6z M218.5,508.4l-50.1-28.9
	c0.1-0.3,0.2-0.7,0.2-1.1c0-1.5-1-2.7-2.4-3.1l0-57.7c0.8-0.2,1.5-0.7,1.9-1.3l50.1,28.9c-0.2,0.4-0.3,0.8-0.3,1.2
	c0,1.6,1.2,2.9,2.8,3.1l0,57.5C219.7,507.3,219,507.8,218.5,508.4z M221,443.4c-1,0-1.9,0.5-2.5,1.3l-50.1-28.9
	c0.1-0.3,0.2-0.7,0.2-1.1c0-0.4-0.1-0.7-0.2-1.1l50.1-28.9c0.6,0.8,1.5,1.3,2.5,1.3c1,0,1.9-0.5,2.5-1.3l49.5,28.6
	c-0.2,0.4-0.3,0.9-0.3,1.4c0,0.5,0.1,1,0.3,1.4l-49.5,28.6C222.9,443.9,222,443.4,221,443.4z M223.5,508.4c-0.5-0.7-1.3-1.1-2.2-1.2
	l0-57.5c1.6-0.2,2.8-1.5,2.8-3.1c0-0.4-0.1-0.9-0.3-1.2l49.5-28.6c0.6,0.7,1.4,1.1,2.4,1.1c0,0,0,0,0,0l0,57.5c0,0,0,0,0,0
	c-1.7,0-3.2,1.4-3.2,3.2c0,0.5,0.1,1,0.3,1.4L223.5,508.4z M328.6,511.6l-50.1,28.9c-0.6-0.9-1.5-1.4-2.6-1.4c-1,0-1.8,0.4-2.4,1.1
	l-49.5-28.6c0.2-0.4,0.3-0.8,0.3-1.2c0-0.4-0.1-0.9-0.3-1.2l49.5-28.6c0.6,0.7,1.4,1.1,2.4,1.1c1.1,0,2.1-0.6,2.6-1.4l50.1,28.9
	c-0.2,0.4-0.3,0.8-0.3,1.2C328.3,510.8,328.4,511.2,328.6,511.6z M328.9,508.4l-50.1-28.9c0.1-0.3,0.2-0.7,0.2-1.1
	c0-1.5-1-2.7-2.4-3.1l0-57.7c0.8-0.2,1.5-0.7,1.9-1.3l50.1,28.9c-0.2,0.4-0.3,0.8-0.3,1.2c0,1.6,1.2,2.9,2.8,3.1l0,57.5
	C330.2,507.3,329.5,507.8,328.9,508.4z M331.5,443.4c-1,0-1.9,0.5-2.5,1.3l-50.1-28.9c0.1-0.3,0.2-0.7,0.2-1.1
	c0-0.4-0.1-0.7-0.2-1.1l50.1-28.9c0.6,0.8,1.5,1.3,2.5,1.3c1,0,1.9-0.5,2.5-1.3l49.5,28.6c-0.2,0.4-0.3,0.9-0.3,1.4
	c0,0.5,0.1,1,0.3,1.4L334,444.7C333.4,443.9,332.5,443.4,331.5,443.4z M334,508.4c-0.5-0.7-1.3-1.1-2.2-1.2l0-57.5
	c1.6-0.2,2.8-1.5,2.8-3.1c0-0.4-0.1-0.9-0.3-1.2l49.5-28.6c0.6,0.7,1.4,1.1,2.4,1.1c0,0,0,0,0,0l0,57.5c0,0,0,0,0,0
	c-1.7,0-3.2,1.4-3.2,3.2c0,0.5,0.1,1,0.3,1.4L334,508.4z M439.1,511.6L389,540.5c-0.6-0.9-1.5-1.4-2.6-1.4c-1,0-1.8,0.4-2.4,1.1
	l-49.5-28.6c0.2-0.4,0.3-0.8,0.3-1.2c0-0.4-0.1-0.9-0.3-1.2l49.5-28.6c0.6,0.7,1.4,1.1,2.4,1.1c1.1,0,2.1-0.6,2.6-1.4l50.1,28.9
	c-0.2,0.4-0.3,0.8-0.3,1.2C438.8,510.8,438.9,511.2,439.1,511.6z M439.4,508.4l-50.1-28.9c0.1-0.3,0.2-0.7,0.2-1.1
	c0-1.5-1-2.7-2.4-3.1l0-57.7c0.8-0.2,1.5-0.7,1.9-1.3l50.1,28.9c-0.2,0.4-0.3,0.8-0.3,1.2c0,1.6,1.2,2.9,2.8,3.1l0,57.5
	C440.7,507.3,439.9,507.8,439.4,508.4z M442,443.4c-1,0-1.9,0.5-2.5,1.3l-50.1-28.9c0.1-0.3,0.2-0.7,0.2-1.1c0-0.4-0.1-0.7-0.2-1.1
	l50.1-28.9c0.6,0.8,1.5,1.3,2.5,1.3c1,0,1.9-0.5,2.5-1.3l49.5,28.6c-0.2,0.4-0.3,0.9-0.3,1.4c0,0.5,0.1,1,0.3,1.4l-49.5,28.6
	C443.9,443.9,443,443.4,442,443.4z M444.5,508.4c-0.5-0.7-1.3-1.1-2.2-1.2l0-57.5c1.6-0.2,2.8-1.5,2.8-3.1c0-0.4-0.1-0.9-0.3-1.2
	l49.5-28.6c0.6,0.7,1.4,1.1,2.4,1.1c0,0,0,0,0,0l0,57.5c0,0,0,0,0,0c-1.7,0-3.2,1.4-3.2,3.2c0,0.5,0.1,1,0.3,1.4L444.5,508.4z
	 M549.5,511.6l-50.1,28.9c-0.6-0.9-1.5-1.4-2.6-1.4c-1,0-1.8,0.4-2.4,1.1l-49.5-28.6c0.2-0.4,0.3-0.8,0.3-1.2c0-0.4-0.1-0.9-0.3-1.2
	l49.5-28.6c0.6,0.7,1.4,1.1,2.4,1.1c1.1,0,2.1-0.6,2.6-1.4l50.1,28.9c-0.2,0.4-0.3,0.8-0.3,1.2C549.3,510.8,549.4,511.2,549.5,511.6
	z M549.5,445.3c-0.2,0.4-0.3,0.8-0.3,1.2c0,1.6,1.2,2.9,2.8,3.1l0,57.5c-0.9,0.1-1.6,0.6-2.2,1.2l-50.1-28.9
	c0.1-0.3,0.2-0.7,0.2-1.1c0-1.5-1-2.7-2.4-3.1l0-57.7c0.8-0.2,1.5-0.7,1.9-1.3L549.5,445.3z M552.1,379.6c-1.6,0.2-2.8,1.5-2.8,3.1
	c0,0.4,0.1,0.9,0.3,1.2l-50.1,28.9c-0.4-0.7-1.1-1.1-1.9-1.3l0-57.7c1.4-0.3,2.4-1.6,2.4-3.1c0-0.4-0.1-0.7-0.2-1.1l50.1-28.9
	c0.5,0.7,1.3,1.1,2.2,1.2L552.1,379.6z M549.5,253.9c-0.2,0.4-0.3,0.8-0.3,1.2c0,1.6,1.2,2.9,2.8,3.1l0,57.5
	c-0.9,0.1-1.6,0.6-2.2,1.2l-50.1-28.9c0.1-0.3,0.2-0.7,0.2-1.1c0-1.5-1-2.7-2.4-3.1v-57.7c0.8-0.2,1.5-0.7,1.9-1.3L549.5,253.9z
	 M552.1,188.2c-1.6,0.2-2.8,1.5-2.8,3.1c0,0.4,0.1,0.9,0.3,1.2l-50.1,28.9c-0.4-0.7-1.1-1.1-1.9-1.3v-57.7c1.4-0.3,2.4-1.6,2.4-3.1
	c0-0.4-0.1-0.7-0.2-1.1l50.1-28.9c0.5,0.7,1.3,1.1,2.2,1.2V188.2z M549.5,62.5c-0.2,0.4-0.3,0.8-0.3,1.2c0,1.6,1.2,2.9,2.8,3.1v57.5
	c-0.9,0.1-1.6,0.6-2.2,1.2l-50.1-28.9c0.1-0.3,0.2-0.7,0.2-1.1c0-1.5-1-2.7-2.4-3.1V35c0.8-0.2,1.5-0.7,1.9-1.3L549.5,62.5z"/>
</svg>
