<?xml version="1.0" encoding="utf-8"?>
<!-- Generator: Adobe Illustrator 18.0.0, SVG Export Plug-In . SVG Version: 6.00 Build 0)  -->
<!DOCTYPE svg PUBLIC "-//W3C//DTD SVG 1.1//EN" "http://www.w3.org/Graphics/SVG/1.1/DTD/svg11.dtd">
<svg version="1.1" id="Layer_1" xmlns="http://www.w3.org/2000/svg" xmlns:xlink="http://www.w3.org/1999/xlink" x="0px" y="0px"
	 viewBox="0 0 1130.6 587.9" enable-background="new 0 0 1130.6 587.9" xml:space="preserve">
<path opacity="0.41" fill="#D0E2DF" d="M565.7,3.2V0h-3.2c0,0.5,0.1,0.9,0.3,1.3l-51.3,29.6c-0.4-0.7-1.1-1.2-1.9-1.4V0h-0.8v29.4
	c0,0,0,0,0,0c-1,0-1.9,0.5-2.5,1.2L455.5,1.3c0.2-0.4,0.3-0.8,0.3-1.3h-6.5c0,0.5,0.1,0.9,0.3,1.3l-51.3,29.6
	c-0.4-0.7-1.1-1.2-1.9-1.4V0h-0.8v29.4c0,0,0,0,0,0c-1,0-1.9,0.5-2.5,1.2L342.4,1.3c0.2-0.4,0.3-0.8,0.3-1.3h-6.5
	c0,0.5,0.1,0.9,0.3,1.3l-51.3,29.6c-0.4-0.7-1.1-1.2-1.9-1.4V0h-0.8v29.4c0,0,0,0,0,0c-1,0-1.9,0.5-2.5,1.2L229.3,1.3
	c0.2-0.4,0.3-0.8,0.3-1.3H223c0,0.5,0.1,0.9,0.3,1.3L172,30.9c-0.4-0.7-1.1-1.2-1.9-1.4V0h-0.8v29.4c0,0,0,0,0,0
	c-1,0-1.9,0.5-2.5,1.2L116.1,1.3c0.2-0.4,0.3-0.8,0.3-1.3h-6.5c0,0.5,0.1,0.9,0.3,1.3L58.9,30.9c-0.4-0.7-1.1-1.2-1.9-1.4V0h-0.8
	v29.4c0,0,0,0,0,0c-1,0-1.9,0.5-2.5,1.2L3,1.3C3.2,0.9,3.3,0.5,3.3,0H0v3.2c1.1,0,2-0.5,2.6-1.3l50.7,29.3c-0.2,0.4-0.4,0.9-0.4,1.5
	s0.1,1,0.4,1.5L2.6,63.4C2,62.6,1.1,62.1,0,62.1v137.1c1.1,0,2-0.5,2.6-1.3l50.7,29.3c-0.2,0.4-0.4,0.9-0.4,1.5c0,0.5,0.1,1,0.4,1.4
	L2.6,259.3C2,258.5,1.1,258,0,258v137.1c1.1,0,2-0.5,2.6-1.3l50.7,29.3c-0.2,0.4-0.4,0.9-0.4,1.5c0,0.5,0.1,1,0.4,1.4L2.6,455.3
	C2,454.5,1.1,454,0,454v133.9h3.2c0-1.7-1.3-3-2.9-3.2l0-58.9c0.9-0.1,1.7-0.6,2.2-1.3l50.7,29.3c-0.2,0.4-0.4,0.9-0.4,1.5
	c0,1.8,1.5,3.2,3.2,3.2c0,0,0,0,0,0v29.4H57v-29.5c1.4-0.4,2.5-1.6,2.5-3.1c0-0.4-0.1-0.7-0.2-1.1l51.3-29.6
	c0.5,0.7,1.3,1.2,2.2,1.3l0,58.9c-1.6,0.2-2.9,1.5-2.9,3.2h6.5c0-1.7-1.3-3-2.9-3.2l0-58.9c0.9-0.1,1.7-0.6,2.2-1.3l50.7,29.3
	c-0.2,0.4-0.4,0.9-0.4,1.5c0,1.8,1.5,3.2,3.2,3.2c0,0,0,0,0,0v29.4h0.8v-29.5c1.4-0.4,2.5-1.6,2.5-3.1c0-0.4-0.1-0.7-0.2-1.1
	l51.3-29.6c0.5,0.7,1.3,1.2,2.2,1.3l0,58.9c-1.6,0.2-2.9,1.5-2.9,3.2h6.5c0-1.7-1.3-3-2.9-3.2l0-58.9c0.9-0.1,1.7-0.6,2.2-1.3
	l50.7,29.3c-0.2,0.4-0.4,0.9-0.4,1.5c0,1.8,1.5,3.2,3.2,3.2c0,0,0,0,0,0l0,29.4h0.8l0-29.5c1.4-0.4,2.5-1.6,2.5-3.1
	c0-0.4-0.1-0.7-0.2-1.1l51.3-29.6c0.5,0.7,1.3,1.2,2.2,1.3l0,58.9c-1.6,0.2-2.9,1.5-2.9,3.2h6.5c0-1.7-1.3-3-2.9-3.2l0-58.9
	c0.9-0.1,1.7-0.6,2.2-1.3l50.7,29.3c-0.2,0.4-0.4,0.9-0.4,1.5c0,1.8,1.5,3.2,3.2,3.2c0,0,0,0,0,0v29.4h0.8v-29.5
	c1.4-0.4,2.5-1.6,2.5-3.1c0-0.4-0.1-0.7-0.2-1.1l51.3-29.6c0.5,0.7,1.3,1.2,2.2,1.3l0,58.9c-1.6,0.2-2.9,1.5-2.9,3.2h6.5
	c0-1.7-1.3-3-2.9-3.2l0-58.9c0.9-0.1,1.7-0.6,2.2-1.3l50.7,29.3c-0.2,0.4-0.4,0.9-0.4,1.5c0,1.8,1.5,3.2,3.2,3.2c0,0,0,0,0,0v29.4
	h0.8v-29.5c1.4-0.4,2.5-1.6,2.5-3.1c0-0.4-0.1-0.7-0.2-1.1l51.3-29.6c0.5,0.7,1.3,1.2,2.2,1.3l0,58.9c-1.6,0.2-2.9,1.5-2.9,3.2h3.2
	V454c-1.1,0-2,0.5-2.6,1.3l-51.3-29.6c0.1-0.3,0.2-0.7,0.2-1.1c0-0.4-0.1-0.7-0.2-1.1l51.3-29.6c0.6,0.8,1.5,1.3,2.6,1.3V258
	c-1.1,0-2,0.5-2.6,1.3l-51.3-29.6c0.1-0.3,0.2-0.7,0.2-1.1c0-0.4-0.1-0.7-0.2-1.1l51.3-29.6c0.6,0.8,1.5,1.3,2.6,1.3V62.1
	c-1.1,0-2,0.5-2.6,1.3l-51.3-29.6c0.1-0.3,0.2-0.7,0.2-1.1c0-0.4-0.1-0.7-0.2-1.1l51.3-29.6C563.7,2.7,564.6,3.2,565.7,3.2z
	 M511.4,99.8l51.3,29.6c-0.2,0.4-0.3,0.8-0.3,1.3c0,0.5,0.1,0.9,0.3,1.3l-51.3,29.6c-0.6-0.9-1.6-1.5-2.7-1.5c-1,0-1.9,0.5-2.5,1.2
	l-50.7-29.3c0.2-0.4,0.3-0.8,0.3-1.3c0-0.5-0.1-0.9-0.3-1.3l50.7-29.3c0.6,0.7,1.5,1.2,2.5,1.2C509.9,101.2,510.9,100.6,511.4,99.8z
	 M562.7,327.9l-51.3,29.6c-0.6-0.9-1.6-1.5-2.7-1.5c-1,0-1.9,0.5-2.5,1.2l-50.7-29.3c0.2-0.4,0.3-0.8,0.3-1.3s-0.1-0.9-0.3-1.3
	l50.7-29.3c0.6,0.7,1.5,1.2,2.5,1.2c1.1,0,2.1-0.6,2.7-1.5l51.3,29.6c-0.2,0.4-0.3,0.8-0.3,1.3C562.4,327,562.5,327.5,562.7,327.9z
	 M452.9,388.7l0-58.9c0.9-0.1,1.7-0.6,2.2-1.3l50.7,29.3c-0.2,0.4-0.4,0.9-0.4,1.5c0,1.8,1.5,3.2,3.2,3.2c0,0,0,0,0,0l0,58.8
	c0,0,0,0,0,0c-1,0-1.9,0.5-2.5,1.2l-50.7-29.3c0.2-0.4,0.3-0.8,0.3-1.3C455.8,390.2,454.5,388.9,452.9,388.7z M449.6,393.2
	l-51.3,29.6c-0.4-0.7-1.1-1.2-1.9-1.4l0-59c1.4-0.4,2.5-1.6,2.5-3.1c0-0.4-0.1-0.7-0.2-1.1l51.3-29.6c0.5,0.7,1.3,1.2,2.2,1.3
	l0,58.9c-1.6,0.2-2.9,1.5-2.9,3.2C449.3,392.4,449.4,392.8,449.6,393.2z M339.8,388.7l0-58.9c0.9-0.1,1.7-0.6,2.2-1.3l50.7,29.3
	c-0.2,0.4-0.4,0.9-0.4,1.5c0,1.8,1.5,3.2,3.2,3.2c0,0,0,0,0,0l0,58.8c0,0,0,0,0,0c-1,0-1.9,0.5-2.5,1.2l-50.7-29.3
	c0.2-0.4,0.3-0.8,0.3-1.3C342.7,390.2,341.4,388.9,339.8,388.7z M336.4,393.2l-51.3,29.6c-0.4-0.7-1.1-1.2-1.9-1.4l0-59
	c1.4-0.4,2.5-1.6,2.5-3.1c0-0.4-0.1-0.7-0.2-1.1l51.3-29.6c0.5,0.7,1.3,1.2,2.2,1.3l0,58.9c-1.6,0.2-2.9,1.5-2.9,3.2
	C336.2,392.4,336.3,392.8,336.4,393.2z M226.7,388.7l0-58.9c0.9-0.1,1.7-0.6,2.2-1.3l50.7,29.3c-0.2,0.4-0.4,0.9-0.4,1.5
	c0,1.8,1.5,3.2,3.2,3.2c0,0,0,0,0,0l0,58.8c0,0,0,0,0,0c-1,0-1.9,0.5-2.5,1.2l-50.7-29.3c0.2-0.4,0.3-0.8,0.3-1.3
	C229.5,390.2,228.3,388.9,226.7,388.7z M223.3,393.2L172,422.8c-0.4-0.7-1.1-1.2-1.9-1.4l0-59c1.4-0.4,2.5-1.6,2.5-3.1
	c0-0.4-0.1-0.7-0.2-1.1l51.3-29.6c0.5,0.7,1.3,1.2,2.2,1.3l0,58.9c-1.6,0.2-2.9,1.5-2.9,3.2C223,392.4,223.1,392.8,223.3,393.2z
	 M113.5,388.7l0-58.9c0.9-0.1,1.7-0.6,2.2-1.3l50.7,29.3c-0.2,0.4-0.4,0.9-0.4,1.5c0,1.8,1.5,3.2,3.2,3.2c0,0,0,0,0,0l0,58.8
	c0,0,0,0,0,0c-1,0-1.9,0.5-2.5,1.2l-50.7-29.3c0.2-0.4,0.3-0.8,0.3-1.3C116.4,390.2,115.1,388.9,113.5,388.7z M110.2,393.2
	l-51.3,29.6c-0.4-0.7-1.1-1.2-1.9-1.4l0-59c1.4-0.4,2.5-1.6,2.5-3.1c0-0.4-0.1-0.7-0.2-1.1l51.3-29.6c0.5,0.7,1.3,1.2,2.2,1.3
	l0,58.9c-1.6,0.2-2.9,1.5-2.9,3.2C109.9,392.4,110,392.8,110.2,393.2z M3,325.3L53.7,296c0.6,0.7,1.5,1.2,2.5,1.2
	c1.1,0,2.1-0.6,2.7-1.5l51.3,29.6c-0.2,0.4-0.3,0.8-0.3,1.3s0.1,0.9,0.3,1.3l-51.3,29.6c-0.6-0.9-1.6-1.5-2.7-1.5
	c-1,0-1.9,0.5-2.5,1.2L3,327.9c0.2-0.4,0.3-0.8,0.3-1.3S3.2,325.7,3,325.3z M110.6,324.6L59.2,295c0.1-0.3,0.2-0.7,0.2-1.1
	c0-1.5-1.1-2.8-2.5-3.1v-59c0.8-0.2,1.5-0.7,1.9-1.4l51.3,29.6c-0.2,0.4-0.3,0.8-0.3,1.3c0,1.7,1.3,3,2.9,3.2l0,58.9
	C111.9,323.5,111.1,324,110.6,324.6z M59.2,162.2l51.3-29.6c0.5,0.7,1.3,1.2,2.2,1.3v58.9c-1.6,0.2-2.9,1.5-2.9,3.2
	c0,0.5,0.1,0.9,0.3,1.3l-51.3,29.6c-0.4-0.7-1.1-1.2-1.9-1.4v-59c1.4-0.3,2.5-1.6,2.5-3.1C59.4,162.9,59.4,162.5,59.2,162.2z
	 M110.6,259.3l-51.3-29.6c0.1-0.3,0.2-0.7,0.2-1.1c0-0.4-0.1-0.7-0.2-1.1l51.3-29.6c0.6,0.8,1.5,1.3,2.6,1.3c1.1,0,2-0.5,2.6-1.3
	l50.7,29.3c-0.2,0.4-0.4,0.9-0.4,1.5c0,0.5,0.1,1,0.4,1.4l-50.7,29.3c-0.6-0.8-1.5-1.3-2.6-1.3C112.1,258,111.2,258.5,110.6,259.3z
	 M169.3,166.5C169.3,166.5,169.3,166.5,169.3,166.5l0,58.8c0,0,0,0,0,0c-1,0-1.9,0.5-2.5,1.2l-50.7-29.3c0.2-0.4,0.3-0.8,0.3-1.3
	c0-1.7-1.3-3-2.9-3.2v-58.9c0.9-0.1,1.7-0.6,2.2-1.3l50.7,29.3c-0.2,0.4-0.4,0.9-0.4,1.5C166.1,165.1,167.5,166.5,169.3,166.5z
	 M166.4,295.4l-50.7,29.3c-0.5-0.7-1.3-1.2-2.2-1.3l0-58.9c1.6-0.2,2.9-1.5,2.9-3.2c0-0.5-0.1-0.9-0.3-1.3l50.7-29.3
	c0.6,0.7,1.5,1.2,2.5,1.2c0,0,0,0,0,0v58.8c0,0,0,0,0,0c-1.8,0-3.2,1.5-3.2,3.2C166.1,294.5,166.2,294.9,166.4,295.4z M169.3,356
	c-1,0-1.9,0.5-2.5,1.2l-50.7-29.3c0.2-0.4,0.3-0.8,0.3-1.3s-0.1-0.9-0.3-1.3l50.7-29.3c0.6,0.7,1.5,1.2,2.5,1.2
	c1.1,0,2.1-0.6,2.7-1.5l51.3,29.6c-0.2,0.4-0.3,0.8-0.3,1.3s0.1,0.9,0.3,1.3L172,357.5C171.5,356.6,170.5,356,169.3,356z
	 M223.7,324.6L172.4,295c0.1-0.3,0.2-0.7,0.2-1.1c0-1.5-1.1-2.8-2.5-3.1v-59c0.8-0.2,1.5-0.7,1.9-1.4l51.3,29.6
	c-0.2,0.4-0.3,0.8-0.3,1.3c0,1.7,1.3,3,2.9,3.2l0,58.9C225,323.5,224.2,324,223.7,324.6z M172.4,162.2l51.3-29.6
	c0.5,0.7,1.3,1.2,2.2,1.3v58.9c-1.6,0.2-2.9,1.5-2.9,3.2c0,0.5,0.1,0.9,0.3,1.3L172,226.8c-0.4-0.7-1.1-1.2-1.9-1.4v-59
	c1.4-0.3,2.5-1.6,2.5-3.1C172.6,162.9,172.5,162.5,172.4,162.2z M223.7,259.3l-51.3-29.6c0.1-0.3,0.2-0.7,0.2-1.1
	c0-0.4-0.1-0.7-0.2-1.1l51.3-29.6c0.6,0.8,1.5,1.3,2.6,1.3c1.1,0,2-0.5,2.6-1.3l50.7,29.3c-0.2,0.4-0.4,0.9-0.4,1.5
	c0,0.5,0.1,1,0.4,1.4l-50.7,29.3c-0.6-0.8-1.5-1.3-2.6-1.3C225.2,258,224.3,258.5,223.7,259.3z M282.5,166.5
	C282.5,166.5,282.5,166.5,282.5,166.5l0,58.8c0,0,0,0,0,0c-1,0-1.9,0.5-2.5,1.2l-50.7-29.3c0.2-0.4,0.3-0.8,0.3-1.3
	c0-1.7-1.3-3-2.9-3.2v-58.9c0.9-0.1,1.7-0.6,2.2-1.3l50.7,29.3c-0.2,0.4-0.4,0.9-0.4,1.5C279.2,165.1,280.7,166.5,282.5,166.5z
	 M279.6,295.4l-50.7,29.3c-0.5-0.7-1.3-1.2-2.2-1.3l0-58.9c1.6-0.2,2.9-1.5,2.9-3.2c0-0.5-0.1-0.9-0.3-1.3l50.7-29.3
	c0.6,0.7,1.5,1.2,2.5,1.2c0,0,0,0,0,0v58.8c0,0,0,0,0,0c-1.8,0-3.2,1.5-3.2,3.2C279.2,294.5,279.4,294.9,279.6,295.4z M282.5,356
	c-1,0-1.9,0.5-2.5,1.2l-50.7-29.3c0.2-0.4,0.3-0.8,0.3-1.3s-0.1-0.9-0.3-1.3L280,296c0.6,0.7,1.5,1.2,2.5,1.2c1.1,0,2.1-0.6,2.7-1.5
	l51.3,29.6c-0.2,0.4-0.3,0.8-0.3,1.3c0,0.5,0.1,0.9,0.3,1.3l-51.3,29.6C284.6,356.6,283.6,356,282.5,356z M336.8,324.6L285.5,295
	c0.1-0.3,0.2-0.7,0.2-1.1c0-1.5-1.1-2.8-2.5-3.1v-59c0.8-0.2,1.5-0.7,1.9-1.4l51.3,29.6c-0.2,0.4-0.3,0.8-0.3,1.3
	c0,1.7,1.3,3,2.9,3.2l0,58.9C338.1,323.5,337.3,324,336.8,324.6z M285.5,162.2l51.3-29.6c0.5,0.7,1.3,1.2,2.2,1.3v58.9
	c-1.6,0.2-2.9,1.5-2.9,3.2c0,0.5,0.1,0.9,0.3,1.3l-51.3,29.6c-0.4-0.7-1.1-1.2-1.9-1.4v-59c1.4-0.3,2.5-1.6,2.5-3.1
	C285.7,162.9,285.6,162.5,285.5,162.2z M336.8,259.3l-51.3-29.6c0.1-0.3,0.2-0.7,0.2-1.1c0-0.4-0.1-0.7-0.2-1.1l51.3-29.6
	c0.6,0.8,1.5,1.3,2.6,1.3c1.1,0,2-0.5,2.6-1.3l50.7,29.3c-0.2,0.4-0.4,0.9-0.4,1.5c0,0.5,0.1,1,0.4,1.4L342,259.3
	c-0.6-0.8-1.5-1.3-2.6-1.3C338.4,258,337.4,258.5,336.8,259.3z M395.6,166.5C395.6,166.5,395.6,166.5,395.6,166.5l0,58.8
	c0,0,0,0,0,0c-1,0-1.9,0.5-2.5,1.2l-50.7-29.3c0.2-0.4,0.3-0.8,0.3-1.3c0-1.7-1.3-3-2.9-3.2v-58.9c0.9-0.1,1.7-0.6,2.2-1.3
	l50.7,29.3c-0.2,0.4-0.4,0.9-0.4,1.5C392.3,165.1,393.8,166.5,395.6,166.5z M392.7,295.4L342,324.7c-0.5-0.7-1.3-1.2-2.2-1.3l0-58.9
	c1.6-0.2,2.9-1.5,2.9-3.2c0-0.5-0.1-0.9-0.3-1.3l50.7-29.3c0.6,0.7,1.5,1.2,2.5,1.2c0,0,0,0,0,0v58.8c0,0,0,0,0,0
	c-1.8,0-3.2,1.5-3.2,3.2C392.3,294.5,392.5,294.9,392.7,295.4z M395.6,356c-1,0-1.9,0.5-2.5,1.2l-50.7-29.3c0.2-0.4,0.3-0.8,0.3-1.3
	s-0.1-0.9-0.3-1.3l50.7-29.3c0.6,0.7,1.5,1.2,2.5,1.2c1.1,0,2.1-0.6,2.7-1.5l51.3,29.6c-0.2,0.4-0.3,0.8-0.3,1.3
	c0,0.5,0.1,0.9,0.3,1.3l-51.3,29.6C397.7,356.6,396.7,356,395.6,356z M450,324.6L398.6,295c0.1-0.3,0.2-0.7,0.2-1.1
	c0-1.5-1.1-2.8-2.5-3.1v-59c0.8-0.2,1.5-0.7,1.9-1.4l51.3,29.6c-0.2,0.4-0.3,0.8-0.3,1.3c0,1.7,1.3,3,2.9,3.2l0,58.9
	C451.3,323.5,450.5,324,450,324.6z M398.6,162.2l51.3-29.6c0.5,0.7,1.3,1.2,2.2,1.3v58.9c-1.6,0.2-2.9,1.5-2.9,3.2
	c0,0.5,0.1,0.9,0.3,1.3l-51.3,29.6c-0.4-0.7-1.1-1.2-1.9-1.4v-59c1.4-0.3,2.5-1.6,2.5-3.1C398.8,162.9,398.8,162.5,398.6,162.2z
	 M450,259.3l-51.3-29.6c0.1-0.3,0.2-0.7,0.2-1.1c0-0.4-0.1-0.7-0.2-1.1l51.3-29.6c0.6,0.8,1.5,1.3,2.6,1.3s2-0.5,2.6-1.3l50.7,29.3
	c-0.2,0.4-0.4,0.9-0.4,1.5c0,0.5,0.1,1,0.4,1.4l-50.7,29.3c-0.6-0.8-1.5-1.3-2.6-1.3S450.6,258.5,450,259.3z M505.8,295.4
	l-50.7,29.3c-0.5-0.7-1.3-1.2-2.2-1.3l0-58.9c1.6-0.2,2.9-1.5,2.9-3.2c0-0.5-0.1-0.9-0.3-1.3l50.7-29.3c0.6,0.7,1.5,1.2,2.5,1.2
	c0,0,0,0,0,0v58.8c0,0,0,0,0,0c-1.8,0-3.2,1.5-3.2,3.2C505.5,294.5,505.6,294.9,505.8,295.4z M508.7,225.4
	C508.7,225.4,508.7,225.4,508.7,225.4c-1,0-1.9,0.5-2.5,1.2l-50.7-29.3c0.2-0.4,0.3-0.8,0.3-1.3c0-1.7-1.3-3-2.9-3.2v-58.9
	c0.9-0.1,1.7-0.6,2.2-1.3l50.7,29.3c-0.2,0.4-0.4,0.9-0.4,1.5c0,1.8,1.5,3.2,3.2,3.2c0,0,0,0,0,0V225.4z M508.7,35.9
	C508.7,35.9,508.7,35.9,508.7,35.9l0,58.8c0,0,0,0,0,0c-1.8,0-3.2,1.5-3.2,3.2c0,0.5,0.1,1,0.4,1.4l-50.7,29.3
	c-0.5-0.7-1.3-1.2-2.2-1.3V68.5c1.6-0.2,2.9-1.5,2.9-3.2c0-0.5-0.1-0.9-0.3-1.3l50.7-29.3C506.9,35.4,507.7,35.9,508.7,35.9z
	 M398.6,31.6L450,1.9c0.6,0.8,1.5,1.3,2.6,1.3c1.1,0,2-0.5,2.6-1.3l50.7,29.3c-0.2,0.4-0.4,0.9-0.4,1.5s0.1,1,0.4,1.4l-50.7,29.3
	c-0.6-0.8-1.5-1.3-2.6-1.3c-1.1,0-2,0.5-2.6,1.3l-51.3-29.6c0.1-0.3,0.2-0.7,0.2-1.1C398.8,32.3,398.8,31.9,398.6,31.6z M396.4,35.8
	c0.8-0.2,1.5-0.7,1.9-1.4L449.6,64c-0.2,0.4-0.3,0.8-0.3,1.3c0,1.7,1.3,3,2.9,3.2v58.9c-0.9,0.1-1.7,0.6-2.2,1.3l-51.3-29.6
	c0.1-0.3,0.2-0.7,0.2-1.1c0-1.5-1.1-2.8-2.5-3.1V35.8z M398.3,99.8l51.3,29.6c-0.2,0.4-0.3,0.8-0.3,1.3c0,0.5,0.1,0.9,0.3,1.3
	l-51.3,29.6c-0.6-0.9-1.6-1.5-2.7-1.5c-1,0-1.9,0.5-2.5,1.2l-50.7-29.3c0.2-0.4,0.3-0.8,0.3-1.3c0-0.5-0.1-0.9-0.3-1.3l50.7-29.3
	c0.6,0.7,1.5,1.2,2.5,1.2C396.7,101.2,397.7,100.6,398.3,99.8z M395.6,35.9C395.6,35.9,395.6,35.9,395.6,35.9l0,58.8c0,0,0,0,0,0
	c-1.8,0-3.2,1.5-3.2,3.2c0,0.5,0.1,1,0.4,1.4L342,128.7c-0.5-0.7-1.3-1.2-2.2-1.3V68.5c1.6-0.2,2.9-1.5,2.9-3.2
	c0-0.5-0.1-0.9-0.3-1.3l50.7-29.3C393.7,35.4,394.6,35.9,395.6,35.9z M285.5,31.6l51.3-29.6c0.6,0.8,1.5,1.3,2.6,1.3
	c1.1,0,2-0.5,2.6-1.3l50.7,29.3c-0.2,0.4-0.4,0.9-0.4,1.4s0.1,1,0.4,1.4L342,63.4c-0.6-0.8-1.5-1.3-2.6-1.3c-1.1,0-2,0.5-2.6,1.3
	l-51.3-29.6c0.1-0.3,0.2-0.7,0.2-1.1C285.7,32.3,285.6,31.9,285.5,31.6z M283.2,35.8c0.8-0.2,1.5-0.7,1.9-1.4L336.4,64
	c-0.2,0.4-0.3,0.8-0.3,1.3c0,1.7,1.3,3,2.9,3.2v58.9c-0.9,0.1-1.7,0.6-2.2,1.3l-51.3-29.6c0.1-0.3,0.2-0.7,0.2-1.1
	c0-1.5-1.1-2.8-2.5-3.1V35.8z M285.2,99.8l51.3,29.6c-0.2,0.4-0.3,0.8-0.3,1.3c0,0.5,0.1,0.9,0.3,1.3l-51.3,29.6
	c-0.6-0.9-1.6-1.5-2.7-1.5c-1,0-1.9,0.5-2.5,1.2l-50.7-29.3c0.2-0.4,0.3-0.8,0.3-1.3c0-0.5-0.1-0.9-0.3-1.3l50.7-29.3
	c0.6,0.7,1.5,1.2,2.5,1.2C283.6,101.2,284.6,100.6,285.2,99.8z M282.5,35.9C282.5,35.9,282.5,35.9,282.5,35.9l0,58.8c0,0,0,0,0,0
	c-1.8,0-3.2,1.5-3.2,3.2c0,0.5,0.1,1,0.4,1.4l-50.7,29.3c-0.5-0.7-1.3-1.2-2.2-1.3V68.5c1.6-0.2,2.9-1.5,2.9-3.2
	c0-0.5-0.1-0.9-0.3-1.3L280,34.7C280.6,35.4,281.5,35.9,282.5,35.9z M172.4,31.6l51.3-29.6c0.6,0.8,1.5,1.3,2.6,1.3
	c1.1,0,2-0.5,2.6-1.3l50.7,29.3c-0.2,0.4-0.4,0.9-0.4,1.5s0.1,1,0.4,1.5l-50.7,29.3c-0.6-0.8-1.5-1.3-2.6-1.3c-1.1,0-2,0.5-2.6,1.3
	l-51.3-29.6c0.1-0.3,0.2-0.7,0.2-1.1C172.6,32.3,172.5,31.9,172.4,31.6z M170.1,35.8c0.8-0.2,1.5-0.7,1.9-1.4L223.3,64
	c-0.2,0.4-0.3,0.8-0.3,1.3c0,1.7,1.3,3,2.9,3.2v58.9c-0.9,0.1-1.7,0.6-2.2,1.3l-51.3-29.6c0.1-0.3,0.2-0.7,0.2-1.1
	c0-1.5-1.1-2.8-2.5-3.1V35.8z M172,99.8l51.3,29.6c-0.2,0.4-0.3,0.8-0.3,1.3c0,0.5,0.1,0.9,0.3,1.3L172,161.5
	c-0.6-0.9-1.6-1.5-2.7-1.5c-1,0-1.9,0.5-2.5,1.2l-50.7-29.3c0.2-0.4,0.3-0.8,0.3-1.3c0-0.5-0.1-0.9-0.3-1.3l50.7-29.3
	c0.6,0.7,1.5,1.2,2.5,1.2C170.5,101.2,171.5,100.6,172,99.8z M169.3,35.9C169.3,35.9,169.3,35.9,169.3,35.9l0,58.8c0,0,0,0,0,0
	c-1.8,0-3.2,1.5-3.2,3.2c0,0.5,0.1,1,0.4,1.4l-50.7,29.3c-0.5-0.7-1.3-1.2-2.2-1.3V68.5c1.6-0.2,2.9-1.5,2.9-3.2
	c0-0.5-0.1-0.9-0.3-1.3l50.7-29.3C167.5,35.4,168.3,35.9,169.3,35.9z M59.2,31.6l51.3-29.6c0.6,0.8,1.5,1.3,2.6,1.3
	c1.1,0,2-0.5,2.6-1.3l50.7,29.3c-0.2,0.4-0.4,0.9-0.4,1.5s0.1,1,0.4,1.5l-50.7,29.3c-0.6-0.8-1.5-1.3-2.6-1.3c-1.1,0-2,0.5-2.6,1.3
	L59.2,33.7c0.1-0.3,0.2-0.7,0.2-1.1C59.4,32.3,59.4,31.9,59.2,31.6z M57,35.8c0.8-0.2,1.5-0.7,1.9-1.4L110.2,64
	c-0.2,0.4-0.3,0.8-0.3,1.3c0,1.7,1.3,3,2.9,3.2v58.9c-0.9,0.1-1.7,0.6-2.2,1.3L59.2,99.1c0.1-0.3,0.2-0.7,0.2-1.1
	c0-1.5-1.1-2.8-2.5-3.1V35.8z M58.9,99.8l51.3,29.6c-0.2,0.4-0.3,0.8-0.3,1.3c0,0.5,0.1,0.9,0.3,1.3l-51.3,29.6
	c-0.6-0.9-1.6-1.5-2.7-1.5c-1,0-1.9,0.5-2.5,1.2L3,131.9c0.2-0.4,0.3-0.8,0.3-1.3c0-0.5-0.1-0.9-0.3-1.3l50.7-29.3
	c0.6,0.7,1.5,1.2,2.5,1.2C57.3,101.2,58.3,100.6,58.9,99.8z M0.4,68.5C2,68.3,3.3,67,3.3,65.3c0-0.5-0.1-0.9-0.3-1.3l50.7-29.3
	c0.6,0.7,1.5,1.2,2.5,1.2c0,0,0,0,0,0v58.8c0,0,0,0,0,0c-1.8,0-3.2,1.5-3.2,3.2c0,0.5,0.1,1,0.4,1.4L2.6,128.7
	c-0.5-0.7-1.3-1.2-2.2-1.3V68.5z M3,197.2c0.2-0.4,0.3-0.8,0.3-1.3c0-1.7-1.3-3-2.9-3.2v-58.9c0.9-0.1,1.7-0.6,2.2-1.3l50.7,29.3
	c-0.2,0.4-0.4,0.9-0.4,1.5c0,1.8,1.5,3.2,3.2,3.2c0,0,0,0,0,0v58.8c0,0,0,0,0,0c-1,0-1.9,0.5-2.5,1.2L3,197.2z M3.3,261.3
	c0-0.5-0.1-0.9-0.3-1.3l50.7-29.3c0.6,0.7,1.5,1.2,2.5,1.2c0,0,0,0,0,0v58.8c0,0,0,0,0,0c-1.8,0-3.2,1.5-3.2,3.2
	c0,0.5,0.1,1,0.4,1.4L2.6,324.6c-0.5-0.7-1.3-1.2-2.2-1.3l0-58.9C2,264.3,3.3,262.9,3.3,261.3z M3,393.2c0.2-0.4,0.3-0.8,0.3-1.3
	c0-1.7-1.3-3-2.9-3.2l0-58.9c0.9-0.1,1.7-0.6,2.2-1.3l50.7,29.3c-0.2,0.4-0.4,0.9-0.4,1.5c0,1.8,1.5,3.2,3.2,3.2c0,0,0,0,0,0l0,58.8
	c0,0,0,0,0,0c-1,0-1.9,0.5-2.5,1.2L3,393.2z M2.6,520.6c-0.5-0.7-1.3-1.2-2.2-1.3l0-58.9c1.6-0.2,2.9-1.5,2.9-3.2
	c0-0.5-0.1-0.9-0.3-1.3l50.7-29.3c0.6,0.7,1.5,1.2,2.5,1.2c0,0,0,0,0,0l0,58.8c0,0,0,0,0,0c-1.8,0-3.2,1.5-3.2,3.2
	c0,0.5,0.1,1,0.4,1.4L2.6,520.6z M110.2,523.8l-51.3,29.6c-0.6-0.9-1.6-1.5-2.7-1.5c-1,0-1.9,0.5-2.5,1.2L3,523.8
	c0.2-0.4,0.3-0.8,0.3-1.3c0-0.5-0.1-0.9-0.3-1.3L53.7,492c0.6,0.7,1.5,1.2,2.5,1.2c1.1,0,2.1-0.6,2.7-1.5l51.3,29.6
	c-0.2,0.4-0.3,0.8-0.3,1.3C109.9,523,110,523.4,110.2,523.8z M110.6,520.6L59.2,491c0.1-0.3,0.2-0.7,0.2-1.1c0-1.5-1.1-2.8-2.5-3.1
	l0-59c0.8-0.2,1.5-0.7,1.9-1.4l51.3,29.6c-0.2,0.4-0.3,0.8-0.3,1.3c0,1.7,1.3,3,2.9,3.2l0,58.9C111.9,519.4,111.1,519.9,110.6,520.6
	z M113.2,454c-1.1,0-2,0.5-2.6,1.3l-51.3-29.6c0.1-0.3,0.2-0.7,0.2-1.1c0-0.4-0.1-0.7-0.2-1.1l51.3-29.6c0.6,0.8,1.5,1.3,2.6,1.3
	c1.1,0,2-0.5,2.6-1.3l50.7,29.3c-0.2,0.4-0.4,0.9-0.4,1.5c0,0.5,0.1,1,0.4,1.4l-50.7,29.3C115.1,454.5,114.2,454,113.2,454z
	 M115.7,520.6c-0.5-0.7-1.3-1.2-2.2-1.3l0-58.9c1.6-0.2,2.9-1.5,2.9-3.2c0-0.5-0.1-0.9-0.3-1.3l50.7-29.3c0.6,0.7,1.5,1.2,2.5,1.2
	c0,0,0,0,0,0l0,58.8c0,0,0,0,0,0c-1.8,0-3.2,1.5-3.2,3.2c0,0.5,0.1,1,0.4,1.4L115.7,520.6z M223.3,523.8L172,553.4
	c-0.6-0.9-1.6-1.5-2.7-1.5c-1,0-1.9,0.5-2.5,1.2l-50.7-29.3c0.2-0.4,0.3-0.8,0.3-1.3c0-0.5-0.1-0.9-0.3-1.3l50.7-29.3
	c0.6,0.7,1.5,1.2,2.5,1.2c1.1,0,2.1-0.6,2.7-1.5l51.3,29.6c-0.2,0.4-0.3,0.8-0.3,1.3C223,523,223.1,523.4,223.3,523.8z M223.7,520.6
	L172.4,491c0.1-0.3,0.2-0.7,0.2-1.1c0-1.5-1.1-2.8-2.5-3.1l0-59c0.8-0.2,1.5-0.7,1.9-1.4l51.3,29.6c-0.2,0.4-0.3,0.8-0.3,1.3
	c0,1.7,1.3,3,2.9,3.2l0,58.9C225,519.4,224.2,519.9,223.7,520.6z M226.3,454c-1.1,0-2,0.5-2.6,1.3l-51.3-29.6
	c0.1-0.3,0.2-0.7,0.2-1.1c0-0.4-0.1-0.7-0.2-1.1l51.3-29.6c0.6,0.8,1.5,1.3,2.6,1.3c1.1,0,2-0.5,2.6-1.3l50.7,29.3
	c-0.2,0.4-0.4,0.9-0.4,1.5c0,0.5,0.1,1,0.4,1.4l-50.7,29.3C228.3,454.5,227.3,454,226.3,454z M228.9,520.6c-0.5-0.7-1.3-1.2-2.2-1.3
	l0-58.9c1.6-0.2,2.9-1.5,2.9-3.2c0-0.5-0.1-0.9-0.3-1.3l50.7-29.3c0.6,0.7,1.5,1.2,2.5,1.2c0,0,0,0,0,0l0,58.8c0,0,0,0,0,0
	c-1.8,0-3.2,1.5-3.2,3.2c0,0.5,0.1,1,0.4,1.4L228.9,520.6z M336.4,523.8l-51.3,29.6c-0.6-0.9-1.6-1.5-2.7-1.5c-1,0-1.9,0.5-2.5,1.2
	l-50.7-29.3c0.2-0.4,0.3-0.8,0.3-1.3c0-0.5-0.1-0.9-0.3-1.3L280,492c0.6,0.7,1.5,1.2,2.5,1.2c1.1,0,2.1-0.6,2.7-1.5l51.3,29.6
	c-0.2,0.4-0.3,0.8-0.3,1.3C336.2,523,336.3,523.4,336.4,523.8z M336.8,520.6L285.5,491c0.1-0.3,0.2-0.7,0.2-1.1
	c0-1.5-1.1-2.8-2.5-3.1l0-59c0.8-0.2,1.5-0.7,1.9-1.4l51.3,29.6c-0.2,0.4-0.3,0.8-0.3,1.3c0,1.7,1.3,3,2.9,3.2l0,58.9
	C338.1,519.4,337.3,519.9,336.8,520.6z M339.4,454c-1.1,0-2,0.5-2.6,1.3l-51.3-29.6c0.1-0.3,0.2-0.7,0.2-1.1c0-0.4-0.1-0.7-0.2-1.1
	l51.3-29.6c0.6,0.8,1.5,1.3,2.6,1.3c1.1,0,2-0.5,2.6-1.3l50.7,29.3c-0.2,0.4-0.4,0.9-0.4,1.5c0,0.5,0.1,1,0.4,1.4L342,455.3
	C341.4,454.5,340.5,454,339.4,454z M342,520.6c-0.5-0.7-1.3-1.2-2.2-1.3l0-58.9c1.6-0.2,2.9-1.5,2.9-3.2c0-0.5-0.1-0.9-0.3-1.3
	l50.7-29.3c0.6,0.7,1.5,1.2,2.5,1.2c0,0,0,0,0,0l0,58.8c0,0,0,0,0,0c-1.8,0-3.2,1.5-3.2,3.2c0,0.5,0.1,1,0.4,1.4L342,520.6z
	 M449.6,523.8l-51.3,29.6c-0.6-0.9-1.6-1.5-2.7-1.5c-1,0-1.9,0.5-2.5,1.2l-50.7-29.3c0.2-0.4,0.3-0.8,0.3-1.3c0-0.5-0.1-0.9-0.3-1.3
	l50.7-29.3c0.6,0.7,1.5,1.2,2.5,1.2c1.1,0,2.1-0.6,2.7-1.5l51.3,29.6c-0.2,0.4-0.3,0.8-0.3,1.3C449.3,523,449.4,523.4,449.6,523.8z
	 M450,520.6L398.6,491c0.1-0.3,0.2-0.7,0.2-1.1c0-1.5-1.1-2.8-2.5-3.1l0-59c0.8-0.2,1.5-0.7,1.9-1.4l51.3,29.6
	c-0.2,0.4-0.3,0.8-0.3,1.3c0,1.7,1.3,3,2.9,3.2l0,58.9C451.3,519.4,450.5,519.9,450,520.6z M452.5,454c-1.1,0-2,0.5-2.6,1.3
	l-51.3-29.6c0.1-0.3,0.2-0.7,0.2-1.1c0-0.4-0.1-0.7-0.2-1.1l51.3-29.6c0.6,0.8,1.5,1.3,2.6,1.3c1.1,0,2-0.5,2.6-1.3l50.7,29.3
	c-0.2,0.4-0.4,0.9-0.4,1.5c0,0.5,0.1,1,0.4,1.4l-50.7,29.3C454.5,454.5,453.6,454,452.5,454z M455.1,520.6c-0.5-0.7-1.3-1.2-2.2-1.3
	l0-58.9c1.6-0.2,2.9-1.5,2.9-3.2c0-0.5-0.1-0.9-0.3-1.3l50.7-29.3c0.6,0.7,1.5,1.2,2.5,1.2c0,0,0,0,0,0l0,58.8c0,0,0,0,0,0
	c-1.8,0-3.2,1.5-3.2,3.2c0,0.5,0.1,1,0.4,1.4L455.1,520.6z M562.7,523.8l-51.3,29.6c-0.6-0.9-1.6-1.5-2.7-1.5c-1,0-1.9,0.5-2.5,1.2
	l-50.7-29.3c0.2-0.4,0.3-0.8,0.3-1.3c0-0.5-0.1-0.9-0.3-1.3l50.7-29.3c0.6,0.7,1.5,1.2,2.5,1.2c1.1,0,2.1-0.6,2.7-1.5l51.3,29.6
	c-0.2,0.4-0.3,0.8-0.3,1.3C562.4,523,562.5,523.4,562.7,523.8z M562.7,455.9c-0.2,0.4-0.3,0.8-0.3,1.3c0,1.7,1.3,3,2.9,3.2l0,58.9
	c-0.9,0.1-1.7,0.6-2.2,1.3L511.8,491c0.1-0.3,0.2-0.7,0.2-1.1c0-1.5-1.1-2.8-2.5-3.1l0-59c0.8-0.2,1.5-0.7,1.9-1.4L562.7,455.9z
	 M565.3,388.7c-1.6,0.2-2.9,1.5-2.9,3.2c0,0.5,0.1,0.9,0.3,1.3l-51.3,29.6c-0.4-0.7-1.1-1.2-1.9-1.4l0-59c1.4-0.4,2.5-1.6,2.5-3.1
	c0-0.4-0.1-0.7-0.2-1.1l51.3-29.6c0.5,0.7,1.3,1.2,2.2,1.3L565.3,388.7z M562.7,260c-0.2,0.4-0.3,0.8-0.3,1.3c0,1.7,1.3,3,2.9,3.2
	l0,58.9c-0.9,0.1-1.7,0.6-2.2,1.3L511.8,295c0.1-0.3,0.2-0.7,0.2-1.1c0-1.5-1.1-2.8-2.5-3.1v-59c0.8-0.2,1.5-0.7,1.9-1.4L562.7,260z
	 M565.3,192.7c-1.6,0.2-2.9,1.5-2.9,3.2c0,0.5,0.1,0.9,0.3,1.3l-51.3,29.6c-0.4-0.7-1.1-1.2-1.9-1.4v-59c1.4-0.3,2.5-1.6,2.5-3.1
	c0-0.4-0.1-0.7-0.2-1.1l51.3-29.6c0.5,0.7,1.3,1.2,2.2,1.3V192.7z M562.7,64c-0.2,0.4-0.3,0.8-0.3,1.3c0,1.7,1.3,3,2.9,3.2v58.9
	c-0.9,0.1-1.7,0.6-2.2,1.3l-51.3-29.6c0.1-0.3,0.2-0.7,0.2-1.1c0-1.5-1.1-2.8-2.5-3.1v-59c0.8-0.2,1.5-0.7,1.9-1.4L562.7,64z"/>
<path opacity="0.41" fill="#D0E2DF" d="M1131.1,3.2V0h-3.2c0,0.5,0.1,0.9,0.3,1.3l-51.3,29.6c-0.4-0.7-1.1-1.2-1.9-1.4V0h-0.8v29.4
	c0,0,0,0,0,0c-1,0-1.9,0.5-2.5,1.2l-50.7-29.3c0.2-0.4,0.3-0.8,0.3-1.3h-6.5c0,0.5,0.1,0.9,0.3,1.3l-51.3,29.6
	c-0.4-0.7-1.1-1.2-1.9-1.4V0H961v29.4c0,0,0,0,0,0c-1,0-1.9,0.5-2.5,1.2L907.8,1.3c0.2-0.4,0.3-0.8,0.3-1.3h-6.5
	c0,0.5,0.1,0.9,0.3,1.3l-51.3,29.6c-0.4-0.7-1.1-1.2-1.9-1.4V0h-0.8v29.4c0,0,0,0,0,0c-1,0-1.9,0.5-2.5,1.2L794.7,1.3
	c0.2-0.4,0.3-0.8,0.3-1.3h-6.5c0,0.5,0.1,0.9,0.3,1.3l-51.3,29.6c-0.4-0.7-1.1-1.2-1.9-1.4V0h-0.8v29.4c0,0,0,0,0,0
	c-1,0-1.9,0.5-2.5,1.2L681.6,1.3c0.2-0.4,0.3-0.8,0.3-1.3h-6.5c0,0.5,0.1,0.9,0.3,1.3l-51.3,29.6c-0.4-0.7-1.1-1.2-1.9-1.4V0h-0.8
	v29.4c0,0,0,0,0,0c-1,0-1.9,0.5-2.5,1.2L568.4,1.3c0.2-0.4,0.3-0.8,0.3-1.3h-3.2v3.2c1.1,0,2-0.5,2.6-1.3l50.7,29.3
	c-0.2,0.4-0.4,0.9-0.4,1.5s0.1,1,0.4,1.5L568,63.4c-0.6-0.8-1.5-1.3-2.6-1.3v137.1c1.1,0,2-0.5,2.6-1.3l50.7,29.3
	c-0.2,0.4-0.4,0.9-0.4,1.5c0,0.5,0.1,1,0.4,1.4L568,259.3c-0.6-0.8-1.5-1.3-2.6-1.3v137.1c1.1,0,2-0.5,2.6-1.3l50.7,29.3
	c-0.2,0.4-0.4,0.9-0.4,1.5c0,0.5,0.1,1,0.4,1.4L568,455.3c-0.6-0.8-1.5-1.3-2.6-1.3v133.9h3.2c0-1.7-1.3-3-2.9-3.2l0-58.9
	c0.9-0.1,1.7-0.6,2.2-1.3l50.7,29.3c-0.2,0.4-0.4,0.9-0.4,1.5c0,1.8,1.5,3.2,3.2,3.2c0,0,0,0,0,0v29.4h0.8v-29.5
	c1.4-0.4,2.5-1.6,2.5-3.1c0-0.4-0.1-0.7-0.2-1.1l51.3-29.6c0.5,0.7,1.3,1.2,2.2,1.3l0,58.9c-1.6,0.2-2.9,1.5-2.9,3.2h6.5
	c0-1.7-1.3-3-2.9-3.2l0-58.9c0.9-0.1,1.7-0.6,2.2-1.3l50.7,29.3c-0.2,0.4-0.4,0.9-0.4,1.5c0,1.8,1.5,3.2,3.2,3.2c0,0,0,0,0,0v29.4
	h0.8v-29.5c1.4-0.4,2.5-1.6,2.5-3.1c0-0.4-0.1-0.7-0.2-1.1l51.3-29.6c0.5,0.7,1.3,1.2,2.2,1.3l0,58.9c-1.6,0.2-2.9,1.5-2.9,3.2h6.5
	c0-1.7-1.3-3-2.9-3.2l0-58.9c0.9-0.1,1.7-0.6,2.2-1.3l50.7,29.3c-0.2,0.4-0.4,0.9-0.4,1.5c0,1.8,1.5,3.2,3.2,3.2c0,0,0,0,0,0l0,29.4
	h0.8l0-29.5c1.4-0.4,2.5-1.6,2.5-3.1c0-0.4-0.1-0.7-0.2-1.1l51.3-29.6c0.5,0.7,1.3,1.2,2.2,1.3l0,58.9c-1.6,0.2-2.9,1.5-2.9,3.2h6.5
	c0-1.7-1.3-3-2.9-3.2l0-58.9c0.9-0.1,1.7-0.6,2.2-1.3l50.7,29.3c-0.2,0.4-0.4,0.9-0.4,1.5c0,1.8,1.5,3.2,3.2,3.2c0,0,0,0,0,0v29.4
	h0.8v-29.5c1.4-0.4,2.5-1.6,2.5-3.1c0-0.4-0.1-0.7-0.2-1.1l51.3-29.6c0.5,0.7,1.3,1.2,2.2,1.3l0,58.9c-1.6,0.2-2.9,1.5-2.9,3.2h6.5
	c0-1.7-1.3-3-2.9-3.2l0-58.9c0.9-0.1,1.7-0.6,2.2-1.3l50.7,29.3c-0.2,0.4-0.4,0.9-0.4,1.5c0,1.8,1.5,3.2,3.2,3.2c0,0,0,0,0,0v29.4
	h0.8v-29.5c1.4-0.4,2.5-1.6,2.5-3.1c0-0.4-0.1-0.7-0.2-1.1l51.3-29.6c0.5,0.7,1.3,1.2,2.2,1.3l0,58.9c-1.6,0.2-2.9,1.5-2.9,3.2h3.2
	V454c-1.1,0-2,0.5-2.6,1.3l-51.3-29.6c0.1-0.3,0.2-0.7,0.2-1.1c0-0.4-0.1-0.7-0.2-1.1l51.3-29.6c0.6,0.8,1.5,1.3,2.6,1.3V258
	c-1.1,0-2,0.5-2.6,1.3l-51.3-29.6c0.1-0.3,0.2-0.7,0.2-1.1c0-0.4-0.1-0.7-0.2-1.1l51.3-29.6c0.6,0.8,1.5,1.3,2.6,1.3V62.1
	c-1.1,0-2,0.5-2.6,1.3l-51.3-29.6c0.1-0.3,0.2-0.7,0.2-1.1s-0.1-0.7-0.2-1.1l51.3-29.6C1129.1,2.7,1130,3.2,1131.1,3.2z
	 M1076.8,99.8l51.3,29.6c-0.2,0.4-0.3,0.8-0.3,1.3c0,0.5,0.1,0.9,0.3,1.3l-51.3,29.6c-0.6-0.9-1.6-1.5-2.7-1.5c-1,0-1.9,0.5-2.5,1.2
	l-50.7-29.3c0.2-0.4,0.3-0.8,0.3-1.3c0-0.5-0.1-0.9-0.3-1.3l50.7-29.3c0.6,0.7,1.5,1.2,2.5,1.2
	C1075.3,101.2,1076.3,100.6,1076.8,99.8z M1128.1,327.9l-51.3,29.6c-0.6-0.9-1.6-1.5-2.7-1.5c-1,0-1.9,0.5-2.5,1.2l-50.7-29.3
	c0.2-0.4,0.3-0.8,0.3-1.3s-0.1-0.9-0.3-1.3l50.7-29.3c0.6,0.7,1.5,1.2,2.5,1.2c1.1,0,2.1-0.6,2.7-1.5l51.3,29.6
	c-0.2,0.4-0.3,0.8-0.3,1.3C1127.9,327,1128,327.5,1128.1,327.9z M1018.4,388.7l0-58.9c0.9-0.1,1.7-0.6,2.2-1.3l50.7,29.3
	c-0.2,0.4-0.4,0.9-0.4,1.5c0,1.8,1.5,3.2,3.2,3.2c0,0,0,0,0,0l0,58.8c0,0,0,0,0,0c-1,0-1.9,0.5-2.5,1.2l-50.7-29.3
	c0.2-0.4,0.3-0.8,0.3-1.3C1021.2,390.2,1020,388.9,1018.4,388.7z M1015,393.2l-51.3,29.6c-0.4-0.7-1.1-1.2-1.9-1.4l0-59
	c1.4-0.4,2.5-1.6,2.5-3.1c0-0.4-0.1-0.7-0.2-1.1l51.3-29.6c0.5,0.7,1.3,1.2,2.2,1.3l0,58.9c-1.6,0.2-2.9,1.5-2.9,3.2
	C1014.7,392.4,1014.8,392.8,1015,393.2z M905.2,388.7l0-58.9c0.9-0.1,1.7-0.6,2.2-1.3l50.7,29.3c-0.2,0.4-0.4,0.9-0.4,1.5
	c0,1.8,1.5,3.2,3.2,3.2c0,0,0,0,0,0l0,58.8c0,0,0,0,0,0c-1,0-1.9,0.5-2.5,1.2l-50.7-29.3c0.2-0.4,0.3-0.8,0.3-1.3
	C908.1,390.2,906.8,388.9,905.2,388.7z M901.9,393.2l-51.3,29.6c-0.4-0.7-1.1-1.2-1.9-1.4l0-59c1.4-0.4,2.5-1.6,2.5-3.1
	c0-0.4-0.1-0.7-0.2-1.1l51.3-29.6c0.5,0.7,1.3,1.2,2.2,1.3l0,58.9c-1.6,0.2-2.9,1.5-2.9,3.2C901.6,392.4,901.7,392.8,901.9,393.2z
	 M792.1,388.7l0-58.9c0.9-0.1,1.7-0.6,2.2-1.3l50.7,29.3c-0.2,0.4-0.4,0.9-0.4,1.5c0,1.8,1.5,3.2,3.2,3.2c0,0,0,0,0,0l0,58.8
	c0,0,0,0,0,0c-1,0-1.9,0.5-2.5,1.2l-50.7-29.3c0.2-0.4,0.3-0.8,0.3-1.3C794.9,390.2,793.7,388.9,792.1,388.7z M788.7,393.2
	l-51.3,29.6c-0.4-0.7-1.1-1.2-1.9-1.4l0-59c1.4-0.4,2.5-1.6,2.5-3.1c0-0.4-0.1-0.7-0.2-1.1l51.3-29.6c0.5,0.7,1.3,1.2,2.2,1.3
	l0,58.9c-1.6,0.2-2.9,1.5-2.9,3.2C788.5,392.4,788.6,392.8,788.7,393.2z M679,388.7l0-58.9c0.9-0.1,1.7-0.6,2.2-1.3l50.7,29.3
	c-0.2,0.4-0.4,0.9-0.4,1.5c0,1.8,1.5,3.2,3.2,3.2c0,0,0,0,0,0l0,58.8c0,0,0,0,0,0c-1,0-1.9,0.5-2.5,1.2l-50.7-29.3
	c0.2-0.4,0.3-0.8,0.3-1.3C681.8,390.2,680.6,388.9,679,388.7z M675.6,393.2l-51.3,29.6c-0.4-0.7-1.1-1.2-1.9-1.4l0-59
	c1.4-0.4,2.5-1.6,2.5-3.1c0-0.4-0.1-0.7-0.2-1.1l51.3-29.6c0.5,0.7,1.3,1.2,2.2,1.3l0,58.9c-1.6,0.2-2.9,1.5-2.9,3.2
	C675.3,392.4,675.4,392.8,675.6,393.2z M568.4,325.3l50.7-29.3c0.6,0.7,1.5,1.2,2.5,1.2c1.1,0,2.1-0.6,2.7-1.5l51.3,29.6
	c-0.2,0.4-0.3,0.8-0.3,1.3s0.1,0.9,0.3,1.3l-51.3,29.6c-0.6-0.9-1.6-1.5-2.7-1.5c-1,0-1.9,0.5-2.5,1.2l-50.7-29.3
	c0.2-0.4,0.3-0.8,0.3-1.3S568.6,325.7,568.4,325.3z M676,324.6L624.7,295c0.1-0.3,0.2-0.7,0.2-1.1c0-1.5-1.1-2.8-2.5-3.1v-59
	c0.8-0.2,1.5-0.7,1.9-1.4l51.3,29.6c-0.2,0.4-0.3,0.8-0.3,1.3c0,1.7,1.3,3,2.9,3.2l0,58.9C677.3,323.5,676.5,324,676,324.6z
	 M624.7,162.2l51.3-29.6c0.5,0.7,1.3,1.2,2.2,1.3v58.9c-1.6,0.2-2.9,1.5-2.9,3.2c0,0.5,0.1,0.9,0.3,1.3l-51.3,29.6
	c-0.4-0.7-1.1-1.2-1.9-1.4v-59c1.4-0.3,2.5-1.6,2.5-3.1C624.9,162.9,624.8,162.5,624.7,162.2z M676,259.3l-51.3-29.6
	c0.1-0.3,0.2-0.7,0.2-1.1c0-0.4-0.1-0.7-0.2-1.1l51.3-29.6c0.6,0.8,1.5,1.3,2.6,1.3c1.1,0,2-0.5,2.6-1.3l50.7,29.3
	c-0.2,0.4-0.4,0.9-0.4,1.5c0,0.5,0.1,1,0.4,1.4l-50.7,29.3c-0.6-0.8-1.5-1.3-2.6-1.3S676.6,258.5,676,259.3z M734.7,166.5
	C734.7,166.5,734.8,166.5,734.7,166.5l0,58.8c0,0,0,0,0,0c-1,0-1.9,0.5-2.5,1.2l-50.7-29.3c0.2-0.4,0.3-0.8,0.3-1.3
	c0-1.7-1.3-3-2.9-3.2v-58.9c0.9-0.1,1.7-0.6,2.2-1.3l50.7,29.3c-0.2,0.4-0.4,0.9-0.4,1.5C731.5,165.1,733,166.5,734.7,166.5z
	 M731.9,295.4l-50.7,29.3c-0.5-0.7-1.3-1.2-2.2-1.3l0-58.9c1.6-0.2,2.9-1.5,2.9-3.2c0-0.5-0.1-0.9-0.3-1.3l50.7-29.3
	c0.6,0.7,1.5,1.2,2.5,1.2c0,0,0,0,0,0v58.8c0,0,0,0,0,0c-1.8,0-3.2,1.5-3.2,3.2C731.5,294.5,731.6,294.9,731.9,295.4z M734.7,356
	c-1,0-1.9,0.5-2.5,1.2l-50.7-29.3c0.2-0.4,0.3-0.8,0.3-1.3s-0.1-0.9-0.3-1.3l50.7-29.3c0.6,0.7,1.5,1.2,2.5,1.2
	c1.1,0,2.1-0.6,2.7-1.5l51.3,29.6c-0.2,0.4-0.3,0.8-0.3,1.3s0.1,0.9,0.3,1.3l-51.3,29.6C736.9,356.6,735.9,356,734.7,356z
	 M789.1,324.6L737.8,295c0.1-0.3,0.2-0.7,0.2-1.1c0-1.5-1.1-2.8-2.5-3.1v-59c0.8-0.2,1.5-0.7,1.9-1.4l51.3,29.6
	c-0.2,0.4-0.3,0.8-0.3,1.3c0,1.7,1.3,3,2.9,3.2l0,58.9C790.4,323.5,789.6,324,789.1,324.6z M737.8,162.2l51.3-29.6
	c0.5,0.7,1.3,1.2,2.2,1.3v58.9c-1.6,0.2-2.9,1.5-2.9,3.2c0,0.5,0.1,0.9,0.3,1.3l-51.3,29.6c-0.4-0.7-1.1-1.2-1.9-1.4v-59
	c1.4-0.3,2.5-1.6,2.5-3.1C738,162.9,737.9,162.5,737.8,162.2z M789.1,259.3l-51.3-29.6c0.1-0.3,0.2-0.7,0.2-1.1
	c0-0.4-0.1-0.7-0.2-1.1l51.3-29.6c0.6,0.8,1.5,1.3,2.6,1.3s2-0.5,2.6-1.3l50.7,29.3c-0.2,0.4-0.4,0.9-0.4,1.5c0,0.5,0.1,1,0.4,1.4
	l-50.7,29.3c-0.6-0.8-1.5-1.3-2.6-1.3C790.6,258,789.7,258.5,789.1,259.3z M847.9,166.5C847.9,166.5,847.9,166.5,847.9,166.5l0,58.8
	c0,0,0,0,0,0c-1,0-1.9,0.5-2.5,1.2l-50.7-29.3c0.2-0.4,0.3-0.8,0.3-1.3c0-1.7-1.3-3-2.9-3.2v-58.9c0.9-0.1,1.7-0.6,2.2-1.3
	l50.7,29.3c-0.2,0.4-0.4,0.9-0.4,1.5C844.6,165.1,846.1,166.5,847.9,166.5z M845,295.4l-50.7,29.3c-0.5-0.7-1.3-1.2-2.2-1.3l0-58.9
	c1.6-0.2,2.9-1.5,2.9-3.2c0-0.5-0.1-0.9-0.3-1.3l50.7-29.3c0.6,0.7,1.5,1.2,2.5,1.2c0,0,0,0,0,0v58.8c0,0,0,0,0,0
	c-1.8,0-3.2,1.5-3.2,3.2C844.6,294.5,844.8,294.9,845,295.4z M847.9,356c-1,0-1.9,0.5-2.5,1.2l-50.7-29.3c0.2-0.4,0.3-0.8,0.3-1.3
	s-0.1-0.9-0.3-1.3l50.7-29.3c0.6,0.7,1.5,1.2,2.5,1.2c1.1,0,2.1-0.6,2.7-1.5l51.3,29.6c-0.2,0.4-0.3,0.8-0.3,1.3
	c0,0.5,0.1,0.9,0.3,1.3l-51.3,29.6C850,356.6,849,356,847.9,356z M902.3,324.6L850.9,295c0.1-0.3,0.2-0.7,0.2-1.1
	c0-1.5-1.1-2.8-2.5-3.1v-59c0.8-0.2,1.5-0.7,1.9-1.4l51.3,29.6c-0.2,0.4-0.3,0.8-0.3,1.3c0,1.7,1.3,3,2.9,3.2l0,58.9
	C903.6,323.5,902.8,324,902.3,324.6z M850.9,162.2l51.3-29.6c0.5,0.7,1.3,1.2,2.2,1.3v58.9c-1.6,0.2-2.9,1.5-2.9,3.2
	c0,0.5,0.1,0.9,0.3,1.3l-51.3,29.6c-0.4-0.7-1.1-1.2-1.9-1.4v-59c1.4-0.3,2.5-1.6,2.5-3.1C851.1,162.9,851,162.5,850.9,162.2z
	 M902.3,259.3l-51.3-29.6c0.1-0.3,0.2-0.7,0.2-1.1c0-0.4-0.1-0.7-0.2-1.1l51.3-29.6c0.6,0.8,1.5,1.3,2.6,1.3c1.1,0,2-0.5,2.6-1.3
	l50.7,29.3c-0.2,0.4-0.4,0.9-0.4,1.5c0,0.5,0.1,1,0.4,1.4l-50.7,29.3c-0.6-0.8-1.5-1.3-2.6-1.3C903.8,258,902.8,258.5,902.3,259.3z
	 M961,166.5C961,166.5,961,166.5,961,166.5l0,58.8c0,0,0,0,0,0c-1,0-1.9,0.5-2.5,1.2l-50.7-29.3c0.2-0.4,0.3-0.8,0.3-1.3
	c0-1.7-1.3-3-2.9-3.2v-58.9c0.9-0.1,1.7-0.6,2.2-1.3l50.7,29.3c-0.2,0.4-0.4,0.9-0.4,1.5C957.8,165.1,959.2,166.5,961,166.5z
	 M958.1,295.4l-50.7,29.3c-0.5-0.7-1.3-1.2-2.2-1.3l0-58.9c1.6-0.2,2.9-1.5,2.9-3.2c0-0.5-0.1-0.9-0.3-1.3l50.7-29.3
	c0.6,0.7,1.5,1.2,2.5,1.2c0,0,0,0,0,0v58.8c0,0,0,0,0,0c-1.8,0-3.2,1.5-3.2,3.2C957.8,294.5,957.9,294.9,958.1,295.4z M961,356
	c-1,0-1.9,0.5-2.5,1.2l-50.7-29.3c0.2-0.4,0.3-0.8,0.3-1.3s-0.1-0.9-0.3-1.3l50.7-29.3c0.6,0.7,1.5,1.2,2.5,1.2
	c1.1,0,2.1-0.6,2.7-1.5l51.3,29.6c-0.2,0.4-0.3,0.8-0.3,1.3c0,0.5,0.1,0.9,0.3,1.3l-51.3,29.6C963.1,356.6,962.1,356,961,356z
	 M1015.4,324.6L964.1,295c0.1-0.3,0.2-0.7,0.2-1.1c0-1.5-1.1-2.8-2.5-3.1v-59c0.8-0.2,1.5-0.7,1.9-1.4L1015,260
	c-0.2,0.4-0.3,0.8-0.3,1.3c0,1.7,1.3,3,2.9,3.2l0,58.9C1016.7,323.5,1015.9,324,1015.4,324.6z M964.1,162.2l51.3-29.6
	c0.5,0.7,1.3,1.2,2.2,1.3v58.9c-1.6,0.2-2.9,1.5-2.9,3.2c0,0.5,0.1,0.9,0.3,1.3l-51.3,29.6c-0.4-0.7-1.1-1.2-1.9-1.4v-59
	c1.4-0.3,2.5-1.6,2.5-3.1C964.3,162.9,964.2,162.5,964.1,162.2z M1015.4,259.3l-51.3-29.6c0.1-0.3,0.2-0.7,0.2-1.1
	c0-0.4-0.1-0.7-0.2-1.1l51.3-29.6c0.6,0.8,1.5,1.3,2.6,1.3s2-0.5,2.6-1.3l50.7,29.3c-0.2,0.4-0.4,0.9-0.4,1.5c0,0.5,0.1,1,0.4,1.4
	l-50.7,29.3c-0.6-0.8-1.5-1.3-2.6-1.3S1016,258.5,1015.4,259.3z M1071.3,295.4l-50.7,29.3c-0.5-0.7-1.3-1.2-2.2-1.3l0-58.9
	c1.6-0.2,2.9-1.5,2.9-3.2c0-0.5-0.1-0.9-0.3-1.3l50.7-29.3c0.6,0.7,1.5,1.2,2.5,1.2c0,0,0,0,0,0v58.8c0,0,0,0,0,0
	c-1.8,0-3.2,1.5-3.2,3.2C1070.9,294.5,1071,294.9,1071.3,295.4z M1074.2,225.4C1074.1,225.4,1074.1,225.4,1074.2,225.4
	c-1,0-1.9,0.5-2.5,1.2l-50.7-29.3c0.2-0.4,0.3-0.8,0.3-1.3c0-1.7-1.3-3-2.9-3.2v-58.9c0.9-0.1,1.7-0.6,2.2-1.3l50.7,29.3
	c-0.2,0.4-0.4,0.9-0.4,1.5c0,1.8,1.5,3.2,3.2,3.2c0,0,0,0,0,0V225.4z M1074.1,35.9C1074.1,35.9,1074.1,35.9,1074.1,35.9l0,58.8
	c0,0,0,0,0,0c-1.8,0-3.2,1.5-3.2,3.2c0,0.5,0.1,1,0.4,1.4l-50.7,29.3c-0.5-0.7-1.3-1.2-2.2-1.3V68.5c1.6-0.2,2.9-1.5,2.9-3.2
	c0-0.5-0.1-0.9-0.3-1.3l50.7-29.3C1072.3,35.4,1073.2,35.9,1074.1,35.9z M964.1,31.6l51.3-29.6c0.6,0.8,1.5,1.3,2.6,1.3
	c1.1,0,2-0.5,2.6-1.3l50.7,29.3c-0.2,0.4-0.4,0.9-0.4,1.5s0.1,1,0.4,1.4l-50.7,29.3c-0.6-0.8-1.5-1.3-2.6-1.3c-1.1,0-2,0.5-2.6,1.3
	l-51.3-29.6c0.1-0.3,0.2-0.7,0.2-1.1S964.2,31.9,964.1,31.6z M961.8,35.8c0.8-0.2,1.5-0.7,1.9-1.4L1015,64c-0.2,0.4-0.3,0.8-0.3,1.3
	c0,1.7,1.3,3,2.9,3.2v58.9c-0.9,0.1-1.7,0.6-2.2,1.3l-51.3-29.6c0.1-0.3,0.2-0.7,0.2-1.1c0-1.5-1.1-2.8-2.5-3.1V35.8z M963.7,99.8
	l51.3,29.6c-0.2,0.4-0.3,0.8-0.3,1.3c0,0.5,0.1,0.9,0.3,1.3l-51.3,29.6c-0.6-0.9-1.6-1.5-2.7-1.5c-1,0-1.9,0.5-2.5,1.2l-50.7-29.3
	c0.2-0.4,0.3-0.8,0.3-1.3c0-0.5-0.1-0.9-0.3-1.3l50.7-29.3c0.6,0.7,1.5,1.2,2.5,1.2C962.1,101.2,963.1,100.6,963.7,99.8z M961,35.9
	C961,35.9,961,35.9,961,35.9l0,58.8c0,0,0,0,0,0c-1.8,0-3.2,1.5-3.2,3.2c0,0.5,0.1,1,0.4,1.4l-50.7,29.3c-0.5-0.7-1.3-1.2-2.2-1.3
	V68.5c1.6-0.2,2.9-1.5,2.9-3.2c0-0.5-0.1-0.9-0.3-1.3l50.7-29.3C959.1,35.4,960,35.9,961,35.9z M850.9,31.6l51.3-29.6
	c0.6,0.8,1.5,1.3,2.6,1.3c1.1,0,2-0.5,2.6-1.3l50.7,29.3c-0.2,0.4-0.4,0.9-0.4,1.4s0.1,1,0.4,1.4l-50.7,29.3
	c-0.6-0.8-1.5-1.3-2.6-1.3c-1.1,0-2,0.5-2.6,1.3l-51.3-29.6c0.1-0.3,0.2-0.7,0.2-1.1S851,31.9,850.9,31.6z M848.7,35.8
	c0.8-0.2,1.5-0.7,1.9-1.4L901.9,64c-0.2,0.4-0.3,0.8-0.3,1.3c0,1.7,1.3,3,2.9,3.2v58.9c-0.9,0.1-1.7,0.6-2.2,1.3l-51.3-29.6
	c0.1-0.3,0.2-0.7,0.2-1.1c0-1.5-1.1-2.8-2.5-3.1V35.8z M850.6,99.8l51.3,29.6c-0.2,0.4-0.3,0.8-0.3,1.3c0,0.5,0.1,0.9,0.3,1.3
	l-51.3,29.6c-0.6-0.9-1.6-1.5-2.7-1.5c-1,0-1.9,0.5-2.5,1.2l-50.7-29.3c0.2-0.4,0.3-0.8,0.3-1.3c0-0.5-0.1-0.9-0.3-1.3l50.7-29.3
	c0.6,0.7,1.5,1.2,2.5,1.2C849,101.2,850,100.6,850.6,99.8z M847.9,35.9C847.9,35.9,847.9,35.9,847.9,35.9l0,58.8c0,0,0,0,0,0
	c-1.8,0-3.2,1.5-3.2,3.2c0,0.5,0.1,1,0.4,1.4l-50.7,29.3c-0.5-0.7-1.3-1.2-2.2-1.3V68.5c1.6-0.2,2.9-1.5,2.9-3.2
	c0-0.5-0.1-0.9-0.3-1.3l50.7-29.3C846,35.4,846.9,35.9,847.9,35.9z M737.8,31.6l51.3-29.6c0.6,0.8,1.5,1.3,2.6,1.3
	c1.1,0,2-0.5,2.6-1.3L845,31.2c-0.2,0.4-0.4,0.9-0.4,1.5s0.1,1,0.4,1.5l-50.7,29.3c-0.6-0.8-1.5-1.3-2.6-1.3c-1.1,0-2,0.5-2.6,1.3
	l-51.3-29.6c0.1-0.3,0.2-0.7,0.2-1.1S737.9,31.9,737.8,31.6z M735.5,35.8c0.8-0.2,1.5-0.7,1.9-1.4L788.7,64
	c-0.2,0.4-0.3,0.8-0.3,1.3c0,1.7,1.3,3,2.9,3.2v58.9c-0.9,0.1-1.7,0.6-2.2,1.3l-51.3-29.6c0.1-0.3,0.2-0.7,0.2-1.1
	c0-1.5-1.1-2.8-2.5-3.1V35.8z M737.5,99.8l51.3,29.6c-0.2,0.4-0.3,0.8-0.3,1.3c0,0.5,0.1,0.9,0.3,1.3l-51.3,29.6
	c-0.6-0.9-1.6-1.5-2.7-1.5c-1,0-1.9,0.5-2.5,1.2l-50.7-29.3c0.2-0.4,0.3-0.8,0.3-1.3c0-0.5-0.1-0.9-0.3-1.3l50.7-29.3
	c0.6,0.7,1.5,1.2,2.5,1.2C735.9,101.2,736.9,100.6,737.5,99.8z M734.7,35.9C734.7,35.9,734.8,35.9,734.7,35.9l0,58.8c0,0,0,0,0,0
	c-1.8,0-3.2,1.5-3.2,3.2c0,0.5,0.1,1,0.4,1.4l-50.7,29.3c-0.5-0.7-1.3-1.2-2.2-1.3V68.5c1.6-0.2,2.9-1.5,2.9-3.2
	c0-0.5-0.1-0.9-0.3-1.3l50.7-29.3C732.9,35.4,733.8,35.9,734.7,35.9z M624.7,31.6L676,1.9c0.6,0.8,1.5,1.3,2.6,1.3s2-0.5,2.6-1.3
	l50.7,29.3c-0.2,0.4-0.4,0.9-0.4,1.5s0.1,1,0.4,1.5l-50.7,29.3c-0.6-0.8-1.5-1.3-2.6-1.3s-2,0.5-2.6,1.3l-51.3-29.6
	c0.1-0.3,0.2-0.7,0.2-1.1S624.8,31.9,624.7,31.6z M622.4,35.8c0.8-0.2,1.5-0.7,1.9-1.4L675.6,64c-0.2,0.4-0.3,0.8-0.3,1.3
	c0,1.7,1.3,3,2.9,3.2v58.9c-0.9,0.1-1.7,0.6-2.2,1.3l-51.3-29.6c0.1-0.3,0.2-0.7,0.2-1.1c0-1.5-1.1-2.8-2.5-3.1V35.8z M624.3,99.8
	l51.3,29.6c-0.2,0.4-0.3,0.8-0.3,1.3c0,0.5,0.1,0.9,0.3,1.3l-51.3,29.6c-0.6-0.9-1.6-1.5-2.7-1.5c-1,0-1.9,0.5-2.5,1.2l-50.7-29.3
	c0.2-0.4,0.3-0.8,0.3-1.3c0-0.5-0.1-0.9-0.3-1.3l50.7-29.3c0.6,0.7,1.5,1.2,2.5,1.2C622.7,101.2,623.7,100.6,624.3,99.8z
	 M565.8,68.5c1.6-0.2,2.9-1.5,2.9-3.2c0-0.5-0.1-0.9-0.3-1.3l50.7-29.3c0.6,0.7,1.5,1.2,2.5,1.2c0,0,0,0,0,0v58.8c0,0,0,0,0,0
	c-1.8,0-3.2,1.5-3.2,3.2c0,0.5,0.1,1,0.4,1.4L568,128.7c-0.5-0.7-1.3-1.2-2.2-1.3V68.5z M568.4,197.2c0.2-0.4,0.3-0.8,0.3-1.3
	c0-1.7-1.3-3-2.9-3.2v-58.9c0.9-0.1,1.7-0.6,2.2-1.3l50.7,29.3c-0.2,0.4-0.4,0.9-0.4,1.5c0,1.8,1.5,3.2,3.2,3.2c0,0,0,0,0,0v58.8
	c0,0,0,0,0,0c-1,0-1.9,0.5-2.5,1.2L568.4,197.2z M568.7,261.3c0-0.5-0.1-0.9-0.3-1.3l50.7-29.3c0.6,0.7,1.5,1.2,2.5,1.2c0,0,0,0,0,0
	v58.8c0,0,0,0,0,0c-1.8,0-3.2,1.5-3.2,3.2c0,0.5,0.1,1,0.4,1.4L568,324.6c-0.5-0.7-1.3-1.2-2.2-1.3l0-58.9
	C567.4,264.3,568.7,262.9,568.7,261.3z M568.4,393.2c0.2-0.4,0.3-0.8,0.3-1.3c0-1.7-1.3-3-2.9-3.2l0-58.9c0.9-0.1,1.7-0.6,2.2-1.3
	l50.7,29.3c-0.2,0.4-0.4,0.9-0.4,1.5c0,1.8,1.5,3.2,3.2,3.2c0,0,0,0,0,0l0,58.8c0,0,0,0,0,0c-1,0-1.9,0.5-2.5,1.2L568.4,393.2z
	 M568,520.6c-0.5-0.7-1.3-1.2-2.2-1.3l0-58.9c1.6-0.2,2.9-1.5,2.9-3.2c0-0.5-0.1-0.9-0.3-1.3l50.7-29.3c0.6,0.7,1.5,1.2,2.5,1.2
	c0,0,0,0,0,0l0,58.8c0,0,0,0,0,0c-1.8,0-3.2,1.5-3.2,3.2c0,0.5,0.1,1,0.4,1.4L568,520.6z M675.6,523.8l-51.3,29.6
	c-0.6-0.9-1.6-1.5-2.7-1.5c-1,0-1.9,0.5-2.5,1.2l-50.7-29.3c0.2-0.4,0.3-0.8,0.3-1.3c0-0.5-0.1-0.9-0.3-1.3l50.7-29.3
	c0.6,0.7,1.5,1.2,2.5,1.2c1.1,0,2.1-0.6,2.7-1.5l51.3,29.6c-0.2,0.4-0.3,0.8-0.3,1.3C675.3,523,675.4,523.4,675.6,523.8z M676,520.6
	L624.7,491c0.1-0.3,0.2-0.7,0.2-1.1c0-1.5-1.1-2.8-2.5-3.1l0-59c0.8-0.2,1.5-0.7,1.9-1.4l51.3,29.6c-0.2,0.4-0.3,0.8-0.3,1.3
	c0,1.7,1.3,3,2.9,3.2l0,58.9C677.3,519.4,676.5,519.9,676,520.6z M678.6,454c-1.1,0-2,0.5-2.6,1.3l-51.3-29.6
	c0.1-0.3,0.2-0.7,0.2-1.1c0-0.4-0.1-0.7-0.2-1.1l51.3-29.6c0.6,0.8,1.5,1.3,2.6,1.3c1.1,0,2-0.5,2.6-1.3l50.7,29.3
	c-0.2,0.4-0.4,0.9-0.4,1.5c0,0.5,0.1,1,0.4,1.4l-50.7,29.3C680.6,454.5,679.6,454,678.6,454z M681.2,520.6c-0.5-0.7-1.3-1.2-2.2-1.3
	l0-58.9c1.6-0.2,2.9-1.5,2.9-3.2c0-0.5-0.1-0.9-0.3-1.3l50.7-29.3c0.6,0.7,1.5,1.2,2.5,1.2c0,0,0,0,0,0l0,58.8c0,0,0,0,0,0
	c-1.8,0-3.2,1.5-3.2,3.2c0,0.5,0.1,1,0.4,1.4L681.2,520.6z M788.7,523.8l-51.3,29.6c-0.6-0.9-1.6-1.5-2.7-1.5c-1,0-1.9,0.5-2.5,1.2
	l-50.7-29.3c0.2-0.4,0.3-0.8,0.3-1.3c0-0.5-0.1-0.9-0.3-1.3l50.7-29.3c0.6,0.7,1.5,1.2,2.5,1.2c1.1,0,2.1-0.6,2.7-1.5l51.3,29.6
	c-0.2,0.4-0.3,0.8-0.3,1.3C788.5,523,788.6,523.4,788.7,523.8z M789.1,520.6L737.8,491c0.1-0.3,0.2-0.7,0.2-1.1
	c0-1.5-1.1-2.8-2.5-3.1l0-59c0.8-0.2,1.5-0.7,1.9-1.4l51.3,29.6c-0.2,0.4-0.3,0.8-0.3,1.3c0,1.7,1.3,3,2.9,3.2l0,58.9
	C790.4,519.4,789.6,519.9,789.1,520.6z M791.7,454c-1.1,0-2,0.5-2.6,1.3l-51.3-29.6c0.1-0.3,0.2-0.7,0.2-1.1c0-0.4-0.1-0.7-0.2-1.1
	l51.3-29.6c0.6,0.8,1.5,1.3,2.6,1.3c1.1,0,2-0.5,2.6-1.3l50.7,29.3c-0.2,0.4-0.4,0.9-0.4,1.5c0,0.5,0.1,1,0.4,1.4l-50.7,29.3
	C793.7,454.5,792.8,454,791.7,454z M794.3,520.6c-0.5-0.7-1.3-1.2-2.2-1.3l0-58.9c1.6-0.2,2.9-1.5,2.9-3.2c0-0.5-0.1-0.9-0.3-1.3
	l50.7-29.3c0.6,0.7,1.5,1.2,2.5,1.2c0,0,0,0,0,0l0,58.8c0,0,0,0,0,0c-1.8,0-3.2,1.5-3.2,3.2c0,0.5,0.1,1,0.4,1.4L794.3,520.6z
	 M901.9,523.8l-51.3,29.6c-0.6-0.9-1.6-1.5-2.7-1.5c-1,0-1.9,0.5-2.5,1.2l-50.7-29.3c0.2-0.4,0.3-0.8,0.3-1.3c0-0.5-0.1-0.9-0.3-1.3
	l50.7-29.3c0.6,0.7,1.5,1.2,2.5,1.2c1.1,0,2.1-0.6,2.7-1.5l51.3,29.6c-0.2,0.4-0.3,0.8-0.3,1.3C901.6,523,901.7,523.4,901.9,523.8z
	 M902.3,520.6L850.9,491c0.1-0.3,0.2-0.7,0.2-1.1c0-1.5-1.1-2.8-2.5-3.1l0-59c0.8-0.2,1.5-0.7,1.9-1.4l51.3,29.6
	c-0.2,0.4-0.3,0.8-0.3,1.3c0,1.7,1.3,3,2.9,3.2l0,58.9C903.6,519.4,902.8,519.9,902.3,520.6z M904.8,454c-1.1,0-2,0.5-2.6,1.3
	l-51.3-29.6c0.1-0.3,0.2-0.7,0.2-1.1c0-0.4-0.1-0.7-0.2-1.1l51.3-29.6c0.6,0.8,1.5,1.3,2.6,1.3c1.1,0,2-0.5,2.6-1.3l50.7,29.3
	c-0.2,0.4-0.4,0.9-0.4,1.5c0,0.5,0.1,1,0.4,1.4l-50.7,29.3C906.8,454.5,905.9,454,904.8,454z M907.4,520.6c-0.5-0.7-1.3-1.2-2.2-1.3
	l0-58.9c1.6-0.2,2.9-1.5,2.9-3.2c0-0.5-0.1-0.9-0.3-1.3l50.7-29.3c0.6,0.7,1.5,1.2,2.5,1.2c0,0,0,0,0,0l0,58.8c0,0,0,0,0,0
	c-1.8,0-3.2,1.5-3.2,3.2c0,0.5,0.1,1,0.4,1.4L907.4,520.6z M1015,523.8l-51.3,29.6c-0.6-0.9-1.6-1.5-2.7-1.5c-1,0-1.9,0.5-2.5,1.2
	l-50.7-29.3c0.2-0.4,0.3-0.8,0.3-1.3c0-0.5-0.1-0.9-0.3-1.3l50.7-29.3c0.6,0.7,1.5,1.2,2.5,1.2c1.1,0,2.1-0.6,2.7-1.5l51.3,29.6
	c-0.2,0.4-0.3,0.8-0.3,1.3C1014.7,523,1014.8,523.4,1015,523.8z M1015.4,520.6L964.1,491c0.1-0.3,0.2-0.7,0.2-1.1
	c0-1.5-1.1-2.8-2.5-3.1l0-59c0.8-0.2,1.5-0.7,1.9-1.4l51.3,29.6c-0.2,0.4-0.3,0.8-0.3,1.3c0,1.7,1.3,3,2.9,3.2l0,58.9
	C1016.7,519.4,1015.9,519.9,1015.4,520.6z M1018,454c-1.1,0-2,0.5-2.6,1.3l-51.3-29.6c0.1-0.3,0.2-0.7,0.2-1.1
	c0-0.4-0.1-0.7-0.2-1.1l51.3-29.6c0.6,0.8,1.5,1.3,2.6,1.3c1.1,0,2-0.5,2.6-1.3l50.7,29.3c-0.2,0.4-0.4,0.9-0.4,1.5
	c0,0.5,0.1,1,0.4,1.4l-50.7,29.3C1020,454.5,1019,454,1018,454z M1020.6,520.6c-0.5-0.7-1.3-1.2-2.2-1.3l0-58.9
	c1.6-0.2,2.9-1.5,2.9-3.2c0-0.5-0.1-0.9-0.3-1.3l50.7-29.3c0.6,0.7,1.5,1.2,2.5,1.2c0,0,0,0,0,0l0,58.8c0,0,0,0,0,0
	c-1.8,0-3.2,1.5-3.2,3.2c0,0.5,0.1,1,0.4,1.4L1020.6,520.6z M1128.1,523.8l-51.3,29.6c-0.6-0.9-1.6-1.5-2.7-1.5
	c-1,0-1.9,0.5-2.5,1.2l-50.7-29.3c0.2-0.4,0.3-0.8,0.3-1.3c0-0.5-0.1-0.9-0.3-1.3l50.7-29.3c0.6,0.7,1.5,1.2,2.5,1.2
	c1.1,0,2.1-0.6,2.7-1.5l51.3,29.6c-0.2,0.4-0.3,0.8-0.3,1.3C1127.9,523,1128,523.4,1128.1,523.8z M1128.1,455.9
	c-0.2,0.4-0.3,0.8-0.3,1.3c0,1.7,1.3,3,2.9,3.2l0,58.9c-0.9,0.1-1.7,0.6-2.2,1.3l-51.3-29.6c0.1-0.3,0.2-0.7,0.2-1.1
	c0-1.5-1.1-2.8-2.5-3.1l0-59c0.8-0.2,1.5-0.7,1.9-1.4L1128.1,455.9z M1130.7,388.7c-1.6,0.2-2.9,1.5-2.9,3.2c0,0.5,0.1,0.9,0.3,1.3
	l-51.3,29.6c-0.4-0.7-1.1-1.2-1.9-1.4l0-59c1.4-0.4,2.5-1.6,2.5-3.1c0-0.4-0.1-0.7-0.2-1.1l51.3-29.6c0.5,0.7,1.3,1.2,2.2,1.3
	L1130.7,388.7z M1128.1,260c-0.2,0.4-0.3,0.8-0.3,1.3c0,1.7,1.3,3,2.9,3.2l0,58.9c-0.9,0.1-1.7,0.6-2.2,1.3l-51.3-29.6
	c0.1-0.3,0.2-0.7,0.2-1.1c0-1.5-1.1-2.8-2.5-3.1v-59c0.8-0.2,1.5-0.7,1.9-1.4L1128.1,260z M1130.7,192.7c-1.6,0.2-2.9,1.5-2.9,3.2
	c0,0.5,0.1,0.9,0.3,1.3l-51.3,29.6c-0.4-0.7-1.1-1.2-1.9-1.4v-59c1.4-0.3,2.5-1.6,2.5-3.1c0-0.4-0.1-0.7-0.2-1.1l51.3-29.6
	c0.5,0.7,1.3,1.2,2.2,1.3V192.7z M1128.1,64c-0.2,0.4-0.3,0.8-0.3,1.3c0,1.7,1.3,3,2.9,3.2v58.9c-0.9,0.1-1.7,0.6-2.2,1.3
	l-51.3-29.6c0.1-0.3,0.2-0.7,0.2-1.1c0-1.5-1.1-2.8-2.5-3.1v-59c0.8-0.2,1.5-0.7,1.9-1.4L1128.1,64z"/>
</svg>
