<?xml version="1.0" encoding="utf-8"?>
<!-- Generator: Adobe Illustrator 18.0.0, SVG Export Plug-In . SVG Version: 6.00 Build 0)  -->
<!DOCTYPE svg PUBLIC "-//W3C//DTD SVG 1.1//EN" "http://www.w3.org/Graphics/SVG/1.1/DTD/svg11.dtd">
<svg version="1.1" id="Layer_1" xmlns="http://www.w3.org/2000/svg" xmlns:xlink="http://www.w3.org/1999/xlink" x="0px" y="0px"
	 viewBox="0 117.8 1024 532.9" enable-background="new 0 117.8 1024 532.9" xml:space="preserve">
<path opacity="0.25" fill="#D0E2DF" enable-background="new    " d="M512.4,120.7v-2.9h-2.9c0,0.5,0.1,0.8,0.3,1.2l-46.5,26.8
	c-0.4-0.6-1-1.1-1.7-1.3v-26.7h-0.7v26.6l0,0c-0.9,0-1.7,0.5-2.3,1.1l-46-26.5c0.2-0.4,0.3-0.7,0.3-1.2h-5.9c0,0.5,0.1,0.8,0.3,1.2
	l-46.5,26.8c-0.4-0.6-1-1.1-1.7-1.3v-26.7h-0.7v26.6l0,0c-0.9,0-1.7,0.5-2.3,1.1l-45.9-26.5c0.2-0.4,0.3-0.7,0.3-1.2h-5.9
	c0,0.5,0.1,0.8,0.3,1.2l-46.5,26.8c-0.4-0.6-1-1.1-1.7-1.3v-26.7h-0.7v26.6l0,0c-0.9,0-1.7,0.5-2.3,1.1l-45.9-26.5
	c0.2-0.4,0.3-0.7,0.3-1.2h-6c0,0.5,0.1,0.8,0.3,1.2l-46.5,26.8c-0.4-0.6-1-1.1-1.7-1.3v-26.7h-0.7v26.6l0,0c-0.9,0-1.7,0.5-2.3,1.1
	l-45.9-26.5c0.2-0.4,0.3-0.7,0.3-1.2h-5.9c0,0.5,0.1,0.8,0.3,1.2l-46.5,26.8c-0.4-0.6-1-1.1-1.7-1.3v-26.7h-0.7v26.6l0,0
	c-0.9,0-1.7,0.5-2.3,1.1L2.7,118.9c0.2-0.4,0.3-0.7,0.3-1.2H0v2.9c1,0,1.8-0.5,2.4-1.2L48.3,146c-0.2,0.4-0.4,0.8-0.4,1.4
	s0.1,0.9,0.4,1.4L2.4,175.2C1.8,174.5,1,174,0,174v124.2c1,0,1.8-0.5,2.4-1.2l45.9,26.5c-0.2,0.4-0.4,0.8-0.4,1.4
	c0,0.5,0.1,0.9,0.4,1.3L2.4,352.6c-0.5-0.7-1.4-1.2-2.4-1.2v124.2c1,0,1.8-0.5,2.4-1.2L48.3,501c-0.2,0.4-0.4,0.8-0.4,1.4
	c0,0.5,0.1,0.9,0.4,1.3L2.4,530.1C1.8,529.4,1,529,0,529v121.3h2.9c0-1.5-1.2-2.7-2.6-2.9V594c0.8-0.1,1.5-0.5,2-1.2l45.9,26.5
	c-0.2,0.4-0.4,0.8-0.4,1.4c0,1.6,1.4,2.9,2.9,2.9l0,0v26.6h0.9v-26.7c1.3-0.4,2.3-1.4,2.3-2.8c0-0.4-0.1-0.6-0.2-1l46.5-26.8
	c0.5,0.6,1.2,1.1,2,1.2v53.3c-1.4,0.2-2.6,1.4-2.6,2.9h5.9c0-1.5-1.2-2.7-2.6-2.9v-53.3c0.8-0.1,1.5-0.5,2-1.2l45.9,26.5
	c-0.2,0.4-0.4,0.8-0.4,1.4c0,1.6,1.4,2.9,2.9,2.9l0,0v26.6h0.7v-26.7c1.3-0.4,2.3-1.4,2.3-2.8c0-0.4-0.1-0.6-0.2-1l46.5-26.8
	c0.5,0.6,1.2,1.1,2,1.2v53.3c-1.4,0.2-2.6,1.4-2.6,2.9h5.9c0-1.5-1.2-2.7-2.6-2.9v-53.3c0.8-0.1,1.5-0.5,2-1.2l45.9,26.5
	c-0.2,0.4-0.4,0.8-0.4,1.4c0,1.6,1.4,2.9,2.9,2.9l0,0v26.6h0.7v-26.7c1.3-0.4,2.3-1.4,2.3-2.8c0-0.4-0.1-0.6-0.2-1l46.5-26.8
	c0.5,0.6,1.2,1.1,2,1.2v53.3c-1.4,0.2-2.6,1.4-2.6,2.9h5.9c0-1.5-1.2-2.7-2.6-2.9v-53.3c0.8-0.1,1.5-0.5,2-1.2l45.9,26.5
	c-0.2,0.4-0.4,0.8-0.4,1.4c0,1.6,1.4,2.9,2.9,2.9l0,0v26.6h0.7v-26.7c1.3-0.4,2.3-1.4,2.3-2.8c0-0.4-0.1-0.6-0.2-1l46.5-26.8
	c0.5,0.6,1.2,1.1,2,1.2v53.3c-1.4,0.2-2.6,1.4-2.6,2.9h5.9c0-1.5-1.2-2.7-2.6-2.9v-53.3c0.8-0.1,1.5-0.5,2-1.2l45.9,26.5
	c-0.2,0.4-0.4,0.8-0.4,1.4c0,1.6,1.4,2.9,2.9,2.9l0,0v26.6h0.7v-26.7c1.3-0.4,2.3-1.4,2.3-2.8c0-0.4-0.1-0.6-0.2-1l46.5-26.8
	c0.5,0.6,1.2,1.1,2,1.2v53.3c-1.4,0.2-2.6,1.4-2.6,2.9h2.9V529c-1,0-1.8,0.5-2.4,1.2L463,503.3c0.1-0.3,0.2-0.6,0.2-1
	c0-0.4-0.1-0.6-0.2-1l46.5-26.8c0.5,0.7,1.4,1.2,2.4,1.2V351.4c-1,0-1.8,0.5-2.4,1.2L463,325.8c0.1-0.3,0.2-0.6,0.2-1
	c0-0.4-0.1-0.6-0.2-1l46.5-26.8c0.5,0.7,1.4,1.2,2.4,1.2V174c-1,0-1.8,0.5-2.4,1.2L463,148.4c0.1-0.3,0.2-0.6,0.2-1s-0.1-0.6-0.2-1
	l46.5-26.8C510.6,120.2,511.4,120.7,512.4,120.7z M463.2,208.2l46.5,26.8c-0.2,0.4-0.3,0.7-0.3,1.2c0,0.5,0.1,0.8,0.3,1.2
	l-46.5,26.8c-0.5-0.8-1.4-1.4-2.4-1.4c-0.9,0-1.7,0.5-2.3,1.1l-45.9-26.5c0.2-0.4,0.3-0.7,0.3-1.2c0-0.5-0.1-0.8-0.3-1.2l45.9-26.5
	c0.5,0.6,1.4,1.1,2.3,1.1C461.8,209.4,462.7,208.9,463.2,208.2z M509.6,414.7l-46.5,26.8c-0.5-0.8-1.4-1.4-2.4-1.4
	c-0.9,0-1.7,0.5-2.3,1.1l-45.9-26.5c0.2-0.4,0.3-0.7,0.3-1.2s-0.1-0.8-0.3-1.2l45.9-26.5c0.5,0.6,1.4,1.1,2.3,1.1
	c1,0,1.9-0.5,2.4-1.4l46.5,26.8c-0.2,0.4-0.3,0.7-0.3,1.2C509.4,413.9,509.5,414.4,509.6,414.7z M410.2,469.8v-53.3
	c0.8-0.1,1.5-0.5,2-1.2l45.9,26.5c-0.2,0.4-0.4,0.8-0.4,1.4c0,1.6,1.4,2.9,2.9,2.9l0,0v53.3l0,0c-0.9,0-1.7,0.5-2.3,1.1l-45.9-26.5
	c0.2-0.4,0.3-0.7,0.3-1.2C412.8,471.2,411.6,470,410.2,469.8z M407.2,473.9l-46.5,26.8c-0.4-0.6-1-1.1-1.7-1.3V446
	c1.3-0.4,2.3-1.4,2.3-2.8c0-0.4-0.1-0.6-0.2-1l46.5-26.8c0.5,0.6,1.2,1.1,2,1.2v53.3c-1.4,0.2-2.6,1.4-2.6,2.9
	C406.9,473.2,407,473.5,407.2,473.9z M307.8,469.8v-53.3c0.8-0.1,1.5-0.5,2-1.2l45.9,26.5c-0.2,0.4-0.4,0.8-0.4,1.4
	c0,1.6,1.4,2.9,2.9,2.9l0,0v53.3l0,0c-0.9,0-1.7,0.5-2.3,1.1L310,473.9c0.2-0.4,0.3-0.7,0.3-1.2C310.4,471.2,309.2,470,307.8,469.8z
	 M304.7,473.9l-46.5,26.8c-0.4-0.6-1-1.1-1.7-1.3V446c1.3-0.4,2.3-1.4,2.3-2.8c0-0.4-0.1-0.6-0.2-1l46.5-26.8c0.5,0.6,1.2,1.1,2,1.2
	v53.3c-1.4,0.2-2.6,1.4-2.6,2.9C304.5,473.2,304.6,473.5,304.7,473.9z M205.3,469.8v-53.3c0.8-0.1,1.5-0.5,2-1.2l45.9,26.5
	c-0.2,0.4-0.4,0.8-0.4,1.4c0,1.6,1.4,2.9,2.9,2.9l0,0v53.3l0,0c-0.9,0-1.7,0.5-2.3,1.1l-45.9-26.5c0.2-0.4,0.3-0.7,0.3-1.2
	C207.9,471.2,206.8,470,205.3,469.8z M202.2,473.9l-46.5,26.8c-0.4-0.6-1-1.1-1.7-1.3V446c1.3-0.4,2.3-1.4,2.3-2.8
	c0-0.4-0.1-0.6-0.2-1l46.5-26.8c0.5,0.6,1.2,1.1,2,1.2v53.3c-1.4,0.2-2.6,1.4-2.6,2.9C202,473.2,202.1,473.5,202.2,473.9z
	 M102.8,469.8v-53.3c0.8-0.1,1.5-0.5,2-1.2l45.9,26.5c-0.2,0.4-0.4,0.8-0.4,1.4c0,1.6,1.4,2.9,2.9,2.9l0,0v53.3l0,0
	c-0.9,0-1.7,0.5-2.3,1.1l-45.9-26.5c0.2-0.4,0.3-0.7,0.3-1.2C105.4,471.2,104.2,470,102.8,469.8z M99.8,473.9l-46.5,26.8
	c-0.4-0.6-1-1.1-1.7-1.3V446c1.3-0.4,2.3-1.4,2.3-2.8c0-0.4-0.1-0.6-0.2-1l46.5-26.8c0.5,0.6,1.2,1.1,2,1.2v53.3
	c-1.4,0.2-2.6,1.4-2.6,2.9C99.5,473.2,99.6,473.5,99.8,473.9z M2.7,412.4l45.9-26.5c0.5,0.6,1.4,1.1,2.3,1.1c1,0,1.9-0.5,2.4-1.4
	l46.5,26.8c-0.2,0.4-0.3,0.7-0.3,1.2c0,0.5,0.1,0.8,0.3,1.2l-46.5,26.8c-0.5-0.8-1.4-1.4-2.4-1.4c-0.9,0-1.7,0.5-2.3,1.1L2.7,414.7
	c0.2-0.4,0.3-0.7,0.3-1.2C3,413.1,2.9,412.8,2.7,412.4z M100.2,411.8L53.6,385c0.1-0.3,0.2-0.6,0.2-1c0-1.4-1-2.5-2.3-2.8v-53.4
	c0.7-0.2,1.4-0.6,1.7-1.3l46.5,26.8c-0.2,0.4-0.3,0.7-0.3,1.2c0,1.5,1.2,2.7,2.6,2.9v53.3C101.3,410.8,100.6,411.2,100.2,411.8z
	 M53.6,264.7l46.5-26.8c0.5,0.6,1.2,1.1,2,1.2v53.3c-1.4,0.2-2.6,1.4-2.6,2.9c0,0.5,0.1,0.8,0.3,1.2l-46.5,26.8
	c-0.4-0.6-1-1.1-1.7-1.3v-53.4c1.3-0.3,2.3-1.4,2.3-2.8C53.8,265.3,53.8,264.9,53.6,264.7z M100.2,352.6l-46.5-26.8
	c0.1-0.3,0.2-0.6,0.2-1c0-0.4-0.1-0.6-0.2-1l46.5-26.8c0.5,0.7,1.4,1.2,2.4,1.2s1.8-0.5,2.4-1.2l45.9,26.5c-0.2,0.4-0.4,0.8-0.4,1.4
	c0,0.5,0.1,0.9,0.4,1.3l-45.9,26.5c-0.5-0.7-1.4-1.2-2.4-1.2C101.5,351.4,100.7,351.9,100.2,352.6z M153.3,268.6L153.3,268.6v53.3
	l0,0c-0.9,0-1.7,0.5-2.3,1.1l-45.9-26.5c0.2-0.4,0.3-0.7,0.3-1.2c0-1.5-1.2-2.7-2.6-2.9v-53.3c0.8-0.1,1.5-0.5,2-1.2l45.9,26.5
	c-0.2,0.4-0.4,0.8-0.4,1.4C150.4,267.3,151.7,268.6,153.3,268.6z M150.7,385.3l-45.9,26.5c-0.5-0.6-1.2-1.1-2-1.2v-53.3
	c1.4-0.2,2.6-1.4,2.6-2.9c0-0.5-0.1-0.8-0.3-1.2l45.9-26.5c0.5,0.6,1.4,1.1,2.3,1.1l0,0v53.3l0,0c-1.6,0-2.9,1.4-2.9,2.9
	C150.4,384.5,150.5,384.9,150.7,385.3z M153.3,440.2c-0.9,0-1.7,0.5-2.3,1.1l-45.9-26.5c0.2-0.4,0.3-0.7,0.3-1.2s-0.1-0.8-0.3-1.2
	l45.9-26.5c0.5,0.6,1.4,1.1,2.3,1.1c1,0,1.9-0.5,2.4-1.4l46.5,26.8c-0.2,0.4-0.3,0.7-0.3,1.2s0.1,0.8,0.3,1.2l-46.5,26.8
	C155.3,440.7,154.4,440.2,153.3,440.2z M202.6,411.8L156.1,385c0.1-0.3,0.2-0.6,0.2-1c0-1.4-1-2.5-2.3-2.8v-53.4
	c0.7-0.2,1.4-0.6,1.7-1.3l46.5,26.8c-0.2,0.4-0.3,0.7-0.3,1.2c0,1.5,1.2,2.7,2.6,2.9v53.3C203.8,410.8,203.1,411.2,202.6,411.8z
	 M156.1,264.7l46.5-26.8c0.5,0.6,1.2,1.1,2,1.2v53.3c-1.4,0.2-2.6,1.4-2.6,2.9c0,0.5,0.1,0.8,0.3,1.2l-46.5,26.7
	c-0.4-0.6-1-1.1-1.7-1.3v-53.4c1.3-0.3,2.3-1.4,2.3-2.8C156.3,265.3,156.2,264.9,156.1,264.7z M202.6,352.6l-46.5-26.8
	c0.1-0.3,0.2-0.6,0.2-1c0-0.4-0.1-0.6-0.2-1l46.5-26.8c0.5,0.7,1.4,1.2,2.4,1.2c1,0,1.8-0.5,2.4-1.2l45.9,26.5
	c-0.2,0.4-0.4,0.8-0.4,1.4c0,0.5,0.1,0.9,0.4,1.3l-45.9,26.5c-0.5-0.7-1.4-1.2-2.4-1.2C204,351.4,203.2,351.9,202.6,352.6z
	 M255.9,268.6L255.9,268.6v53.3l0,0c-0.9,0-1.7,0.5-2.3,1.1l-45.9-26.5c0.2-0.4,0.3-0.7,0.3-1.2c0-1.5-1.2-2.7-2.6-2.9v-53.3
	c0.8-0.1,1.5-0.5,2-1.2l45.9,26.5c-0.2,0.4-0.4,0.8-0.4,1.4C252.9,267.3,254.2,268.6,255.9,268.6z M253.2,385.3l-45.9,26.5
	c-0.5-0.6-1.2-1.1-2-1.2v-53.3c1.4-0.2,2.6-1.4,2.6-2.9c0-0.5-0.1-0.8-0.3-1.2l45.9-26.5c0.5,0.6,1.4,1.1,2.3,1.1l0,0v53.3l0,0
	c-1.6,0-2.9,1.4-2.9,2.9C252.9,384.5,253.1,384.9,253.2,385.3z M255.9,440.2c-0.9,0-1.7,0.5-2.3,1.1l-45.9-26.5
	c0.2-0.4,0.3-0.7,0.3-1.2s-0.1-0.8-0.3-1.2l45.9-26.5c0.5,0.6,1.4,1.1,2.3,1.1c1,0,1.9-0.5,2.4-1.4l46.5,26.8
	c-0.2,0.4-0.3,0.7-0.3,1.2c0,0.5,0.1,0.8,0.3,1.2l-46.5,26.8C257.8,440.7,256.9,440.2,255.9,440.2z M305,411.8L258.6,385
	c0.1-0.3,0.2-0.6,0.2-1c0-1.4-1-2.5-2.3-2.8v-53.4c0.7-0.2,1.4-0.6,1.7-1.3l46.5,26.8c-0.2,0.4-0.3,0.7-0.3,1.2
	c0,1.5,1.2,2.7,2.6,2.9v53.3C306.2,410.8,305.5,411.2,305,411.8z M258.6,264.7l46.5-26.8c0.5,0.6,1.2,1.1,2,1.2v53.3
	c-1.4,0.2-2.6,1.4-2.6,2.9c0,0.5,0.1,0.8,0.3,1.2l-46.5,26.8c-0.4-0.6-1-1.1-1.7-1.3v-53.4c1.3-0.3,2.3-1.4,2.3-2.8
	C258.8,265.3,258.7,264.9,258.6,264.7z M305,352.6l-46.5-26.8c0.1-0.3,0.2-0.6,0.2-1c0-0.4-0.1-0.6-0.2-1L305,297
	c0.5,0.7,1.4,1.2,2.4,1.2c1,0,1.8-0.5,2.4-1.2l45.9,26.5c-0.2,0.4-0.4,0.8-0.4,1.4c0,0.5,0.1,0.9,0.4,1.3l-45.9,26.4
	c-0.5-0.7-1.4-1.2-2.4-1.2C306.5,351.4,305.6,351.9,305,352.6z M358.3,268.6L358.3,268.6v53.3l0,0c-0.9,0-1.7,0.5-2.3,1.1
	l-45.9-26.5c0.2-0.4,0.3-0.7,0.3-1.2c0-1.5-1.2-2.7-2.6-2.9v-53.3c0.8-0.1,1.5-0.5,2-1.2l45.9,26.5c-0.2,0.4-0.4,0.8-0.4,1.4
	C355.3,267.3,356.7,268.6,358.3,268.6z M355.7,385.3l-45.9,26.5c-0.5-0.6-1.2-1.1-2-1.2v-53.3c1.4-0.2,2.6-1.4,2.6-2.9
	c0-0.5-0.1-0.8-0.3-1.2l45.9-26.5c0.5,0.6,1.4,1.1,2.3,1.1l0,0v53.3l0,0c-1.6,0-2.9,1.4-2.9,2.9
	C355.3,384.5,355.5,384.9,355.7,385.3z M358.3,440.2c-0.9,0-1.7,0.5-2.3,1.1l-45.9-26.5c0.2-0.4,0.3-0.7,0.3-1.2s-0.1-0.8-0.3-1.2
	l45.9-26.5c0.5,0.6,1.4,1.1,2.3,1.1c1,0,1.9-0.5,2.4-1.4l46.5,26.8c-0.2,0.4-0.3,0.7-0.3,1.2s0.1,0.8,0.3,1.2l-46.5,26.8
	C360.2,440.7,359.3,440.2,358.3,440.2z M407.6,411.8L361,385c0.1-0.3,0.2-0.6,0.2-1c0-1.4-1-2.5-2.3-2.8v-53.4
	c0.7-0.2,1.4-0.6,1.7-1.3l46.5,26.8c-0.2,0.4-0.3,0.7-0.3,1.2c0,1.5,1.2,2.7,2.6,2.9v53.3C408.7,410.8,408,411.2,407.6,411.8z
	 M361,264.7l46.5-26.8c0.5,0.6,1.2,1.1,2,1.2v53.3c-1.4,0.2-2.6,1.4-2.6,2.9c0,0.5,0.1,0.8,0.3,1.2l-46.5,26.8
	c-0.4-0.6-1-1.1-1.7-1.3v-53.4c1.3-0.3,2.3-1.4,2.3-2.8C361.2,265.3,361.2,264.9,361,264.7z M407.6,352.6l-46.5-26.8
	c0.1-0.3,0.2-0.6,0.2-1c0-0.4-0.1-0.6-0.2-1l46.5-26.8c0.5,0.7,1.4,1.2,2.4,1.2c1,0,1.8-0.5,2.4-1.2l45.9,26.5
	c-0.2,0.4-0.4,0.8-0.4,1.4c0,0.5,0.1,0.9,0.4,1.3l-45.9,26.5c-0.5-0.7-1.4-1.2-2.4-1.2C408.9,351.5,408.1,351.9,407.6,352.6z
	 M458.1,385.3l-45.9,26.5c-0.5-0.6-1.2-1.1-2-1.2v-53.3c1.4-0.2,2.6-1.4,2.6-2.9c0-0.5-0.1-0.8-0.3-1.2l45.9-26.5
	c0.5,0.6,1.4,1.1,2.3,1.1l0,0v53.3l0,0c-1.6,0-2.9,1.4-2.9,2.9C457.8,384.5,457.9,384.9,458.1,385.3z M460.7,321.9L460.7,321.9
	c-0.9,0-1.7,0.5-2.3,1.1l-45.9-26.5c0.2-0.4,0.3-0.7,0.3-1.2c0-1.5-1.2-2.7-2.6-2.9V239c0.8-0.1,1.5-0.5,2-1.2l45.9,26.5
	c-0.2,0.4-0.4,0.8-0.4,1.4c0,1.6,1.4,2.9,2.9,2.9l0,0L460.7,321.9L460.7,321.9z M460.7,150.3L460.7,150.3v53.3l0,0
	c-1.6,0-2.9,1.4-2.9,2.9c0,0.5,0.1,0.9,0.4,1.3l-45.9,26.5c-0.5-0.6-1.2-1.1-2-1.2v-53.3c1.4-0.2,2.6-1.4,2.6-2.9
	c0-0.5-0.1-0.8-0.3-1.2l45.9-26.5C459.1,149.8,459.8,150.3,460.7,150.3z M361,146.4l46.6-26.9c0.5,0.7,1.4,1.2,2.4,1.2
	c1,0,1.8-0.5,2.4-1.2l45.9,26.5c-0.2,0.4-0.4,0.8-0.4,1.4s0.1,0.9,0.4,1.3l-45.9,26.5c-0.5-0.7-1.4-1.2-2.4-1.2
	c-1,0-1.8,0.5-2.4,1.2l-46.5-26.8c0.1-0.3,0.2-0.6,0.2-1C361.2,147,361.2,146.7,361,146.4z M359,150.2c0.7-0.2,1.4-0.6,1.7-1.3
	l46.5,26.8c-0.2,0.4-0.3,0.7-0.3,1.2c0,1.5,1.2,2.7,2.6,2.9v53.3c-0.8,0.1-1.5,0.5-2,1.2l-46.5-26.8c0.1-0.3,0.2-0.6,0.2-1
	c0-1.4-1-2.5-2.3-2.8L359,150.2L359,150.2z M360.7,208.2l46.5,26.8c-0.2,0.4-0.3,0.7-0.3,1.2c0,0.5,0.1,0.8,0.3,1.2l-46.5,26.8
	c-0.5-0.8-1.4-1.4-2.4-1.4c-0.9,0-1.7,0.5-2.3,1.1l-45.9-26.5c0.2-0.4,0.3-0.7,0.3-1.2c0-0.5-0.1-0.8-0.3-1.2l45.9-26.5
	c0.5,0.6,1.4,1.1,2.3,1.1C359.3,209.4,360.2,208.9,360.7,208.2z M358.3,150.3L358.3,150.3v53.3l0,0c-1.6,0-2.9,1.4-2.9,2.9
	c0,0.5,0.1,0.9,0.4,1.3l-46,26.6c-0.5-0.6-1.2-1.1-2-1.2v-53.3c1.4-0.2,2.6-1.4,2.6-2.9c0-0.5-0.1-0.8-0.3-1.2l45.9-26.5
	C356.6,149.8,357.4,150.3,358.3,150.3z M258.6,146.4l46.5-26.8c0.5,0.7,1.4,1.2,2.4,1.2c1,0,1.8-0.5,2.4-1.2l45.9,26.5
	c-0.2,0.4-0.4,0.8-0.4,1.3c0,0.5,0.1,0.9,0.4,1.3l-45.9,26.5c-0.5-0.7-1.4-1.2-2.4-1.2c-1,0-1.8,0.5-2.4,1.2l-46.5-26.8
	c0.1-0.3,0.2-0.6,0.2-1C258.8,147,258.7,146.7,258.6,146.4z M256.5,150.2c0.7-0.2,1.4-0.6,1.7-1.3l46.5,26.8
	c-0.2,0.4-0.3,0.7-0.3,1.2c0,1.5,1.2,2.7,2.6,2.9v53.3c-0.8,0.1-1.5,0.5-2,1.2l-46.5-26.8c0.1-0.3,0.2-0.6,0.2-1
	c0-1.4-1-2.5-2.3-2.8V150.2z M258.3,208.2l46.5,26.8c-0.2,0.4-0.3,0.7-0.3,1.2c0,0.5,0.1,0.8,0.3,1.2l-46.5,26.8
	c-0.5-0.8-1.4-1.4-2.4-1.4c-0.9,0-1.7,0.5-2.3,1.1l-45.9-26.5c0.2-0.4,0.3-0.7,0.3-1.2c0-0.5-0.1-0.8-0.3-1.2l45.9-26.5
	c0.5,0.6,1.4,1.1,2.3,1.1C256.9,209.4,257.8,208.9,258.3,208.2z M255.9,150.3L255.9,150.3v53.3l0,0c-1.6,0-2.9,1.4-2.9,2.9
	c0,0.5,0.1,0.9,0.4,1.3l-45.9,26.5c-0.5-0.6-1.2-1.1-2-1.2v-53.3c1.4-0.2,2.6-1.4,2.6-2.9c0-0.5-0.1-0.8-0.3-1.2l45.8-26.5
	C254.1,149.8,255,150.3,255.9,150.3z M156.1,146.4l46.5-26.8c0.5,0.7,1.4,1.2,2.4,1.2c1,0,1.8-0.5,2.4-1.2l45.9,26.5
	c-0.2,0.4-0.4,0.8-0.4,1.4s0.1,0.9,0.4,1.4l-45.9,26.5c-0.5-0.7-1.4-1.2-2.4-1.2c-1,0-1.8,0.5-2.4,1.2l-46.5-26.8
	c0.1-0.3,0.2-0.6,0.2-1C156.3,147,156.2,146.7,156.1,146.4z M154.1,150.2c0.7-0.2,1.4-0.6,1.7-1.3l46.5,26.8
	c-0.2,0.4-0.3,0.7-0.3,1.2c0,1.5,1.2,2.7,2.6,2.9v53.3c-0.8,0.1-1.5,0.5-2,1.2l-46.5-26.8c0.1-0.3,0.2-0.6,0.2-1
	c0-1.4-1-2.5-2.3-2.8L154.1,150.2L154.1,150.2z M155.8,208.2l46.5,26.8c-0.2,0.4-0.3,0.7-0.3,1.2c0,0.5,0.1,0.8,0.3,1.2L155.8,264
	c-0.5-0.8-1.4-1.4-2.4-1.4c-0.9,0-1.7,0.5-2.3,1.1l-45.9-26.5c0.2-0.4,0.3-0.7,0.3-1.2c0-0.5-0.1-0.8-0.3-1.2l45.9-26.5
	c0.5,0.6,1.4,1.1,2.3,1.1C154.4,209.4,155.3,208.9,155.8,208.2z M153.3,150.3L153.3,150.3v53.3l0,0c-1.6,0-2.9,1.4-2.9,2.9
	c0,0.5,0.1,0.9,0.4,1.3l-45.9,26.5c-0.5-0.6-1.2-1.1-2-1.2v-53.3c1.4-0.2,2.6-1.4,2.6-2.9c0-0.5-0.1-0.8-0.3-1.2l45.9-26.5
	C151.7,149.8,152.4,150.3,153.3,150.3z M53.6,146.4l46.5-26.8c0.5,0.7,1.4,1.2,2.4,1.2s1.8-0.5,2.4-1.2l45.9,26.5
	c-0.2,0.4-0.4,0.8-0.4,1.4s0.1,0.9,0.4,1.4l-45.9,26.5c-0.5-0.7-1.4-1.2-2.4-1.2s-1.8,0.5-2.4,1.2l-46.5-27.1c0.1-0.3,0.2-0.6,0.2-1
	C53.8,147,53.8,146.7,53.6,146.4z M51.6,150.2c0.7-0.2,1.4-0.6,1.7-1.3l46.5,26.8c-0.2,0.4-0.3,0.7-0.3,1.2c0,1.5,1.2,2.7,2.6,2.9
	v53.3c-0.8,0.1-1.5,0.5-2,1.2l-46.6-26.8c0.1-0.3,0.2-0.6,0.2-1c0-1.4-1-2.5-2.3-2.8L51.6,150.2L51.6,150.2z M53.3,208.2L99.8,235
	c-0.2,0.4-0.3,0.7-0.3,1.2c0,0.5,0.1,0.8,0.3,1.2l-46.5,26.8c-0.5-0.8-1.4-1.4-2.4-1.4c-0.9,0-1.7,0.5-2.3,1.1L2.7,237.2
	c0.2-0.4,0.3-0.7,0.3-1.2c0-0.5-0.1-0.8-0.3-1.2l45.9-26.5c0.5,0.6,1.4,1.1,2.3,1.1C51.9,209.4,52.8,208.9,53.3,208.2z M0.4,179.8
	c1.4-0.2,2.6-1.4,2.6-2.9c0-0.5-0.1-0.8-0.3-1.2l45.9-26.5c0.5,0.6,1.4,1.1,2.3,1.1l0,0v53.3l0,0c-1.6,0-2.9,1.4-2.9,2.9
	c0,0.5,0.1,0.9,0.4,1.3l-46,26.6c-0.5-0.6-1.2-1.1-2-1.2C0.4,233.2,0.4,179.8,0.4,179.8z M2.7,296.4c0.2-0.4,0.3-0.7,0.3-1.2
	c0-1.5-1.2-2.7-2.6-2.9v-53.3c0.8-0.1,1.5-0.5,2-1.2l45.9,26.5c-0.2,0.4-0.4,0.8-0.4,1.4c0,1.6,1.4,2.9,2.9,2.9l0,0v53.3l0,0
	c-0.9,0-1.7,0.5-2.3,1.1L2.7,296.4z M3,354.4c0-0.5-0.1-0.8-0.3-1.2l45.9-26.5c0.5,0.6,1.4,1.1,2.3,1.1l0,0v53.3l0,0
	c-1.6,0-2.9,1.4-2.9,2.9c0,0.5,0.1,0.9,0.4,1.3l-46,26.5c-0.5-0.6-1.2-1.1-2-1.2v-53.3C1.8,357.1,3,355.9,3,354.4z M2.7,473.9
	c0.2-0.4,0.3-0.7,0.3-1.2c0-1.5-1.2-2.7-2.6-2.9v-53.3c0.8-0.1,1.5-0.5,2-1.2l45.9,26.5c-0.2,0.4-0.4,0.8-0.4,1.4
	c0,1.6,1.4,2.9,2.9,2.9l0,0v53.3l0,0c-0.9,0-1.7,0.5-2.3,1.1L2.7,473.9z M2.4,589.3c-0.5-0.6-1.2-1.1-2-1.2v-53.3
	c1.4-0.2,2.6-1.4,2.6-2.9c0-0.5-0.1-0.8-0.3-1.2l45.9-26.5c0.5,0.6,1.4,1.1,2.3,1.1l0,0v53.3l0,0c-1.6,0-2.9,1.4-2.9,2.9
	c0,0.5,0.1,0.9,0.4,1.3L2.4,589.3z M99.8,592.2L53.3,619c-0.5-0.8-1.4-1.4-2.4-1.4c-0.9,0-1.7,0.5-2.3,1.1L2.7,592.2
	c0.2-0.4,0.3-0.7,0.3-1.2c0-0.5-0.1-0.8-0.3-1.2l45.9-26.4c0.5,0.6,1.4,1.1,2.3,1.1c1,0,1.9-0.5,2.4-1.4l46.5,26.8
	c-0.2,0.4-0.3,0.7-0.3,1.2C99.5,591.5,99.6,591.8,99.8,592.2z M100.2,589.3l-46.6-26.8c0.1-0.3,0.2-0.6,0.2-1c0-1.4-1-2.5-2.3-2.8
	v-53.4c0.7-0.2,1.4-0.6,1.7-1.3l46.5,26.8c-0.2,0.4-0.3,0.7-0.3,1.2c0,1.5,1.2,2.7,2.6,2.9v53.3
	C101.3,588.2,100.6,588.6,100.2,589.3z M102.5,529c-1,0-1.8,0.5-2.4,1.2l-46.5-26.8c0.1-0.3,0.2-0.6,0.2-1c0-0.4-0.1-0.6-0.2-1
	l46.5-26.8c0.5,0.7,1.4,1.2,2.4,1.2s1.8-0.5,2.4-1.2l45.9,26.5c-0.2,0.4-0.4,0.8-0.4,1.4c0,0.5,0.1,0.9,0.4,1.3l-45.9,26.5
	C104.2,529.4,103.4,529,102.5,529z M104.8,589.3c-0.5-0.6-1.2-1.1-2-1.2v-53.3c1.4-0.2,2.6-1.4,2.6-2.9c0-0.5-0.1-0.8-0.3-1.2
	l45.9-26.5c0.5,0.6,1.4,1.1,2.3,1.1l0,0v53.3l0,0c-1.6,0-2.9,1.4-2.9,2.9c0,0.5,0.1,0.9,0.4,1.3L104.8,589.3z M202.2,592.2
	L155.8,619c-0.5-0.8-1.4-1.4-2.4-1.4c-0.9,0-1.7,0.5-2.3,1.1l-45.9-26.5c0.2-0.4,0.3-0.7,0.3-1.2c0-0.5-0.1-0.8-0.3-1.2l45.9-26.5
	c0.5,0.6,1.4,1.1,2.3,1.1c1,0,1.9-0.5,2.4-1.4l46.5,26.8c-0.2,0.4-0.3,0.7-0.3,1.2S202.1,591.8,202.2,592.2z M202.6,589.3
	l-46.5-26.8c0.1-0.3,0.2-0.6,0.2-1c0-1.4-1-2.5-2.3-2.8v-53.4c0.7-0.2,1.4-0.6,1.7-1.3l46.5,26.8c-0.2,0.4-0.3,0.7-0.3,1.2
	c0,1.5,1.2,2.7,2.6,2.9v53.3C203.8,588.2,203.1,588.6,202.6,589.3z M205,529c-1,0-1.8,0.5-2.4,1.2l-46.5-26.8c0.1-0.3,0.2-0.6,0.2-1
	c0-0.4-0.1-0.6-0.2-1l46.5-26.8c0.5,0.7,1.4,1.2,2.4,1.2c1,0,1.8-0.5,2.4-1.2l45.9,26.5c-0.2,0.4-0.4,0.8-0.4,1.4
	c0,0.5,0.1,0.9,0.4,1.3l-45.9,26.5C206.8,529.4,205.9,529,205,529z M207.3,589.3c-0.5-0.6-1.2-1.1-2-1.2v-53.3
	c1.4-0.2,2.6-1.4,2.6-2.9c0-0.5-0.1-0.8-0.3-1.2l45.9-26.5c0.5,0.6,1.4,1.1,2.3,1.1l0,0v53.3l0,0c-1.6,0-2.9,1.4-2.9,2.9
	c0,0.5,0.1,0.9,0.4,1.3L207.3,589.3z M304.7,592.2L258.2,619c-0.5-0.8-1.4-1.4-2.4-1.4c-0.9,0-1.7,0.5-2.3,1.1l-45.9-26.5
	c0.2-0.4,0.3-0.7,0.3-1.2c0-0.5-0.1-0.8-0.3-1.2l46-26.4c0.5,0.6,1.4,1.1,2.3,1.1c1,0,1.9-0.5,2.4-1.4l46.5,26.8
	c-0.2,0.4-0.3,0.7-0.3,1.2C304.5,591.5,304.6,591.8,304.7,592.2z M305,589.3l-46.5-26.8c0.1-0.3,0.2-0.6,0.2-1c0-1.4-1-2.5-2.3-2.8
	v-53.4c0.7-0.2,1.4-0.6,1.7-1.3l46.5,26.8c-0.2,0.4-0.3,0.7-0.3,1.2c0,1.5,1.2,2.7,2.6,2.9v53.3C306.2,588.2,305.5,588.6,305,589.3z
	 M307.4,529c-1,0-1.8,0.5-2.4,1.2l-46.5-26.8c0.1-0.3,0.2-0.6,0.2-1c0-0.4-0.1-0.6-0.2-1l46.5-26.8c0.5,0.7,1.4,1.2,2.4,1.2
	c1,0,1.8-0.5,2.4-1.2l45.9,26.5c-0.2,0.4-0.4,0.8-0.4,1.4c0,0.5,0.1,0.9,0.4,1.3l-45.9,26.4C309.2,529.4,308.4,529,307.4,529z
	 M309.8,589.3c-0.5-0.6-1.2-1.1-2-1.2v-53.3c1.4-0.2,2.6-1.4,2.6-2.9c0-0.5-0.1-0.8-0.3-1.2l45.9-26.5c0.5,0.6,1.4,1.1,2.3,1.1l0,0
	v53.3l0,0c-1.6,0-2.9,1.4-2.9,2.9c0,0.5,0.1,0.9,0.4,1.3L309.8,589.3z M407.2,592.2L360.7,619c-0.5-0.8-1.4-1.4-2.4-1.4
	c-0.9,0-1.7,0.5-2.3,1.1l-45.9-26.5c0.2-0.4,0.3-0.7,0.3-1.2c0-0.5-0.1-0.8-0.3-1.2l45.9-26.5c0.5,0.6,1.4,1.1,2.3,1.1
	c1,0,1.9-0.5,2.4-1.4l46.5,26.8c-0.2,0.4-0.3,0.7-0.3,1.2C406.9,591.5,407,591.8,407.2,592.2z M407.6,589.3L361,562.5
	c0.1-0.3,0.2-0.6,0.2-1c0-1.4-1-2.5-2.3-2.8v-53.4c0.7-0.2,1.4-0.6,1.7-1.3l46.5,26.8c-0.2,0.4-0.3,0.7-0.3,1.2
	c0,1.5,1.2,2.7,2.6,2.9v53.3C408.7,588.2,408,588.6,407.6,589.3z M409.8,529c-1,0-1.8,0.5-2.4,1.2L361,503.3c0.1-0.3,0.2-0.6,0.2-1
	c0-0.4-0.1-0.6-0.2-1l46.5-26.8c0.5,0.7,1.4,1.2,2.4,1.2c1,0,1.8-0.5,2.4-1.2l45.9,26.5c-0.2,0.4-0.4,0.8-0.4,1.4
	c0,0.5,0.1,0.9,0.4,1.3l-45.9,26.5C411.6,529.4,410.8,529,409.8,529z M412.2,589.3c-0.5-0.6-1.2-1.1-2-1.2v-53.3
	c1.4-0.2,2.6-1.4,2.6-2.9c0-0.5-0.1-0.8-0.3-1.2l45.9-26.5c0.5,0.6,1.4,1.1,2.3,1.1l0,0v53.3l0,0c-1.6,0-2.9,1.4-2.9,2.9
	c0,0.5,0.1,0.9,0.4,1.3L412.2,589.3z M509.6,592.2L463.2,619c-0.5-0.8-1.4-1.4-2.4-1.4c-0.9,0-1.7,0.5-2.3,1.1l-45.9-26.5
	c0.2-0.4,0.3-0.7,0.3-1.2c0-0.5-0.1-0.8-0.3-1.2l45.9-26.5c0.5,0.6,1.4,1.1,2.3,1.1c1,0,1.9-0.5,2.4-1.4l46.5,26.8
	c-0.2,0.4-0.3,0.7-0.3,1.2C509.4,591.5,509.5,591.8,509.6,592.2z M509.6,530.7c-0.2,0.4-0.3,0.7-0.3,1.2c0,1.5,1.2,2.7,2.6,2.9v53.3
	c-0.8,0.1-1.5,0.5-2,1.2l-46.5-26.8c0.1-0.3,0.2-0.6,0.2-1c0-1.4-1-2.5-2.3-2.8v-53.4c0.7-0.2,1.4-0.6,1.7-1.3L509.6,530.7z
	 M512,469.8c-1.4,0.2-2.6,1.4-2.6,2.9c0,0.5,0.1,0.8,0.3,1.2l-46.5,26.8c-0.4-0.6-1-1.1-1.7-1.3V446c1.3-0.4,2.3-1.4,2.3-2.8
	c0-0.4-0.1-0.6-0.2-1l46.5-26.8c0.5,0.6,1.2,1.1,2,1.2V469.8z M509.6,353.3c-0.2,0.4-0.3,0.7-0.3,1.2c0,1.5,1.2,2.7,2.6,2.9v53.3
	c-0.8,0.1-1.5,0.5-2,1.2L463.5,385c0.1-0.3,0.2-0.6,0.2-1c0-1.4-1-2.5-2.3-2.8v-53.4c0.7-0.2,1.4-0.6,1.7-1.3L509.6,353.3z
	 M512,292.3c-1.4,0.2-2.6,1.4-2.6,2.9c0,0.5,0.1,0.8,0.3,1.2l-46.5,26.8c-0.4-0.6-1-1.1-1.7-1.3v-53.4c1.3-0.3,2.3-1.4,2.3-2.8
	c0-0.4-0.1-0.6-0.2-1l46.5-26.8c0.5,0.6,1.2,1.1,2,1.2V292.3z M509.6,175.7c-0.2,0.4-0.3,0.7-0.3,1.2c0,1.5,1.2,2.7,2.6,2.9v53.3
	c-0.8,0.1-1.5,0.5-2,1.2l-46.5-26.8c0.1-0.3,0.2-0.6,0.2-1c0-1.4-1-2.5-2.3-2.8v-53.4c0.7-0.2,1.4-0.6,1.7-1.3L509.6,175.7z"/>
<path opacity="0.25" fill="#D0E2DF" enable-background="new    " d="M1024.5,120.7v-2.9h-2.9c0,0.5,0.1,0.8,0.3,1.2l-46.5,26.8
	c-0.4-0.6-1-1.1-1.7-1.3v-26.7h-0.7v26.6l0,0c-0.9,0-1.7,0.5-2.3,1.1l-45.9-26.5c0.2-0.4,0.3-0.7,0.3-1.2h-5.9
	c0,0.5,0.1,0.8,0.3,1.2l-46.5,26.8c-0.4-0.6-1-1.1-1.7-1.3v-26.7h-0.8v26.6l0,0c-0.9,0-1.7,0.5-2.3,1.1l-45.9-26.5
	c0.2-0.4,0.3-0.7,0.3-1.2h-5.9c0,0.5,0.1,0.8,0.3,1.2l-46.5,26.8c-0.4-0.6-1-1.1-1.7-1.3v-26.7H768v26.6l0,0c-0.9,0-1.7,0.5-2.3,1.1
	l-45.9-26.5c0.2-0.4,0.3-0.7,0.3-1.2h-5.9c0,0.5,0.1,0.8,0.3,1.2L668,145.8c-0.4-0.6-1-1.1-1.7-1.3v-26.7h-0.7v26.6l0,0
	c-0.9,0-1.7,0.5-2.3,1.1l-45.9-26.5c0.2-0.4,0.3-0.7,0.3-1.2h-5.9c0,0.5,0.1,0.8,0.3,1.2l-46.5,26.8c-0.4-0.6-1-1.1-1.7-1.3v-26.7
	h-0.7v26.6l0,0c-0.9,0-1.7,0.5-2.3,1.1l-46-26.5c0.2-0.4,0.3-0.7,0.3-1.2h-2.9v2.9c1,0,1.8-0.5,2.4-1.2l45.9,26.5
	c-0.2,0.4-0.4,0.8-0.4,1.4s0.1,0.9,0.4,1.4l-46,26.4c-0.5-0.7-1.4-1.2-2.4-1.2v124.2c1,0,1.8-0.5,2.4-1.2l45.9,26.5
	c-0.2,0.4-0.4,0.8-0.4,1.4c0,0.5,0.1,0.9,0.4,1.3l-45.9,26.4c-0.5-0.7-1.4-1.2-2.4-1.2v124.2c1,0,1.8-0.5,2.4-1.2l45.9,26.5
	c-0.2,0.4-0.4,0.8-0.4,1.4c0,0.5,0.1,0.9,0.4,1.3l-45.9,26.5c-0.5-0.7-1.4-1.2-2.4-1.2v121.3h2.9c0-1.5-1.2-2.7-2.6-2.9V594
	c0.8-0.1,1.5-0.5,2-1.2l45.9,26.5c-0.2,0.4-0.4,0.8-0.4,1.4c0,1.6,1.4,2.9,2.9,2.9l0,0v26.6h0.7v-26.7c1.3-0.4,2.3-1.4,2.3-2.8
	c0-0.4-0.1-0.6-0.2-1l46.5-26.8c0.5,0.6,1.2,1.1,2,1.2v53.3c-1.4,0.2-2.6,1.4-2.6,2.9h5.9c0-1.5-1.2-2.7-2.6-2.9v-53.3
	c0.8-0.1,1.5-0.5,2-1.2l45.9,26.5c-0.2,0.4-0.4,0.8-0.4,1.4c0,1.6,1.4,2.9,2.9,2.9l0,0v26.6h0.7v-26.7c1.3-0.4,2.3-1.4,2.3-2.8
	c0-0.4-0.1-0.6-0.2-1l46.5-26.8c0.5,0.6,1.2,1.1,2,1.2v53.3c-1.4,0.2-2.6,1.4-2.6,2.9h5.9c0-1.5-1.2-2.7-2.6-2.9v-53.3
	c0.8-0.1,1.5-0.5,2-1.2l45.9,26.5c-0.2,0.4-0.4,0.8-0.4,1.4c0,1.6,1.4,2.9,2.9,2.9l0,0v26.6h0.7v-26.7c1.3-0.4,2.3-1.4,2.3-2.8
	c0-0.4-0.1-0.6-0.2-1l46.5-26.8c0.5,0.6,1.2,1.1,2,1.2v53.3c-1.4,0.2-2.6,1.4-2.6,2.9h5.9c0-1.5-1.2-2.7-2.6-2.9v-53.3
	c0.8-0.1,1.5-0.5,2-1.2l45.9,26.5c-0.2,0.4-0.4,0.8-0.4,1.4c0,1.6,1.4,2.9,2.9,2.9l0,0v26.6h0.7v-26.7c1.3-0.4,2.3-1.4,2.3-2.8
	c0-0.4-0.1-0.6-0.2-1l46.5-26.8c0.5,0.6,1.2,1.1,2,1.2v53.3c-1.4,0.2-2.6,1.4-2.6,2.9h5.9c0-1.5-1.2-2.7-2.6-2.9v-53.3
	c0.8-0.1,1.5-0.5,2-1.2l45.9,26.5c-0.2,0.4-0.4,0.8-0.4,1.4c0,1.6,1.4,2.9,2.9,2.9l0,0v26.6h0.7v-26.7c1.3-0.4,2.3-1.4,2.3-2.8
	c0-0.4-0.1-0.6-0.2-1l46.5-26.8c0.5,0.6,1.2,1.1,2,1.2v53.3c-1.4,0.2-2.6,1.4-2.6,2.9h2.9V529c-1,0-1.8,0.5-2.4,1.2l-46.5-26.8
	c0.1-0.3,0.2-0.6,0.2-1c0-0.4-0.1-0.6-0.2-1l46.5-26.8c0.5,0.7,1.4,1.2,2.4,1.2V351.4c-1,0-1.8,0.5-2.4,1.2l-46.5-26.8
	c0.1-0.3,0.2-0.6,0.2-1c0-0.4-0.1-0.6-0.2-1l46.5-26.8c0.5,0.7,1.4,1.2,2.4,1.2V174c-1,0-1.8,0.5-2.4,1.2l-46.5-26.8
	c0.1-0.3,0.2-0.6,0.2-1c0-0.4-0.1-0.6-0.2-1l46.5-26.8C1022.6,120.2,1023.5,120.7,1024.5,120.7z M975.3,208.2l46.5,26.8
	c-0.2,0.4-0.3,0.7-0.3,1.2c0,0.5,0.1,0.8,0.3,1.2l-46.5,26.8c-0.5-0.8-1.4-1.4-2.4-1.4c-0.9,0-1.7,0.5-2.3,1.1l-45.9-26.5
	c0.2-0.4,0.3-0.7,0.3-1.2c0-0.5-0.1-0.8-0.3-1.2l45.9-26.5c0.5,0.6,1.4,1.1,2.3,1.1C973.9,209.4,974.8,208.9,975.3,208.2z
	 M1021.7,414.7l-46.5,26.8c-0.5-0.8-1.4-1.4-2.4-1.4c-0.9,0-1.7,0.5-2.3,1.1l-45.9-26.5c0.2-0.4,0.3-0.7,0.3-1.2s-0.1-0.8-0.3-1.2
	l45.9-26.5c0.5,0.6,1.4,1.1,2.3,1.1c1,0,1.9-0.5,2.4-1.4l46.5,26.8c-0.2,0.4-0.3,0.7-0.3,1.2
	C1021.6,413.9,1021.6,414.4,1021.7,414.7z M922.4,469.8v-53.3c0.8-0.1,1.5-0.5,2-1.2l45.9,26.5c-0.2,0.4-0.4,0.8-0.4,1.4
	c0,1.6,1.4,2.9,2.9,2.9l0,0v53.3l0,0c-0.9,0-1.7,0.5-2.3,1.1l-45.9-26.5c0.2-0.4,0.3-0.7,0.3-1.2C924.9,471.2,923.8,470,922.4,469.8
	z M919.3,473.9l-46.5,26.8c-0.4-0.6-1-1.1-1.7-1.3V446c1.3-0.4,2.3-1.4,2.3-2.8c0-0.4-0.1-0.6-0.2-1l46.5-26.8
	c0.5,0.6,1.2,1.1,2,1.2v53.3c-1.4,0.2-2.6,1.4-2.6,2.9C919,473.2,919.1,473.5,919.3,473.9z M819.9,469.8v-53.3
	c0.8-0.1,1.5-0.5,2-1.2l45.9,26.5c-0.2,0.4-0.4,0.8-0.4,1.4c0,1.6,1.4,2.9,2.9,2.9l0,0v53.3l0,0c-0.9,0-1.7,0.5-2.3,1.1l-45.9-26.5
	c0.2-0.4,0.3-0.7,0.3-1.2C822.5,471.2,821.3,470,819.9,469.8z M816.9,473.9l-46.5,26.8c-0.4-0.6-1-1.1-1.7-1.3V446
	c1.3-0.4,2.3-1.4,2.3-2.8c0-0.4-0.1-0.6-0.2-1l46.5-26.8c0.5,0.6,1.2,1.1,2,1.2v53.3c-1.4,0.2-2.6,1.4-2.6,2.9
	C816.6,473.2,816.7,473.5,816.9,473.9z M717.4,469.8v-53.3c0.8-0.1,1.5-0.5,2-1.2l45.9,26.5c-0.2,0.4-0.4,0.8-0.4,1.4
	c0,1.6,1.4,2.9,2.9,2.9l0,0v53.3l0,0c-0.9,0-1.7,0.5-2.3,1.1l-45.9-26.5c0.2-0.4,0.3-0.7,0.3-1.2C720,471.2,718.9,470,717.4,469.8z
	 M714.3,473.9l-46.5,26.8c-0.4-0.6-1-1.1-1.7-1.3V446c1.3-0.4,2.3-1.4,2.3-2.8c0-0.4-0.1-0.6-0.2-1l46.5-26.8c0.5,0.6,1.2,1.1,2,1.2
	v53.3c-1.4,0.2-2.6,1.4-2.6,2.9C714.2,473.2,714.2,473.5,714.3,473.9z M615,469.8v-53.3c0.8-0.1,1.5-0.5,2-1.2l45.9,26.5
	c-0.2,0.4-0.4,0.8-0.4,1.4c0,1.6,1.4,2.9,2.9,2.9l0,0v53.3l0,0c-0.9,0-1.7,0.5-2.3,1.1l-45.9-26.5c0.2-0.4,0.3-0.7,0.3-1.2
	C617.5,471.2,616.4,470,615,469.8z M611.9,473.9l-46.5,26.8c-0.4-0.6-1-1.1-1.7-1.3V446c1.3-0.4,2.3-1.4,2.3-2.8
	c0-0.4-0.1-0.6-0.2-1l46.5-26.8c0.5,0.6,1.2,1.1,2,1.2v53.3c-1.4,0.2-2.6,1.4-2.6,2.9C611.6,473.2,611.7,473.5,611.9,473.9z
	 M514.8,412.4l45.9-26.5c0.5,0.6,1.4,1.1,2.3,1.1c1,0,1.9-0.5,2.4-1.4l46.5,26.8c-0.2,0.4-0.3,0.7-0.3,1.2c0,0.5,0.1,0.8,0.3,1.2
	l-46.5,26.8c-0.5-0.8-1.4-1.4-2.4-1.4c-0.9,0-1.7,0.5-2.3,1.1l-45.9-26.5c0.2-0.4,0.3-0.7,0.3-1.2S515,412.8,514.8,412.4z
	 M612.3,411.8L565.8,385c0.1-0.3,0.2-0.6,0.2-1c0-1.4-1-2.5-2.3-2.8v-53.4c0.7-0.2,1.4-0.6,1.7-1.3l46.5,26.8
	c-0.2,0.4-0.3,0.7-0.3,1.2c0,1.5,1.2,2.7,2.6,2.9v53.3C613.4,410.8,612.7,411.2,612.3,411.8z M565.8,264.7l46.5-26.8
	c0.5,0.6,1.2,1.1,2,1.2v53.3c-1.4,0.2-2.6,1.4-2.6,2.9c0,0.5,0.1,0.8,0.3,1.2l-46.5,26.8c-0.4-0.6-1-1.1-1.7-1.3v-53.4
	c1.3-0.3,2.3-1.4,2.3-2.8C566,265.3,565.9,264.9,565.8,264.7z M612.3,352.6l-46.5-26.8c0.1-0.3,0.2-0.6,0.2-1c0-0.4-0.1-0.6-0.2-1
	l46.5-26.8c0.5,0.7,1.4,1.2,2.4,1.2s1.8-0.5,2.4-1.2l45.9,26.5c-0.2,0.4-0.4,0.8-0.4,1.4c0,0.5,0.1,0.9,0.4,1.3L617,352.7
	c-0.5-0.7-1.4-1.2-2.4-1.2S612.8,351.9,612.3,352.6z M665.4,268.6C665.4,268.6,665.5,268.6,665.4,268.6v53.3l0,0
	c-0.9,0-1.7,0.5-2.3,1.1l-45.9-26.5c0.2-0.4,0.3-0.7,0.3-1.2c0-1.5-1.2-2.7-2.6-2.9v-53.3c0.8-0.1,1.5-0.5,2-1.2l45.9,26.5
	c-0.2,0.4-0.4,0.8-0.4,1.4C662.5,267.3,663.9,268.6,665.4,268.6z M662.9,385.3L617,411.9c-0.5-0.6-1.2-1.1-2-1.2v-53.3
	c1.4-0.2,2.6-1.4,2.6-2.9c0-0.5-0.1-0.8-0.3-1.2l45.9-26.5c0.5,0.6,1.4,1.1,2.3,1.1l0,0v53.3l0,0c-1.6,0-2.9,1.4-2.9,2.9
	C662.5,384.5,662.6,384.9,662.9,385.3z M665.4,440.2c-0.9,0-1.7,0.5-2.3,1.1l-45.9-26.5c0.2-0.4,0.3-0.7,0.3-1.2s-0.1-0.8-0.3-1.2
	l45.9-26.5c0.5,0.6,1.4,1.1,2.3,1.1c1,0,1.9-0.5,2.4-1.4l46.5,26.8c-0.2,0.4-0.3,0.7-0.3,1.2s0.1,0.8,0.3,1.2l-46.5,26.8
	C667.4,440.7,666.5,440.2,665.4,440.2z M714.7,411.8L668.2,385c0.1-0.3,0.2-0.6,0.2-1c0-1.4-1-2.5-2.3-2.8v-53.4
	c0.7-0.2,1.4-0.6,1.7-1.3l46.5,26.8c-0.2,0.4-0.3,0.7-0.3,1.2c0,1.5,1.2,2.7,2.6,2.9v53.3C715.9,410.8,715.2,411.2,714.7,411.8z
	 M668.2,264.7l46.5-26.8c0.5,0.6,1.2,1.1,2,1.2v53.3c-1.4,0.2-2.6,1.4-2.6,2.9c0,0.5,0.1,0.8,0.3,1.2l-46.5,26.8
	c-0.4-0.6-1-1.1-1.7-1.3v-53.4c1.3-0.3,2.3-1.4,2.3-2.8C668.4,265.3,668.3,264.9,668.2,264.7z M714.7,352.6l-46.5-26.8
	c0.1-0.3,0.2-0.6,0.2-1c0-0.4-0.1-0.6-0.2-1l46.5-26.8c0.5,0.7,1.4,1.2,2.4,1.2c1,0,1.8-0.5,2.4-1.2l45.9,26.5
	c-0.2,0.4-0.4,0.8-0.4,1.4c0,0.5,0.1,0.9,0.4,1.3l-45.9,26.5c-0.5-0.7-1.4-1.2-2.4-1.2C716.1,351.4,715.2,351.9,714.7,352.6z
	 M768,268.6L768,268.6v53.3l0,0c-0.9,0-1.7,0.5-2.3,1.1l-45.9-26.5c0.2-0.4,0.3-0.7,0.3-1.2c0-1.5-1.2-2.7-2.6-2.9v-53.3
	c0.8-0.1,1.5-0.5,2-1.2l45.9,26.5c-0.2,0.4-0.4,0.8-0.4,1.4C765,267.3,766.3,268.6,768,268.6z M765.3,385.3l-45.9,26.5
	c-0.5-0.6-1.2-1.1-2-1.2v-53.3c1.4-0.2,2.6-1.4,2.6-2.9c0-0.5-0.1-0.8-0.3-1.2l45.9-26.5c0.5,0.6,1.4,1.1,2.3,1.1l0,0v53.3l0,0
	c-1.6,0-2.9,1.4-2.9,2.9C765,384.5,765.1,384.9,765.3,385.3z M768,440.2c-0.9,0-1.7,0.5-2.3,1.1l-45.9-26.5c0.2-0.4,0.3-0.7,0.3-1.2
	s-0.1-0.8-0.3-1.2l45.9-26.5c0.5,0.6,1.4,1.1,2.3,1.1c1,0,1.9-0.5,2.4-1.4l46.5,26.8c-0.2,0.4-0.3,0.7-0.3,1.2s0.1,0.8,0.3,1.2
	l-46.5,26.8C769.9,440.7,769,440.2,768,440.2z M817.2,411.8L770.7,385c0.1-0.3,0.2-0.6,0.2-1c0-1.4-1-2.5-2.3-2.8v-53.4
	c0.7-0.2,1.4-0.6,1.7-1.3l46.5,26.8c-0.2,0.4-0.3,0.7-0.3,1.2c0,1.5,1.2,2.7,2.6,2.9v53.3C818.4,410.8,817.7,411.2,817.2,411.8z
	 M770.7,264.7l46.5-26.8c0.5,0.6,1.2,1.1,2,1.2v53.3c-1.4,0.2-2.6,1.4-2.6,2.9c0,0.5,0.1,0.8,0.3,1.2l-46.5,26.8
	c-0.4-0.6-1-1.1-1.7-1.3v-53.4c1.3-0.3,2.3-1.4,2.3-2.8C770.9,265.3,770.8,264.9,770.7,264.7z M817.2,352.6l-46.5-26.8
	c0.1-0.3,0.2-0.6,0.2-1c0-0.4-0.1-0.6-0.2-1l46.5-26.8c0.5,0.7,1.4,1.2,2.4,1.2s1.8-0.5,2.4-1.2l45.9,26.5c-0.2,0.4-0.4,0.8-0.4,1.4
	c0,0.5,0.1,0.9,0.4,1.3l-45.9,26.5c-0.5-0.7-1.4-1.2-2.4-1.2C818.6,351.4,817.7,351.9,817.2,352.6z M870.4,268.6L870.4,268.6v53.3
	l0,0c-0.9,0-1.7,0.5-2.3,1.1l-45.9-26.5c0.2-0.4,0.3-0.7,0.3-1.2c0-1.5-1.2-2.7-2.6-2.9v-53.3c0.8-0.1,1.5-0.5,2-1.2l45.9,26.5
	c-0.2,0.4-0.4,0.8-0.4,1.4C867.5,267.3,868.8,268.6,870.4,268.6z M867.8,385.3l-45.9,26.5c-0.5-0.6-1.2-1.1-2-1.2v-53.3
	c1.4-0.2,2.6-1.4,2.6-2.9c0-0.5-0.1-0.8-0.3-1.2l45.9-26.5c0.5,0.6,1.4,1.1,2.3,1.1l0,0v53.3l0,0c-1.6,0-2.9,1.4-2.9,2.9
	C867.5,384.5,867.6,384.9,867.8,385.3z M870.4,440.2c-0.9,0-1.7,0.5-2.3,1.1l-45.9-26.5c0.2-0.4,0.3-0.7,0.3-1.2s-0.1-0.8-0.3-1.2
	l45.9-26.5c0.5,0.6,1.4,1.1,2.3,1.1c1,0,1.9-0.5,2.4-1.4l46.5,26.8c-0.2,0.4-0.3,0.7-0.3,1.2s0.1,0.8,0.3,1.2l-46.5,26.8
	C872.3,440.7,871.4,440.2,870.4,440.2z M919.7,411.8L873.2,385c0.1-0.3,0.2-0.6,0.2-1c0-1.4-1-2.5-2.3-2.8v-53.4
	c0.7-0.2,1.4-0.6,1.7-1.3l46.5,26.8c-0.2,0.4-0.3,0.7-0.3,1.2c0,1.5,1.2,2.7,2.6,2.9v53.3C920.8,410.8,920.1,411.2,919.7,411.8z
	 M873.2,264.7l46.5-26.8c0.5,0.6,1.2,1.1,2,1.2v53.3c-1.4,0.2-2.6,1.4-2.6,2.9c0,0.5,0.1,0.8,0.3,1.2l-46.5,26.8
	c-0.4-0.6-1-1.1-1.7-1.3v-53.4c1.3-0.3,2.3-1.4,2.3-2.8C873.4,265.3,873.3,264.9,873.2,264.7z M919.7,352.6l-46.5-26.8
	c0.1-0.3,0.2-0.6,0.2-1c0-0.4-0.1-0.6-0.2-1l46.5-26.8c0.5,0.7,1.4,1.2,2.4,1.2c1,0,1.8-0.5,2.4-1.2l45.9,26.5
	c-0.2,0.4-0.4,0.8-0.4,1.4c0,0.5,0.1,0.9,0.4,1.3l-45.9,26.5c-0.5-0.7-1.4-1.2-2.4-1.2S920.2,351.9,919.7,352.6z M970.3,385.3
	l-45.9,26.5c-0.5-0.6-1.2-1.1-2-1.2v-53.3c1.4-0.2,2.6-1.4,2.6-2.9c0-0.5-0.1-0.8-0.3-1.2l45.9-26.5c0.5,0.6,1.4,1.1,2.3,1.1l0,0
	v53.3l0,0c-1.6,0-2.9,1.4-2.9,2.9C969.9,384.5,970,384.9,970.3,385.3z M972.9,321.9C972.8,321.9,972.8,321.9,972.9,321.9
	c-0.9,0-1.7,0.5-2.3,1.1l-45.9-26.5c0.2-0.4,0.3-0.7,0.3-1.2c0-1.5-1.2-2.7-2.6-2.9V239c0.8-0.1,1.5-0.5,2-1.2l45.9,26.5
	c-0.2,0.4-0.4,0.8-0.4,1.4c0,1.6,1.4,2.9,2.9,2.9l0,0L972.9,321.9L972.9,321.9z M972.8,150.3L972.8,150.3v53.3l0,0
	c-1.6,0-2.9,1.4-2.9,2.9c0,0.5,0.1,0.9,0.4,1.3l-45.9,26.5c-0.5-0.6-1.2-1.1-2-1.2v-53.3c1.4-0.2,2.6-1.4,2.6-2.9
	c0-0.5-0.1-0.8-0.3-1.2l45.9-26.5C971.2,149.8,972,150.3,972.8,150.3z M873.2,146.4l46.5-26.8c0.5,0.7,1.4,1.2,2.4,1.2
	s1.8-0.5,2.4-1.2l45.9,26.5c-0.2,0.4-0.4,0.8-0.4,1.4s0.1,0.9,0.4,1.3l-45.9,26.5c-0.5-0.7-1.4-1.2-2.4-1.2s-1.8,0.5-2.4,1.2
	l-46.5-26.8c0.1-0.3,0.2-0.6,0.2-1C873.4,147.1,873.3,146.7,873.2,146.4z M871.1,150.2c0.7-0.2,1.4-0.6,1.7-1.3l46.5,26.8
	c-0.2,0.4-0.3,0.7-0.3,1.2c0,1.5,1.2,2.7,2.6,2.9v53.3c-0.8,0.1-1.5,0.5-2,1.2l-46.5-26.8c0.1-0.3,0.2-0.6,0.2-1
	c0-1.4-1-2.5-2.3-2.8L871.1,150.2L871.1,150.2z M872.8,208.2l46.5,26.8c-0.2,0.4-0.3,0.7-0.3,1.2c0,0.5,0.1,0.8,0.3,1.2l-46.5,26.8
	c-0.5-0.8-1.4-1.4-2.4-1.4c-0.9,0-1.7,0.5-2.3,1.1l-45.9-26.5c0.2-0.4,0.3-0.7,0.3-1.2c0-0.5-0.1-0.8-0.3-1.2l45.9-26.5
	c0.5,0.6,1.4,1.1,2.3,1.1C871.4,209.4,872.3,208.9,872.8,208.2z M870.4,150.3L870.4,150.3v53.3l0,0c-1.6,0-2.9,1.4-2.9,2.9
	c0,0.5,0.1,0.9,0.4,1.3l-45.9,26.5c-0.5-0.6-1.2-1.1-2-1.2v-53.3c1.4-0.2,2.6-1.4,2.6-2.9c0-0.5-0.1-0.8-0.3-1.2l45.9-26.5
	C868.7,149.8,869.5,150.3,870.4,150.3z M770.7,146.4l46.5-26.8c0.5,0.7,1.4,1.2,2.4,1.2c1,0,1.8-0.5,2.4-1.2l45.9,26.5
	c-0.2,0.4-0.4,0.8-0.4,1.3c0,0.5,0.1,0.9,0.4,1.3l-45.9,26.5c-0.5-0.7-1.4-1.2-2.4-1.2c-1,0-1.8,0.5-2.4,1.2l-46.5-26.8
	c0.1-0.3,0.2-0.6,0.2-1C770.9,147,770.8,146.7,770.7,146.4z M768.7,150.2c0.7-0.2,1.4-0.6,1.7-1.3l46.5,26.8
	c-0.2,0.4-0.3,0.7-0.3,1.2c0,1.5,1.2,2.7,2.6,2.9v53.3c-0.8,0.1-1.5,0.5-2,1.2l-46.5-26.8c0.1-0.3,0.2-0.6,0.2-1
	c0-1.4-1-2.5-2.3-2.8L768.7,150.2L768.7,150.2z M770.4,208.2l46.5,26.8c-0.2,0.4-0.3,0.7-0.3,1.2c0,0.5,0.1,0.8,0.3,1.2l-46.5,26.8
	c-0.5-0.8-1.4-1.4-2.4-1.4c-0.9,0-1.7,0.5-2.3,1.1l-45.9-26.5c0.2-0.4,0.3-0.7,0.3-1.2c0-0.5-0.1-0.8-0.3-1.2l45.9-26.5
	c0.5,0.6,1.4,1.1,2.3,1.1C769,209.4,769.9,208.9,770.4,208.2z M768,150.3L768,150.3v53.3l0,0c-1.6,0-2.9,1.4-2.9,2.9
	c0,0.5,0.1,0.9,0.4,1.3l-45.9,26.5c-0.5-0.6-1.2-1.1-2-1.2v-53.3c1.4-0.2,2.6-1.4,2.6-2.9c0-0.5-0.1-0.8-0.3-1.2l45.9-26.5
	C766.2,149.8,767,150.3,768,150.3z M668.2,146.4l46.5-26.8c0.5,0.7,1.4,1.2,2.4,1.2c1,0,1.8-0.5,2.4-1.2l45.9,26.4
	c-0.2,0.4-0.4,0.8-0.4,1.4s0.1,0.9,0.4,1.4l-45.9,26.5c-0.5-0.7-1.4-1.2-2.4-1.2c-1,0-1.8,0.5-2.4,1.2l-46.5-26.8
	c0.1-0.3,0.2-0.6,0.2-1C668.4,147.1,668.3,146.7,668.2,146.4z M666.2,150.2c0.7-0.2,1.4-0.6,1.7-1.3l46.5,26.8
	c-0.2,0.4-0.3,0.7-0.3,1.2c0,1.5,1.2,2.7,2.6,2.9v53.3c-0.8,0.1-1.5,0.5-2,1.2l-46.5-26.8c0.1-0.3,0.2-0.6,0.2-1
	c0-1.4-1-2.5-2.3-2.8V150.2L666.2,150.2z M668,208.2l46.5,26.8c-0.2,0.4-0.3,0.7-0.3,1.2c0,0.5,0.1,0.8,0.3,1.2L668,264.1
	c-0.5-0.8-1.4-1.4-2.4-1.4c-0.9,0-1.7,0.5-2.3,1.1l-45.9-26.5c0.2-0.4,0.3-0.7,0.3-1.2c0-0.5-0.1-0.8-0.3-1.2l45.9-26.5
	c0.5,0.6,1.4,1.1,2.3,1.1C666.5,209.4,667.4,208.9,668,208.2z M665.4,150.3C665.4,150.3,665.5,150.3,665.4,150.3v53.3l0,0
	c-1.6,0-2.9,1.4-2.9,2.9c0,0.5,0.1,0.9,0.4,1.3L617,234.2c-0.5-0.6-1.2-1.1-2-1.2v-53.3c1.4-0.2,2.6-1.4,2.6-2.9
	c0-0.5-0.1-0.8-0.3-1.2l45.9-26.5C663.8,149.8,664.6,150.3,665.4,150.3z M565.8,146.4l46.5-26.9c0.5,0.7,1.4,1.2,2.4,1.2
	s1.8-0.5,2.4-1.2l45.9,26.5c-0.2,0.4-0.4,0.8-0.4,1.4s0.1,0.9,0.4,1.4L617,175.3c-0.5-0.7-1.4-1.2-2.4-1.2s-1.8,0.5-2.4,1.2
	l-46.5-26.8c0.1-0.3,0.2-0.6,0.2-1C566,147.1,565.9,146.7,565.8,146.4z M563.7,150.2c0.7-0.2,1.4-0.6,1.7-1.3l46.5,26.8
	c-0.2,0.4-0.3,0.7-0.3,1.2c0,1.5,1.2,2.7,2.6,2.9v53.3c-0.8,0.1-1.5,0.5-2,1.2l-46.5-26.8c0.1-0.3,0.2-0.6,0.2-1
	c0-1.4-1-2.5-2.3-2.8V150.2z M565.4,208.2l46.5,26.8c-0.2,0.4-0.3,0.7-0.3,1.2c0,0.5,0.1,0.8,0.3,1.2l-46.5,26.8
	c-0.5-0.8-1.4-1.4-2.4-1.4c-0.9,0-1.7,0.5-2.3,1.1l-45.9-26.5c0.2-0.4,0.3-0.7,0.3-1.2c0-0.5-0.1-0.8-0.3-1.2l45.9-26.5
	c0.5,0.6,1.4,1.1,2.3,1.1C564,209.4,564.9,208.9,565.4,208.2z M512.5,179.8c1.4-0.2,2.6-1.4,2.6-2.9c0-0.5-0.1-0.8-0.3-1.2
	l45.9-26.5c0.5,0.6,1.4,1.1,2.3,1.1l0,0v53.3l0,0c-1.6,0-2.9,1.4-2.9,2.9c0,0.5,0.1,0.9,0.4,1.3l-46,26.6c-0.5-0.6-1.2-1.1-2-1.2
	V179.8z M514.8,296.4c0.2-0.4,0.3-0.7,0.3-1.2c0-1.5-1.2-2.7-2.6-2.9v-53.3c0.8-0.1,1.5-0.5,2-1.2l45.9,26.5
	c-0.2,0.4-0.4,0.8-0.4,1.4c0,1.6,1.4,2.9,2.9,2.9l0,0v53.3l0,0c-0.9,0-1.7,0.5-2.3,1.1L514.8,296.4z M515.1,354.4
	c0-0.5-0.1-0.8-0.3-1.2l45.9-26.5c0.5,0.6,1.4,1.1,2.3,1.1l0,0v53.3l0,0c-1.6,0-2.9,1.4-2.9,2.9c0,0.5,0.1,0.9,0.4,1.3l-46,26.5
	c-0.5-0.6-1.2-1.1-2-1.2v-53.3C513.9,357.1,515.1,355.9,515.1,354.4z M514.8,473.9c0.2-0.4,0.3-0.7,0.3-1.2c0-1.5-1.2-2.7-2.6-2.9
	v-53.3c0.8-0.1,1.5-0.5,2-1.2l45.9,26.5c-0.2,0.4-0.4,0.8-0.4,1.4c0,1.6,1.4,2.9,2.9,2.9l0,0v53.3l0,0c-0.9,0-1.7,0.5-2.3,1.1
	L514.8,473.9z M514.4,589.3c-0.5-0.6-1.2-1.1-2-1.2v-53.3c1.4-0.2,2.6-1.4,2.6-2.9c0-0.5-0.1-0.8-0.3-1.2l45.9-26.5
	c0.5,0.6,1.4,1.1,2.3,1.1l0,0v53.3l0,0c-1.6,0-2.9,1.4-2.9,2.9c0,0.5,0.1,0.9,0.4,1.3L514.4,589.3z M611.9,592.2L565.4,619
	c-0.5-0.8-1.4-1.4-2.4-1.4c-0.9,0-1.7,0.5-2.3,1.1l-45.9-26.5c0.2-0.4,0.3-0.7,0.3-1.2c0-0.5-0.1-0.8-0.3-1.2l45.9-26.5
	c0.5,0.6,1.4,1.1,2.3,1.1c1,0,1.9-0.5,2.4-1.4l46.5,26.8c-0.2,0.4-0.3,0.7-0.3,1.2C611.6,591.5,611.7,591.8,611.9,592.2z
	 M612.3,589.3l-46.5-26.8c0.1-0.3,0.2-0.6,0.2-1c0-1.4-1-2.5-2.3-2.8v-53.4c0.7-0.2,1.4-0.6,1.7-1.3l46.5,26.8
	c-0.2,0.4-0.3,0.7-0.3,1.2c0,1.5,1.2,2.7,2.6,2.9v53.3C613.4,588.2,612.7,588.6,612.3,589.3z M614.6,529c-1,0-1.8,0.5-2.4,1.2
	l-46.5-26.8c0.1-0.3,0.2-0.6,0.2-1c0-0.4-0.1-0.6-0.2-1l46.5-26.8c0.5,0.7,1.4,1.2,2.4,1.2s1.8-0.5,2.4-1.2l45.9,26.5
	c-0.2,0.4-0.4,0.8-0.4,1.4c0,0.5,0.1,0.9,0.4,1.3L617,530.2C616.4,529.4,615.5,529,614.6,529z M617,589.3c-0.5-0.6-1.2-1.1-2-1.2
	v-53.3c1.4-0.2,2.6-1.4,2.6-2.9c0-0.5-0.1-0.8-0.3-1.2l45.9-26.5c0.5,0.6,1.4,1.1,2.3,1.1l0,0v53.3l0,0c-1.6,0-2.9,1.4-2.9,2.9
	c0,0.5,0.1,0.9,0.4,1.3L617,589.3z M714.3,592.2L667.9,619c-0.5-0.8-1.4-1.4-2.4-1.4c-0.9,0-1.7,0.5-2.3,1.1l-45.9-26.5
	c0.2-0.4,0.3-0.7,0.3-1.2c0-0.5-0.1-0.8-0.3-1.2l45.9-26.5c0.5,0.6,1.4,1.1,2.3,1.1c1,0,1.9-0.5,2.4-1.4l46.5,26.8
	c-0.2,0.4-0.3,0.7-0.3,1.2C714.2,591.5,714.2,591.8,714.3,592.2z M714.7,589.3l-46.5-26.8c0.1-0.3,0.2-0.6,0.2-1
	c0-1.4-1-2.5-2.3-2.8v-53.4c0.7-0.2,1.4-0.6,1.7-1.3l46.5,26.8c-0.2,0.4-0.3,0.7-0.3,1.2c0,1.5,1.2,2.7,2.6,2.9v53.3
	C715.9,588.2,715.2,588.6,714.7,589.3z M717.1,529c-1,0-1.8,0.5-2.4,1.2l-46.5-26.8c0.1-0.3,0.2-0.6,0.2-1c0-0.4-0.1-0.6-0.2-1
	l46.5-26.8c0.5,0.7,1.4,1.2,2.4,1.2c1,0,1.8-0.5,2.4-1.2l45.9,26.5c-0.2,0.4-0.4,0.8-0.4,1.4c0,0.5,0.1,0.9,0.4,1.3l-45.9,26.5
	C718.9,529.4,718,529,717.1,529z M719.4,589.3c-0.5-0.6-1.2-1.1-2-1.2v-53.3c1.4-0.2,2.6-1.4,2.6-2.9c0-0.5-0.1-0.8-0.3-1.2
	l45.9-26.5c0.5,0.6,1.4,1.1,2.3,1.1l0,0v53.3l0,0c-1.6,0-2.9,1.4-2.9,2.9c0,0.5,0.1,0.9,0.4,1.3L719.4,589.3z M816.9,592.2
	L770.4,619c-0.5-0.8-1.4-1.4-2.4-1.4c-0.9,0-1.7,0.5-2.3,1.1l-45.9-26.5c0.2-0.4,0.3-0.7,0.3-1.2c0-0.5-0.1-0.8-0.3-1.2l45.9-26.5
	c0.5,0.6,1.4,1.1,2.3,1.1c1,0,1.9-0.5,2.4-1.4l46.5,26.8c-0.2,0.4-0.3,0.7-0.3,1.2C816.6,591.5,816.7,591.8,816.9,592.2z
	 M817.2,589.3l-46.6-26.8c0.1-0.3,0.2-0.6,0.2-1c0-1.4-1-2.5-2.3-2.8v-53.4c0.7-0.2,1.4-0.6,1.7-1.3l46.5,26.8
	c-0.2,0.4-0.3,0.7-0.3,1.2c0,1.5,1.2,2.7,2.6,2.9v53.3C818.4,588.2,817.7,588.6,817.2,589.3z M819.5,529c-1,0-1.8,0.5-2.4,1.2
	l-46.5-26.8c0.1-0.3,0.2-0.6,0.2-1c0-0.4-0.1-0.6-0.2-1l46.5-26.8c0.5,0.7,1.4,1.2,2.4,1.2c1,0,1.8-0.5,2.4-1.2l45.9,26.5
	c-0.2,0.4-0.4,0.8-0.4,1.4c0,0.5,0.1,0.9,0.4,1.3l-45.9,26.5C821.3,529.4,820.5,529,819.5,529z M821.8,589.3c-0.5-0.6-1.2-1.1-2-1.2
	v-53.3c1.4-0.2,2.6-1.4,2.6-2.9c0-0.5-0.1-0.8-0.3-1.2l45.9-26.5c0.5,0.6,1.4,1.1,2.3,1.1l0,0v53.3l0,0c-1.6,0-2.9,1.4-2.9,2.9
	c0,0.5,0.1,0.9,0.4,1.3L821.8,589.3z M919.3,592.2L872.8,619c-0.5-0.8-1.4-1.4-2.4-1.4c-0.9,0-1.7,0.5-2.3,1.1l-45.9-26.5
	c0.2-0.4,0.3-0.7,0.3-1.2c0-0.5-0.1-0.8-0.3-1.2l45.9-26.5c0.5,0.6,1.4,1.1,2.3,1.1c1,0,1.9-0.5,2.4-1.4l46.5,26.8
	c-0.2,0.4-0.3,0.7-0.3,1.2C919,591.5,919.1,591.8,919.3,592.2z M919.7,589.3l-46.5-26.8c0.1-0.3,0.2-0.6,0.2-1c0-1.4-1-2.5-2.3-2.8
	v-53.4c0.7-0.2,1.4-0.6,1.7-1.3l46.5,26.8c-0.2,0.4-0.3,0.7-0.3,1.2c0,1.5,1.2,2.7,2.6,2.9v53.3
	C920.8,588.2,920.1,588.6,919.7,589.3z M922,529c-1,0-1.8,0.5-2.4,1.2l-46.5-26.8c0.1-0.3,0.2-0.6,0.2-1c0-0.4-0.1-0.6-0.2-1
	l46.5-26.8c0.5,0.7,1.4,1.2,2.4,1.2c1,0,1.8-0.5,2.4-1.2l45.9,26.5c-0.2,0.4-0.4,0.8-0.4,1.4c0,0.5,0.1,0.9,0.4,1.3l-45.9,26.5
	C923.8,529.4,922.9,529,922,529z M924.4,589.3c-0.5-0.6-1.2-1.1-2-1.2v-53.3c1.4-0.2,2.6-1.4,2.6-2.9c0-0.5-0.1-0.8-0.3-1.2
	l45.9-26.5c0.5,0.6,1.4,1.1,2.3,1.1l0,0v53.3l0,0c-1.6,0-2.9,1.4-2.9,2.9c0,0.5,0.1,0.9,0.4,1.3L924.4,589.3z M1021.7,592.2
	L975.3,619c-0.5-0.8-1.4-1.4-2.4-1.4c-0.9,0-1.7,0.5-2.3,1.1l-45.9-26.5c0.2-0.4,0.3-0.7,0.3-1.2c0-0.5-0.1-0.8-0.3-1.2l45.9-26.5
	c0.5,0.6,1.4,1.1,2.3,1.1c1,0,1.9-0.5,2.4-1.4l46.5,26.8c-0.2,0.4-0.3,0.7-0.3,1.2C1021.6,591.5,1021.6,591.8,1021.7,592.2z
	 M1021.7,530.7c-0.2,0.4-0.3,0.7-0.3,1.2c0,1.5,1.2,2.7,2.6,2.9v53.3c-0.8,0.1-1.5,0.5-2,1.2l-46.5-26.8c0.1-0.3,0.2-0.6,0.2-1
	c0-1.4-1-2.5-2.3-2.8v-53.4c0.7-0.2,1.4-0.6,1.7-1.3L1021.7,530.7z M1024.1,469.8c-1.4,0.2-2.6,1.4-2.6,2.9c0,0.5,0.1,0.8,0.3,1.2
	l-46.5,26.8c-0.4-0.6-1-1.1-1.7-1.3V446c1.3-0.4,2.3-1.4,2.3-2.8c0-0.4-0.1-0.6-0.2-1l46.5-26.8c0.5,0.6,1.2,1.1,2,1.2V469.8z
	 M1021.7,353.3c-0.2,0.4-0.3,0.7-0.3,1.2c0,1.5,1.2,2.7,2.6,2.9v53.3c-0.8,0.1-1.5,0.5-2,1.2L975.6,385c0.1-0.3,0.2-0.6,0.2-1
	c0-1.4-1-2.5-2.3-2.8v-53.4c0.7-0.2,1.4-0.6,1.7-1.3L1021.7,353.3z M1024.1,292.3c-1.4,0.2-2.6,1.4-2.6,2.9c0,0.5,0.1,0.8,0.3,1.2
	l-46.5,26.8c-0.4-0.6-1-1.1-1.7-1.3v-53.4c1.3-0.3,2.3-1.4,2.3-2.8c0-0.4-0.1-0.6-0.2-1l46.5-26.8c0.5,0.6,1.2,1.1,2,1.2V292.3z
	 M1021.7,175.7c-0.2,0.4-0.3,0.7-0.3,1.2c0,1.5,1.2,2.7,2.6,2.9v53.3c-0.8,0.1-1.5,0.5-2,1.2l-46.5-26.8c0.1-0.3,0.2-0.6,0.2-1
	c0-1.4-1-2.5-2.3-2.8v-53.4c0.7-0.2,1.4-0.6,1.7-1.3L1021.7,175.7z"/>
</svg>
